<?xml version="1.0" encoding="utf-8" standalone="no"?>
<!DOCTYPE svg PUBLIC "-//W3C//DTD SVG 1.1//EN"
  "http://www.w3.org/Graphics/SVG/1.1/DTD/svg11.dtd">
<svg xmlns:xlink="http://www.w3.org/1999/xlink" width="488.52pt" height="309.051062pt" viewBox="0 0 488.52 309.051062" xmlns="http://www.w3.org/2000/svg" version="1.1">
 <metadata>
  <rdf:RDF xmlns:dc="http://purl.org/dc/elements/1.1/" xmlns:cc="http://creativecommons.org/ns#" xmlns:rdf="http://www.w3.org/1999/02/22-rdf-syntax-ns#">
   <cc:Work>
    <dc:type rdf:resource="http://purl.org/dc/dcmitype/StillImage"/>
    <dc:date>2023-01-05T14:42:33.283007</dc:date>
    <dc:format>image/svg+xml</dc:format>
    <dc:creator>
     <cc:Agent>
      <dc:title>Matplotlib v3.5.3, https://matplotlib.org/</dc:title>
     </cc:Agent>
    </dc:creator>
   </cc:Work>
  </rdf:RDF>
 </metadata>
 <defs>
  <style type="text/css">*{stroke-linejoin: round; stroke-linecap: butt}</style>
 </defs>
 <g id="figure_1">
  <g id="patch_1">
   <path d="M 0 309.051062 
L 488.52 309.051062 
L 488.52 0 
L 0 0 
z
" style="fill: #ffffff"/>
  </g>
  <g id="axes_1">
   <g id="patch_2">
    <path d="M 124.2 273.312 
L 481.32 273.312 
L 481.32 7.2 
L 124.2 7.2 
z
" style="fill: #ffffff"/>
   </g>
   <g id="patch_3">
    <path d="M 124.2 261.216 
L 189.559572 261.216 
L 189.559572 241.467429 
L 124.2 241.467429 
z
" clip-path="url(#p8807ede890)" style="fill: #0000ff; opacity: 0.5"/>
   </g>
   <g id="patch_4">
    <path d="M 124.2 236.530286 
L 201.4103 236.530286 
L 201.4103 216.781714 
L 124.2 216.781714 
z
" clip-path="url(#p8807ede890)" style="fill: #0000ff; opacity: 0.5"/>
   </g>
   <g id="patch_5">
    <path d="M 124.2 211.844571 
L 215.834566 211.844571 
L 215.834566 192.096 
L 124.2 192.096 
z
" clip-path="url(#p8807ede890)" style="fill: #0000ff; opacity: 0.5"/>
   </g>
   <g id="patch_6">
    <path d="M 124.2 187.158857 
L 219.698597 187.158857 
L 219.698597 167.410286 
L 124.2 167.410286 
z
" clip-path="url(#p8807ede890)" style="fill: #0000ff; opacity: 0.5"/>
   </g>
   <g id="patch_7">
    <path d="M 124.2 162.473143 
L 220.621399 162.473143 
L 220.621399 142.724571 
L 124.2 142.724571 
z
" clip-path="url(#p8807ede890)" style="fill: #0000ff; opacity: 0.5"/>
   </g>
   <g id="patch_8">
    <path d="M 124.2 137.787429 
L 244.454557 137.787429 
L 244.454557 118.038857 
L 124.2 118.038857 
z
" clip-path="url(#p8807ede890)" style="fill: #0000ff; opacity: 0.5"/>
   </g>
   <g id="patch_9">
    <path d="M 124.2 113.101714 
L 257.958403 113.101714 
L 257.958403 93.353143 
L 124.2 93.353143 
z
" clip-path="url(#p8807ede890)" style="fill: #0000ff; opacity: 0.5"/>
   </g>
   <g id="patch_10">
    <path d="M 124.2 88.416 
L 272.418723 88.416 
L 272.418723 68.667429 
L 124.2 68.667429 
z
" clip-path="url(#p8807ede890)" style="fill: #0000ff; opacity: 0.5"/>
   </g>
   <g id="patch_11">
    <path d="M 124.2 63.730286 
L 340.012449 63.730286 
L 340.012449 43.981714 
L 124.2 43.981714 
z
" clip-path="url(#p8807ede890)" style="fill: #0000ff; opacity: 0.5"/>
   </g>
   <g id="patch_12">
    <path d="M 124.2 39.044571 
L 464.314286 39.044571 
L 464.314286 19.296 
L 124.2 19.296 
z
" clip-path="url(#p8807ede890)" style="fill: #0000ff; opacity: 0.5"/>
   </g>
   <g id="matplotlib.axis_1">
    <g id="xtick_1">
     <g id="line2d_1">
      <defs>
       <path id="m08b98c7669" d="M 0 0 
L 0 3.5 
" style="stroke: #000000; stroke-width: 0.8"/>
      </defs>
      <g>
       <use xlink:href="#m08b98c7669" x="124.2" y="273.312" style="stroke: #000000; stroke-width: 0.8"/>
      </g>
     </g>
     <g id="text_1">
      <!-- 0.0 -->
      <g transform="translate(116.7 287.460437)scale(0.1 -0.1)">
       <defs>
        <path id="SimSun-30" d="M 1600 4225 
Q 1250 4225 1012 3687 
Q 775 3150 775 2250 
Q 775 1300 1012 775 
Q 1250 250 1600 250 
Q 1975 250 2187 775 
Q 2400 1300 2400 2250 
Q 2400 3150 2200 3687 
Q 2000 4225 1600 4225 
z
M 1600 50 
Q 1050 50 675 625 
Q 300 1200 300 2250 
Q 300 3225 662 3825 
Q 1025 4425 1600 4425 
Q 2150 4425 2512 3850 
Q 2875 3275 2875 2250 
Q 2875 1225 2512 637 
Q 2150 50 1600 50 
z
" transform="scale(0.015625)"/>
        <path id="SimSun-2e" d="M 800 25 
Q 650 25 537 125 
Q 425 225 425 400 
Q 425 575 537 675 
Q 650 775 800 775 
Q 950 775 1062 662 
Q 1175 550 1175 400 
Q 1175 225 1062 125 
Q 950 25 800 25 
z
" transform="scale(0.015625)"/>
       </defs>
       <use xlink:href="#SimSun-30"/>
       <use xlink:href="#SimSun-2e" x="50"/>
       <use xlink:href="#SimSun-30" x="100"/>
      </g>
     </g>
    </g>
    <g id="xtick_2">
     <g id="line2d_2">
      <g>
       <use xlink:href="#m08b98c7669" x="183.793322" y="273.312" style="stroke: #000000; stroke-width: 0.8"/>
      </g>
     </g>
     <g id="text_2">
      <!-- 0.2 -->
      <g transform="translate(176.293322 287.460437)scale(0.1 -0.1)">
       <defs>
        <path id="SimSun-32" d="M 2325 3325 
Q 2325 3775 2125 4012 
Q 1925 4250 1525 4250 
Q 1225 4250 1012 4087 
Q 800 3925 800 3675 
Q 800 3525 900 3425 
Q 975 3325 975 3225 
Q 975 3100 912 3037 
Q 850 2975 725 2975 
Q 575 2975 487 3062 
Q 400 3150 400 3350 
Q 400 3875 775 4150 
Q 1150 4425 1575 4425 
Q 2175 4425 2462 4125 
Q 2750 3825 2750 3375 
Q 2750 3075 2612 2775 
Q 2475 2475 2175 2200 
Q 1450 1500 1062 1062 
Q 675 625 600 475 
L 2075 475 
Q 2300 475 2450 650 
Q 2600 825 2650 1175 
L 2800 1175 
L 2650 100 
L 325 100 
L 325 425 
Q 450 650 737 1000 
Q 1025 1350 1500 1825 
Q 1925 2250 2125 2625 
Q 2325 3000 2325 3325 
z
" transform="scale(0.015625)"/>
       </defs>
       <use xlink:href="#SimSun-30"/>
       <use xlink:href="#SimSun-2e" x="50"/>
       <use xlink:href="#SimSun-32" x="100"/>
      </g>
     </g>
    </g>
    <g id="xtick_3">
     <g id="line2d_3">
      <g>
       <use xlink:href="#m08b98c7669" x="243.386644" y="273.312" style="stroke: #000000; stroke-width: 0.8"/>
      </g>
     </g>
     <g id="text_3">
      <!-- 0.4 -->
      <g transform="translate(235.886644 287.460437)scale(0.1 -0.1)">
       <defs>
        <path id="SimSun-34" d="M 2300 575 
Q 2300 400 2400 325 
Q 2500 250 2675 250 
L 2900 250 
L 2900 100 
L 1250 100 
L 1250 250 
L 1525 250 
Q 1725 250 1812 325 
Q 1900 400 1900 575 
L 1900 1400 
L 225 1400 
L 225 1525 
L 2050 4425 
L 2300 4425 
L 2300 1550 
L 2975 1550 
L 2975 1400 
L 2300 1400 
L 2300 575 
z
M 1875 3800 
L 450 1550 
L 1900 1550 
L 1900 3800 
L 1875 3800 
z
" transform="scale(0.015625)"/>
       </defs>
       <use xlink:href="#SimSun-30"/>
       <use xlink:href="#SimSun-2e" x="50"/>
       <use xlink:href="#SimSun-34" x="100"/>
      </g>
     </g>
    </g>
    <g id="xtick_4">
     <g id="line2d_4">
      <g>
       <use xlink:href="#m08b98c7669" x="302.979966" y="273.312" style="stroke: #000000; stroke-width: 0.8"/>
      </g>
     </g>
     <g id="text_4">
      <!-- 0.6 -->
      <g transform="translate(295.479966 287.460437)scale(0.1 -0.1)">
       <defs>
        <path id="SimSun-36" d="M 775 1800 
Q 775 1050 1037 637 
Q 1300 225 1675 225 
Q 2050 225 2250 500 
Q 2450 775 2450 1525 
Q 2450 2025 2237 2300 
Q 2025 2575 1725 2575 
Q 1450 2575 1212 2412 
Q 975 2250 775 1800 
z
M 1750 2825 
Q 2350 2825 2612 2425 
Q 2875 2025 2875 1525 
Q 2875 775 2512 412 
Q 2150 50 1675 50 
Q 1000 50 650 562 
Q 300 1075 300 2050 
Q 300 3200 725 3812 
Q 1150 4425 1875 4425 
Q 2225 4425 2437 4225 
Q 2650 4025 2650 3875 
Q 2650 3725 2587 3650 
Q 2525 3575 2375 3575 
Q 2250 3575 2187 3637 
Q 2125 3700 2125 3825 
Q 2125 3875 2150 3925 
Q 2150 3975 2150 4025 
Q 2150 4125 2075 4187 
Q 2000 4250 1800 4250 
Q 1375 4250 1075 3862 
Q 775 3475 775 2175 
Q 925 2500 1187 2662 
Q 1450 2825 1750 2825 
z
" transform="scale(0.015625)"/>
       </defs>
       <use xlink:href="#SimSun-30"/>
       <use xlink:href="#SimSun-2e" x="50"/>
       <use xlink:href="#SimSun-36" x="100"/>
      </g>
     </g>
    </g>
    <g id="xtick_5">
     <g id="line2d_5">
      <g>
       <use xlink:href="#m08b98c7669" x="362.573289" y="273.312" style="stroke: #000000; stroke-width: 0.8"/>
      </g>
     </g>
     <g id="text_5">
      <!-- 0.8 -->
      <g transform="translate(355.073289 287.460437)scale(0.1 -0.1)">
       <defs>
        <path id="SimSun-38" d="M 625 1125 
Q 625 725 887 475 
Q 1150 225 1550 225 
Q 2025 225 2237 475 
Q 2450 725 2450 1100 
Q 2450 1425 2150 1725 
Q 1850 2025 1250 2275 
Q 950 2075 787 1775 
Q 625 1475 625 1125 
z
M 2825 1175 
Q 2825 700 2475 375 
Q 2125 50 1550 50 
Q 1025 50 650 375 
Q 275 700 275 1125 
Q 275 1550 487 1850 
Q 700 2150 1100 2375 
Q 750 2550 562 2812 
Q 375 3075 375 3400 
Q 375 3825 700 4125 
Q 1025 4425 1600 4425 
Q 2125 4425 2450 4125 
Q 2775 3825 2775 3400 
Q 2775 3100 2587 2837 
Q 2400 2575 2000 2375 
Q 2425 2125 2625 1825 
Q 2825 1525 2825 1175 
z
M 2425 3375 
Q 2425 3725 2225 3987 
Q 2025 4250 1600 4250 
Q 1125 4250 925 4000 
Q 725 3750 725 3475 
Q 725 3200 1012 2937 
Q 1300 2675 1825 2475 
Q 2125 2625 2275 2850 
Q 2425 3075 2425 3375 
z
" transform="scale(0.015625)"/>
       </defs>
       <use xlink:href="#SimSun-30"/>
       <use xlink:href="#SimSun-2e" x="50"/>
       <use xlink:href="#SimSun-38" x="100"/>
      </g>
     </g>
    </g>
    <g id="xtick_6">
     <g id="line2d_6">
      <g>
       <use xlink:href="#m08b98c7669" x="422.166611" y="273.312" style="stroke: #000000; stroke-width: 0.8"/>
      </g>
     </g>
     <g id="text_6">
      <!-- 1.0 -->
      <g transform="translate(414.666611 287.460437)scale(0.1 -0.1)">
       <defs>
        <path id="SimSun-31" d="M 1825 4450 
L 1825 650 
Q 1825 450 1950 350 
Q 2075 250 2300 250 
L 2550 250 
L 2550 100 
L 725 100 
L 725 250 
L 950 250 
Q 1200 250 1312 350 
Q 1425 450 1425 650 
L 1425 3675 
Q 1425 3775 1362 3837 
Q 1300 3900 1175 3900 
L 725 3900 
L 725 4050 
L 950 4050 
Q 1250 4050 1437 4150 
Q 1625 4250 1725 4450 
L 1825 4450 
z
" transform="scale(0.015625)"/>
       </defs>
       <use xlink:href="#SimSun-31"/>
       <use xlink:href="#SimSun-2e" x="50"/>
       <use xlink:href="#SimSun-30" x="100"/>
      </g>
     </g>
    </g>
    <g id="text_7">
     <!-- 销售量 -->
     <g transform="translate(287.76 300.562)scale(0.1 -0.1)">
      <defs>
       <path id="SimSun-9500" d="M 4100 3250 
Q 4100 4250 4075 5225 
L 4675 4975 
L 4450 4775 
L 4450 3250 
L 5225 3250 
L 5425 3525 
L 5825 3200 
L 5625 3025 
L 5625 75 
Q 5650 -375 5100 -575 
Q 5025 -200 4400 -75 
L 4400 25 
Q 4775 0 5037 0 
Q 5300 0 5275 325 
L 5275 1150 
L 3275 1150 
L 3275 -425 
L 2900 -600 
Q 2925 75 2925 1437 
Q 2925 2800 2900 3500 
L 3275 3250 
L 4100 3250 
z
M 2825 4725 
Q 3400 4375 3550 4212 
Q 3700 4050 3700 3925 
Q 3700 3800 3600 3650 
Q 3500 3500 3450 3500 
Q 3350 3500 3300 3750 
Q 3175 4125 2750 4675 
L 2825 4725 
z
M 5425 4825 
L 5925 4425 
L 5650 4350 
Q 5250 3925 4800 3475 
L 4725 3525 
Q 5150 4125 5425 4825 
z
M 3275 3100 
L 3275 2300 
L 5275 2300 
L 5275 3100 
L 3275 3100 
z
M 3275 2150 
L 3275 1300 
L 5275 1300 
L 5275 2150 
L 3275 2150 
z
M 1650 350 
L 2500 825 
L 2575 750 
Q 1725 75 1500 -375 
L 1175 25 
Q 1300 125 1300 375 
L 1300 1725 
L 1150 1725 
Q 825 1725 550 1650 
L 325 1875 
L 1300 1875 
L 1300 2875 
L 800 2875 
Q 625 2650 350 2350 
L 275 2400 
Q 950 3400 1350 5100 
L 1875 4800 
Q 1675 4675 1575 4462 
Q 1475 4250 1375 4000 
L 2075 4000 
L 2375 4350 
L 2800 3850 
L 1325 3850 
Q 1075 3350 875 3025 
L 2000 3025 
L 2275 3325 
L 2675 2875 
L 1650 2875 
L 1650 1875 
L 2125 1875 
L 2400 2175 
L 2775 1725 
L 1650 1725 
L 1650 350 
z
" transform="scale(0.015625)"/>
       <path id="SimSun-552e" d="M 1725 2550 
L 1725 1950 
L 3300 1950 
L 3300 2550 
L 1725 2550 
z
M 1850 5225 
L 2375 4875 
L 2175 4775 
Q 1900 4400 1775 4200 
L 5075 4200 
L 5425 4550 
L 5925 4050 
L 3625 4050 
L 3625 3425 
L 4800 3425 
L 5100 3725 
L 5550 3275 
L 3625 3275 
L 3625 2700 
L 4725 2700 
L 5025 3000 
L 5475 2550 
L 3625 2550 
L 3625 1950 
L 5200 1950 
L 5550 2300 
L 6050 1800 
L 1725 1800 
L 1725 1600 
L 1350 1450 
Q 1375 2150 1375 2600 
L 1375 3625 
Q 975 3100 325 2550 
L 250 2625 
Q 750 3125 1212 3862 
Q 1675 4600 1850 5225 
z
M 3200 5225 
Q 3875 4850 3875 4637 
Q 3875 4425 3762 4325 
Q 3650 4225 3625 4225 
Q 3525 4225 3475 4475 
Q 3400 4825 3125 5175 
L 3200 5225 
z
M 1725 4050 
L 1725 3425 
L 3300 3425 
L 3300 4050 
L 1725 4050 
z
M 1725 3275 
L 1725 2700 
L 3300 2700 
L 3300 3275 
L 1725 3275 
z
M 1975 1100 
L 1975 -100 
L 4775 -100 
L 4775 1100 
L 1975 1100 
z
M 5125 175 
Q 5125 -125 5150 -425 
L 4775 -575 
L 4775 -250 
L 1975 -250 
L 1975 -450 
L 1600 -600 
Q 1625 -75 1625 512 
Q 1625 1100 1600 1475 
L 1975 1250 
L 4725 1250 
L 4900 1500 
L 5325 1175 
L 5125 1025 
L 5125 175 
z
" transform="scale(0.015625)"/>
       <path id="SimSun-91cf" d="M 1700 2400 
L 1700 1875 
L 3025 1875 
L 3025 2400 
L 1700 2400 
z
M 3350 2400 
L 3350 1875 
L 4625 1875 
L 4625 2400 
L 3350 2400 
z
M 1700 1725 
L 1700 1225 
L 3025 1225 
L 3025 1725 
L 1700 1725 
z
M 3350 1725 
L 3350 1225 
L 4625 1225 
L 4625 1725 
L 3350 1725 
z
M 4950 2325 
Q 4950 1350 4975 1025 
L 4625 875 
L 4625 1075 
L 3350 1075 
L 3350 525 
L 4700 525 
L 5050 825 
L 5450 375 
L 3350 375 
L 3350 -225 
L 5275 -225 
L 5650 125 
L 6075 -375 
L 1175 -375 
Q 850 -375 575 -450 
L 350 -225 
L 3025 -225 
L 3025 375 
L 1725 375 
Q 1400 375 1125 300 
L 900 525 
L 3025 525 
L 3025 1075 
L 1700 1075 
L 1700 925 
L 1350 800 
Q 1375 1300 1375 1787 
Q 1375 2275 1350 2750 
L 1700 2550 
L 4600 2550 
L 4750 2750 
L 5125 2475 
L 4950 2325 
z
M 1775 4800 
L 1775 4375 
L 4550 4375 
L 4550 4800 
L 1775 4800 
z
M 1775 4225 
L 1775 3775 
L 4550 3775 
L 4550 4225 
L 1775 4225 
z
M 4875 4750 
Q 4875 3825 4900 3525 
L 4550 3375 
L 4550 3625 
L 1775 3625 
L 1775 3400 
L 1425 3250 
Q 1450 3650 1450 4262 
Q 1450 4875 1425 5125 
L 1800 4950 
L 4500 4950 
L 4650 5175 
L 5050 4900 
L 4875 4750 
z
M 250 3125 
L 5375 3125 
L 5725 3450 
L 6150 2975 
L 950 2975 
Q 750 2975 475 2900 
L 250 3125 
z
" transform="scale(0.015625)"/>
      </defs>
      <use xlink:href="#SimSun-9500"/>
      <use xlink:href="#SimSun-552e" x="100"/>
      <use xlink:href="#SimSun-91cf" x="200"/>
     </g>
    </g>
    <g id="text_8">
     <!-- 1e6 -->
     <g transform="translate(466.32 298.897937)scale(0.1 -0.1)">
      <defs>
       <path id="SimSun-65" d="M 2400 1650 
Q 2425 2200 2212 2487 
Q 2000 2775 1650 2775 
Q 1275 2775 1037 2475 
Q 800 2175 800 1650 
L 2400 1650 
z
M 800 1500 
Q 800 825 1062 537 
Q 1325 250 1750 250 
Q 2075 250 2300 437 
Q 2525 625 2625 900 
L 2750 850 
Q 2675 575 2412 312 
Q 2150 50 1700 50 
Q 1125 50 762 425 
Q 400 800 400 1500 
Q 400 2125 762 2537 
Q 1125 2950 1650 2950 
Q 2125 2950 2475 2625 
Q 2825 2300 2825 1500 
L 800 1500 
z
" transform="scale(0.015625)"/>
      </defs>
      <use xlink:href="#SimSun-31"/>
      <use xlink:href="#SimSun-65" x="50"/>
      <use xlink:href="#SimSun-36" x="100"/>
     </g>
    </g>
   </g>
   <g id="matplotlib.axis_2">
    <g id="ytick_1">
     <g id="line2d_7">
      <defs>
       <path id="m34b6a6e982" d="M 0 0 
L -3.5 0 
" style="stroke: #000000; stroke-width: 0.8"/>
      </defs>
      <g>
       <use xlink:href="#m34b6a6e982" x="124.2" y="251.341714" style="stroke: #000000; stroke-width: 0.8"/>
      </g>
     </g>
     <g id="text_9">
      <!-- 维生素AD滴剂（胶囊型） -->
      <g transform="translate(7.2 255.345621)scale(0.1 -0.1)">
       <defs>
        <path id="SimSun-7ef4" d="M 1000 1550 
Q 1825 1700 2525 1850 
L 2550 1750 
Q 1975 1600 1450 1375 
Q 925 1150 775 975 
L 425 1475 
Q 600 1500 912 1825 
Q 1225 2150 1650 2875 
Q 1425 2825 1150 2750 
Q 875 2675 675 2475 
L 350 2925 
Q 600 2975 950 3787 
Q 1300 4600 1425 5125 
L 1975 4825 
L 1750 4725 
Q 1400 4100 725 2925 
L 1725 3025 
Q 2050 3675 2175 4100 
L 2625 3750 
L 2450 3650 
Q 1750 2400 1000 1550 
z
M 475 250 
Q 675 300 1150 450 
Q 1625 600 2600 925 
L 2625 825 
Q 1950 525 1462 275 
Q 975 25 825 -200 
L 475 250 
z
M 3225 2500 
L 3225 1450 
L 4275 1450 
L 4275 2500 
L 3225 2500 
z
M 3225 1300 
L 3225 150 
L 4275 150 
L 4275 1300 
L 3225 1300 
z
M 4100 5075 
Q 4825 4725 4862 4537 
Q 4900 4350 4787 4212 
Q 4675 4075 4625 4075 
Q 4550 4075 4500 4275 
Q 4400 4600 4050 5025 
L 4100 5075 
z
M 2875 -625 
Q 2900 25 2900 3200 
Q 2700 2800 2250 2175 
L 2175 2225 
Q 2575 2950 2850 3750 
Q 3125 4550 3250 5250 
L 3825 4925 
L 3625 4800 
Q 3500 4500 3225 3850 
L 5225 3850 
L 5575 4200 
L 6000 3700 
L 4600 3700 
L 4600 2650 
L 5125 2650 
L 5475 3000 
L 5875 2500 
L 4600 2500 
L 4600 1450 
L 5100 1450 
L 5450 1775 
L 5875 1300 
L 4600 1300 
L 4600 150 
L 5350 150 
L 5700 500 
L 6125 0 
L 3225 0 
L 3225 -450 
L 2875 -625 
z
M 4275 3700 
L 3225 3700 
L 3225 2650 
L 4275 2650 
L 4275 3700 
z
" transform="scale(0.015625)"/>
        <path id="SimSun-751f" d="M 1575 4825 
L 2150 4500 
Q 1900 4375 1550 3575 
L 3025 3575 
Q 3025 4725 3000 5250 
L 3600 5000 
L 3400 4825 
L 3400 3575 
L 4825 3575 
L 5200 3950 
L 5675 3425 
L 3400 3425 
L 3400 1875 
L 4525 1875 
L 4925 2250 
L 5375 1725 
L 3400 1725 
L 3400 -75 
L 5200 -75 
L 5600 325 
L 6100 -225 
L 1125 -225 
Q 800 -225 525 -300 
L 300 -75 
L 3025 -75 
L 3025 1725 
L 2075 1725 
Q 1750 1725 1475 1650 
L 1250 1875 
L 3025 1875 
L 3025 3425 
L 1500 3425 
Q 925 2350 475 1900 
L 400 1950 
Q 825 2600 1125 3375 
Q 1425 4150 1575 4825 
z
" transform="scale(0.015625)"/>
        <path id="SimSun-7d20" d="M 2025 1275 
L 4500 1450 
Q 4275 1725 3975 1975 
L 4025 2050 
Q 4600 1775 4875 1575 
Q 5150 1375 5137 1175 
Q 5125 975 5062 900 
Q 5000 825 4975 825 
Q 4900 825 4850 950 
Q 4725 1150 4600 1325 
L 3375 1175 
L 3375 -50 
Q 3400 -500 2800 -650 
Q 2775 -275 2025 -125 
L 2025 -25 
Q 2700 -75 2862 -75 
Q 3025 -75 3025 100 
L 3025 1150 
Q 2150 1025 1887 950 
Q 1625 875 1425 775 
L 1175 1250 
Q 1450 1300 1950 1500 
Q 2450 1700 3350 2225 
Q 2750 2175 2312 2100 
Q 1875 2025 1600 1875 
L 1350 2325 
Q 1625 2375 1937 2562 
Q 2250 2750 2525 3025 
L 1150 3025 
Q 825 3025 550 2950 
L 325 3175 
L 3025 3175 
L 3025 3725 
L 2125 3725 
Q 1800 3725 1525 3650 
L 1300 3875 
L 3025 3875 
L 3025 4425 
L 1675 4425 
Q 1350 4425 1075 4350 
L 850 4575 
L 3025 4575 
Q 3025 5000 3000 5250 
L 3600 5025 
L 3375 4875 
L 3375 4575 
L 4875 4575 
L 5200 4875 
L 5650 4425 
L 3375 4425 
L 3375 3875 
L 4425 3875 
L 4775 4150 
L 5175 3725 
L 3375 3725 
L 3375 3175 
L 5300 3175 
L 5675 3475 
L 6100 3025 
L 2725 3025 
L 3025 2850 
Q 2825 2800 2475 2625 
Q 2100 2450 1725 2275 
L 3475 2350 
Q 3750 2575 3975 2850 
L 4400 2500 
Q 4175 2450 3675 2150 
Q 3150 1825 2025 1275 
z
M 2025 875 
L 2450 475 
Q 2200 450 1600 50 
Q 1000 -350 500 -525 
L 450 -450 
Q 1000 -150 1387 200 
Q 1775 550 2025 875 
z
M 3925 800 
Q 4875 450 5212 275 
Q 5550 100 5575 -87 
Q 5600 -275 5537 -387 
Q 5475 -500 5450 -500 
Q 5325 -500 5150 -250 
Q 4850 125 3875 725 
L 3925 800 
z
" transform="scale(0.015625)"/>
        <path id="SimSun-41" d="M 2025 1700 
L 900 1700 
L 675 750 
Q 650 625 650 550 
Q 650 450 687 350 
Q 725 250 900 250 
L 975 250 
L 975 100 
L 50 100 
L 50 250 
L 125 250 
Q 225 250 300 312 
Q 375 375 400 525 
L 1375 4350 
L 1750 4475 
L 2700 525 
Q 2750 375 2825 312 
Q 2900 250 3000 250 
L 3075 250 
L 3075 100 
L 2000 100 
L 2000 250 
L 2100 250 
Q 2250 250 2275 312 
Q 2300 375 2300 425 
Q 2300 525 2275 600 
L 2025 1700 
z
M 325 250 
L 325 250 
z
M 575 250 
L 575 250 
z
M 2350 250 
L 2350 250 
z
M 2775 250 
L 2775 250 
z
M 1500 3925 
L 1475 3925 
L 950 1850 
L 2000 1850 
L 1500 3925 
z
" transform="scale(0.015625)"/>
        <path id="SimSun-44" d="M 2500 2275 
Q 2500 3350 2175 3787 
Q 1850 4225 1275 4225 
Q 1100 4225 1012 4175 
Q 925 4125 925 4025 
L 925 450 
Q 925 350 1000 300 
Q 1075 250 1200 250 
Q 1750 250 2125 662 
Q 2500 1075 2500 2275 
z
M 525 4025 
Q 525 4125 475 4175 
Q 425 4225 300 4225 
L 150 4225 
L 150 4375 
L 1275 4375 
Q 2050 4375 2512 3875 
Q 2975 3375 2975 2325 
Q 2975 1175 2525 637 
Q 2075 100 1200 100 
L 125 100 
L 125 250 
L 300 250 
Q 425 250 475 300 
Q 525 350 525 450 
L 525 4025 
z
" transform="scale(0.015625)"/>
        <path id="SimSun-6ef4" d="M 2175 -575 
Q 2200 250 2200 1337 
Q 2200 2425 2175 3350 
L 2525 3150 
L 4100 3150 
Q 4425 3775 4525 4150 
L 2600 4150 
Q 2275 4150 2000 4075 
L 1775 4300 
L 5375 4300 
L 5675 4600 
L 6100 4150 
L 4600 4150 
L 5000 3875 
Q 4800 3800 4587 3550 
Q 4375 3300 4250 3150 
L 5150 3150 
L 5400 3400 
L 5750 3050 
L 5550 2875 
L 5550 50 
Q 5525 -450 4975 -600 
Q 4850 -250 4225 -75 
L 4225 25 
Q 4925 -50 5062 -50 
Q 5200 -50 5200 100 
L 5200 3000 
L 3675 3000 
L 4125 2825 
L 3950 2650 
L 3950 2325 
L 4350 2325 
L 4600 2575 
L 4975 2175 
L 3950 2175 
L 3950 1575 
L 4300 1575 
L 4500 1775 
L 4800 1475 
L 4625 1325 
Q 4625 600 4650 325 
L 4300 200 
L 4300 500 
L 3350 500 
L 3350 250 
L 3000 100 
Q 3025 475 3025 887 
Q 3025 1300 3000 1750 
L 3350 1575 
L 3650 1575 
L 3650 2175 
L 3525 2175 
Q 3200 2175 2925 2100 
L 2700 2325 
L 3650 2325 
Q 3650 2725 3625 3000 
L 2525 3000 
L 2525 -450 
L 2175 -575 
z
M 3325 5250 
Q 3825 5050 3937 4912 
Q 4050 4775 4050 4675 
Q 4050 4550 3975 4437 
Q 3900 4325 3875 4325 
Q 3800 4325 3700 4575 
Q 3575 4900 3300 5175 
L 3325 5250 
z
M 2850 4100 
Q 3350 3875 3425 3737 
Q 3500 3600 3500 3525 
Q 3500 3425 3412 3312 
Q 3325 3200 3300 3200 
Q 3225 3200 3150 3450 
Q 3050 3800 2800 4025 
L 2850 4100 
z
M 3350 1425 
L 3350 650 
L 4300 650 
L 4300 1425 
L 3350 1425 
z
M 2075 3825 
Q 1425 1450 1350 1150 
Q 1250 825 1262 375 
Q 1275 -75 1300 -250 
Q 1300 -350 1175 -350 
Q 1075 -350 925 -300 
Q 775 -250 775 -75 
Q 775 50 850 300 
Q 925 550 925 700 
Q 925 875 812 975 
Q 700 1075 325 1175 
L 325 1275 
Q 775 1225 887 1237 
Q 1000 1250 1137 1462 
Q 1275 1675 1975 3850 
L 2075 3825 
z
M 350 3550 
Q 1225 3100 1225 2812 
Q 1225 2525 1087 2425 
Q 950 2325 850 2675 
Q 725 3000 300 3475 
L 350 3550 
z
M 775 5000 
Q 1475 4650 1537 4475 
Q 1600 4300 1600 4225 
Q 1600 4100 1512 4000 
Q 1425 3900 1375 3900 
Q 1300 3900 1225 4150 
Q 1100 4475 725 4925 
L 775 5000 
z
" transform="scale(0.015625)"/>
        <path id="SimSun-5242" d="M 4575 3975 
L 4575 1800 
Q 4575 1375 4600 1025 
L 4225 850 
Q 4250 1600 4250 2637 
Q 4250 3675 4225 4425 
L 4775 4150 
L 4575 3975 
z
M 5500 125 
L 5500 3875 
Q 5500 4725 5475 5075 
L 6025 4800 
L 5825 4600 
L 5825 75 
Q 5825 -450 5225 -675 
Q 5150 -275 4250 -50 
L 4250 50 
Q 5175 -50 5337 -37 
Q 5500 -25 5500 125 
z
M 3200 4075 
Q 2900 3650 2525 3200 
Q 3250 2950 3487 2800 
Q 3725 2650 3775 2537 
Q 3825 2425 3825 2375 
Q 3825 2300 3800 2225 
Q 3775 2150 3725 2150 
Q 3625 2150 3375 2375 
Q 3025 2675 2350 3000 
Q 1575 2325 300 1850 
L 275 1950 
Q 1475 2525 2075 3125 
Q 1575 3375 925 3575 
L 950 3675 
Q 1550 3525 2225 3300 
Q 2525 3650 2775 4075 
L 1225 4075 
Q 900 4075 625 4000 
L 400 4225 
L 3250 4225 
L 3550 4525 
L 4000 4075 
L 3200 4075 
z
M 1750 5200 
L 1800 5275 
Q 2550 4900 2500 4650 
Q 2450 4400 2325 4337 
Q 2200 4275 2125 4575 
Q 2025 4875 1750 5200 
z
M 2700 -575 
Q 2725 125 2725 987 
Q 2725 1850 2700 2225 
L 3225 2000 
L 3050 1850 
L 3050 375 
Q 3050 0 3075 -375 
L 2700 -575 
z
M 375 -500 
Q 925 -25 1125 400 
Q 1325 825 1325 1550 
Q 1325 1900 1300 2200 
L 1850 2000 
L 1675 1825 
Q 1700 900 1462 412 
Q 1225 -75 450 -575 
L 375 -500 
z
" transform="scale(0.015625)"/>
        <path id="SimSun-ff08" d="M 5087 200 
Q 5475 -100 5425 -150 
Q 5375 -200 4950 87 
Q 4525 375 4137 850 
Q 3750 1325 3687 2100 
Q 3625 2875 4000 3487 
Q 4375 4100 4887 4462 
Q 5400 4825 5412 4762 
Q 5425 4700 5075 4425 
Q 4725 4125 4387 3600 
Q 4050 3075 4050 2250 
Q 4050 1425 4375 962 
Q 4700 500 5087 200 
z
" transform="scale(0.015625)"/>
        <path id="SimSun-80f6" d="M 3750 5275 
Q 4225 5025 4362 4875 
Q 4500 4725 4487 4575 
Q 4475 4425 4387 4362 
Q 4300 4300 4275 4300 
Q 4175 4300 4125 4525 
Q 4025 4825 3700 5225 
L 3750 5275 
z
M 2575 4125 
L 5325 4125 
L 5625 4425 
L 6050 3975 
L 3400 3975 
Q 3075 3975 2800 3900 
L 2575 4125 
z
M 3525 3825 
L 3975 3450 
L 3750 3375 
Q 3050 2625 2525 2275 
L 2475 2350 
Q 2800 2675 3100 3100 
Q 3400 3525 3525 3825 
z
M 4700 3675 
Q 5200 3400 5437 3212 
Q 5675 3025 5750 2900 
Q 5825 2775 5825 2725 
Q 5825 2625 5750 2500 
Q 5675 2375 5625 2375 
Q 5550 2375 5450 2625 
Q 5275 3000 4650 3600 
L 4700 3675 
z
M 5125 2200 
Q 4725 1325 4275 750 
Q 4650 375 5025 187 
Q 5400 0 6050 -100 
L 6050 -175 
Q 5700 -200 5525 -500 
Q 5050 -300 4712 -37 
Q 4375 225 4100 550 
Q 3750 225 3237 -87 
Q 2725 -400 1925 -650 
L 1900 -550 
Q 2575 -275 3150 137 
Q 3725 550 3900 825 
Q 3675 1250 3500 1712 
Q 3325 2175 3250 2525 
L 3350 2550 
Q 3800 1400 4100 1025 
Q 4500 1550 4825 2650 
L 5300 2325 
L 5125 2200 
z
M 1125 4575 
L 1125 3375 
L 2000 3375 
L 2000 4575 
L 1125 4575 
z
M 1125 3225 
L 1125 2000 
L 2000 2000 
L 2000 3225 
L 1125 3225 
z
M 225 -550 
Q 500 -50 637 462 
Q 775 975 800 1362 
Q 825 1750 825 2987 
Q 825 4225 800 4975 
L 1150 4725 
L 1950 4725 
L 2200 4975 
L 2525 4650 
L 2325 4500 
L 2325 250 
Q 2325 0 2237 -125 
Q 2150 -250 1850 -375 
Q 1775 -50 1250 75 
L 1250 175 
Q 1725 125 1862 137 
Q 2000 150 2000 300 
L 2000 1850 
L 1125 1850 
Q 1100 1125 925 550 
Q 750 -25 325 -600 
L 225 -550 
z
" transform="scale(0.015625)"/>
        <path id="SimSun-56ca" d="M 3000 4700 
Q 3000 4875 2975 5275 
L 3525 5050 
L 3325 4875 
L 3325 4700 
L 5100 4700 
L 5400 5000 
L 5850 4550 
L 3325 4550 
L 3325 4300 
L 4525 4300 
L 4675 4475 
L 5025 4200 
L 4875 4075 
Q 4875 3850 4900 3650 
L 4550 3500 
L 4550 3650 
L 3325 3650 
L 3325 3450 
L 5375 3450 
L 5600 3700 
L 6000 3250 
Q 5675 3250 5150 2675 
L 5075 2725 
L 5400 3300 
L 900 3300 
Q 925 2900 812 2775 
Q 700 2650 537 2662 
Q 375 2675 375 2775 
Q 375 2850 475 2975 
Q 700 3225 775 3700 
L 875 3700 
L 900 3450 
L 3000 3450 
L 3000 3650 
L 1850 3650 
L 1850 3600 
L 1525 3500 
Q 1550 3750 1550 3937 
Q 1550 4125 1525 4425 
L 1850 4300 
L 3000 4300 
L 3000 4550 
L 1400 4550 
Q 1075 4550 800 4475 
L 575 4700 
L 3000 4700 
z
M 3000 900 
Q 2600 600 2275 375 
L 2275 -175 
L 3250 225 
L 3300 150 
Q 2250 -400 2100 -650 
L 1825 -325 
Q 1925 -200 1925 -75 
Q 1925 50 1925 175 
Q 1200 -200 275 -425 
L 250 -350 
Q 925 -100 1487 200 
Q 2050 500 2500 875 
L 1150 875 
Q 825 875 550 800 
L 325 1025 
L 2275 1025 
L 2275 1350 
L 1825 1350 
Q 1500 1350 1225 1275 
L 1000 1500 
L 2275 1500 
L 2275 1800 
L 1525 1800 
Q 1200 1800 925 1725 
L 700 1950 
L 2275 1950 
Q 2275 2150 2250 2400 
L 2550 2300 
L 2550 2425 
L 1725 2425 
L 1725 2300 
L 1400 2200 
Q 1425 2425 1425 2650 
Q 1425 2875 1400 3175 
L 1725 3000 
L 2500 3000 
L 2650 3200 
L 3000 2950 
L 2850 2825 
Q 2850 2575 2875 2375 
L 2575 2275 
L 2775 2200 
L 2600 2050 
L 2600 1950 
L 3700 1950 
Q 3700 2175 3675 2450 
L 3350 2275 
Q 3375 2475 3375 2687 
Q 3375 2900 3350 3175 
L 3675 3000 
L 4550 3000 
L 4700 3175 
L 5025 2950 
L 4875 2825 
Q 4875 2575 4900 2400 
L 4575 2275 
L 4575 2425 
L 3725 2425 
L 4200 2200 
L 4025 2100 
L 4025 1950 
L 4750 1950 
L 5075 2275 
L 5550 1800 
L 4025 1800 
L 4025 1500 
L 4650 1500 
L 4925 1775 
L 5350 1350 
L 4025 1350 
L 4025 1025 
L 5250 1025 
L 5600 1375 
L 6100 875 
L 3150 875 
Q 3475 400 3950 150 
Q 4400 575 4525 850 
L 4925 500 
Q 4600 500 4075 100 
Q 4950 -200 6050 -150 
L 6050 -250 
Q 5575 -375 5550 -600 
Q 4575 -450 3975 -137 
Q 3375 175 3000 900 
z
M 1850 4150 
L 1850 3800 
L 3000 3800 
L 3000 4150 
L 1850 4150 
z
M 3325 4150 
L 3325 3800 
L 4550 3800 
L 4550 4150 
L 3325 4150 
z
M 1725 2850 
L 1725 2575 
L 2550 2575 
L 2550 2850 
L 1725 2850 
z
M 3675 2850 
L 3675 2575 
L 4575 2575 
L 4575 2850 
L 3675 2850 
z
M 2600 1800 
L 2600 1500 
L 3700 1500 
L 3700 1800 
L 2600 1800 
z
M 2600 1350 
L 2600 1025 
L 3700 1025 
L 3700 1350 
L 2600 1350 
z
" transform="scale(0.015625)"/>
        <path id="SimSun-578b" d="M 2575 1675 
Q 2600 2250 2600 2600 
L 2600 3400 
L 1875 3400 
Q 1825 2075 500 1350 
L 450 1425 
Q 1475 2200 1550 3400 
L 1300 3400 
Q 975 3400 700 3325 
L 475 3550 
L 1550 3550 
L 1550 4600 
L 1225 4600 
L 925 4550 
L 725 4750 
L 3000 4750 
L 3300 5050 
L 3750 4600 
L 2925 4600 
L 2925 3550 
L 3200 3550 
L 3525 3875 
L 4000 3400 
L 2925 3400 
L 2925 2600 
Q 2925 2100 2950 1875 
L 2575 1675 
z
M 1875 4600 
L 1875 3550 
L 2600 3550 
L 2600 4600 
L 1875 4600 
z
M 4175 2525 
Q 4200 3100 4200 3650 
Q 4200 4200 4175 4600 
L 4700 4400 
L 4525 4225 
L 4525 2650 
L 4175 2525 
z
M 5200 5225 
L 5725 4975 
L 5550 4800 
L 5550 2225 
Q 5600 1750 5025 1525 
Q 5000 1825 4250 2000 
L 4250 2125 
Q 4900 2050 5062 2062 
Q 5225 2075 5225 2375 
L 5225 4450 
Q 5225 4775 5200 5225 
z
M 3025 1025 
Q 3025 1400 3000 1850 
L 3600 1600 
L 3375 1425 
L 3375 1025 
L 4550 1025 
L 4900 1375 
L 5400 875 
L 3375 875 
L 3375 -150 
L 5025 -150 
L 5425 250 
L 5975 -300 
L 1275 -300 
Q 950 -300 675 -375 
L 450 -150 
L 3025 -150 
L 3025 875 
L 2000 875 
Q 1675 875 1400 800 
L 1175 1025 
L 3025 1025 
z
" transform="scale(0.015625)"/>
        <path id="SimSun-ff09" d="M 2337 875 
Q 1925 350 1437 62 
Q 950 -225 937 -162 
Q 925 -100 1300 175 
Q 1650 425 2037 1012 
Q 2425 1600 2375 2375 
Q 2325 3150 1987 3662 
Q 1650 4175 1300 4475 
Q 925 4775 937 4837 
Q 950 4900 1412 4587 
Q 1875 4275 2325 3662 
Q 2775 3050 2762 2225 
Q 2750 1400 2337 875 
z
" transform="scale(0.015625)"/>
       </defs>
       <use xlink:href="#SimSun-7ef4"/>
       <use xlink:href="#SimSun-751f" x="100"/>
       <use xlink:href="#SimSun-7d20" x="200"/>
       <use xlink:href="#SimSun-41" x="300"/>
       <use xlink:href="#SimSun-44" x="350"/>
       <use xlink:href="#SimSun-6ef4" x="400"/>
       <use xlink:href="#SimSun-5242" x="500"/>
       <use xlink:href="#SimSun-ff08" x="600"/>
       <use xlink:href="#SimSun-80f6" x="700"/>
       <use xlink:href="#SimSun-56ca" x="800"/>
       <use xlink:href="#SimSun-578b" x="900"/>
       <use xlink:href="#SimSun-ff09" x="1000"/>
      </g>
     </g>
    </g>
    <g id="ytick_2">
     <g id="line2d_8">
      <g>
       <use xlink:href="#m34b6a6e982" x="124.2" y="226.656" style="stroke: #000000; stroke-width: 0.8"/>
      </g>
     </g>
     <g id="text_10">
      <!-- 维生素B6片 -->
      <g transform="translate(67.2 230.620844)scale(0.1 -0.1)">
       <defs>
        <path id="SimSun-42" d="M 100 100 
L 100 250 
L 300 250 
Q 425 250 475 300 
Q 525 350 525 450 
L 525 4025 
Q 525 4125 475 4175 
Q 425 4225 300 4225 
L 150 4225 
L 150 4375 
L 1600 4375 
Q 2200 4375 2487 4137 
Q 2775 3900 2775 3400 
Q 2775 3050 2625 2825 
Q 2475 2600 2000 2425 
Q 2575 2250 2775 1925 
Q 2975 1600 2975 1200 
Q 2975 700 2625 400 
Q 2275 100 1675 100 
L 100 100 
z
M 1600 250 
Q 2025 250 2262 512 
Q 2500 775 2500 1250 
Q 2500 1800 2250 2062 
Q 2000 2325 1500 2325 
L 925 2325 
L 925 450 
Q 925 350 987 300 
Q 1050 250 1150 250 
L 1600 250 
z
M 2350 3400 
Q 2350 3850 2100 4037 
Q 1850 4225 1450 4225 
L 1150 4225 
Q 1050 4225 987 4175 
Q 925 4125 925 4025 
L 925 2475 
L 1575 2475 
Q 1850 2475 2100 2700 
Q 2350 2925 2350 3400 
z
" transform="scale(0.015625)"/>
        <path id="SimSun-7247" d="M 1975 3150 
Q 1975 2550 1925 2075 
L 4025 2075 
L 4200 2350 
L 4625 2025 
L 4425 1850 
Q 4425 175 4450 -450 
L 4050 -625 
Q 4075 125 4075 1925 
L 1925 1925 
Q 1750 400 450 -500 
L 400 -425 
Q 1075 250 1337 1000 
Q 1600 1750 1612 2987 
Q 1625 4225 1600 4900 
L 2200 4625 
L 1975 4425 
L 1975 3300 
L 3675 3300 
Q 3675 4575 3650 5225 
L 4225 4950 
L 4025 4750 
L 4025 3300 
L 5075 3300 
L 5450 3675 
L 5900 3150 
L 1975 3150 
z
" transform="scale(0.015625)"/>
       </defs>
       <use xlink:href="#SimSun-7ef4"/>
       <use xlink:href="#SimSun-751f" x="100"/>
       <use xlink:href="#SimSun-7d20" x="200"/>
       <use xlink:href="#SimSun-42" x="300"/>
       <use xlink:href="#SimSun-36" x="350"/>
       <use xlink:href="#SimSun-7247" x="400"/>
      </g>
     </g>
    </g>
    <g id="ytick_3">
     <g id="line2d_9">
      <g>
       <use xlink:href="#m34b6a6e982" x="124.2" y="201.970286" style="stroke: #000000; stroke-width: 0.8"/>
      </g>
     </g>
     <g id="text_11">
      <!-- 复合维生素B片 -->
      <g transform="translate(52.2 205.935129)scale(0.1 -0.1)">
       <defs>
        <path id="SimSun-590d" d="M 2150 3675 
L 2150 3075 
L 4550 3075 
L 4550 3675 
L 2150 3675 
z
M 2150 2925 
L 2150 2300 
L 4550 2300 
L 4550 2925 
L 2150 2925 
z
M 2450 1525 
Q 2875 975 3375 625 
Q 3850 950 4400 1525 
L 2450 1525 
z
M 2050 5225 
L 2550 4875 
L 2300 4775 
L 2100 4525 
L 4975 4525 
L 5325 4875 
L 5825 4375 
L 2025 4375 
Q 1275 3525 500 3075 
L 425 3150 
Q 1125 3700 1500 4250 
Q 1875 4800 2050 5225 
z
M 2775 1900 
L 2575 1800 
L 2475 1675 
L 4425 1675 
L 4650 1900 
L 5050 1500 
L 4800 1400 
Q 4225 825 3650 425 
Q 4650 -150 6100 -150 
L 6100 -250 
Q 5775 -275 5650 -575 
Q 4375 -425 3400 250 
Q 2075 -500 450 -625 
L 450 -525 
Q 2200 -175 3125 450 
Q 2675 925 2325 1475 
Q 1775 775 875 250 
L 850 325 
Q 1900 1175 2300 2150 
L 2150 2150 
L 2150 2075 
L 1750 1875 
Q 1775 2425 1775 2962 
Q 1775 3500 1750 4025 
L 2150 3825 
L 4500 3825 
L 4725 4075 
L 5150 3725 
L 4925 3575 
Q 4925 3275 4925 2862 
Q 4925 2450 4950 2150 
L 4550 2000 
L 4550 2150 
L 2325 2150 
L 2775 1900 
z
" transform="scale(0.015625)"/>
        <path id="SimSun-5408" d="M 3575 4875 
L 3350 4750 
Q 3650 4225 4312 3662 
Q 4975 3100 6125 2825 
L 6125 2750 
Q 5750 2675 5600 2400 
Q 4500 3000 3962 3612 
Q 3425 4225 3250 4625 
Q 2575 3600 1887 3075 
Q 1200 2550 300 2225 
L 275 2325 
Q 1250 2825 1937 3500 
Q 2625 4175 3050 5225 
L 3575 4875 
z
M 1525 2700 
L 4025 2700 
L 4350 3025 
L 4825 2550 
L 2300 2550 
Q 2025 2550 1750 2475 
L 1525 2700 
z
M 1975 1500 
L 1975 100 
L 4375 100 
L 4375 1500 
L 1975 1500 
z
M 4725 1375 
Q 4725 250 4750 -325 
L 4375 -475 
L 4375 -50 
L 1975 -50 
L 1975 -375 
L 1600 -525 
Q 1625 100 1625 675 
Q 1625 1250 1600 1850 
L 1975 1650 
L 4325 1650 
L 4575 1900 
L 4925 1550 
L 4725 1375 
z
" transform="scale(0.015625)"/>
       </defs>
       <use xlink:href="#SimSun-590d"/>
       <use xlink:href="#SimSun-5408" x="100"/>
       <use xlink:href="#SimSun-7ef4" x="200"/>
       <use xlink:href="#SimSun-751f" x="300"/>
       <use xlink:href="#SimSun-7d20" x="400"/>
       <use xlink:href="#SimSun-42" x="500"/>
       <use xlink:href="#SimSun-7247" x="550"/>
      </g>
     </g>
    </g>
    <g id="ytick_4">
     <g id="line2d_10">
      <g>
       <use xlink:href="#m34b6a6e982" x="124.2" y="177.284571" style="stroke: #000000; stroke-width: 0.8"/>
      </g>
     </g>
     <g id="text_12">
      <!-- 复合维生素片 -->
      <g transform="translate(57.2 181.249415)scale(0.1 -0.1)">
       <use xlink:href="#SimSun-590d"/>
       <use xlink:href="#SimSun-5408" x="100"/>
       <use xlink:href="#SimSun-7ef4" x="200"/>
       <use xlink:href="#SimSun-751f" x="300"/>
       <use xlink:href="#SimSun-7d20" x="400"/>
       <use xlink:href="#SimSun-7247" x="500"/>
      </g>
     </g>
    </g>
    <g id="ytick_5">
     <g id="line2d_11">
      <g>
       <use xlink:href="#m34b6a6e982" x="124.2" y="152.598857" style="stroke: #000000; stroke-width: 0.8"/>
      </g>
     </g>
     <g id="text_13">
      <!-- 维生素AD滴剂(胶囊型) -->
      <g transform="translate(17.2 156.602763)scale(0.1 -0.1)">
       <defs>
        <path id="SimSun-28" d="M 2900 5025 
Q 2325 4425 2037 3737 
Q 1750 3050 1750 2300 
Q 1750 1525 2037 850 
Q 2325 175 2900 -425 
L 2775 -550 
Q 2075 75 1725 787 
Q 1375 1500 1375 2300 
Q 1375 3075 1725 3787 
Q 2075 4500 2775 5150 
L 2900 5025 
z
" transform="scale(0.015625)"/>
        <path id="SimSun-29" d="M 275 5025 
L 400 5150 
Q 1100 4500 1450 3787 
Q 1800 3075 1800 2300 
Q 1800 1500 1450 787 
Q 1100 75 400 -550 
L 275 -425 
Q 850 175 1137 850 
Q 1425 1525 1425 2300 
Q 1425 3050 1137 3737 
Q 850 4425 275 5025 
z
" transform="scale(0.015625)"/>
       </defs>
       <use xlink:href="#SimSun-7ef4"/>
       <use xlink:href="#SimSun-751f" x="100"/>
       <use xlink:href="#SimSun-7d20" x="200"/>
       <use xlink:href="#SimSun-41" x="300"/>
       <use xlink:href="#SimSun-44" x="350"/>
       <use xlink:href="#SimSun-6ef4" x="400"/>
       <use xlink:href="#SimSun-5242" x="500"/>
       <use xlink:href="#SimSun-28" x="600"/>
       <use xlink:href="#SimSun-80f6" x="650"/>
       <use xlink:href="#SimSun-56ca" x="750"/>
       <use xlink:href="#SimSun-578b" x="850"/>
       <use xlink:href="#SimSun-29" x="950"/>
      </g>
     </g>
    </g>
    <g id="ytick_6">
     <g id="line2d_12">
      <g>
       <use xlink:href="#m34b6a6e982" x="124.2" y="127.913143" style="stroke: #000000; stroke-width: 0.8"/>
      </g>
     </g>
     <g id="text_14">
      <!-- 维生素C片 -->
      <g transform="translate(72.2 131.877987)scale(0.1 -0.1)">
       <defs>
        <path id="SimSun-43" d="M 1725 50 
Q 1025 50 612 575 
Q 200 1100 200 2225 
Q 200 3175 637 3800 
Q 1075 4425 1825 4425 
Q 2000 4425 2175 4375 
Q 2350 4300 2475 4300 
Q 2575 4300 2637 4325 
Q 2700 4350 2750 4425 
L 2975 3325 
L 2825 3275 
Q 2675 3750 2425 4000 
Q 2175 4250 1775 4250 
Q 1250 4250 962 3675 
Q 675 3100 675 2250 
Q 675 1325 925 800 
Q 1175 275 1750 275 
Q 2150 275 2437 562 
Q 2725 850 2825 1325 
L 2975 1250 
Q 2850 725 2512 387 
Q 2175 50 1725 50 
z
" transform="scale(0.015625)"/>
       </defs>
       <use xlink:href="#SimSun-7ef4"/>
       <use xlink:href="#SimSun-751f" x="100"/>
       <use xlink:href="#SimSun-7d20" x="200"/>
       <use xlink:href="#SimSun-43" x="300"/>
       <use xlink:href="#SimSun-7247" x="350"/>
      </g>
     </g>
    </g>
    <g id="ytick_7">
     <g id="line2d_13">
      <g>
       <use xlink:href="#m34b6a6e982" x="124.2" y="103.227429" style="stroke: #000000; stroke-width: 0.8"/>
      </g>
     </g>
     <g id="text_15">
      <!-- 多维元素片(21) -->
      <g transform="translate(47.2 107.192272)scale(0.1 -0.1)">
       <defs>
        <path id="SimSun-591a" d="M 2750 4225 
L 2450 4050 
Q 2975 3750 3050 3625 
Q 3125 3500 3125 3400 
Q 3125 3275 3025 3162 
Q 2925 3050 2900 3050 
Q 2825 3050 2775 3250 
Q 2700 3525 2375 4000 
Q 2050 3800 1662 3600 
Q 1275 3400 775 3200 
L 725 3300 
Q 1700 3775 2312 4312 
Q 2925 4850 3150 5225 
L 3575 4850 
L 3350 4775 
L 2875 4375 
L 4800 4375 
L 5075 4650 
L 5525 4200 
L 5250 4100 
Q 4525 3425 3487 2837 
Q 2450 2250 600 2000 
L 575 2100 
Q 1800 2325 2850 2800 
Q 3900 3275 4800 4225 
L 2750 4225 
z
M 3400 2750 
L 3825 2350 
L 3575 2275 
Q 3500 2200 3175 1950 
L 5125 1950 
L 5375 2200 
L 5800 1775 
L 5525 1650 
Q 4275 350 3050 -75 
Q 1825 -500 550 -600 
L 550 -500 
Q 1950 -300 3087 200 
Q 4225 700 5125 1800 
L 3050 1800 
Q 2175 1150 975 725 
L 925 825 
Q 1675 1200 2287 1637 
Q 2900 2075 3400 2750 
z
M 2625 1475 
Q 3075 1125 3150 962 
Q 3225 800 3225 725 
Q 3225 575 3112 462 
Q 3000 350 2950 350 
Q 2850 350 2825 575 
Q 2775 925 2550 1400 
L 2625 1475 
z
" transform="scale(0.015625)"/>
        <path id="SimSun-5143" d="M 525 3025 
L 5000 3025 
L 5375 3400 
L 5900 2875 
L 4000 2875 
L 4000 450 
Q 4000 -25 4550 25 
L 5125 25 
Q 5500 25 5562 400 
Q 5625 775 5675 1400 
L 5800 1400 
Q 5800 700 5850 425 
Q 5900 150 6125 75 
Q 5875 -300 5400 -300 
L 4325 -300 
Q 3625 -325 3625 250 
L 3625 2875 
L 2725 2875 
Q 2600 1250 2087 562 
Q 1575 -125 350 -625 
L 300 -550 
Q 1575 200 1925 1000 
Q 2275 1800 2325 2875 
L 1350 2875 
Q 1025 2875 750 2800 
L 525 3025 
z
M 1250 4625 
L 4500 4625 
L 4850 4975 
L 5350 4475 
L 2025 4475 
Q 1700 4475 1475 4400 
L 1250 4625 
z
" transform="scale(0.015625)"/>
       </defs>
       <use xlink:href="#SimSun-591a"/>
       <use xlink:href="#SimSun-7ef4" x="100"/>
       <use xlink:href="#SimSun-5143" x="200"/>
       <use xlink:href="#SimSun-7d20" x="300"/>
       <use xlink:href="#SimSun-7247" x="400"/>
       <use xlink:href="#SimSun-28" x="500"/>
       <use xlink:href="#SimSun-32" x="550"/>
       <use xlink:href="#SimSun-31" x="600"/>
       <use xlink:href="#SimSun-29" x="650"/>
      </g>
     </g>
    </g>
    <g id="ytick_8">
     <g id="line2d_14">
      <g>
       <use xlink:href="#m34b6a6e982" x="124.2" y="78.541714" style="stroke: #000000; stroke-width: 0.8"/>
      </g>
     </g>
     <g id="text_16">
      <!-- 维生素E软胶囊 -->
      <g transform="translate(52.2 82.526089)scale(0.1 -0.1)">
       <defs>
        <path id="SimSun-45" d="M 200 4225 
L 200 4375 
L 2650 4375 
L 2925 3525 
L 2800 3475 
Q 2600 3850 2375 4037 
Q 2150 4225 1875 4225 
L 1175 4225 
Q 1075 4225 1012 4175 
Q 950 4125 950 4025 
L 950 2475 
L 1675 2475 
Q 1925 2475 2037 2600 
Q 2150 2725 2150 2975 
L 2150 3125 
L 2300 3125 
L 2300 1650 
L 2150 1650 
L 2150 1750 
Q 2150 2025 2037 2175 
Q 1925 2325 1675 2325 
L 950 2325 
L 950 450 
Q 950 350 1012 300 
Q 1075 250 1175 250 
L 1825 250 
Q 2200 250 2462 462 
Q 2725 675 2875 1125 
L 3000 1075 
L 2725 100 
L 175 100 
L 175 250 
L 325 250 
Q 450 250 500 300 
Q 550 350 550 450 
L 550 4025 
Q 550 4125 500 4175 
Q 450 4225 325 4225 
L 200 4225 
z
" transform="scale(0.015625)"/>
        <path id="SimSun-8f6f" d="M 5025 2850 
L 5375 3625 
L 3775 3625 
Q 3400 3025 3050 2650 
L 2975 2700 
Q 3675 3825 3925 5150 
L 4475 4825 
L 4250 4700 
Q 4050 4300 3825 3775 
L 5350 3775 
L 5575 4050 
L 6025 3575 
Q 5600 3550 5100 2800 
L 5025 2850 
z
M 3975 3275 
L 4625 2950 
L 4425 2800 
Q 4725 300 6100 -175 
L 6100 -275 
Q 5700 -250 5500 -500 
Q 4475 525 4325 2550 
Q 4275 1275 3787 537 
Q 3300 -200 2375 -625 
L 2325 -575 
Q 3150 0 3500 650 
Q 3850 1300 3912 1912 
Q 3975 2525 3975 3275 
z
M 1550 5225 
L 2125 4900 
L 1875 4775 
Q 1800 4550 1675 4075 
L 2575 4075 
L 2875 4375 
L 3275 3925 
L 1625 3925 
L 1125 2375 
L 1825 2375 
Q 1825 2800 1800 3550 
L 2350 3275 
L 2150 3100 
L 2150 2375 
L 2600 2375 
L 2875 2675 
L 3275 2225 
L 2150 2225 
L 2150 1375 
L 3150 1650 
L 3175 1550 
L 2150 1150 
Q 2150 200 2175 -450 
L 1800 -625 
Q 1825 275 1825 1025 
Q 775 650 700 450 
L 425 950 
Q 775 1000 1825 1275 
L 1825 2225 
L 1150 2225 
L 950 2050 
L 625 2450 
Q 825 2500 975 2950 
Q 1125 3400 1275 3925 
L 1025 3925 
Q 825 3925 550 3850 
L 325 4075 
L 1325 4075 
Q 1525 4925 1550 5225 
z
" transform="scale(0.015625)"/>
       </defs>
       <use xlink:href="#SimSun-7ef4"/>
       <use xlink:href="#SimSun-751f" x="100"/>
       <use xlink:href="#SimSun-7d20" x="200"/>
       <use xlink:href="#SimSun-45" x="300"/>
       <use xlink:href="#SimSun-8f6f" x="350"/>
       <use xlink:href="#SimSun-80f6" x="450"/>
       <use xlink:href="#SimSun-56ca" x="550"/>
      </g>
     </g>
    </g>
    <g id="ytick_9">
     <g id="line2d_15">
      <g>
       <use xlink:href="#m34b6a6e982" x="124.2" y="53.856" style="stroke: #000000; stroke-width: 0.8"/>
      </g>
     </g>
     <g id="text_17">
      <!-- 维A酸乳膏 -->
      <g transform="translate(72.2 57.840375)scale(0.1 -0.1)">
       <defs>
        <path id="SimSun-9178" d="M 4025 1925 
L 3875 1700 
Q 4075 1150 4450 725 
Q 4925 1325 5175 1925 
L 4025 1925 
z
M 4375 5225 
L 4750 4875 
Q 4575 4875 4200 4525 
Q 3800 4175 3400 3900 
L 5450 4000 
Q 5275 4300 5000 4600 
L 5075 4650 
Q 5825 4175 5900 4037 
Q 5975 3900 5975 3775 
Q 5975 3650 5900 3537 
Q 5825 3425 5775 3425 
Q 5700 3425 5675 3525 
Q 5600 3725 5525 3875 
Q 4850 3825 4200 3737 
Q 3550 3650 3300 3500 
L 3050 3950 
Q 3300 3950 3725 4400 
Q 4150 4850 4375 5225 
z
M 3975 3500 
L 4350 3150 
Q 4150 3125 3800 2825 
Q 3425 2525 2925 2225 
L 2875 2300 
Q 3275 2625 3537 2925 
Q 3800 3225 3975 3500 
z
M 4775 3500 
Q 5575 3200 5800 3025 
Q 6025 2850 6037 2687 
Q 6050 2525 5987 2425 
Q 5925 2325 5875 2325 
Q 5825 2325 5750 2450 
Q 5625 2650 5387 2887 
Q 5150 3125 4725 3425 
L 4775 3500 
z
M 4075 2775 
L 4525 2450 
Q 4325 2425 4125 2075 
L 5150 2075 
L 5350 2300 
L 5750 1975 
L 5525 1850 
Q 5075 975 4650 475 
Q 5225 -75 6125 -200 
L 6125 -300 
Q 5750 -325 5625 -600 
Q 4950 -250 4450 300 
Q 3625 -375 2625 -600 
L 2600 -525 
Q 3725 -75 4250 525 
Q 3925 1025 3775 1600 
Q 3500 1225 2975 850 
L 2925 925 
Q 3425 1450 3700 1962 
Q 3975 2475 4075 2775 
z
M 600 -550 
Q 625 300 625 1787 
Q 625 3275 600 3800 
L 925 3600 
L 1275 3600 
L 1275 4500 
L 1100 4500 
Q 775 4500 500 4425 
L 275 4650 
L 2575 4650 
L 2850 4900 
L 3225 4500 
L 2150 4500 
L 2150 3600 
L 2475 3600 
L 2625 3800 
L 2975 3550 
L 2800 3400 
Q 2800 250 2825 -225 
L 2500 -375 
L 2500 0 
L 925 0 
L 925 -425 
L 600 -550 
z
M 1550 4500 
L 1550 3600 
L 1875 3600 
L 1875 4500 
L 1550 4500 
z
M 2150 3450 
L 2150 2425 
Q 2125 2100 2350 2125 
L 2500 2125 
L 2500 3450 
L 2150 3450 
z
M 1550 3450 
Q 1575 2825 1462 2350 
Q 1350 1875 925 1575 
L 925 1150 
L 2500 1150 
L 2500 1875 
L 2175 1875 
Q 1850 1900 1875 2300 
L 1875 3450 
L 1550 3450 
z
M 925 3450 
L 925 1700 
Q 1175 2025 1225 2475 
Q 1275 2925 1275 3450 
L 925 3450 
z
M 925 1000 
L 925 150 
L 2500 150 
L 2500 1000 
L 925 1000 
z
" transform="scale(0.015625)"/>
        <path id="SimSun-4e73" d="M 3250 5100 
L 3650 4625 
Q 3125 4600 2300 4500 
Q 1475 4375 525 4325 
L 525 4425 
Q 1150 4475 2012 4662 
Q 2875 4850 3250 5100 
z
M 850 4125 
Q 1550 3575 1487 3325 
Q 1425 3075 1337 3025 
Q 1250 2975 1225 2975 
Q 1125 2975 1100 3200 
Q 1075 3475 775 4075 
L 850 4125 
z
M 1800 4250 
Q 2500 3675 2450 3437 
Q 2400 3200 2300 3125 
L 2175 3050 
Q 2075 3050 2050 3350 
Q 2000 3700 1725 4200 
L 1800 4250 
z
M 3225 4425 
L 3750 4075 
L 3525 3975 
Q 3125 3325 2725 2925 
L 2650 2975 
Q 3075 3775 3225 4425 
z
M 2050 1075 
Q 750 775 575 575 
L 300 1050 
Q 750 1075 2050 1300 
Q 2050 1700 2025 2150 
L 2325 1975 
L 3000 2625 
L 1375 2625 
Q 1050 2625 775 2550 
L 550 2775 
L 3025 2775 
L 3250 3025 
L 3650 2575 
Q 3300 2575 2400 1875 
L 2575 1750 
L 2400 1650 
L 2400 1375 
L 3600 1575 
L 3625 1475 
L 2400 1175 
L 2400 -25 
Q 2400 -450 1850 -600 
Q 1875 -300 1075 -75 
L 1075 50 
Q 1650 -50 1850 -50 
Q 2050 -50 2050 275 
L 2050 1075 
z
M 3975 4100 
Q 3975 4500 3950 5075 
L 4575 4800 
L 4325 4600 
L 4325 300 
Q 4350 -75 4725 -50 
L 5225 -50 
Q 5500 -50 5537 300 
Q 5575 650 5625 1300 
L 5750 1300 
Q 5750 675 5787 362 
Q 5825 50 6075 0 
Q 5875 -375 5400 -350 
L 4525 -350 
Q 3950 -375 3975 225 
L 3975 4100 
z
" transform="scale(0.015625)"/>
        <path id="SimSun-818f" d="M 2725 5175 
L 2750 5250 
Q 3200 5100 3287 5000 
Q 3375 4900 3375 4825 
Q 3375 4725 3250 4575 
L 5050 4575 
L 5350 4875 
L 5775 4425 
L 1400 4425 
Q 1200 4425 925 4350 
L 700 4575 
L 3075 4575 
Q 2950 5025 2725 5175 
z
M 1775 3150 
Q 1800 3450 1800 3725 
Q 1800 4000 1775 4275 
L 2125 4075 
L 4250 4075 
L 4450 4275 
L 4750 3975 
L 4600 3850 
Q 4600 3450 4625 3300 
L 4275 3150 
L 4275 3375 
L 2125 3375 
L 2125 3275 
L 1775 3150 
z
M 1725 1675 
Q 1750 1950 1750 2237 
Q 1750 2525 1725 2750 
L 2100 2575 
L 4325 2575 
L 4525 2775 
L 4825 2475 
L 4650 2350 
Q 4650 2050 4675 1850 
L 4325 1675 
L 4325 1875 
L 2075 1875 
L 2075 1775 
L 1725 1675 
z
M 1750 1325 
L 1750 950 
L 4625 950 
L 4625 1325 
L 1750 1325 
z
M 1750 800 
L 1750 400 
L 4625 400 
L 4625 800 
L 1750 800 
z
M 1375 -675 
Q 1400 -50 1400 675 
Q 1400 1400 1375 1675 
L 1750 1475 
L 4600 1475 
L 4825 1700 
L 5150 1375 
L 4975 1225 
L 4975 -75 
Q 4975 -600 4525 -675 
Q 4450 -375 3800 -275 
L 3800 -150 
Q 4375 -225 4500 -212 
Q 4625 -200 4625 -75 
L 4625 250 
L 1750 250 
L 1750 -525 
L 1375 -675 
z
M 5050 2325 
L 5300 2875 
L 1075 2875 
Q 1075 2750 1025 2587 
Q 975 2425 875 2375 
Q 775 2325 700 2325 
Q 625 2325 562 2375 
Q 500 2425 500 2475 
Q 500 2550 650 2675 
Q 875 2825 975 3300 
L 1075 3300 
L 1075 3025 
L 5275 3025 
L 5525 3275 
L 5925 2875 
Q 5725 2850 5537 2712 
Q 5350 2575 5125 2275 
L 5050 2325 
z
M 2125 3925 
L 2125 3525 
L 4275 3525 
L 4275 3925 
L 2125 3925 
z
M 2075 2425 
L 2075 2025 
L 4325 2025 
L 4325 2425 
L 2075 2425 
z
" transform="scale(0.015625)"/>
       </defs>
       <use xlink:href="#SimSun-7ef4"/>
       <use xlink:href="#SimSun-41" x="100"/>
       <use xlink:href="#SimSun-9178" x="150"/>
       <use xlink:href="#SimSun-4e73" x="250"/>
       <use xlink:href="#SimSun-818f" x="350"/>
      </g>
     </g>
    </g>
    <g id="ytick_10">
     <g id="line2d_16">
      <g>
       <use xlink:href="#m34b6a6e982" x="124.2" y="29.170286" style="stroke: #000000; stroke-width: 0.8"/>
      </g>
     </g>
     <g id="text_18">
      <!-- 维生素D滴剂（胶囊型） -->
      <g transform="translate(12.2 33.174192)scale(0.1 -0.1)">
       <use xlink:href="#SimSun-7ef4"/>
       <use xlink:href="#SimSun-751f" x="100"/>
       <use xlink:href="#SimSun-7d20" x="200"/>
       <use xlink:href="#SimSun-44" x="300"/>
       <use xlink:href="#SimSun-6ef4" x="350"/>
       <use xlink:href="#SimSun-5242" x="450"/>
       <use xlink:href="#SimSun-ff08" x="550"/>
       <use xlink:href="#SimSun-80f6" x="650"/>
       <use xlink:href="#SimSun-56ca" x="750"/>
       <use xlink:href="#SimSun-578b" x="850"/>
       <use xlink:href="#SimSun-ff09" x="950"/>
      </g>
     </g>
    </g>
   </g>
   <g id="patch_13">
    <path d="M 124.2 273.312 
L 124.2 7.2 
" style="fill: none; stroke: #000000; stroke-width: 0.8; stroke-linejoin: miter; stroke-linecap: square"/>
   </g>
   <g id="patch_14">
    <path d="M 481.32 273.312 
L 481.32 7.2 
" style="fill: none; stroke: #000000; stroke-width: 0.8; stroke-linejoin: miter; stroke-linecap: square"/>
   </g>
   <g id="patch_15">
    <path d="M 124.2 273.312 
L 481.32 273.312 
" style="fill: none; stroke: #000000; stroke-width: 0.8; stroke-linejoin: miter; stroke-linecap: square"/>
   </g>
   <g id="patch_16">
    <path d="M 124.2 7.2 
L 481.32 7.2 
" style="fill: none; stroke: #000000; stroke-width: 0.8; stroke-linejoin: miter; stroke-linecap: square"/>
   </g>
  </g>
 </g>
 <defs>
  <clipPath id="p8807ede890">
   <rect x="124.2" y="7.2" width="357.12" height="266.112"/>
  </clipPath>
 </defs>
</svg>
