<?xml version="1.0" encoding="utf-8" standalone="no"?>
<!DOCTYPE svg PUBLIC "-//W3C//DTD SVG 1.1//EN"
  "http://www.w3.org/Graphics/SVG/1.1/DTD/svg11.dtd">
<svg xmlns:xlink="http://www.w3.org/1999/xlink" width="422.109338pt" height="335.530027pt" viewBox="0 0 422.109338 335.530027" xmlns="http://www.w3.org/2000/svg" version="1.1">
 <metadata>
  <rdf:RDF xmlns:dc="http://purl.org/dc/elements/1.1/" xmlns:cc="http://creativecommons.org/ns#" xmlns:rdf="http://www.w3.org/1999/02/22-rdf-syntax-ns#">
   <cc:Work>
    <dc:type rdf:resource="http://purl.org/dc/dcmitype/StillImage"/>
    <dc:date>2023-01-05T14:42:42.913486</dc:date>
    <dc:format>image/svg+xml</dc:format>
    <dc:creator>
     <cc:Agent>
      <dc:title>Matplotlib v3.5.3, https://matplotlib.org/</dc:title>
     </cc:Agent>
    </dc:creator>
   </cc:Work>
  </rdf:RDF>
 </metadata>
 <defs>
  <style type="text/css">*{stroke-linejoin: round; stroke-linecap: butt}</style>
 </defs>
 <g id="figure_1">
  <g id="patch_1">
   <path d="M -0 335.530027 
L 422.109338 335.530027 
L 422.109338 0 
L -0 0 
z
" style="fill: #ffffff"/>
  </g>
  <g id="axes_1">
   <g id="patch_2">
    <path d="M 42.379688 283.460438 
L 399.499688 283.460438 
L 399.499688 17.348438 
L 42.379688 17.348438 
z
" style="fill: #ffffff"/>
   </g>
   <g id="PolyCollection_1">
    <path d="M 58.612415 244.263863 
L 58.612415 283.460438 
L 72.989973 283.460438 
L 86.439947 283.460438 
L 100.817506 283.460438 
L 114.731272 283.460438 
L 129.10883 283.460438 
L 143.022597 283.460438 
L 157.400155 283.460438 
L 171.777713 283.460438 
L 185.69148 283.460438 
L 200.069038 283.460438 
L 213.982804 283.460438 
L 228.360363 283.460438 
L 242.737921 283.460438 
L 255.724103 283.460438 
L 270.101662 283.460438 
L 284.015428 283.460438 
L 298.392986 283.460438 
L 312.306752 283.460438 
L 326.684311 283.460438 
L 341.061869 283.460438 
L 354.975636 283.460438 
L 369.353194 283.460438 
L 383.26696 283.460438 
L 383.26696 117.314023 
L 383.26696 117.314023 
L 369.353194 178.566088 
L 354.975636 177.255643 
L 341.061869 179.984116 
L 326.684311 185.780577 
L 312.306752 203.238419 
L 298.392986 134.639499 
L 284.015428 201.93849 
L 270.101662 205.151885 
L 255.724103 194.263481 
L 242.737921 218.025652 
L 228.360363 217.559278 
L 213.982804 173.472282 
L 200.069038 224.733485 
L 185.69148 244.201298 
L 171.777713 229.008629 
L 157.400155 233.412312 
L 143.022597 242.152381 
L 129.10883 198.900433 
L 114.731272 242.079499 
L 100.817506 240.827017 
L 86.439947 235.101821 
L 72.989973 253.051117 
L 58.612415 244.263863 
z
" clip-path="url(#p383d5ffb6c)" style="fill: #ff0000; fill-opacity: 0.5"/>
   </g>
   <g id="PolyCollection_2">
    <path d="M 58.612415 229.606901 
L 58.612415 244.263863 
L 72.989973 253.051117 
L 86.439947 235.101821 
L 100.817506 240.827017 
L 114.731272 242.079499 
L 129.10883 198.900433 
L 143.022597 242.152381 
L 157.400155 233.412312 
L 171.777713 229.008629 
L 185.69148 244.201298 
L 200.069038 224.733485 
L 213.982804 173.472282 
L 228.360363 217.559278 
L 242.737921 218.025652 
L 255.724103 194.263481 
L 270.101662 205.151885 
L 284.015428 201.93849 
L 298.392986 134.639499 
L 312.306752 203.238419 
L 326.684311 185.780577 
L 341.061869 179.984116 
L 354.975636 177.255643 
L 369.353194 178.566088 
L 383.26696 117.314023 
L 383.26696 30.020438 
L 383.26696 30.020438 
L 369.353194 128.89213 
L 354.975636 128.302192 
L 341.061869 117.061791 
L 326.684311 136.395849 
L 312.306752 158.374078 
L 298.392986 54.860647 
L 284.015428 158.149919 
L 270.101662 157.390306 
L 255.724103 142.536564 
L 242.737921 175.986986 
L 228.360363 179.140738 
L 213.982804 112.152425 
L 200.069038 190.742504 
L 185.69148 218.216264 
L 171.777713 198.774773 
L 157.400155 203.453501 
L 143.022597 221.674048 
L 129.10883 144.444228 
L 114.731272 222.665278 
L 100.817506 220.185901 
L 86.439947 210.676339 
L 72.989973 238.772692 
L 58.612415 229.606901 
z
" clip-path="url(#p383d5ffb6c)" style="fill: #0000ff; fill-opacity: 0.5"/>
   </g>
   <g id="matplotlib.axis_1">
    <g id="xtick_1">
     <g id="line2d_1">
      <defs>
       <path id="md6398a4a5e" d="M 0 0 
L 0 3.5 
" style="stroke: #000000; stroke-width: 0.8"/>
      </defs>
      <g>
       <use xlink:href="#md6398a4a5e" x="58.612415" y="283.460438" style="stroke: #000000; stroke-width: 0.8"/>
      </g>
     </g>
     <g id="text_1">
      <!-- 2020-01 -->
      <g transform="translate(44.921814 314.151166)rotate(-30)scale(0.1 -0.1)">
       <defs>
        <path id="SimSun-32" d="M 2325 3325 
Q 2325 3775 2125 4012 
Q 1925 4250 1525 4250 
Q 1225 4250 1012 4087 
Q 800 3925 800 3675 
Q 800 3525 900 3425 
Q 975 3325 975 3225 
Q 975 3100 912 3037 
Q 850 2975 725 2975 
Q 575 2975 487 3062 
Q 400 3150 400 3350 
Q 400 3875 775 4150 
Q 1150 4425 1575 4425 
Q 2175 4425 2462 4125 
Q 2750 3825 2750 3375 
Q 2750 3075 2612 2775 
Q 2475 2475 2175 2200 
Q 1450 1500 1062 1062 
Q 675 625 600 475 
L 2075 475 
Q 2300 475 2450 650 
Q 2600 825 2650 1175 
L 2800 1175 
L 2650 100 
L 325 100 
L 325 425 
Q 450 650 737 1000 
Q 1025 1350 1500 1825 
Q 1925 2250 2125 2625 
Q 2325 3000 2325 3325 
z
" transform="scale(0.015625)"/>
        <path id="SimSun-30" d="M 1600 4225 
Q 1250 4225 1012 3687 
Q 775 3150 775 2250 
Q 775 1300 1012 775 
Q 1250 250 1600 250 
Q 1975 250 2187 775 
Q 2400 1300 2400 2250 
Q 2400 3150 2200 3687 
Q 2000 4225 1600 4225 
z
M 1600 50 
Q 1050 50 675 625 
Q 300 1200 300 2250 
Q 300 3225 662 3825 
Q 1025 4425 1600 4425 
Q 2150 4425 2512 3850 
Q 2875 3275 2875 2250 
Q 2875 1225 2512 637 
Q 2150 50 1600 50 
z
" transform="scale(0.015625)"/>
        <path id="SimSun-2d" d="M 200 2225 
L 200 2450 
L 2975 2450 
L 2975 2225 
L 200 2225 
z
" transform="scale(0.015625)"/>
        <path id="SimSun-31" d="M 1825 4450 
L 1825 650 
Q 1825 450 1950 350 
Q 2075 250 2300 250 
L 2550 250 
L 2550 100 
L 725 100 
L 725 250 
L 950 250 
Q 1200 250 1312 350 
Q 1425 450 1425 650 
L 1425 3675 
Q 1425 3775 1362 3837 
Q 1300 3900 1175 3900 
L 725 3900 
L 725 4050 
L 950 4050 
Q 1250 4050 1437 4150 
Q 1625 4250 1725 4450 
L 1825 4450 
z
" transform="scale(0.015625)"/>
       </defs>
       <use xlink:href="#SimSun-32"/>
       <use xlink:href="#SimSun-30" x="50"/>
       <use xlink:href="#SimSun-32" x="100"/>
       <use xlink:href="#SimSun-30" x="150"/>
       <use xlink:href="#SimSun-2d" x="200"/>
       <use xlink:href="#SimSun-30" x="250"/>
       <use xlink:href="#SimSun-31" x="300"/>
      </g>
     </g>
    </g>
    <g id="xtick_2">
     <g id="line2d_2">
      <g>
       <use xlink:href="#md6398a4a5e" x="100.817506" y="283.460438" style="stroke: #000000; stroke-width: 0.8"/>
      </g>
     </g>
     <g id="text_2">
      <!-- 2020-04 -->
      <g transform="translate(87.126905 314.151166)rotate(-30)scale(0.1 -0.1)">
       <defs>
        <path id="SimSun-34" d="M 2300 575 
Q 2300 400 2400 325 
Q 2500 250 2675 250 
L 2900 250 
L 2900 100 
L 1250 100 
L 1250 250 
L 1525 250 
Q 1725 250 1812 325 
Q 1900 400 1900 575 
L 1900 1400 
L 225 1400 
L 225 1525 
L 2050 4425 
L 2300 4425 
L 2300 1550 
L 2975 1550 
L 2975 1400 
L 2300 1400 
L 2300 575 
z
M 1875 3800 
L 450 1550 
L 1900 1550 
L 1900 3800 
L 1875 3800 
z
" transform="scale(0.015625)"/>
       </defs>
       <use xlink:href="#SimSun-32"/>
       <use xlink:href="#SimSun-30" x="50"/>
       <use xlink:href="#SimSun-32" x="100"/>
       <use xlink:href="#SimSun-30" x="150"/>
       <use xlink:href="#SimSun-2d" x="200"/>
       <use xlink:href="#SimSun-30" x="250"/>
       <use xlink:href="#SimSun-34" x="300"/>
      </g>
     </g>
    </g>
    <g id="xtick_3">
     <g id="line2d_3">
      <g>
       <use xlink:href="#md6398a4a5e" x="143.022597" y="283.460438" style="stroke: #000000; stroke-width: 0.8"/>
      </g>
     </g>
     <g id="text_3">
      <!-- 2020-07 -->
      <g transform="translate(129.331996 314.151166)rotate(-30)scale(0.1 -0.1)">
       <defs>
        <path id="SimSun-37" d="M 2825 4200 
Q 2300 3350 1987 2537 
Q 1675 1725 1675 1125 
Q 1675 1025 1700 850 
Q 1700 650 1700 400 
Q 1700 200 1637 125 
Q 1575 50 1425 50 
Q 1300 50 1212 137 
Q 1125 225 1125 450 
Q 1125 925 1337 1625 
Q 1550 2325 2475 4000 
L 1225 4000 
Q 950 4000 787 3825 
Q 625 3650 550 3300 
L 400 3325 
L 575 4375 
L 2825 4375 
L 2825 4200 
z
" transform="scale(0.015625)"/>
       </defs>
       <use xlink:href="#SimSun-32"/>
       <use xlink:href="#SimSun-30" x="50"/>
       <use xlink:href="#SimSun-32" x="100"/>
       <use xlink:href="#SimSun-30" x="150"/>
       <use xlink:href="#SimSun-2d" x="200"/>
       <use xlink:href="#SimSun-30" x="250"/>
       <use xlink:href="#SimSun-37" x="300"/>
      </g>
     </g>
    </g>
    <g id="xtick_4">
     <g id="line2d_4">
      <g>
       <use xlink:href="#md6398a4a5e" x="185.69148" y="283.460438" style="stroke: #000000; stroke-width: 0.8"/>
      </g>
     </g>
     <g id="text_4">
      <!-- 2020-10 -->
      <g transform="translate(172.000879 314.151166)rotate(-30)scale(0.1 -0.1)">
       <use xlink:href="#SimSun-32"/>
       <use xlink:href="#SimSun-30" x="50"/>
       <use xlink:href="#SimSun-32" x="100"/>
       <use xlink:href="#SimSun-30" x="150"/>
       <use xlink:href="#SimSun-2d" x="200"/>
       <use xlink:href="#SimSun-31" x="250"/>
       <use xlink:href="#SimSun-30" x="300"/>
      </g>
     </g>
    </g>
    <g id="xtick_5">
     <g id="line2d_5">
      <g>
       <use xlink:href="#md6398a4a5e" x="228.360363" y="283.460438" style="stroke: #000000; stroke-width: 0.8"/>
      </g>
     </g>
     <g id="text_5">
      <!-- 2021-01 -->
      <g transform="translate(214.669762 314.151166)rotate(-30)scale(0.1 -0.1)">
       <use xlink:href="#SimSun-32"/>
       <use xlink:href="#SimSun-30" x="50"/>
       <use xlink:href="#SimSun-32" x="100"/>
       <use xlink:href="#SimSun-31" x="150"/>
       <use xlink:href="#SimSun-2d" x="200"/>
       <use xlink:href="#SimSun-30" x="250"/>
       <use xlink:href="#SimSun-31" x="300"/>
      </g>
     </g>
    </g>
    <g id="xtick_6">
     <g id="line2d_6">
      <g>
       <use xlink:href="#md6398a4a5e" x="270.101662" y="283.460438" style="stroke: #000000; stroke-width: 0.8"/>
      </g>
     </g>
     <g id="text_6">
      <!-- 2021-04 -->
      <g transform="translate(256.411061 314.151166)rotate(-30)scale(0.1 -0.1)">
       <use xlink:href="#SimSun-32"/>
       <use xlink:href="#SimSun-30" x="50"/>
       <use xlink:href="#SimSun-32" x="100"/>
       <use xlink:href="#SimSun-31" x="150"/>
       <use xlink:href="#SimSun-2d" x="200"/>
       <use xlink:href="#SimSun-30" x="250"/>
       <use xlink:href="#SimSun-34" x="300"/>
      </g>
     </g>
    </g>
    <g id="xtick_7">
     <g id="line2d_7">
      <g>
       <use xlink:href="#md6398a4a5e" x="312.306752" y="283.460438" style="stroke: #000000; stroke-width: 0.8"/>
      </g>
     </g>
     <g id="text_7">
      <!-- 2021-07 -->
      <g transform="translate(298.616152 314.151166)rotate(-30)scale(0.1 -0.1)">
       <use xlink:href="#SimSun-32"/>
       <use xlink:href="#SimSun-30" x="50"/>
       <use xlink:href="#SimSun-32" x="100"/>
       <use xlink:href="#SimSun-31" x="150"/>
       <use xlink:href="#SimSun-2d" x="200"/>
       <use xlink:href="#SimSun-30" x="250"/>
       <use xlink:href="#SimSun-37" x="300"/>
      </g>
     </g>
    </g>
    <g id="xtick_8">
     <g id="line2d_8">
      <g>
       <use xlink:href="#md6398a4a5e" x="354.975636" y="283.460438" style="stroke: #000000; stroke-width: 0.8"/>
      </g>
     </g>
     <g id="text_8">
      <!-- 2021-10 -->
      <g transform="translate(341.285035 314.151166)rotate(-30)scale(0.1 -0.1)">
       <use xlink:href="#SimSun-32"/>
       <use xlink:href="#SimSun-30" x="50"/>
       <use xlink:href="#SimSun-32" x="100"/>
       <use xlink:href="#SimSun-31" x="150"/>
       <use xlink:href="#SimSun-2d" x="200"/>
       <use xlink:href="#SimSun-31" x="250"/>
       <use xlink:href="#SimSun-30" x="300"/>
      </g>
     </g>
    </g>
    <g id="xtick_9">
     <g id="line2d_9">
      <g>
       <use xlink:href="#md6398a4a5e" x="397.644519" y="283.460438" style="stroke: #000000; stroke-width: 0.8"/>
      </g>
     </g>
     <g id="text_9">
      <!-- 2022-01 -->
      <g transform="translate(383.953918 314.151166)rotate(-30)scale(0.1 -0.1)">
       <use xlink:href="#SimSun-32"/>
       <use xlink:href="#SimSun-30" x="50"/>
       <use xlink:href="#SimSun-32" x="100"/>
       <use xlink:href="#SimSun-32" x="150"/>
       <use xlink:href="#SimSun-2d" x="200"/>
       <use xlink:href="#SimSun-30" x="250"/>
       <use xlink:href="#SimSun-31" x="300"/>
      </g>
     </g>
    </g>
    <g id="text_10">
     <!-- 日期 -->
     <g transform="translate(210.939688 327.040964)scale(0.1 -0.1)">
      <defs>
       <path id="SimSun-65e5" d="M 1725 4600 
L 1725 2700 
L 4700 2700 
L 4700 4600 
L 1725 4600 
z
M 1725 2550 
L 1725 375 
L 4700 375 
L 4700 2550 
L 1725 2550 
z
M 1350 -475 
Q 1375 1000 1375 2237 
Q 1375 3475 1350 5000 
L 1725 4750 
L 4650 4750 
L 4825 5000 
L 5250 4675 
L 5050 4525 
L 5050 1100 
Q 5050 375 5075 -225 
L 4700 -425 
L 4700 225 
L 1725 225 
L 1725 -250 
L 1350 -475 
z
" transform="scale(0.015625)"/>
       <path id="SimSun-671f" d="M 1575 3975 
L 1575 3325 
L 2600 3325 
L 2600 3975 
L 1575 3975 
z
M 1575 3175 
L 1575 2425 
L 2600 2425 
L 2600 3175 
L 1575 3175 
z
M 1575 2275 
L 1575 1500 
L 2600 1500 
L 2600 2275 
L 1575 2275 
z
M 1225 4125 
Q 1225 4750 1200 5175 
L 1775 4850 
L 1575 4700 
L 1575 4125 
L 2600 4125 
Q 2600 4575 2575 5175 
L 3150 4875 
L 2950 4725 
L 2950 4125 
L 3025 4125 
L 3300 4400 
L 3725 3975 
L 2950 3975 
L 2950 1500 
L 2975 1500 
L 3250 1775 
L 3675 1350 
L 950 1350 
L 600 1300 
L 400 1500 
L 1225 1500 
L 1225 3975 
L 1000 3975 
L 650 3925 
L 450 4125 
L 1225 4125 
z
M 1550 1250 
L 2000 850 
L 1775 775 
Q 1100 -25 375 -475 
L 325 -400 
Q 700 -50 1012 350 
Q 1325 750 1550 1250 
z
M 2375 1150 
Q 2975 825 3075 700 
Q 3175 575 3175 475 
Q 3175 350 3100 225 
Q 3025 100 2975 100 
Q 2900 100 2825 300 
Q 2700 625 2325 1100 
L 2375 1150 
z
M 4225 4550 
L 4225 3300 
L 5450 3300 
L 5450 4550 
L 4225 4550 
z
M 4225 3150 
Q 4225 2450 4200 1875 
L 5450 1875 
L 5450 3150 
L 4225 3150 
z
M 4550 50 
Q 5025 -25 5237 -37 
Q 5450 -50 5450 225 
L 5450 1725 
L 4200 1725 
Q 4150 850 3737 300 
Q 3325 -250 2700 -625 
L 2650 -550 
Q 3075 -200 3350 212 
Q 3625 625 3750 1175 
Q 3875 1725 3875 3000 
Q 3875 4275 3850 4925 
L 4225 4700 
L 5400 4700 
L 5575 4950 
L 5975 4650 
L 5800 4475 
L 5800 125 
Q 5825 -375 5250 -575 
Q 5250 -250 4550 -50 
L 4550 50 
z
" transform="scale(0.015625)"/>
      </defs>
      <use xlink:href="#SimSun-65e5"/>
      <use xlink:href="#SimSun-671f" x="100"/>
     </g>
    </g>
   </g>
   <g id="matplotlib.axis_2">
    <g id="ytick_1">
     <g id="line2d_10">
      <defs>
       <path id="med4bac05f6" d="M 0 0 
L -3.5 0 
" style="stroke: #000000; stroke-width: 0.8"/>
      </defs>
      <g>
       <use xlink:href="#med4bac05f6" x="42.379688" y="283.460438" style="stroke: #000000; stroke-width: 0.8"/>
      </g>
     </g>
     <g id="text_11">
      <!-- 0.0 -->
      <g transform="translate(20.379688 287.034656)scale(0.1 -0.1)">
       <defs>
        <path id="SimSun-2e" d="M 800 25 
Q 650 25 537 125 
Q 425 225 425 400 
Q 425 575 537 675 
Q 650 775 800 775 
Q 950 775 1062 662 
Q 1175 550 1175 400 
Q 1175 225 1062 125 
Q 950 25 800 25 
z
" transform="scale(0.015625)"/>
       </defs>
       <use xlink:href="#SimSun-30"/>
       <use xlink:href="#SimSun-2e" x="50"/>
       <use xlink:href="#SimSun-30" x="100"/>
      </g>
     </g>
    </g>
    <g id="ytick_2">
     <g id="line2d_11">
      <g>
       <use xlink:href="#med4bac05f6" x="42.379688" y="245.596984" style="stroke: #000000; stroke-width: 0.8"/>
      </g>
     </g>
     <g id="text_12">
      <!-- 0.2 -->
      <g transform="translate(20.379688 249.171203)scale(0.1 -0.1)">
       <use xlink:href="#SimSun-30"/>
       <use xlink:href="#SimSun-2e" x="50"/>
       <use xlink:href="#SimSun-32" x="100"/>
      </g>
     </g>
    </g>
    <g id="ytick_3">
     <g id="line2d_12">
      <g>
       <use xlink:href="#med4bac05f6" x="42.379688" y="207.733531" style="stroke: #000000; stroke-width: 0.8"/>
      </g>
     </g>
     <g id="text_13">
      <!-- 0.4 -->
      <g transform="translate(20.379688 211.30775)scale(0.1 -0.1)">
       <use xlink:href="#SimSun-30"/>
       <use xlink:href="#SimSun-2e" x="50"/>
       <use xlink:href="#SimSun-34" x="100"/>
      </g>
     </g>
    </g>
    <g id="ytick_4">
     <g id="line2d_13">
      <g>
       <use xlink:href="#med4bac05f6" x="42.379688" y="169.870078" style="stroke: #000000; stroke-width: 0.8"/>
      </g>
     </g>
     <g id="text_14">
      <!-- 0.6 -->
      <g transform="translate(20.379688 173.444296)scale(0.1 -0.1)">
       <defs>
        <path id="SimSun-36" d="M 775 1800 
Q 775 1050 1037 637 
Q 1300 225 1675 225 
Q 2050 225 2250 500 
Q 2450 775 2450 1525 
Q 2450 2025 2237 2300 
Q 2025 2575 1725 2575 
Q 1450 2575 1212 2412 
Q 975 2250 775 1800 
z
M 1750 2825 
Q 2350 2825 2612 2425 
Q 2875 2025 2875 1525 
Q 2875 775 2512 412 
Q 2150 50 1675 50 
Q 1000 50 650 562 
Q 300 1075 300 2050 
Q 300 3200 725 3812 
Q 1150 4425 1875 4425 
Q 2225 4425 2437 4225 
Q 2650 4025 2650 3875 
Q 2650 3725 2587 3650 
Q 2525 3575 2375 3575 
Q 2250 3575 2187 3637 
Q 2125 3700 2125 3825 
Q 2125 3875 2150 3925 
Q 2150 3975 2150 4025 
Q 2150 4125 2075 4187 
Q 2000 4250 1800 4250 
Q 1375 4250 1075 3862 
Q 775 3475 775 2175 
Q 925 2500 1187 2662 
Q 1450 2825 1750 2825 
z
" transform="scale(0.015625)"/>
       </defs>
       <use xlink:href="#SimSun-30"/>
       <use xlink:href="#SimSun-2e" x="50"/>
       <use xlink:href="#SimSun-36" x="100"/>
      </g>
     </g>
    </g>
    <g id="ytick_5">
     <g id="line2d_14">
      <g>
       <use xlink:href="#med4bac05f6" x="42.379688" y="132.006624" style="stroke: #000000; stroke-width: 0.8"/>
      </g>
     </g>
     <g id="text_15">
      <!-- 0.8 -->
      <g transform="translate(20.379688 135.580843)scale(0.1 -0.1)">
       <defs>
        <path id="SimSun-38" d="M 625 1125 
Q 625 725 887 475 
Q 1150 225 1550 225 
Q 2025 225 2237 475 
Q 2450 725 2450 1100 
Q 2450 1425 2150 1725 
Q 1850 2025 1250 2275 
Q 950 2075 787 1775 
Q 625 1475 625 1125 
z
M 2825 1175 
Q 2825 700 2475 375 
Q 2125 50 1550 50 
Q 1025 50 650 375 
Q 275 700 275 1125 
Q 275 1550 487 1850 
Q 700 2150 1100 2375 
Q 750 2550 562 2812 
Q 375 3075 375 3400 
Q 375 3825 700 4125 
Q 1025 4425 1600 4425 
Q 2125 4425 2450 4125 
Q 2775 3825 2775 3400 
Q 2775 3100 2587 2837 
Q 2400 2575 2000 2375 
Q 2425 2125 2625 1825 
Q 2825 1525 2825 1175 
z
M 2425 3375 
Q 2425 3725 2225 3987 
Q 2025 4250 1600 4250 
Q 1125 4250 925 4000 
Q 725 3750 725 3475 
Q 725 3200 1012 2937 
Q 1300 2675 1825 2475 
Q 2125 2625 2275 2850 
Q 2425 3075 2425 3375 
z
" transform="scale(0.015625)"/>
       </defs>
       <use xlink:href="#SimSun-30"/>
       <use xlink:href="#SimSun-2e" x="50"/>
       <use xlink:href="#SimSun-38" x="100"/>
      </g>
     </g>
    </g>
    <g id="ytick_6">
     <g id="line2d_15">
      <g>
       <use xlink:href="#med4bac05f6" x="42.379688" y="94.143171" style="stroke: #000000; stroke-width: 0.8"/>
      </g>
     </g>
     <g id="text_16">
      <!-- 1.0 -->
      <g transform="translate(20.379688 97.71739)scale(0.1 -0.1)">
       <use xlink:href="#SimSun-31"/>
       <use xlink:href="#SimSun-2e" x="50"/>
       <use xlink:href="#SimSun-30" x="100"/>
      </g>
     </g>
    </g>
    <g id="ytick_7">
     <g id="line2d_16">
      <g>
       <use xlink:href="#med4bac05f6" x="42.379688" y="56.279718" style="stroke: #000000; stroke-width: 0.8"/>
      </g>
     </g>
     <g id="text_17">
      <!-- 1.2 -->
      <g transform="translate(20.379688 59.853937)scale(0.1 -0.1)">
       <use xlink:href="#SimSun-31"/>
       <use xlink:href="#SimSun-2e" x="50"/>
       <use xlink:href="#SimSun-32" x="100"/>
      </g>
     </g>
    </g>
    <g id="ytick_8">
     <g id="line2d_17">
      <g>
       <use xlink:href="#med4bac05f6" x="42.379688" y="18.416265" style="stroke: #000000; stroke-width: 0.8"/>
      </g>
     </g>
     <g id="text_18">
      <!-- 1.4 -->
      <g transform="translate(20.379688 21.990483)scale(0.1 -0.1)">
       <use xlink:href="#SimSun-31"/>
       <use xlink:href="#SimSun-2e" x="50"/>
       <use xlink:href="#SimSun-34" x="100"/>
      </g>
     </g>
    </g>
    <g id="text_19">
     <!-- 销售额 -->
     <g transform="translate(15.090625 165.404438)rotate(-90)scale(0.1 -0.1)">
      <defs>
       <path id="SimSun-9500" d="M 4100 3250 
Q 4100 4250 4075 5225 
L 4675 4975 
L 4450 4775 
L 4450 3250 
L 5225 3250 
L 5425 3525 
L 5825 3200 
L 5625 3025 
L 5625 75 
Q 5650 -375 5100 -575 
Q 5025 -200 4400 -75 
L 4400 25 
Q 4775 0 5037 0 
Q 5300 0 5275 325 
L 5275 1150 
L 3275 1150 
L 3275 -425 
L 2900 -600 
Q 2925 75 2925 1437 
Q 2925 2800 2900 3500 
L 3275 3250 
L 4100 3250 
z
M 2825 4725 
Q 3400 4375 3550 4212 
Q 3700 4050 3700 3925 
Q 3700 3800 3600 3650 
Q 3500 3500 3450 3500 
Q 3350 3500 3300 3750 
Q 3175 4125 2750 4675 
L 2825 4725 
z
M 5425 4825 
L 5925 4425 
L 5650 4350 
Q 5250 3925 4800 3475 
L 4725 3525 
Q 5150 4125 5425 4825 
z
M 3275 3100 
L 3275 2300 
L 5275 2300 
L 5275 3100 
L 3275 3100 
z
M 3275 2150 
L 3275 1300 
L 5275 1300 
L 5275 2150 
L 3275 2150 
z
M 1650 350 
L 2500 825 
L 2575 750 
Q 1725 75 1500 -375 
L 1175 25 
Q 1300 125 1300 375 
L 1300 1725 
L 1150 1725 
Q 825 1725 550 1650 
L 325 1875 
L 1300 1875 
L 1300 2875 
L 800 2875 
Q 625 2650 350 2350 
L 275 2400 
Q 950 3400 1350 5100 
L 1875 4800 
Q 1675 4675 1575 4462 
Q 1475 4250 1375 4000 
L 2075 4000 
L 2375 4350 
L 2800 3850 
L 1325 3850 
Q 1075 3350 875 3025 
L 2000 3025 
L 2275 3325 
L 2675 2875 
L 1650 2875 
L 1650 1875 
L 2125 1875 
L 2400 2175 
L 2775 1725 
L 1650 1725 
L 1650 350 
z
" transform="scale(0.015625)"/>
       <path id="SimSun-552e" d="M 1725 2550 
L 1725 1950 
L 3300 1950 
L 3300 2550 
L 1725 2550 
z
M 1850 5225 
L 2375 4875 
L 2175 4775 
Q 1900 4400 1775 4200 
L 5075 4200 
L 5425 4550 
L 5925 4050 
L 3625 4050 
L 3625 3425 
L 4800 3425 
L 5100 3725 
L 5550 3275 
L 3625 3275 
L 3625 2700 
L 4725 2700 
L 5025 3000 
L 5475 2550 
L 3625 2550 
L 3625 1950 
L 5200 1950 
L 5550 2300 
L 6050 1800 
L 1725 1800 
L 1725 1600 
L 1350 1450 
Q 1375 2150 1375 2600 
L 1375 3625 
Q 975 3100 325 2550 
L 250 2625 
Q 750 3125 1212 3862 
Q 1675 4600 1850 5225 
z
M 3200 5225 
Q 3875 4850 3875 4637 
Q 3875 4425 3762 4325 
Q 3650 4225 3625 4225 
Q 3525 4225 3475 4475 
Q 3400 4825 3125 5175 
L 3200 5225 
z
M 1725 4050 
L 1725 3425 
L 3300 3425 
L 3300 4050 
L 1725 4050 
z
M 1725 3275 
L 1725 2700 
L 3300 2700 
L 3300 3275 
L 1725 3275 
z
M 1975 1100 
L 1975 -100 
L 4775 -100 
L 4775 1100 
L 1975 1100 
z
M 5125 175 
Q 5125 -125 5150 -425 
L 4775 -575 
L 4775 -250 
L 1975 -250 
L 1975 -450 
L 1600 -600 
Q 1625 -75 1625 512 
Q 1625 1100 1600 1475 
L 1975 1250 
L 4725 1250 
L 4900 1500 
L 5325 1175 
L 5125 1025 
L 5125 175 
z
" transform="scale(0.015625)"/>
       <path id="SimSun-989d" d="M 1400 1275 
L 1400 125 
L 2400 125 
L 2400 1275 
L 1400 1275 
z
M 2600 3625 
L 2825 4125 
L 950 4125 
Q 925 3800 825 3687 
Q 725 3575 600 3575 
Q 475 3575 425 3675 
Q 375 3775 550 3925 
Q 725 4075 850 4525 
L 950 4525 
L 950 4275 
L 1875 4275 
Q 1850 4525 1787 4675 
Q 1725 4825 1500 5150 
L 1575 5200 
Q 2050 4900 2137 4750 
Q 2225 4600 2225 4550 
Q 2225 4425 2025 4275 
L 2800 4275 
L 3000 4500 
L 3400 4100 
Q 3250 4100 3125 4037 
Q 3000 3975 2675 3600 
L 2600 3625 
z
M 1075 -475 
Q 1100 0 1100 1425 
Q 800 1225 300 1000 
L 250 1075 
Q 1100 1525 1825 2400 
Q 1525 2550 1125 2725 
Q 750 2300 500 2125 
L 450 2200 
Q 850 2675 1087 3175 
Q 1325 3675 1375 3950 
L 1825 3700 
L 1675 3600 
L 1500 3300 
L 2350 3300 
L 2550 3500 
L 2875 3175 
L 2675 3075 
Q 2450 2775 2200 2450 
Q 2700 2250 2912 2112 
Q 3125 1975 3100 1762 
Q 3075 1550 3025 1550 
Q 2975 1550 2875 1650 
Q 2650 1875 2050 2250 
Q 1775 1925 1275 1525 
L 1400 1425 
L 2375 1425 
L 2575 1625 
L 2875 1325 
L 2700 1200 
Q 2700 300 2725 -75 
L 2400 -275 
L 2400 -25 
L 1400 -25 
L 1400 -275 
L 1075 -475 
z
M 1175 2800 
Q 1400 2750 1950 2550 
Q 2150 2825 2325 3150 
L 1425 3150 
Q 1300 2975 1175 2800 
z
M 3375 800 
Q 3400 1450 3400 2312 
Q 3400 3175 3375 3925 
L 3750 3725 
L 4175 3725 
Q 4275 4425 4300 4700 
L 3775 4700 
Q 3450 4700 3175 4625 
L 2950 4850 
L 5400 4850 
L 5750 5125 
L 6150 4700 
L 4725 4700 
Q 4575 4425 4325 3725 
L 5375 3725 
L 5625 3975 
L 5950 3650 
L 5750 3500 
L 5750 1975 
Q 5750 1550 5775 1100 
L 5425 900 
L 5425 3575 
L 3725 3575 
L 3725 1025 
L 3375 800 
z
M 4975 2825 
L 4750 2650 
Q 4750 1500 4562 925 
Q 4375 350 3937 -12 
Q 3500 -375 2750 -650 
L 2725 -550 
Q 3600 -100 3950 362 
Q 4300 825 4362 1550 
Q 4425 2275 4400 3150 
L 4975 2825 
z
M 4725 850 
Q 5650 375 5850 150 
Q 6050 -75 6050 -250 
Q 6050 -325 6000 -462 
Q 5950 -600 5900 -600 
Q 5850 -600 5775 -475 
Q 5650 -225 5412 87 
Q 5175 400 4675 775 
L 4725 850 
z
" transform="scale(0.015625)"/>
      </defs>
      <use xlink:href="#SimSun-9500"/>
      <use xlink:href="#SimSun-552e" x="100"/>
      <use xlink:href="#SimSun-989d" x="200"/>
     </g>
    </g>
    <g id="text_20">
     <!-- 1e8 -->
     <g transform="translate(42.379688 14.348437)scale(0.1 -0.1)">
      <defs>
       <path id="SimSun-65" d="M 2400 1650 
Q 2425 2200 2212 2487 
Q 2000 2775 1650 2775 
Q 1275 2775 1037 2475 
Q 800 2175 800 1650 
L 2400 1650 
z
M 800 1500 
Q 800 825 1062 537 
Q 1325 250 1750 250 
Q 2075 250 2300 437 
Q 2525 625 2625 900 
L 2750 850 
Q 2675 575 2412 312 
Q 2150 50 1700 50 
Q 1125 50 762 425 
Q 400 800 400 1500 
Q 400 2125 762 2537 
Q 1125 2950 1650 2950 
Q 2125 2950 2475 2625 
Q 2825 2300 2825 1500 
L 800 1500 
z
" transform="scale(0.015625)"/>
      </defs>
      <use xlink:href="#SimSun-31"/>
      <use xlink:href="#SimSun-65" x="50"/>
      <use xlink:href="#SimSun-38" x="100"/>
     </g>
    </g>
   </g>
   <g id="patch_3">
    <path d="M 42.379688 283.460438 
L 42.379688 17.348438 
" style="fill: none; stroke: #000000; stroke-width: 0.8; stroke-linejoin: miter; stroke-linecap: square"/>
   </g>
   <g id="patch_4">
    <path d="M 399.499688 283.460438 
L 399.499688 17.348438 
" style="fill: none; stroke: #000000; stroke-width: 0.8; stroke-linejoin: miter; stroke-linecap: square"/>
   </g>
   <g id="patch_5">
    <path d="M 42.379688 283.460438 
L 399.499687 283.460438 
" style="fill: none; stroke: #000000; stroke-width: 0.8; stroke-linejoin: miter; stroke-linecap: square"/>
   </g>
   <g id="patch_6">
    <path d="M 42.379688 17.348438 
L 399.499687 17.348438 
" style="fill: none; stroke: #000000; stroke-width: 0.8; stroke-linejoin: miter; stroke-linecap: square"/>
   </g>
   <g id="legend_1">
    <g id="patch_7">
     <path d="M 49.379688 52.379688 
L 136.379687 52.379688 
Q 138.379687 52.379688 138.379687 50.379688 
L 138.379687 24.348438 
Q 138.379687 22.348438 136.379687 22.348438 
L 49.379688 22.348438 
Q 47.379688 22.348438 47.379688 24.348438 
L 47.379688 50.379688 
Q 47.379688 52.379688 49.379688 52.379688 
z
" style="fill: #ffffff; opacity: 0.8; stroke: #cccccc; stroke-linejoin: miter"/>
    </g>
    <g id="patch_8">
     <path d="M 51.379688 33.496875 
L 71.379688 33.496875 
L 71.379688 26.496875 
L 51.379688 26.496875 
z
" style="fill: #ff0000; fill-opacity: 0.5"/>
    </g>
    <g id="text_21">
     <!-- top_brand -->
     <g transform="translate(79.379688 33.496875)scale(0.1 -0.1)">
      <defs>
       <path id="SimSun-74" d="M 1500 900 
Q 1500 550 1625 425 
Q 1750 300 2000 300 
Q 2250 300 2400 462 
Q 2550 625 2600 925 
L 2725 875 
Q 2675 525 2462 300 
Q 2250 75 1900 75 
Q 1525 75 1337 300 
Q 1150 525 1150 1000 
L 1150 2750 
L 400 2750 
L 400 2900 
L 600 2900 
Q 900 2900 1087 3087 
Q 1275 3275 1325 3675 
L 1350 3875 
L 1500 3875 
L 1500 2900 
L 2500 2900 
L 2500 2750 
L 1500 2750 
L 1500 900 
z
" transform="scale(0.015625)"/>
       <path id="SimSun-6f" d="M 2900 1500 
Q 2900 875 2525 462 
Q 2150 50 1600 50 
Q 1025 50 662 475 
Q 300 900 300 1500 
Q 300 2050 662 2500 
Q 1025 2950 1600 2950 
Q 2200 2950 2550 2500 
Q 2900 2050 2900 1500 
z
M 700 1475 
Q 700 825 962 512 
Q 1225 200 1600 200 
Q 2025 200 2262 537 
Q 2500 875 2500 1475 
Q 2500 2125 2237 2462 
Q 1975 2800 1600 2800 
Q 1250 2800 975 2462 
Q 700 2125 700 1475 
z
" transform="scale(0.015625)"/>
       <path id="SimSun-70" d="M 1150 -675 
L 1325 -675 
L 1325 -825 
L 175 -825 
L 175 -675 
L 325 -675 
Q 450 -675 500 -625 
Q 550 -575 550 -450 
L 550 2500 
Q 550 2600 500 2662 
Q 450 2725 325 2725 
L 175 2725 
L 175 2875 
L 400 2875 
Q 525 2875 637 2900 
Q 750 2925 850 3000 
L 900 3000 
L 900 2425 
Q 1075 2675 1287 2800 
Q 1500 2925 1750 2925 
Q 2250 2925 2575 2587 
Q 2900 2250 2900 1525 
Q 2900 825 2550 450 
Q 2200 75 1725 75 
Q 1450 75 1262 162 
Q 1075 250 900 425 
L 900 -450 
Q 900 -575 975 -625 
Q 1050 -675 1150 -675 
z
M 900 750 
Q 1025 500 1212 375 
Q 1400 250 1650 250 
Q 2000 250 2250 562 
Q 2500 875 2500 1525 
Q 2500 2125 2312 2425 
Q 2125 2725 1750 2725 
Q 1525 2725 1300 2587 
Q 1075 2450 900 2150 
L 900 750 
z
" transform="scale(0.015625)"/>
       <path id="SimSun-5f" d="M 0 -875 
L 0 -725 
L 3175 -725 
L 3175 -875 
L 0 -875 
z
" transform="scale(0.015625)"/>
       <path id="SimSun-62" d="M 875 2325 
Q 1000 2600 1275 2762 
Q 1550 2925 1800 2925 
Q 2325 2925 2587 2562 
Q 2850 2200 2850 1500 
Q 2850 800 2512 437 
Q 2175 75 1675 75 
Q 1425 75 1212 162 
Q 1000 250 850 400 
L 625 100 
L 525 100 
L 525 4025 
Q 525 4125 475 4175 
Q 425 4225 300 4225 
L 150 4225 
L 150 4375 
L 375 4375 
Q 500 4375 625 4425 
Q 750 4475 875 4575 
L 875 2325 
z
M 875 925 
Q 875 650 1062 450 
Q 1250 250 1625 250 
Q 2075 250 2262 562 
Q 2450 875 2450 1500 
Q 2450 2100 2287 2412 
Q 2125 2725 1775 2725 
Q 1475 2725 1250 2550 
Q 1025 2375 875 1925 
L 875 925 
z
" transform="scale(0.015625)"/>
       <path id="SimSun-72" d="M 1275 2125 
Q 1525 2525 1812 2737 
Q 2100 2950 2400 2950 
Q 2650 2950 2787 2837 
Q 2925 2725 2925 2575 
Q 2925 2450 2862 2375 
Q 2800 2300 2675 2300 
Q 2550 2300 2487 2375 
Q 2425 2450 2450 2575 
Q 2450 2650 2425 2700 
Q 2400 2750 2275 2750 
Q 2075 2750 1787 2500 
Q 1500 2250 1275 1800 
L 1275 450 
Q 1275 350 1337 300 
Q 1400 250 1500 250 
L 2050 250 
L 2050 100 
L 200 100 
L 200 250 
L 700 250 
Q 825 250 875 300 
Q 925 350 925 450 
L 925 2525 
Q 925 2625 875 2687 
Q 825 2750 700 2750 
L 225 2750 
L 225 2900 
L 425 2900 
Q 600 2900 837 2937 
Q 1075 2975 1200 3025 
L 1275 3025 
L 1275 2125 
z
" transform="scale(0.015625)"/>
       <path id="SimSun-61" d="M 1225 75 
Q 775 75 525 287 
Q 275 500 275 775 
Q 275 1225 662 1512 
Q 1050 1800 2200 1925 
L 2200 2225 
Q 2200 2475 2087 2637 
Q 1975 2800 1575 2800 
Q 1150 2800 975 2662 
Q 800 2525 850 2375 
Q 875 2325 875 2275 
Q 875 2225 837 2150 
Q 800 2075 650 2075 
Q 550 2075 487 2137 
Q 425 2200 425 2325 
Q 425 2550 750 2750 
Q 1075 2950 1550 2950 
Q 2050 2950 2300 2762 
Q 2550 2575 2550 2225 
L 2550 575 
Q 2550 375 2587 337 
Q 2625 300 2725 300 
Q 2850 300 2900 412 
Q 2950 525 2950 725 
L 3075 725 
Q 3075 375 2950 237 
Q 2825 100 2625 100 
Q 2450 100 2350 175 
Q 2250 250 2200 425 
Q 1950 250 1737 162 
Q 1525 75 1225 75 
z
M 700 850 
Q 700 625 837 437 
Q 975 250 1275 250 
Q 1500 250 1725 337 
Q 1950 425 2200 600 
L 2200 1775 
Q 1350 1675 1025 1437 
Q 700 1200 700 850 
z
" transform="scale(0.015625)"/>
       <path id="SimSun-6e" d="M 200 100 
L 200 250 
L 325 250 
Q 450 250 500 300 
Q 550 350 550 450 
L 550 2600 
Q 550 2675 525 2712 
Q 500 2750 425 2750 
L 225 2750 
L 225 2900 
L 400 2900 
Q 525 2900 637 2925 
Q 750 2950 850 3025 
L 900 3025 
L 900 2450 
Q 1125 2700 1350 2825 
Q 1575 2950 1825 2950 
Q 2250 2950 2450 2725 
Q 2650 2500 2650 2050 
L 2650 450 
Q 2650 350 2712 300 
Q 2775 250 2875 250 
L 3000 250 
L 3000 100 
L 1950 100 
L 1950 250 
L 2075 250 
Q 2200 250 2250 300 
Q 2300 350 2300 450 
L 2300 2125 
Q 2300 2425 2175 2587 
Q 2050 2750 1800 2750 
Q 1575 2750 1337 2600 
Q 1100 2450 900 2175 
L 900 450 
Q 900 350 962 300 
Q 1025 250 1125 250 
L 1250 250 
L 1250 100 
L 200 100 
z
" transform="scale(0.015625)"/>
       <path id="SimSun-64" d="M 2300 2350 
Q 2175 2550 1975 2637 
Q 1775 2725 1575 2725 
Q 1200 2725 987 2375 
Q 775 2025 775 1450 
Q 775 850 975 562 
Q 1175 275 1550 275 
Q 1825 275 2012 450 
Q 2200 625 2300 975 
L 2300 2350 
z
M 1475 75 
Q 1025 75 700 437 
Q 375 800 375 1500 
Q 375 2150 725 2537 
Q 1075 2925 1550 2925 
Q 1750 2925 1962 2837 
Q 2175 2750 2300 2575 
L 2300 3925 
Q 2300 4075 2250 4150 
Q 2200 4225 2075 4225 
L 1875 4225 
L 1875 4375 
L 2150 4375 
Q 2275 4375 2400 4425 
Q 2525 4475 2650 4575 
L 2650 625 
Q 2650 500 2700 450 
Q 2750 400 2850 400 
L 3025 400 
L 3025 250 
L 2875 250 
Q 2775 250 2637 212 
Q 2500 175 2350 100 
L 2300 100 
L 2300 575 
Q 2175 350 1962 212 
Q 1750 75 1475 75 
z
" transform="scale(0.015625)"/>
      </defs>
      <use xlink:href="#SimSun-74"/>
      <use xlink:href="#SimSun-6f" x="50"/>
      <use xlink:href="#SimSun-70" x="100"/>
      <use xlink:href="#SimSun-5f" x="150"/>
      <use xlink:href="#SimSun-62" x="200"/>
      <use xlink:href="#SimSun-72" x="250"/>
      <use xlink:href="#SimSun-61" x="300"/>
      <use xlink:href="#SimSun-6e" x="350"/>
      <use xlink:href="#SimSun-64" x="400"/>
     </g>
    </g>
    <g id="patch_9">
     <path d="M 51.379688 47.0125 
L 71.379688 47.0125 
L 71.379688 40.0125 
L 51.379688 40.0125 
z
" style="fill: #0000ff; fill-opacity: 0.5"/>
    </g>
    <g id="text_22">
     <!-- other_brand -->
     <g transform="translate(79.379688 47.0125)scale(0.1 -0.1)">
      <defs>
       <path id="SimSun-68" d="M 200 100 
L 200 250 
L 325 250 
Q 450 250 500 300 
Q 550 350 550 450 
L 550 4025 
Q 550 4125 500 4175 
Q 450 4225 325 4225 
L 175 4225 
L 175 4375 
L 450 4375 
Q 550 4375 650 4425 
Q 750 4475 850 4575 
L 900 4575 
L 900 2450 
Q 1125 2725 1362 2837 
Q 1600 2950 1875 2950 
Q 2250 2950 2450 2737 
Q 2650 2525 2650 2075 
L 2650 450 
Q 2650 350 2712 300 
Q 2775 250 2875 250 
L 3000 250 
L 3000 100 
L 1950 100 
L 1950 250 
L 2075 250 
Q 2200 250 2250 300 
Q 2300 350 2300 450 
L 2300 2025 
Q 2300 2450 2162 2587 
Q 2025 2725 1800 2725 
Q 1600 2725 1362 2600 
Q 1125 2475 900 2175 
L 900 450 
Q 900 350 962 300 
Q 1025 250 1125 250 
L 1250 250 
L 1250 100 
L 200 100 
z
" transform="scale(0.015625)"/>
      </defs>
      <use xlink:href="#SimSun-6f"/>
      <use xlink:href="#SimSun-74" x="50"/>
      <use xlink:href="#SimSun-68" x="100"/>
      <use xlink:href="#SimSun-65" x="150"/>
      <use xlink:href="#SimSun-72" x="200"/>
      <use xlink:href="#SimSun-5f" x="250"/>
      <use xlink:href="#SimSun-62" x="300"/>
      <use xlink:href="#SimSun-72" x="350"/>
      <use xlink:href="#SimSun-61" x="400"/>
      <use xlink:href="#SimSun-6e" x="450"/>
      <use xlink:href="#SimSun-64" x="500"/>
     </g>
    </g>
   </g>
  </g>
 </g>
 <defs>
  <clipPath id="p383d5ffb6c">
   <rect x="42.379688" y="17.348438" width="357.12" height="266.112"/>
  </clipPath>
 </defs>
</svg>
