<?xml version="1.0" encoding="utf-8" standalone="no"?>
<!DOCTYPE svg PUBLIC "-//W3C//DTD SVG 1.1//EN"
  "http://www.w3.org/Graphics/SVG/1.1/DTD/svg11.dtd">
<svg xmlns:xlink="http://www.w3.org/1999/xlink" width="406.699688pt" height="329.027625pt" viewBox="0 0 406.699688 329.027625" xmlns="http://www.w3.org/2000/svg" version="1.1">
 <metadata>
  <rdf:RDF xmlns:dc="http://purl.org/dc/elements/1.1/" xmlns:cc="http://creativecommons.org/ns#" xmlns:rdf="http://www.w3.org/1999/02/22-rdf-syntax-ns#">
   <cc:Work>
    <dc:type rdf:resource="http://purl.org/dc/dcmitype/StillImage"/>
    <dc:date>2023-01-05T14:42:43.423105</dc:date>
    <dc:format>image/svg+xml</dc:format>
    <dc:creator>
     <cc:Agent>
      <dc:title>Matplotlib v3.5.3, https://matplotlib.org/</dc:title>
     </cc:Agent>
    </dc:creator>
   </cc:Work>
  </rdf:RDF>
 </metadata>
 <defs>
  <style type="text/css">*{stroke-linejoin: round; stroke-linecap: butt}</style>
 </defs>
 <g id="figure_1">
  <g id="patch_1">
   <path d="M -0 329.027625 
L 406.699688 329.027625 
L 406.699688 0 
L -0 0 
z
" style="fill: #ffffff"/>
  </g>
  <g id="axes_1">
   <g id="patch_2">
    <path d="M 42.379688 283.460438 
L 399.499688 283.460438 
L 399.499688 17.348437 
L 42.379688 17.348437 
z
" style="fill: #ffffff"/>
   </g>
   <g id="matplotlib.axis_1">
    <g id="xtick_1">
     <g id="line2d_1">
      <defs>
       <path id="m4bba7ef425" d="M 0 0 
L 0 3.5 
" style="stroke: #000000; stroke-width: 0.8"/>
      </defs>
      <g>
       <use xlink:href="#m4bba7ef425" x="42.379688" y="283.460438" style="stroke: #000000; stroke-width: 0.8"/>
      </g>
     </g>
     <g id="text_1">
      <!-- Jan -->
      <g transform="translate(34.879688 297.608875)scale(0.1 -0.1)">
       <defs>
        <path id="SimSun-4a" d="M 1825 4025 
Q 1825 4125 1775 4175 
Q 1725 4225 1600 4225 
L 1000 4225 
L 1000 4375 
L 3050 4375 
L 3050 4225 
L 2450 4225 
Q 2350 4225 2287 4175 
Q 2225 4125 2225 4025 
L 2225 475 
Q 2225 -75 1875 -387 
Q 1525 -700 1000 -700 
Q 625 -700 425 -550 
Q 225 -400 225 -200 
Q 225 -50 312 25 
Q 400 100 500 100 
Q 625 100 700 12 
Q 775 -75 775 -200 
Q 775 -250 762 -287 
Q 750 -325 700 -375 
Q 750 -450 850 -487 
Q 950 -525 1100 -525 
Q 1425 -525 1625 -312 
Q 1825 -100 1825 475 
L 1825 4025 
z
" transform="scale(0.015625)"/>
        <path id="SimSun-61" d="M 1225 75 
Q 775 75 525 287 
Q 275 500 275 775 
Q 275 1225 662 1512 
Q 1050 1800 2200 1925 
L 2200 2225 
Q 2200 2475 2087 2637 
Q 1975 2800 1575 2800 
Q 1150 2800 975 2662 
Q 800 2525 850 2375 
Q 875 2325 875 2275 
Q 875 2225 837 2150 
Q 800 2075 650 2075 
Q 550 2075 487 2137 
Q 425 2200 425 2325 
Q 425 2550 750 2750 
Q 1075 2950 1550 2950 
Q 2050 2950 2300 2762 
Q 2550 2575 2550 2225 
L 2550 575 
Q 2550 375 2587 337 
Q 2625 300 2725 300 
Q 2850 300 2900 412 
Q 2950 525 2950 725 
L 3075 725 
Q 3075 375 2950 237 
Q 2825 100 2625 100 
Q 2450 100 2350 175 
Q 2250 250 2200 425 
Q 1950 250 1737 162 
Q 1525 75 1225 75 
z
M 700 850 
Q 700 625 837 437 
Q 975 250 1275 250 
Q 1500 250 1725 337 
Q 1950 425 2200 600 
L 2200 1775 
Q 1350 1675 1025 1437 
Q 700 1200 700 850 
z
" transform="scale(0.015625)"/>
        <path id="SimSun-6e" d="M 200 100 
L 200 250 
L 325 250 
Q 450 250 500 300 
Q 550 350 550 450 
L 550 2600 
Q 550 2675 525 2712 
Q 500 2750 425 2750 
L 225 2750 
L 225 2900 
L 400 2900 
Q 525 2900 637 2925 
Q 750 2950 850 3025 
L 900 3025 
L 900 2450 
Q 1125 2700 1350 2825 
Q 1575 2950 1825 2950 
Q 2250 2950 2450 2725 
Q 2650 2500 2650 2050 
L 2650 450 
Q 2650 350 2712 300 
Q 2775 250 2875 250 
L 3000 250 
L 3000 100 
L 1950 100 
L 1950 250 
L 2075 250 
Q 2200 250 2250 300 
Q 2300 350 2300 450 
L 2300 2125 
Q 2300 2425 2175 2587 
Q 2050 2750 1800 2750 
Q 1575 2750 1337 2600 
Q 1100 2450 900 2175 
L 900 450 
Q 900 350 962 300 
Q 1025 250 1125 250 
L 1250 250 
L 1250 100 
L 200 100 
z
" transform="scale(0.015625)"/>
       </defs>
       <use xlink:href="#SimSun-4a"/>
       <use xlink:href="#SimSun-61" x="50"/>
       <use xlink:href="#SimSun-6e" x="100"/>
      </g>
      <!-- 2020 -->
      <g transform="translate(32.379688 307.476063)scale(0.1 -0.1)">
       <defs>
        <path id="SimSun-32" d="M 2325 3325 
Q 2325 3775 2125 4012 
Q 1925 4250 1525 4250 
Q 1225 4250 1012 4087 
Q 800 3925 800 3675 
Q 800 3525 900 3425 
Q 975 3325 975 3225 
Q 975 3100 912 3037 
Q 850 2975 725 2975 
Q 575 2975 487 3062 
Q 400 3150 400 3350 
Q 400 3875 775 4150 
Q 1150 4425 1575 4425 
Q 2175 4425 2462 4125 
Q 2750 3825 2750 3375 
Q 2750 3075 2612 2775 
Q 2475 2475 2175 2200 
Q 1450 1500 1062 1062 
Q 675 625 600 475 
L 2075 475 
Q 2300 475 2450 650 
Q 2600 825 2650 1175 
L 2800 1175 
L 2650 100 
L 325 100 
L 325 425 
Q 450 650 737 1000 
Q 1025 1350 1500 1825 
Q 1925 2250 2125 2625 
Q 2325 3000 2325 3325 
z
" transform="scale(0.015625)"/>
        <path id="SimSun-30" d="M 1600 4225 
Q 1250 4225 1012 3687 
Q 775 3150 775 2250 
Q 775 1300 1012 775 
Q 1250 250 1600 250 
Q 1975 250 2187 775 
Q 2400 1300 2400 2250 
Q 2400 3150 2200 3687 
Q 2000 4225 1600 4225 
z
M 1600 50 
Q 1050 50 675 625 
Q 300 1200 300 2250 
Q 300 3225 662 3825 
Q 1025 4425 1600 4425 
Q 2150 4425 2512 3850 
Q 2875 3275 2875 2250 
Q 2875 1225 2512 637 
Q 2150 50 1600 50 
z
" transform="scale(0.015625)"/>
       </defs>
       <use xlink:href="#SimSun-32"/>
       <use xlink:href="#SimSun-30" x="50"/>
       <use xlink:href="#SimSun-32" x="100"/>
       <use xlink:href="#SimSun-30" x="150"/>
      </g>
     </g>
    </g>
    <g id="xtick_2">
     <g id="line2d_2">
      <g>
       <use xlink:href="#m4bba7ef425" x="228.703166" y="283.460438" style="stroke: #000000; stroke-width: 0.8"/>
      </g>
     </g>
     <g id="text_2">
      <!-- Jan -->
      <g transform="translate(221.203166 297.608875)scale(0.1 -0.1)">
       <use xlink:href="#SimSun-4a"/>
       <use xlink:href="#SimSun-61" x="50"/>
       <use xlink:href="#SimSun-6e" x="100"/>
      </g>
      <!-- 2021 -->
      <g transform="translate(218.703166 307.476063)scale(0.1 -0.1)">
       <defs>
        <path id="SimSun-31" d="M 1825 4450 
L 1825 650 
Q 1825 450 1950 350 
Q 2075 250 2300 250 
L 2550 250 
L 2550 100 
L 725 100 
L 725 250 
L 950 250 
Q 1200 250 1312 350 
Q 1425 450 1425 650 
L 1425 3675 
Q 1425 3775 1362 3837 
Q 1300 3900 1175 3900 
L 725 3900 
L 725 4050 
L 950 4050 
Q 1250 4050 1437 4150 
Q 1625 4250 1725 4450 
L 1825 4450 
z
" transform="scale(0.015625)"/>
       </defs>
       <use xlink:href="#SimSun-32"/>
       <use xlink:href="#SimSun-30" x="50"/>
       <use xlink:href="#SimSun-32" x="100"/>
       <use xlink:href="#SimSun-31" x="150"/>
      </g>
     </g>
    </g>
    <g id="xtick_3">
     <g id="line2d_3">
      <defs>
       <path id="mcce7eb4784" d="M 0 0 
L 0 2 
" style="stroke: #000000; stroke-width: 0.6"/>
      </defs>
      <g>
       <use xlink:href="#mcce7eb4784" x="57.906644" y="283.460438" style="stroke: #000000; stroke-width: 0.6"/>
      </g>
     </g>
    </g>
    <g id="xtick_4">
     <g id="line2d_4">
      <g>
       <use xlink:href="#mcce7eb4784" x="73.433601" y="283.460438" style="stroke: #000000; stroke-width: 0.6"/>
      </g>
     </g>
    </g>
    <g id="xtick_5">
     <g id="line2d_5">
      <g>
       <use xlink:href="#mcce7eb4784" x="88.960557" y="283.460438" style="stroke: #000000; stroke-width: 0.6"/>
      </g>
     </g>
     <g id="text_3">
      <!-- Apr -->
      <g transform="translate(81.460557 296.008875)scale(0.1 -0.1)">
       <defs>
        <path id="SimSun-41" d="M 2025 1700 
L 900 1700 
L 675 750 
Q 650 625 650 550 
Q 650 450 687 350 
Q 725 250 900 250 
L 975 250 
L 975 100 
L 50 100 
L 50 250 
L 125 250 
Q 225 250 300 312 
Q 375 375 400 525 
L 1375 4350 
L 1750 4475 
L 2700 525 
Q 2750 375 2825 312 
Q 2900 250 3000 250 
L 3075 250 
L 3075 100 
L 2000 100 
L 2000 250 
L 2100 250 
Q 2250 250 2275 312 
Q 2300 375 2300 425 
Q 2300 525 2275 600 
L 2025 1700 
z
M 325 250 
L 325 250 
z
M 575 250 
L 575 250 
z
M 2350 250 
L 2350 250 
z
M 2775 250 
L 2775 250 
z
M 1500 3925 
L 1475 3925 
L 950 1850 
L 2000 1850 
L 1500 3925 
z
" transform="scale(0.015625)"/>
        <path id="SimSun-70" d="M 1150 -675 
L 1325 -675 
L 1325 -825 
L 175 -825 
L 175 -675 
L 325 -675 
Q 450 -675 500 -625 
Q 550 -575 550 -450 
L 550 2500 
Q 550 2600 500 2662 
Q 450 2725 325 2725 
L 175 2725 
L 175 2875 
L 400 2875 
Q 525 2875 637 2900 
Q 750 2925 850 3000 
L 900 3000 
L 900 2425 
Q 1075 2675 1287 2800 
Q 1500 2925 1750 2925 
Q 2250 2925 2575 2587 
Q 2900 2250 2900 1525 
Q 2900 825 2550 450 
Q 2200 75 1725 75 
Q 1450 75 1262 162 
Q 1075 250 900 425 
L 900 -450 
Q 900 -575 975 -625 
Q 1050 -675 1150 -675 
z
M 900 750 
Q 1025 500 1212 375 
Q 1400 250 1650 250 
Q 2000 250 2250 562 
Q 2500 875 2500 1525 
Q 2500 2125 2312 2425 
Q 2125 2725 1750 2725 
Q 1525 2725 1300 2587 
Q 1075 2450 900 2150 
L 900 750 
z
" transform="scale(0.015625)"/>
        <path id="SimSun-72" d="M 1275 2125 
Q 1525 2525 1812 2737 
Q 2100 2950 2400 2950 
Q 2650 2950 2787 2837 
Q 2925 2725 2925 2575 
Q 2925 2450 2862 2375 
Q 2800 2300 2675 2300 
Q 2550 2300 2487 2375 
Q 2425 2450 2450 2575 
Q 2450 2650 2425 2700 
Q 2400 2750 2275 2750 
Q 2075 2750 1787 2500 
Q 1500 2250 1275 1800 
L 1275 450 
Q 1275 350 1337 300 
Q 1400 250 1500 250 
L 2050 250 
L 2050 100 
L 200 100 
L 200 250 
L 700 250 
Q 825 250 875 300 
Q 925 350 925 450 
L 925 2525 
Q 925 2625 875 2687 
Q 825 2750 700 2750 
L 225 2750 
L 225 2900 
L 425 2900 
Q 600 2900 837 2937 
Q 1075 2975 1200 3025 
L 1275 3025 
L 1275 2125 
z
" transform="scale(0.015625)"/>
       </defs>
       <use xlink:href="#SimSun-41"/>
       <use xlink:href="#SimSun-70" x="50"/>
       <use xlink:href="#SimSun-72" x="100"/>
      </g>
     </g>
    </g>
    <g id="xtick_6">
     <g id="line2d_6">
      <g>
       <use xlink:href="#mcce7eb4784" x="104.487514" y="283.460438" style="stroke: #000000; stroke-width: 0.6"/>
      </g>
     </g>
    </g>
    <g id="xtick_7">
     <g id="line2d_7">
      <g>
       <use xlink:href="#mcce7eb4784" x="120.01447" y="283.460438" style="stroke: #000000; stroke-width: 0.6"/>
      </g>
     </g>
    </g>
    <g id="xtick_8">
     <g id="line2d_8">
      <g>
       <use xlink:href="#mcce7eb4784" x="135.541427" y="283.460438" style="stroke: #000000; stroke-width: 0.6"/>
      </g>
     </g>
     <g id="text_4">
      <!-- Jul -->
      <g transform="translate(128.041427 296.008875)scale(0.1 -0.1)">
       <defs>
        <path id="SimSun-75" d="M 1450 325 
Q 1750 325 1962 475 
Q 2175 625 2275 950 
L 2275 2525 
Q 2275 2625 2225 2687 
Q 2175 2750 2050 2750 
L 1900 2750 
L 1900 2900 
L 2050 2900 
Q 2200 2900 2325 2925 
Q 2450 2950 2575 3050 
L 2625 3050 
L 2625 600 
Q 2625 500 2687 450 
Q 2750 400 2850 400 
L 3000 400 
L 3000 250 
L 2850 250 
Q 2725 250 2600 212 
Q 2475 175 2325 100 
L 2275 100 
L 2275 625 
Q 2150 350 1900 212 
Q 1650 75 1325 75 
Q 925 75 725 300 
Q 525 525 525 1025 
L 525 2525 
Q 525 2625 475 2687 
Q 425 2750 300 2750 
L 150 2750 
L 150 2900 
L 300 2900 
Q 450 2900 575 2925 
Q 700 2950 825 3050 
L 875 3050 
L 875 975 
Q 875 625 1025 475 
Q 1175 325 1450 325 
z
" transform="scale(0.015625)"/>
        <path id="SimSun-6c" d="M 925 4375 
Q 1150 4375 1350 4425 
Q 1550 4475 1725 4575 
L 1775 4575 
L 1775 450 
Q 1775 350 1837 300 
Q 1900 250 2000 250 
L 2575 250 
L 2575 100 
L 625 100 
L 625 250 
L 1200 250 
Q 1325 250 1375 300 
Q 1425 350 1425 450 
L 1425 4025 
Q 1425 4125 1375 4175 
Q 1325 4225 1200 4225 
L 650 4225 
L 650 4375 
L 925 4375 
z
" transform="scale(0.015625)"/>
       </defs>
       <use xlink:href="#SimSun-4a"/>
       <use xlink:href="#SimSun-75" x="50"/>
       <use xlink:href="#SimSun-6c" x="100"/>
      </g>
     </g>
    </g>
    <g id="xtick_9">
     <g id="line2d_9">
      <g>
       <use xlink:href="#mcce7eb4784" x="151.068383" y="283.460438" style="stroke: #000000; stroke-width: 0.6"/>
      </g>
     </g>
    </g>
    <g id="xtick_10">
     <g id="line2d_10">
      <g>
       <use xlink:href="#mcce7eb4784" x="166.59534" y="283.460438" style="stroke: #000000; stroke-width: 0.6"/>
      </g>
     </g>
    </g>
    <g id="xtick_11">
     <g id="line2d_11">
      <g>
       <use xlink:href="#mcce7eb4784" x="182.122296" y="283.460438" style="stroke: #000000; stroke-width: 0.6"/>
      </g>
     </g>
     <g id="text_5">
      <!-- Oct -->
      <g transform="translate(174.622296 296.008875)scale(0.1 -0.1)">
       <defs>
        <path id="SimSun-4f" d="M 700 2250 
Q 700 1175 962 687 
Q 1225 200 1625 200 
Q 2050 200 2300 662 
Q 2550 1125 2550 2250 
Q 2550 3150 2337 3700 
Q 2125 4250 1625 4250 
Q 1200 4250 950 3750 
Q 700 3250 700 2250 
z
M 3025 2250 
Q 3025 1225 2625 637 
Q 2225 50 1625 50 
Q 1050 50 637 650 
Q 225 1250 225 2250 
Q 225 3225 612 3825 
Q 1000 4425 1625 4425 
Q 2275 4425 2650 3787 
Q 3025 3150 3025 2250 
z
" transform="scale(0.015625)"/>
        <path id="SimSun-63" d="M 2150 2225 
Q 2150 2300 2175 2325 
Q 2175 2350 2200 2425 
Q 2225 2525 2100 2662 
Q 1975 2800 1675 2800 
Q 1300 2800 1037 2437 
Q 775 2075 775 1475 
Q 775 925 1000 587 
Q 1225 250 1750 250 
Q 2100 250 2337 475 
Q 2575 700 2675 1000 
L 2800 950 
Q 2700 575 2425 312 
Q 2150 50 1675 50 
Q 1075 50 725 425 
Q 375 800 375 1500 
Q 375 2125 750 2537 
Q 1125 2950 1725 2950 
Q 2150 2950 2387 2725 
Q 2625 2500 2625 2275 
Q 2625 2125 2562 2062 
Q 2500 2000 2375 2000 
Q 2275 2000 2212 2062 
Q 2150 2125 2150 2225 
z
" transform="scale(0.015625)"/>
        <path id="SimSun-74" d="M 1500 900 
Q 1500 550 1625 425 
Q 1750 300 2000 300 
Q 2250 300 2400 462 
Q 2550 625 2600 925 
L 2725 875 
Q 2675 525 2462 300 
Q 2250 75 1900 75 
Q 1525 75 1337 300 
Q 1150 525 1150 1000 
L 1150 2750 
L 400 2750 
L 400 2900 
L 600 2900 
Q 900 2900 1087 3087 
Q 1275 3275 1325 3675 
L 1350 3875 
L 1500 3875 
L 1500 2900 
L 2500 2900 
L 2500 2750 
L 1500 2750 
L 1500 900 
z
" transform="scale(0.015625)"/>
       </defs>
       <use xlink:href="#SimSun-4f"/>
       <use xlink:href="#SimSun-63" x="50"/>
       <use xlink:href="#SimSun-74" x="100"/>
      </g>
     </g>
    </g>
    <g id="xtick_12">
     <g id="line2d_12">
      <g>
       <use xlink:href="#mcce7eb4784" x="197.649253" y="283.460438" style="stroke: #000000; stroke-width: 0.6"/>
      </g>
     </g>
    </g>
    <g id="xtick_13">
     <g id="line2d_13">
      <g>
       <use xlink:href="#mcce7eb4784" x="213.176209" y="283.460438" style="stroke: #000000; stroke-width: 0.6"/>
      </g>
     </g>
    </g>
    <g id="xtick_14">
     <g id="line2d_14">
      <g>
       <use xlink:href="#mcce7eb4784" x="244.230122" y="283.460438" style="stroke: #000000; stroke-width: 0.6"/>
      </g>
     </g>
    </g>
    <g id="xtick_15">
     <g id="line2d_15">
      <g>
       <use xlink:href="#mcce7eb4784" x="259.757079" y="283.460438" style="stroke: #000000; stroke-width: 0.6"/>
      </g>
     </g>
    </g>
    <g id="xtick_16">
     <g id="line2d_16">
      <g>
       <use xlink:href="#mcce7eb4784" x="275.284035" y="283.460438" style="stroke: #000000; stroke-width: 0.6"/>
      </g>
     </g>
     <g id="text_6">
      <!-- Apr -->
      <g transform="translate(267.784035 296.008875)scale(0.1 -0.1)">
       <use xlink:href="#SimSun-41"/>
       <use xlink:href="#SimSun-70" x="50"/>
       <use xlink:href="#SimSun-72" x="100"/>
      </g>
     </g>
    </g>
    <g id="xtick_17">
     <g id="line2d_17">
      <g>
       <use xlink:href="#mcce7eb4784" x="290.810992" y="283.460438" style="stroke: #000000; stroke-width: 0.6"/>
      </g>
     </g>
    </g>
    <g id="xtick_18">
     <g id="line2d_18">
      <g>
       <use xlink:href="#mcce7eb4784" x="306.337948" y="283.460438" style="stroke: #000000; stroke-width: 0.6"/>
      </g>
     </g>
    </g>
    <g id="xtick_19">
     <g id="line2d_19">
      <g>
       <use xlink:href="#mcce7eb4784" x="321.864905" y="283.460438" style="stroke: #000000; stroke-width: 0.6"/>
      </g>
     </g>
     <g id="text_7">
      <!-- Jul -->
      <g transform="translate(314.364905 296.008875)scale(0.1 -0.1)">
       <use xlink:href="#SimSun-4a"/>
       <use xlink:href="#SimSun-75" x="50"/>
       <use xlink:href="#SimSun-6c" x="100"/>
      </g>
     </g>
    </g>
    <g id="xtick_20">
     <g id="line2d_20">
      <g>
       <use xlink:href="#mcce7eb4784" x="337.391861" y="283.460438" style="stroke: #000000; stroke-width: 0.6"/>
      </g>
     </g>
    </g>
    <g id="xtick_21">
     <g id="line2d_21">
      <g>
       <use xlink:href="#mcce7eb4784" x="352.918818" y="283.460438" style="stroke: #000000; stroke-width: 0.6"/>
      </g>
     </g>
    </g>
    <g id="xtick_22">
     <g id="line2d_22">
      <g>
       <use xlink:href="#mcce7eb4784" x="368.445774" y="283.460438" style="stroke: #000000; stroke-width: 0.6"/>
      </g>
     </g>
     <g id="text_8">
      <!-- Oct -->
      <g transform="translate(360.945774 296.008875)scale(0.1 -0.1)">
       <use xlink:href="#SimSun-4f"/>
       <use xlink:href="#SimSun-63" x="50"/>
       <use xlink:href="#SimSun-74" x="100"/>
      </g>
     </g>
    </g>
    <g id="xtick_23">
     <g id="line2d_23">
      <g>
       <use xlink:href="#mcce7eb4784" x="383.972731" y="283.460438" style="stroke: #000000; stroke-width: 0.6"/>
      </g>
     </g>
    </g>
    <g id="xtick_24">
     <g id="line2d_24">
      <g>
       <use xlink:href="#mcce7eb4784" x="399.499687" y="283.460438" style="stroke: #000000; stroke-width: 0.6"/>
      </g>
     </g>
    </g>
    <g id="text_9">
     <!-- 日期 -->
     <g transform="translate(210.939688 320.538563)scale(0.1 -0.1)">
      <defs>
       <path id="SimSun-65e5" d="M 1725 4600 
L 1725 2700 
L 4700 2700 
L 4700 4600 
L 1725 4600 
z
M 1725 2550 
L 1725 375 
L 4700 375 
L 4700 2550 
L 1725 2550 
z
M 1350 -475 
Q 1375 1000 1375 2237 
Q 1375 3475 1350 5000 
L 1725 4750 
L 4650 4750 
L 4825 5000 
L 5250 4675 
L 5050 4525 
L 5050 1100 
Q 5050 375 5075 -225 
L 4700 -425 
L 4700 225 
L 1725 225 
L 1725 -250 
L 1350 -475 
z
" transform="scale(0.015625)"/>
       <path id="SimSun-671f" d="M 1575 3975 
L 1575 3325 
L 2600 3325 
L 2600 3975 
L 1575 3975 
z
M 1575 3175 
L 1575 2425 
L 2600 2425 
L 2600 3175 
L 1575 3175 
z
M 1575 2275 
L 1575 1500 
L 2600 1500 
L 2600 2275 
L 1575 2275 
z
M 1225 4125 
Q 1225 4750 1200 5175 
L 1775 4850 
L 1575 4700 
L 1575 4125 
L 2600 4125 
Q 2600 4575 2575 5175 
L 3150 4875 
L 2950 4725 
L 2950 4125 
L 3025 4125 
L 3300 4400 
L 3725 3975 
L 2950 3975 
L 2950 1500 
L 2975 1500 
L 3250 1775 
L 3675 1350 
L 950 1350 
L 600 1300 
L 400 1500 
L 1225 1500 
L 1225 3975 
L 1000 3975 
L 650 3925 
L 450 4125 
L 1225 4125 
z
M 1550 1250 
L 2000 850 
L 1775 775 
Q 1100 -25 375 -475 
L 325 -400 
Q 700 -50 1012 350 
Q 1325 750 1550 1250 
z
M 2375 1150 
Q 2975 825 3075 700 
Q 3175 575 3175 475 
Q 3175 350 3100 225 
Q 3025 100 2975 100 
Q 2900 100 2825 300 
Q 2700 625 2325 1100 
L 2375 1150 
z
M 4225 4550 
L 4225 3300 
L 5450 3300 
L 5450 4550 
L 4225 4550 
z
M 4225 3150 
Q 4225 2450 4200 1875 
L 5450 1875 
L 5450 3150 
L 4225 3150 
z
M 4550 50 
Q 5025 -25 5237 -37 
Q 5450 -50 5450 225 
L 5450 1725 
L 4200 1725 
Q 4150 850 3737 300 
Q 3325 -250 2700 -625 
L 2650 -550 
Q 3075 -200 3350 212 
Q 3625 625 3750 1175 
Q 3875 1725 3875 3000 
Q 3875 4275 3850 4925 
L 4225 4700 
L 5400 4700 
L 5575 4950 
L 5975 4650 
L 5800 4475 
L 5800 125 
Q 5825 -375 5250 -575 
Q 5250 -250 4550 -50 
L 4550 50 
z
" transform="scale(0.015625)"/>
      </defs>
      <use xlink:href="#SimSun-65e5"/>
      <use xlink:href="#SimSun-671f" x="100"/>
     </g>
    </g>
   </g>
   <g id="matplotlib.axis_2">
    <g id="ytick_1">
     <g id="line2d_25">
      <defs>
       <path id="mf2253fb16d" d="M 0 0 
L -3.5 0 
" style="stroke: #000000; stroke-width: 0.8"/>
      </defs>
      <g>
       <use xlink:href="#mf2253fb16d" x="42.379688" y="280.191779" style="stroke: #000000; stroke-width: 0.8"/>
      </g>
     </g>
     <g id="text_10">
      <!-- 0.2 -->
      <g transform="translate(20.379688 283.765998)scale(0.1 -0.1)">
       <defs>
        <path id="SimSun-2e" d="M 800 25 
Q 650 25 537 125 
Q 425 225 425 400 
Q 425 575 537 675 
Q 650 775 800 775 
Q 950 775 1062 662 
Q 1175 550 1175 400 
Q 1175 225 1062 125 
Q 950 25 800 25 
z
" transform="scale(0.015625)"/>
       </defs>
       <use xlink:href="#SimSun-30"/>
       <use xlink:href="#SimSun-2e" x="50"/>
       <use xlink:href="#SimSun-32" x="100"/>
      </g>
     </g>
    </g>
    <g id="ytick_2">
     <g id="line2d_26">
      <g>
       <use xlink:href="#mf2253fb16d" x="42.379688" y="236.335239" style="stroke: #000000; stroke-width: 0.8"/>
      </g>
     </g>
     <g id="text_11">
      <!-- 0.4 -->
      <g transform="translate(20.379688 239.909457)scale(0.1 -0.1)">
       <defs>
        <path id="SimSun-34" d="M 2300 575 
Q 2300 400 2400 325 
Q 2500 250 2675 250 
L 2900 250 
L 2900 100 
L 1250 100 
L 1250 250 
L 1525 250 
Q 1725 250 1812 325 
Q 1900 400 1900 575 
L 1900 1400 
L 225 1400 
L 225 1525 
L 2050 4425 
L 2300 4425 
L 2300 1550 
L 2975 1550 
L 2975 1400 
L 2300 1400 
L 2300 575 
z
M 1875 3800 
L 450 1550 
L 1900 1550 
L 1900 3800 
L 1875 3800 
z
" transform="scale(0.015625)"/>
       </defs>
       <use xlink:href="#SimSun-30"/>
       <use xlink:href="#SimSun-2e" x="50"/>
       <use xlink:href="#SimSun-34" x="100"/>
      </g>
     </g>
    </g>
    <g id="ytick_3">
     <g id="line2d_27">
      <g>
       <use xlink:href="#mf2253fb16d" x="42.379688" y="192.478698" style="stroke: #000000; stroke-width: 0.8"/>
      </g>
     </g>
     <g id="text_12">
      <!-- 0.6 -->
      <g transform="translate(20.379688 196.052917)scale(0.1 -0.1)">
       <defs>
        <path id="SimSun-36" d="M 775 1800 
Q 775 1050 1037 637 
Q 1300 225 1675 225 
Q 2050 225 2250 500 
Q 2450 775 2450 1525 
Q 2450 2025 2237 2300 
Q 2025 2575 1725 2575 
Q 1450 2575 1212 2412 
Q 975 2250 775 1800 
z
M 1750 2825 
Q 2350 2825 2612 2425 
Q 2875 2025 2875 1525 
Q 2875 775 2512 412 
Q 2150 50 1675 50 
Q 1000 50 650 562 
Q 300 1075 300 2050 
Q 300 3200 725 3812 
Q 1150 4425 1875 4425 
Q 2225 4425 2437 4225 
Q 2650 4025 2650 3875 
Q 2650 3725 2587 3650 
Q 2525 3575 2375 3575 
Q 2250 3575 2187 3637 
Q 2125 3700 2125 3825 
Q 2125 3875 2150 3925 
Q 2150 3975 2150 4025 
Q 2150 4125 2075 4187 
Q 2000 4250 1800 4250 
Q 1375 4250 1075 3862 
Q 775 3475 775 2175 
Q 925 2500 1187 2662 
Q 1450 2825 1750 2825 
z
" transform="scale(0.015625)"/>
       </defs>
       <use xlink:href="#SimSun-30"/>
       <use xlink:href="#SimSun-2e" x="50"/>
       <use xlink:href="#SimSun-36" x="100"/>
      </g>
     </g>
    </g>
    <g id="ytick_4">
     <g id="line2d_28">
      <g>
       <use xlink:href="#mf2253fb16d" x="42.379688" y="148.622158" style="stroke: #000000; stroke-width: 0.8"/>
      </g>
     </g>
     <g id="text_13">
      <!-- 0.8 -->
      <g transform="translate(20.379688 152.196376)scale(0.1 -0.1)">
       <defs>
        <path id="SimSun-38" d="M 625 1125 
Q 625 725 887 475 
Q 1150 225 1550 225 
Q 2025 225 2237 475 
Q 2450 725 2450 1100 
Q 2450 1425 2150 1725 
Q 1850 2025 1250 2275 
Q 950 2075 787 1775 
Q 625 1475 625 1125 
z
M 2825 1175 
Q 2825 700 2475 375 
Q 2125 50 1550 50 
Q 1025 50 650 375 
Q 275 700 275 1125 
Q 275 1550 487 1850 
Q 700 2150 1100 2375 
Q 750 2550 562 2812 
Q 375 3075 375 3400 
Q 375 3825 700 4125 
Q 1025 4425 1600 4425 
Q 2125 4425 2450 4125 
Q 2775 3825 2775 3400 
Q 2775 3100 2587 2837 
Q 2400 2575 2000 2375 
Q 2425 2125 2625 1825 
Q 2825 1525 2825 1175 
z
M 2425 3375 
Q 2425 3725 2225 3987 
Q 2025 4250 1600 4250 
Q 1125 4250 925 4000 
Q 725 3750 725 3475 
Q 725 3200 1012 2937 
Q 1300 2675 1825 2475 
Q 2125 2625 2275 2850 
Q 2425 3075 2425 3375 
z
" transform="scale(0.015625)"/>
       </defs>
       <use xlink:href="#SimSun-30"/>
       <use xlink:href="#SimSun-2e" x="50"/>
       <use xlink:href="#SimSun-38" x="100"/>
      </g>
     </g>
    </g>
    <g id="ytick_5">
     <g id="line2d_29">
      <g>
       <use xlink:href="#mf2253fb16d" x="42.379688" y="104.765617" style="stroke: #000000; stroke-width: 0.8"/>
      </g>
     </g>
     <g id="text_14">
      <!-- 1.0 -->
      <g transform="translate(20.379688 108.339836)scale(0.1 -0.1)">
       <use xlink:href="#SimSun-31"/>
       <use xlink:href="#SimSun-2e" x="50"/>
       <use xlink:href="#SimSun-30" x="100"/>
      </g>
     </g>
    </g>
    <g id="ytick_6">
     <g id="line2d_30">
      <g>
       <use xlink:href="#mf2253fb16d" x="42.379688" y="60.909077" style="stroke: #000000; stroke-width: 0.8"/>
      </g>
     </g>
     <g id="text_15">
      <!-- 1.2 -->
      <g transform="translate(20.379688 64.483295)scale(0.1 -0.1)">
       <use xlink:href="#SimSun-31"/>
       <use xlink:href="#SimSun-2e" x="50"/>
       <use xlink:href="#SimSun-32" x="100"/>
      </g>
     </g>
    </g>
    <g id="text_16">
     <!-- 销售额 -->
     <g transform="translate(15.090625 165.404437)rotate(-90)scale(0.1 -0.1)">
      <defs>
       <path id="SimSun-9500" d="M 4100 3250 
Q 4100 4250 4075 5225 
L 4675 4975 
L 4450 4775 
L 4450 3250 
L 5225 3250 
L 5425 3525 
L 5825 3200 
L 5625 3025 
L 5625 75 
Q 5650 -375 5100 -575 
Q 5025 -200 4400 -75 
L 4400 25 
Q 4775 0 5037 0 
Q 5300 0 5275 325 
L 5275 1150 
L 3275 1150 
L 3275 -425 
L 2900 -600 
Q 2925 75 2925 1437 
Q 2925 2800 2900 3500 
L 3275 3250 
L 4100 3250 
z
M 2825 4725 
Q 3400 4375 3550 4212 
Q 3700 4050 3700 3925 
Q 3700 3800 3600 3650 
Q 3500 3500 3450 3500 
Q 3350 3500 3300 3750 
Q 3175 4125 2750 4675 
L 2825 4725 
z
M 5425 4825 
L 5925 4425 
L 5650 4350 
Q 5250 3925 4800 3475 
L 4725 3525 
Q 5150 4125 5425 4825 
z
M 3275 3100 
L 3275 2300 
L 5275 2300 
L 5275 3100 
L 3275 3100 
z
M 3275 2150 
L 3275 1300 
L 5275 1300 
L 5275 2150 
L 3275 2150 
z
M 1650 350 
L 2500 825 
L 2575 750 
Q 1725 75 1500 -375 
L 1175 25 
Q 1300 125 1300 375 
L 1300 1725 
L 1150 1725 
Q 825 1725 550 1650 
L 325 1875 
L 1300 1875 
L 1300 2875 
L 800 2875 
Q 625 2650 350 2350 
L 275 2400 
Q 950 3400 1350 5100 
L 1875 4800 
Q 1675 4675 1575 4462 
Q 1475 4250 1375 4000 
L 2075 4000 
L 2375 4350 
L 2800 3850 
L 1325 3850 
Q 1075 3350 875 3025 
L 2000 3025 
L 2275 3325 
L 2675 2875 
L 1650 2875 
L 1650 1875 
L 2125 1875 
L 2400 2175 
L 2775 1725 
L 1650 1725 
L 1650 350 
z
" transform="scale(0.015625)"/>
       <path id="SimSun-552e" d="M 1725 2550 
L 1725 1950 
L 3300 1950 
L 3300 2550 
L 1725 2550 
z
M 1850 5225 
L 2375 4875 
L 2175 4775 
Q 1900 4400 1775 4200 
L 5075 4200 
L 5425 4550 
L 5925 4050 
L 3625 4050 
L 3625 3425 
L 4800 3425 
L 5100 3725 
L 5550 3275 
L 3625 3275 
L 3625 2700 
L 4725 2700 
L 5025 3000 
L 5475 2550 
L 3625 2550 
L 3625 1950 
L 5200 1950 
L 5550 2300 
L 6050 1800 
L 1725 1800 
L 1725 1600 
L 1350 1450 
Q 1375 2150 1375 2600 
L 1375 3625 
Q 975 3100 325 2550 
L 250 2625 
Q 750 3125 1212 3862 
Q 1675 4600 1850 5225 
z
M 3200 5225 
Q 3875 4850 3875 4637 
Q 3875 4425 3762 4325 
Q 3650 4225 3625 4225 
Q 3525 4225 3475 4475 
Q 3400 4825 3125 5175 
L 3200 5225 
z
M 1725 4050 
L 1725 3425 
L 3300 3425 
L 3300 4050 
L 1725 4050 
z
M 1725 3275 
L 1725 2700 
L 3300 2700 
L 3300 3275 
L 1725 3275 
z
M 1975 1100 
L 1975 -100 
L 4775 -100 
L 4775 1100 
L 1975 1100 
z
M 5125 175 
Q 5125 -125 5150 -425 
L 4775 -575 
L 4775 -250 
L 1975 -250 
L 1975 -450 
L 1600 -600 
Q 1625 -75 1625 512 
Q 1625 1100 1600 1475 
L 1975 1250 
L 4725 1250 
L 4900 1500 
L 5325 1175 
L 5125 1025 
L 5125 175 
z
" transform="scale(0.015625)"/>
       <path id="SimSun-989d" d="M 1400 1275 
L 1400 125 
L 2400 125 
L 2400 1275 
L 1400 1275 
z
M 2600 3625 
L 2825 4125 
L 950 4125 
Q 925 3800 825 3687 
Q 725 3575 600 3575 
Q 475 3575 425 3675 
Q 375 3775 550 3925 
Q 725 4075 850 4525 
L 950 4525 
L 950 4275 
L 1875 4275 
Q 1850 4525 1787 4675 
Q 1725 4825 1500 5150 
L 1575 5200 
Q 2050 4900 2137 4750 
Q 2225 4600 2225 4550 
Q 2225 4425 2025 4275 
L 2800 4275 
L 3000 4500 
L 3400 4100 
Q 3250 4100 3125 4037 
Q 3000 3975 2675 3600 
L 2600 3625 
z
M 1075 -475 
Q 1100 0 1100 1425 
Q 800 1225 300 1000 
L 250 1075 
Q 1100 1525 1825 2400 
Q 1525 2550 1125 2725 
Q 750 2300 500 2125 
L 450 2200 
Q 850 2675 1087 3175 
Q 1325 3675 1375 3950 
L 1825 3700 
L 1675 3600 
L 1500 3300 
L 2350 3300 
L 2550 3500 
L 2875 3175 
L 2675 3075 
Q 2450 2775 2200 2450 
Q 2700 2250 2912 2112 
Q 3125 1975 3100 1762 
Q 3075 1550 3025 1550 
Q 2975 1550 2875 1650 
Q 2650 1875 2050 2250 
Q 1775 1925 1275 1525 
L 1400 1425 
L 2375 1425 
L 2575 1625 
L 2875 1325 
L 2700 1200 
Q 2700 300 2725 -75 
L 2400 -275 
L 2400 -25 
L 1400 -25 
L 1400 -275 
L 1075 -475 
z
M 1175 2800 
Q 1400 2750 1950 2550 
Q 2150 2825 2325 3150 
L 1425 3150 
Q 1300 2975 1175 2800 
z
M 3375 800 
Q 3400 1450 3400 2312 
Q 3400 3175 3375 3925 
L 3750 3725 
L 4175 3725 
Q 4275 4425 4300 4700 
L 3775 4700 
Q 3450 4700 3175 4625 
L 2950 4850 
L 5400 4850 
L 5750 5125 
L 6150 4700 
L 4725 4700 
Q 4575 4425 4325 3725 
L 5375 3725 
L 5625 3975 
L 5950 3650 
L 5750 3500 
L 5750 1975 
Q 5750 1550 5775 1100 
L 5425 900 
L 5425 3575 
L 3725 3575 
L 3725 1025 
L 3375 800 
z
M 4975 2825 
L 4750 2650 
Q 4750 1500 4562 925 
Q 4375 350 3937 -12 
Q 3500 -375 2750 -650 
L 2725 -550 
Q 3600 -100 3950 362 
Q 4300 825 4362 1550 
Q 4425 2275 4400 3150 
L 4975 2825 
z
M 4725 850 
Q 5650 375 5850 150 
Q 6050 -75 6050 -250 
Q 6050 -325 6000 -462 
Q 5950 -600 5900 -600 
Q 5850 -600 5775 -475 
Q 5650 -225 5412 87 
Q 5175 400 4675 775 
L 4725 850 
z
" transform="scale(0.015625)"/>
      </defs>
      <use xlink:href="#SimSun-9500"/>
      <use xlink:href="#SimSun-552e" x="100"/>
      <use xlink:href="#SimSun-989d" x="200"/>
     </g>
    </g>
    <g id="text_17">
     <!-- 1e8 -->
     <g transform="translate(42.379688 14.348437)scale(0.1 -0.1)">
      <defs>
       <path id="SimSun-65" d="M 2400 1650 
Q 2425 2200 2212 2487 
Q 2000 2775 1650 2775 
Q 1275 2775 1037 2475 
Q 800 2175 800 1650 
L 2400 1650 
z
M 800 1500 
Q 800 825 1062 537 
Q 1325 250 1750 250 
Q 2075 250 2300 437 
Q 2525 625 2625 900 
L 2750 850 
Q 2675 575 2412 312 
Q 2150 50 1700 50 
Q 1125 50 762 425 
Q 400 800 400 1500 
Q 400 2125 762 2537 
Q 1125 2950 1650 2950 
Q 2125 2950 2475 2625 
Q 2825 2300 2825 1500 
L 800 1500 
z
" transform="scale(0.015625)"/>
      </defs>
      <use xlink:href="#SimSun-31"/>
      <use xlink:href="#SimSun-65" x="50"/>
      <use xlink:href="#SimSun-38" x="100"/>
     </g>
    </g>
   </g>
   <g id="line2d_31">
    <path d="M 42.379688 260.286776 
L 57.906644 271.364438 
L 73.433601 238.894867 
L 88.960557 249.970001 
L 104.487514 252.811313 
L 120.01447 161.458305 
L 135.541427 251.569871 
L 151.068383 230.557848 
L 166.59534 225.015609 
L 182.122296 247.617383 
L 197.649253 216.009388 
L 213.176209 124.994061 
L 228.703166 202.381135 
L 244.230122 198.309714 
L 259.757079 160.404632 
L 275.284035 177.540925 
L 290.810992 178.37265 
L 306.337948 58.66284 
L 321.864905 178.943359 
L 337.391861 153.288263 
L 352.918818 130.764581 
L 368.445774 143.851382 
L 383.972731 144.490006 
L 399.499687 29.444437 
" clip-path="url(#p43673cef79)" style="fill: none; stroke: #1f77b4; stroke-width: 1.5; stroke-linecap: square"/>
   </g>
   <g id="patch_3">
    <path d="M 42.379688 283.460438 
L 42.379688 17.348437 
" style="fill: none; stroke: #000000; stroke-width: 0.8; stroke-linejoin: miter; stroke-linecap: square"/>
   </g>
   <g id="patch_4">
    <path d="M 399.499688 283.460438 
L 399.499688 17.348437 
" style="fill: none; stroke: #000000; stroke-width: 0.8; stroke-linejoin: miter; stroke-linecap: square"/>
   </g>
   <g id="patch_5">
    <path d="M 42.379688 283.460438 
L 399.499687 283.460438 
" style="fill: none; stroke: #000000; stroke-width: 0.8; stroke-linejoin: miter; stroke-linecap: square"/>
   </g>
   <g id="patch_6">
    <path d="M 42.379688 17.348437 
L 399.499687 17.348437 
" style="fill: none; stroke: #000000; stroke-width: 0.8; stroke-linejoin: miter; stroke-linecap: square"/>
   </g>
   <g id="legend_1">
    <g id="patch_7">
     <path d="M 330.499688 39.528125 
L 392.499688 39.528125 
Q 394.499688 39.528125 394.499688 37.528125 
L 394.499688 24.348437 
Q 394.499688 22.348437 392.499688 22.348437 
L 330.499688 22.348437 
Q 328.499688 22.348437 328.499688 24.348437 
L 328.499688 37.528125 
Q 328.499688 39.528125 330.499688 39.528125 
z
" style="fill: #ffffff; opacity: 0.8; stroke: #cccccc; stroke-linejoin: miter"/>
    </g>
    <g id="line2d_32">
     <path d="M 332.499688 30.739062 
L 342.499688 30.739062 
L 352.499688 30.739062 
" style="fill: none; stroke: #1f77b4; stroke-width: 1.5; stroke-linecap: square"/>
    </g>
    <g id="text_18">
     <!-- 销售额 -->
     <g transform="translate(360.499688 34.239062)scale(0.1 -0.1)">
      <use xlink:href="#SimSun-9500"/>
      <use xlink:href="#SimSun-552e" x="100"/>
      <use xlink:href="#SimSun-989d" x="200"/>
     </g>
    </g>
   </g>
  </g>
 </g>
 <defs>
  <clipPath id="p43673cef79">
   <rect x="42.379688" y="17.348437" width="357.12" height="266.112"/>
  </clipPath>
 </defs>
</svg>
