<?xml version="1.0" encoding="utf-8" standalone="no"?>
<!DOCTYPE svg PUBLIC "-//W3C//DTD SVG 1.1//EN"
  "http://www.w3.org/Graphics/SVG/1.1/DTD/svg11.dtd">
<svg xmlns:xlink="http://www.w3.org/1999/xlink" width="446.80125pt" height="319.160437pt" viewBox="0 0 446.80125 319.160437" xmlns="http://www.w3.org/2000/svg" version="1.1">
 <metadata>
  <rdf:RDF xmlns:dc="http://purl.org/dc/elements/1.1/" xmlns:cc="http://creativecommons.org/ns#" xmlns:rdf="http://www.w3.org/1999/02/22-rdf-syntax-ns#">
   <cc:Work>
    <dc:type rdf:resource="http://purl.org/dc/dcmitype/StillImage"/>
    <dc:date>2023-01-05T14:42:32.921502</dc:date>
    <dc:format>image/svg+xml</dc:format>
    <dc:creator>
     <cc:Agent>
      <dc:title>Matplotlib v3.5.3, https://matplotlib.org/</dc:title>
     </cc:Agent>
    </dc:creator>
   </cc:Work>
  </rdf:RDF>
 </metadata>
 <defs>
  <style type="text/css">*{stroke-linejoin: round; stroke-linecap: butt}</style>
 </defs>
 <g id="figure_1">
  <g id="patch_1">
   <path d="M 0 319.160437 
L 446.80125 319.160437 
L 446.80125 0 
L 0 0 
z
" style="fill: #ffffff"/>
  </g>
  <g id="axes_1">
   <g id="patch_2">
    <path d="M 57.301563 283.460437 
L 414.421563 283.460437 
L 414.421563 17.348437 
L 57.301563 17.348437 
z
" style="fill: #ffffff"/>
   </g>
   <g id="matplotlib.axis_1">
    <g id="xtick_1">
     <g id="line2d_1">
      <defs>
       <path id="mcb3fcce47d" d="M 0 0 
L 0 3.5 
" style="stroke: #000000; stroke-width: 0.8"/>
      </defs>
      <g>
       <use xlink:href="#mcb3fcce47d" x="73.53429" y="283.460437" style="stroke: #000000; stroke-width: 0.8"/>
      </g>
     </g>
     <g id="text_1">
      <!-- 2020-01 -->
      <g transform="translate(56.03429 297.608875)scale(0.1 -0.1)">
       <defs>
        <path id="SimSun-32" d="M 2325 3325 
Q 2325 3775 2125 4012 
Q 1925 4250 1525 4250 
Q 1225 4250 1012 4087 
Q 800 3925 800 3675 
Q 800 3525 900 3425 
Q 975 3325 975 3225 
Q 975 3100 912 3037 
Q 850 2975 725 2975 
Q 575 2975 487 3062 
Q 400 3150 400 3350 
Q 400 3875 775 4150 
Q 1150 4425 1575 4425 
Q 2175 4425 2462 4125 
Q 2750 3825 2750 3375 
Q 2750 3075 2612 2775 
Q 2475 2475 2175 2200 
Q 1450 1500 1062 1062 
Q 675 625 600 475 
L 2075 475 
Q 2300 475 2450 650 
Q 2600 825 2650 1175 
L 2800 1175 
L 2650 100 
L 325 100 
L 325 425 
Q 450 650 737 1000 
Q 1025 1350 1500 1825 
Q 1925 2250 2125 2625 
Q 2325 3000 2325 3325 
z
" transform="scale(0.015625)"/>
        <path id="SimSun-30" d="M 1600 4225 
Q 1250 4225 1012 3687 
Q 775 3150 775 2250 
Q 775 1300 1012 775 
Q 1250 250 1600 250 
Q 1975 250 2187 775 
Q 2400 1300 2400 2250 
Q 2400 3150 2200 3687 
Q 2000 4225 1600 4225 
z
M 1600 50 
Q 1050 50 675 625 
Q 300 1200 300 2250 
Q 300 3225 662 3825 
Q 1025 4425 1600 4425 
Q 2150 4425 2512 3850 
Q 2875 3275 2875 2250 
Q 2875 1225 2512 637 
Q 2150 50 1600 50 
z
" transform="scale(0.015625)"/>
        <path id="SimSun-2d" d="M 200 2225 
L 200 2450 
L 2975 2450 
L 2975 2225 
L 200 2225 
z
" transform="scale(0.015625)"/>
        <path id="SimSun-31" d="M 1825 4450 
L 1825 650 
Q 1825 450 1950 350 
Q 2075 250 2300 250 
L 2550 250 
L 2550 100 
L 725 100 
L 725 250 
L 950 250 
Q 1200 250 1312 350 
Q 1425 450 1425 650 
L 1425 3675 
Q 1425 3775 1362 3837 
Q 1300 3900 1175 3900 
L 725 3900 
L 725 4050 
L 950 4050 
Q 1250 4050 1437 4150 
Q 1625 4250 1725 4450 
L 1825 4450 
z
" transform="scale(0.015625)"/>
       </defs>
       <use xlink:href="#SimSun-32"/>
       <use xlink:href="#SimSun-30" x="50"/>
       <use xlink:href="#SimSun-32" x="100"/>
       <use xlink:href="#SimSun-30" x="150"/>
       <use xlink:href="#SimSun-2d" x="200"/>
       <use xlink:href="#SimSun-30" x="250"/>
       <use xlink:href="#SimSun-31" x="300"/>
      </g>
     </g>
    </g>
    <g id="xtick_2">
     <g id="line2d_2">
      <g>
       <use xlink:href="#mcb3fcce47d" x="115.739381" y="283.460437" style="stroke: #000000; stroke-width: 0.8"/>
      </g>
     </g>
     <g id="text_2">
      <!-- 2020-04 -->
      <g transform="translate(98.239381 297.608875)scale(0.1 -0.1)">
       <defs>
        <path id="SimSun-34" d="M 2300 575 
Q 2300 400 2400 325 
Q 2500 250 2675 250 
L 2900 250 
L 2900 100 
L 1250 100 
L 1250 250 
L 1525 250 
Q 1725 250 1812 325 
Q 1900 400 1900 575 
L 1900 1400 
L 225 1400 
L 225 1525 
L 2050 4425 
L 2300 4425 
L 2300 1550 
L 2975 1550 
L 2975 1400 
L 2300 1400 
L 2300 575 
z
M 1875 3800 
L 450 1550 
L 1900 1550 
L 1900 3800 
L 1875 3800 
z
" transform="scale(0.015625)"/>
       </defs>
       <use xlink:href="#SimSun-32"/>
       <use xlink:href="#SimSun-30" x="50"/>
       <use xlink:href="#SimSun-32" x="100"/>
       <use xlink:href="#SimSun-30" x="150"/>
       <use xlink:href="#SimSun-2d" x="200"/>
       <use xlink:href="#SimSun-30" x="250"/>
       <use xlink:href="#SimSun-34" x="300"/>
      </g>
     </g>
    </g>
    <g id="xtick_3">
     <g id="line2d_3">
      <g>
       <use xlink:href="#mcb3fcce47d" x="157.944472" y="283.460437" style="stroke: #000000; stroke-width: 0.8"/>
      </g>
     </g>
     <g id="text_3">
      <!-- 2020-07 -->
      <g transform="translate(140.444472 297.608875)scale(0.1 -0.1)">
       <defs>
        <path id="SimSun-37" d="M 2825 4200 
Q 2300 3350 1987 2537 
Q 1675 1725 1675 1125 
Q 1675 1025 1700 850 
Q 1700 650 1700 400 
Q 1700 200 1637 125 
Q 1575 50 1425 50 
Q 1300 50 1212 137 
Q 1125 225 1125 450 
Q 1125 925 1337 1625 
Q 1550 2325 2475 4000 
L 1225 4000 
Q 950 4000 787 3825 
Q 625 3650 550 3300 
L 400 3325 
L 575 4375 
L 2825 4375 
L 2825 4200 
z
" transform="scale(0.015625)"/>
       </defs>
       <use xlink:href="#SimSun-32"/>
       <use xlink:href="#SimSun-30" x="50"/>
       <use xlink:href="#SimSun-32" x="100"/>
       <use xlink:href="#SimSun-30" x="150"/>
       <use xlink:href="#SimSun-2d" x="200"/>
       <use xlink:href="#SimSun-30" x="250"/>
       <use xlink:href="#SimSun-37" x="300"/>
      </g>
     </g>
    </g>
    <g id="xtick_4">
     <g id="line2d_4">
      <g>
       <use xlink:href="#mcb3fcce47d" x="200.613355" y="283.460437" style="stroke: #000000; stroke-width: 0.8"/>
      </g>
     </g>
     <g id="text_4">
      <!-- 2020-10 -->
      <g transform="translate(183.113355 297.608875)scale(0.1 -0.1)">
       <use xlink:href="#SimSun-32"/>
       <use xlink:href="#SimSun-30" x="50"/>
       <use xlink:href="#SimSun-32" x="100"/>
       <use xlink:href="#SimSun-30" x="150"/>
       <use xlink:href="#SimSun-2d" x="200"/>
       <use xlink:href="#SimSun-31" x="250"/>
       <use xlink:href="#SimSun-30" x="300"/>
      </g>
     </g>
    </g>
    <g id="xtick_5">
     <g id="line2d_5">
      <g>
       <use xlink:href="#mcb3fcce47d" x="243.282238" y="283.460437" style="stroke: #000000; stroke-width: 0.8"/>
      </g>
     </g>
     <g id="text_5">
      <!-- 2021-01 -->
      <g transform="translate(225.782238 297.608875)scale(0.1 -0.1)">
       <use xlink:href="#SimSun-32"/>
       <use xlink:href="#SimSun-30" x="50"/>
       <use xlink:href="#SimSun-32" x="100"/>
       <use xlink:href="#SimSun-31" x="150"/>
       <use xlink:href="#SimSun-2d" x="200"/>
       <use xlink:href="#SimSun-30" x="250"/>
       <use xlink:href="#SimSun-31" x="300"/>
      </g>
     </g>
    </g>
    <g id="xtick_6">
     <g id="line2d_6">
      <g>
       <use xlink:href="#mcb3fcce47d" x="285.023537" y="283.460437" style="stroke: #000000; stroke-width: 0.8"/>
      </g>
     </g>
     <g id="text_6">
      <!-- 2021-04 -->
      <g transform="translate(267.523537 297.608875)scale(0.1 -0.1)">
       <use xlink:href="#SimSun-32"/>
       <use xlink:href="#SimSun-30" x="50"/>
       <use xlink:href="#SimSun-32" x="100"/>
       <use xlink:href="#SimSun-31" x="150"/>
       <use xlink:href="#SimSun-2d" x="200"/>
       <use xlink:href="#SimSun-30" x="250"/>
       <use xlink:href="#SimSun-34" x="300"/>
      </g>
     </g>
    </g>
    <g id="xtick_7">
     <g id="line2d_7">
      <g>
       <use xlink:href="#mcb3fcce47d" x="327.228627" y="283.460437" style="stroke: #000000; stroke-width: 0.8"/>
      </g>
     </g>
     <g id="text_7">
      <!-- 2021-07 -->
      <g transform="translate(309.728627 297.608875)scale(0.1 -0.1)">
       <use xlink:href="#SimSun-32"/>
       <use xlink:href="#SimSun-30" x="50"/>
       <use xlink:href="#SimSun-32" x="100"/>
       <use xlink:href="#SimSun-31" x="150"/>
       <use xlink:href="#SimSun-2d" x="200"/>
       <use xlink:href="#SimSun-30" x="250"/>
       <use xlink:href="#SimSun-37" x="300"/>
      </g>
     </g>
    </g>
    <g id="xtick_8">
     <g id="line2d_8">
      <g>
       <use xlink:href="#mcb3fcce47d" x="369.897511" y="283.460437" style="stroke: #000000; stroke-width: 0.8"/>
      </g>
     </g>
     <g id="text_8">
      <!-- 2021-10 -->
      <g transform="translate(352.397511 297.608875)scale(0.1 -0.1)">
       <use xlink:href="#SimSun-32"/>
       <use xlink:href="#SimSun-30" x="50"/>
       <use xlink:href="#SimSun-32" x="100"/>
       <use xlink:href="#SimSun-31" x="150"/>
       <use xlink:href="#SimSun-2d" x="200"/>
       <use xlink:href="#SimSun-31" x="250"/>
       <use xlink:href="#SimSun-30" x="300"/>
      </g>
     </g>
    </g>
    <g id="xtick_9">
     <g id="line2d_9">
      <g>
       <use xlink:href="#mcb3fcce47d" x="412.566394" y="283.460437" style="stroke: #000000; stroke-width: 0.8"/>
      </g>
     </g>
     <g id="text_9">
      <!-- 2022-01 -->
      <g transform="translate(395.066394 297.608875)scale(0.1 -0.1)">
       <use xlink:href="#SimSun-32"/>
       <use xlink:href="#SimSun-30" x="50"/>
       <use xlink:href="#SimSun-32" x="100"/>
       <use xlink:href="#SimSun-32" x="150"/>
       <use xlink:href="#SimSun-2d" x="200"/>
       <use xlink:href="#SimSun-30" x="250"/>
       <use xlink:href="#SimSun-31" x="300"/>
      </g>
     </g>
    </g>
    <g id="text_10">
     <!-- 日期 -->
     <g transform="translate(225.861563 310.671375)scale(0.1 -0.1)">
      <defs>
       <path id="SimSun-65e5" d="M 1725 4600 
L 1725 2700 
L 4700 2700 
L 4700 4600 
L 1725 4600 
z
M 1725 2550 
L 1725 375 
L 4700 375 
L 4700 2550 
L 1725 2550 
z
M 1350 -475 
Q 1375 1000 1375 2237 
Q 1375 3475 1350 5000 
L 1725 4750 
L 4650 4750 
L 4825 5000 
L 5250 4675 
L 5050 4525 
L 5050 1100 
Q 5050 375 5075 -225 
L 4700 -425 
L 4700 225 
L 1725 225 
L 1725 -250 
L 1350 -475 
z
" transform="scale(0.015625)"/>
       <path id="SimSun-671f" d="M 1575 3975 
L 1575 3325 
L 2600 3325 
L 2600 3975 
L 1575 3975 
z
M 1575 3175 
L 1575 2425 
L 2600 2425 
L 2600 3175 
L 1575 3175 
z
M 1575 2275 
L 1575 1500 
L 2600 1500 
L 2600 2275 
L 1575 2275 
z
M 1225 4125 
Q 1225 4750 1200 5175 
L 1775 4850 
L 1575 4700 
L 1575 4125 
L 2600 4125 
Q 2600 4575 2575 5175 
L 3150 4875 
L 2950 4725 
L 2950 4125 
L 3025 4125 
L 3300 4400 
L 3725 3975 
L 2950 3975 
L 2950 1500 
L 2975 1500 
L 3250 1775 
L 3675 1350 
L 950 1350 
L 600 1300 
L 400 1500 
L 1225 1500 
L 1225 3975 
L 1000 3975 
L 650 3925 
L 450 4125 
L 1225 4125 
z
M 1550 1250 
L 2000 850 
L 1775 775 
Q 1100 -25 375 -475 
L 325 -400 
Q 700 -50 1012 350 
Q 1325 750 1550 1250 
z
M 2375 1150 
Q 2975 825 3075 700 
Q 3175 575 3175 475 
Q 3175 350 3100 225 
Q 3025 100 2975 100 
Q 2900 100 2825 300 
Q 2700 625 2325 1100 
L 2375 1150 
z
M 4225 4550 
L 4225 3300 
L 5450 3300 
L 5450 4550 
L 4225 4550 
z
M 4225 3150 
Q 4225 2450 4200 1875 
L 5450 1875 
L 5450 3150 
L 4225 3150 
z
M 4550 50 
Q 5025 -25 5237 -37 
Q 5450 -50 5450 225 
L 5450 1725 
L 4200 1725 
Q 4150 850 3737 300 
Q 3325 -250 2700 -625 
L 2650 -550 
Q 3075 -200 3350 212 
Q 3625 625 3750 1175 
Q 3875 1725 3875 3000 
Q 3875 4275 3850 4925 
L 4225 4700 
L 5400 4700 
L 5575 4950 
L 5975 4650 
L 5800 4475 
L 5800 125 
Q 5825 -375 5250 -575 
Q 5250 -250 4550 -50 
L 4550 50 
z
" transform="scale(0.015625)"/>
      </defs>
      <use xlink:href="#SimSun-65e5"/>
      <use xlink:href="#SimSun-671f" x="100"/>
     </g>
    </g>
   </g>
   <g id="matplotlib.axis_2">
    <g id="ytick_1">
     <g id="line2d_10">
      <defs>
       <path id="md1769233f1" d="M 0 0 
L -3.5 0 
" style="stroke: #000000; stroke-width: 0.8"/>
      </defs>
      <g>
       <use xlink:href="#md1769233f1" x="57.301563" y="247.458958" style="stroke: #000000; stroke-width: 0.8"/>
      </g>
     </g>
     <g id="text_11">
      <!-- 200000 -->
      <g transform="translate(20.301563 251.033176)scale(0.1 -0.1)">
       <use xlink:href="#SimSun-32"/>
       <use xlink:href="#SimSun-30" x="50"/>
       <use xlink:href="#SimSun-30" x="100"/>
       <use xlink:href="#SimSun-30" x="150"/>
       <use xlink:href="#SimSun-30" x="200"/>
       <use xlink:href="#SimSun-30" x="250"/>
      </g>
     </g>
    </g>
    <g id="ytick_2">
     <g id="line2d_11">
      <g>
       <use xlink:href="#md1769233f1" x="57.301563" y="211.445881" style="stroke: #000000; stroke-width: 0.8"/>
      </g>
     </g>
     <g id="text_12">
      <!-- 300000 -->
      <g transform="translate(20.301563 215.0201)scale(0.1 -0.1)">
       <defs>
        <path id="SimSun-33" d="M 2800 1250 
Q 2800 775 2450 412 
Q 2100 50 1475 50 
Q 1025 50 700 300 
Q 375 550 375 875 
Q 375 1025 475 1137 
Q 575 1250 675 1250 
Q 825 1250 887 1137 
Q 950 1025 950 950 
Q 950 825 900 750 
Q 850 650 850 575 
Q 850 425 1037 325 
Q 1225 225 1450 225 
Q 1900 225 2125 487 
Q 2350 750 2350 1300 
Q 2350 1750 2112 2025 
Q 1875 2300 1225 2300 
L 1225 2475 
Q 1725 2475 1962 2712 
Q 2200 2950 2200 3375 
Q 2200 3725 2012 3987 
Q 1825 4250 1425 4250 
Q 1250 4250 1050 4162 
Q 850 4075 850 3875 
Q 850 3675 900 3625 
Q 950 3575 950 3500 
Q 950 3375 900 3300 
Q 850 3225 725 3225 
Q 625 3225 537 3300 
Q 450 3375 450 3575 
Q 450 3950 775 4187 
Q 1100 4425 1525 4425 
Q 2025 4425 2325 4112 
Q 2625 3800 2625 3450 
Q 2625 3075 2437 2812 
Q 2250 2550 1850 2425 
Q 2400 2225 2600 1900 
Q 2800 1575 2800 1250 
z
" transform="scale(0.015625)"/>
       </defs>
       <use xlink:href="#SimSun-33"/>
       <use xlink:href="#SimSun-30" x="50"/>
       <use xlink:href="#SimSun-30" x="100"/>
       <use xlink:href="#SimSun-30" x="150"/>
       <use xlink:href="#SimSun-30" x="200"/>
       <use xlink:href="#SimSun-30" x="250"/>
      </g>
     </g>
    </g>
    <g id="ytick_3">
     <g id="line2d_12">
      <g>
       <use xlink:href="#md1769233f1" x="57.301563" y="175.432805" style="stroke: #000000; stroke-width: 0.8"/>
      </g>
     </g>
     <g id="text_13">
      <!-- 400000 -->
      <g transform="translate(20.301563 179.007024)scale(0.1 -0.1)">
       <use xlink:href="#SimSun-34"/>
       <use xlink:href="#SimSun-30" x="50"/>
       <use xlink:href="#SimSun-30" x="100"/>
       <use xlink:href="#SimSun-30" x="150"/>
       <use xlink:href="#SimSun-30" x="200"/>
       <use xlink:href="#SimSun-30" x="250"/>
      </g>
     </g>
    </g>
    <g id="ytick_4">
     <g id="line2d_13">
      <g>
       <use xlink:href="#md1769233f1" x="57.301563" y="139.419729" style="stroke: #000000; stroke-width: 0.8"/>
      </g>
     </g>
     <g id="text_14">
      <!-- 500000 -->
      <g transform="translate(20.301563 142.993948)scale(0.1 -0.1)">
       <defs>
        <path id="SimSun-35" d="M 1725 2850 
Q 2200 2850 2500 2487 
Q 2800 2125 2800 1525 
Q 2800 850 2487 450 
Q 2175 50 1525 50 
Q 1075 50 725 312 
Q 375 575 375 950 
Q 375 1100 462 1212 
Q 550 1325 700 1325 
Q 850 1325 900 1225 
Q 950 1125 950 1050 
Q 950 900 875 825 
Q 800 725 800 625 
Q 800 425 1037 325 
Q 1275 225 1550 225 
Q 1950 225 2162 550 
Q 2375 875 2375 1475 
Q 2375 1975 2187 2287 
Q 2000 2600 1625 2600 
Q 1350 2600 1150 2500 
Q 950 2400 775 2075 
L 550 2100 
L 675 4375 
L 2725 4375 
L 2650 4000 
L 850 4000 
L 750 2350 
Q 1000 2700 1237 2775 
Q 1475 2850 1725 2850 
z
" transform="scale(0.015625)"/>
       </defs>
       <use xlink:href="#SimSun-35"/>
       <use xlink:href="#SimSun-30" x="50"/>
       <use xlink:href="#SimSun-30" x="100"/>
       <use xlink:href="#SimSun-30" x="150"/>
       <use xlink:href="#SimSun-30" x="200"/>
       <use xlink:href="#SimSun-30" x="250"/>
      </g>
     </g>
    </g>
    <g id="ytick_5">
     <g id="line2d_14">
      <g>
       <use xlink:href="#md1769233f1" x="57.301563" y="103.406653" style="stroke: #000000; stroke-width: 0.8"/>
      </g>
     </g>
     <g id="text_15">
      <!-- 600000 -->
      <g transform="translate(20.301563 106.980872)scale(0.1 -0.1)">
       <defs>
        <path id="SimSun-36" d="M 775 1800 
Q 775 1050 1037 637 
Q 1300 225 1675 225 
Q 2050 225 2250 500 
Q 2450 775 2450 1525 
Q 2450 2025 2237 2300 
Q 2025 2575 1725 2575 
Q 1450 2575 1212 2412 
Q 975 2250 775 1800 
z
M 1750 2825 
Q 2350 2825 2612 2425 
Q 2875 2025 2875 1525 
Q 2875 775 2512 412 
Q 2150 50 1675 50 
Q 1000 50 650 562 
Q 300 1075 300 2050 
Q 300 3200 725 3812 
Q 1150 4425 1875 4425 
Q 2225 4425 2437 4225 
Q 2650 4025 2650 3875 
Q 2650 3725 2587 3650 
Q 2525 3575 2375 3575 
Q 2250 3575 2187 3637 
Q 2125 3700 2125 3825 
Q 2125 3875 2150 3925 
Q 2150 3975 2150 4025 
Q 2150 4125 2075 4187 
Q 2000 4250 1800 4250 
Q 1375 4250 1075 3862 
Q 775 3475 775 2175 
Q 925 2500 1187 2662 
Q 1450 2825 1750 2825 
z
" transform="scale(0.015625)"/>
       </defs>
       <use xlink:href="#SimSun-36"/>
       <use xlink:href="#SimSun-30" x="50"/>
       <use xlink:href="#SimSun-30" x="100"/>
       <use xlink:href="#SimSun-30" x="150"/>
       <use xlink:href="#SimSun-30" x="200"/>
       <use xlink:href="#SimSun-30" x="250"/>
      </g>
     </g>
    </g>
    <g id="ytick_6">
     <g id="line2d_15">
      <g>
       <use xlink:href="#md1769233f1" x="57.301563" y="67.393577" style="stroke: #000000; stroke-width: 0.8"/>
      </g>
     </g>
     <g id="text_16">
      <!-- 700000 -->
      <g transform="translate(20.301563 70.967795)scale(0.1 -0.1)">
       <use xlink:href="#SimSun-37"/>
       <use xlink:href="#SimSun-30" x="50"/>
       <use xlink:href="#SimSun-30" x="100"/>
       <use xlink:href="#SimSun-30" x="150"/>
       <use xlink:href="#SimSun-30" x="200"/>
       <use xlink:href="#SimSun-30" x="250"/>
      </g>
     </g>
    </g>
    <g id="ytick_7">
     <g id="line2d_16">
      <g>
       <use xlink:href="#md1769233f1" x="57.301563" y="31.3805" style="stroke: #000000; stroke-width: 0.8"/>
      </g>
     </g>
     <g id="text_17">
      <!-- 800000 -->
      <g transform="translate(20.301563 34.954719)scale(0.1 -0.1)">
       <defs>
        <path id="SimSun-38" d="M 625 1125 
Q 625 725 887 475 
Q 1150 225 1550 225 
Q 2025 225 2237 475 
Q 2450 725 2450 1100 
Q 2450 1425 2150 1725 
Q 1850 2025 1250 2275 
Q 950 2075 787 1775 
Q 625 1475 625 1125 
z
M 2825 1175 
Q 2825 700 2475 375 
Q 2125 50 1550 50 
Q 1025 50 650 375 
Q 275 700 275 1125 
Q 275 1550 487 1850 
Q 700 2150 1100 2375 
Q 750 2550 562 2812 
Q 375 3075 375 3400 
Q 375 3825 700 4125 
Q 1025 4425 1600 4425 
Q 2125 4425 2450 4125 
Q 2775 3825 2775 3400 
Q 2775 3100 2587 2837 
Q 2400 2575 2000 2375 
Q 2425 2125 2625 1825 
Q 2825 1525 2825 1175 
z
M 2425 3375 
Q 2425 3725 2225 3987 
Q 2025 4250 1600 4250 
Q 1125 4250 925 4000 
Q 725 3750 725 3475 
Q 725 3200 1012 2937 
Q 1300 2675 1825 2475 
Q 2125 2625 2275 2850 
Q 2425 3075 2425 3375 
z
" transform="scale(0.015625)"/>
       </defs>
       <use xlink:href="#SimSun-38"/>
       <use xlink:href="#SimSun-30" x="50"/>
       <use xlink:href="#SimSun-30" x="100"/>
       <use xlink:href="#SimSun-30" x="150"/>
       <use xlink:href="#SimSun-30" x="200"/>
       <use xlink:href="#SimSun-30" x="250"/>
      </g>
     </g>
    </g>
    <g id="text_18">
     <!-- 销售量 -->
     <g transform="translate(15.0125 165.404437)rotate(-90)scale(0.1 -0.1)">
      <defs>
       <path id="SimSun-9500" d="M 4100 3250 
Q 4100 4250 4075 5225 
L 4675 4975 
L 4450 4775 
L 4450 3250 
L 5225 3250 
L 5425 3525 
L 5825 3200 
L 5625 3025 
L 5625 75 
Q 5650 -375 5100 -575 
Q 5025 -200 4400 -75 
L 4400 25 
Q 4775 0 5037 0 
Q 5300 0 5275 325 
L 5275 1150 
L 3275 1150 
L 3275 -425 
L 2900 -600 
Q 2925 75 2925 1437 
Q 2925 2800 2900 3500 
L 3275 3250 
L 4100 3250 
z
M 2825 4725 
Q 3400 4375 3550 4212 
Q 3700 4050 3700 3925 
Q 3700 3800 3600 3650 
Q 3500 3500 3450 3500 
Q 3350 3500 3300 3750 
Q 3175 4125 2750 4675 
L 2825 4725 
z
M 5425 4825 
L 5925 4425 
L 5650 4350 
Q 5250 3925 4800 3475 
L 4725 3525 
Q 5150 4125 5425 4825 
z
M 3275 3100 
L 3275 2300 
L 5275 2300 
L 5275 3100 
L 3275 3100 
z
M 3275 2150 
L 3275 1300 
L 5275 1300 
L 5275 2150 
L 3275 2150 
z
M 1650 350 
L 2500 825 
L 2575 750 
Q 1725 75 1500 -375 
L 1175 25 
Q 1300 125 1300 375 
L 1300 1725 
L 1150 1725 
Q 825 1725 550 1650 
L 325 1875 
L 1300 1875 
L 1300 2875 
L 800 2875 
Q 625 2650 350 2350 
L 275 2400 
Q 950 3400 1350 5100 
L 1875 4800 
Q 1675 4675 1575 4462 
Q 1475 4250 1375 4000 
L 2075 4000 
L 2375 4350 
L 2800 3850 
L 1325 3850 
Q 1075 3350 875 3025 
L 2000 3025 
L 2275 3325 
L 2675 2875 
L 1650 2875 
L 1650 1875 
L 2125 1875 
L 2400 2175 
L 2775 1725 
L 1650 1725 
L 1650 350 
z
" transform="scale(0.015625)"/>
       <path id="SimSun-552e" d="M 1725 2550 
L 1725 1950 
L 3300 1950 
L 3300 2550 
L 1725 2550 
z
M 1850 5225 
L 2375 4875 
L 2175 4775 
Q 1900 4400 1775 4200 
L 5075 4200 
L 5425 4550 
L 5925 4050 
L 3625 4050 
L 3625 3425 
L 4800 3425 
L 5100 3725 
L 5550 3275 
L 3625 3275 
L 3625 2700 
L 4725 2700 
L 5025 3000 
L 5475 2550 
L 3625 2550 
L 3625 1950 
L 5200 1950 
L 5550 2300 
L 6050 1800 
L 1725 1800 
L 1725 1600 
L 1350 1450 
Q 1375 2150 1375 2600 
L 1375 3625 
Q 975 3100 325 2550 
L 250 2625 
Q 750 3125 1212 3862 
Q 1675 4600 1850 5225 
z
M 3200 5225 
Q 3875 4850 3875 4637 
Q 3875 4425 3762 4325 
Q 3650 4225 3625 4225 
Q 3525 4225 3475 4475 
Q 3400 4825 3125 5175 
L 3200 5225 
z
M 1725 4050 
L 1725 3425 
L 3300 3425 
L 3300 4050 
L 1725 4050 
z
M 1725 3275 
L 1725 2700 
L 3300 2700 
L 3300 3275 
L 1725 3275 
z
M 1975 1100 
L 1975 -100 
L 4775 -100 
L 4775 1100 
L 1975 1100 
z
M 5125 175 
Q 5125 -125 5150 -425 
L 4775 -575 
L 4775 -250 
L 1975 -250 
L 1975 -450 
L 1600 -600 
Q 1625 -75 1625 512 
Q 1625 1100 1600 1475 
L 1975 1250 
L 4725 1250 
L 4900 1500 
L 5325 1175 
L 5125 1025 
L 5125 175 
z
" transform="scale(0.015625)"/>
       <path id="SimSun-91cf" d="M 1700 2400 
L 1700 1875 
L 3025 1875 
L 3025 2400 
L 1700 2400 
z
M 3350 2400 
L 3350 1875 
L 4625 1875 
L 4625 2400 
L 3350 2400 
z
M 1700 1725 
L 1700 1225 
L 3025 1225 
L 3025 1725 
L 1700 1725 
z
M 3350 1725 
L 3350 1225 
L 4625 1225 
L 4625 1725 
L 3350 1725 
z
M 4950 2325 
Q 4950 1350 4975 1025 
L 4625 875 
L 4625 1075 
L 3350 1075 
L 3350 525 
L 4700 525 
L 5050 825 
L 5450 375 
L 3350 375 
L 3350 -225 
L 5275 -225 
L 5650 125 
L 6075 -375 
L 1175 -375 
Q 850 -375 575 -450 
L 350 -225 
L 3025 -225 
L 3025 375 
L 1725 375 
Q 1400 375 1125 300 
L 900 525 
L 3025 525 
L 3025 1075 
L 1700 1075 
L 1700 925 
L 1350 800 
Q 1375 1300 1375 1787 
Q 1375 2275 1350 2750 
L 1700 2550 
L 4600 2550 
L 4750 2750 
L 5125 2475 
L 4950 2325 
z
M 1775 4800 
L 1775 4375 
L 4550 4375 
L 4550 4800 
L 1775 4800 
z
M 1775 4225 
L 1775 3775 
L 4550 3775 
L 4550 4225 
L 1775 4225 
z
M 4875 4750 
Q 4875 3825 4900 3525 
L 4550 3375 
L 4550 3625 
L 1775 3625 
L 1775 3400 
L 1425 3250 
Q 1450 3650 1450 4262 
Q 1450 4875 1425 5125 
L 1800 4950 
L 4500 4950 
L 4650 5175 
L 5050 4900 
L 4875 4750 
z
M 250 3125 
L 5375 3125 
L 5725 3450 
L 6150 2975 
L 950 2975 
Q 750 2975 475 2900 
L 250 3125 
z
" transform="scale(0.015625)"/>
      </defs>
      <use xlink:href="#SimSun-9500"/>
      <use xlink:href="#SimSun-552e" x="100"/>
      <use xlink:href="#SimSun-91cf" x="200"/>
     </g>
    </g>
   </g>
   <g id="line2d_17">
    <path d="M 73.53429 268.198528 
L 87.911848 271.364437 
L 101.361822 239.39743 
L 115.739381 240.293436 
L 129.653147 241.84632 
L 144.030705 185.241327 
L 157.944472 238.867678 
L 172.32203 217.703874 
L 186.699588 212.662403 
L 200.613355 230.324656 
L 214.990913 215.337454 
L 228.904679 173.770802 
L 243.282238 201.877927 
L 257.659796 139.64157 
L 270.645978 115.348949 
L 285.023537 158.005717 
L 298.937303 145.583367 
L 313.314861 29.444437 
L 327.228627 145.265372 
L 341.606186 148.550484 
L 355.983744 145.356485 
L 369.897511 126.154673 
L 384.275069 138.111734 
L 398.188835 72.571897 
" clip-path="url(#pa2880a1104)" style="fill: none; stroke: #0000ff; stroke-width: 1.5; stroke-linecap: square"/>
    <defs>
     <path id="m08c3434e39" d="M 0 3 
C 0.795609 3 1.55874 2.683901 2.12132 2.12132 
C 2.683901 1.55874 3 0.795609 3 0 
C 3 -0.795609 2.683901 -1.55874 2.12132 -2.12132 
C 1.55874 -2.683901 0.795609 -3 0 -3 
C -0.795609 -3 -1.55874 -2.683901 -2.12132 -2.12132 
C -2.683901 -1.55874 -3 -0.795609 -3 0 
C -3 0.795609 -2.683901 1.55874 -2.12132 2.12132 
C -1.55874 2.683901 -0.795609 3 0 3 
z
" style="stroke: #0000ff"/>
    </defs>
    <g clip-path="url(#pa2880a1104)">
     <use xlink:href="#m08c3434e39" x="73.53429" y="268.198528" style="fill: #0000ff; stroke: #0000ff"/>
     <use xlink:href="#m08c3434e39" x="87.911848" y="271.364437" style="fill: #0000ff; stroke: #0000ff"/>
     <use xlink:href="#m08c3434e39" x="101.361822" y="239.39743" style="fill: #0000ff; stroke: #0000ff"/>
     <use xlink:href="#m08c3434e39" x="115.739381" y="240.293436" style="fill: #0000ff; stroke: #0000ff"/>
     <use xlink:href="#m08c3434e39" x="129.653147" y="241.84632" style="fill: #0000ff; stroke: #0000ff"/>
     <use xlink:href="#m08c3434e39" x="144.030705" y="185.241327" style="fill: #0000ff; stroke: #0000ff"/>
     <use xlink:href="#m08c3434e39" x="157.944472" y="238.867678" style="fill: #0000ff; stroke: #0000ff"/>
     <use xlink:href="#m08c3434e39" x="172.32203" y="217.703874" style="fill: #0000ff; stroke: #0000ff"/>
     <use xlink:href="#m08c3434e39" x="186.699588" y="212.662403" style="fill: #0000ff; stroke: #0000ff"/>
     <use xlink:href="#m08c3434e39" x="200.613355" y="230.324656" style="fill: #0000ff; stroke: #0000ff"/>
     <use xlink:href="#m08c3434e39" x="214.990913" y="215.337454" style="fill: #0000ff; stroke: #0000ff"/>
     <use xlink:href="#m08c3434e39" x="228.904679" y="173.770802" style="fill: #0000ff; stroke: #0000ff"/>
     <use xlink:href="#m08c3434e39" x="243.282238" y="201.877927" style="fill: #0000ff; stroke: #0000ff"/>
     <use xlink:href="#m08c3434e39" x="257.659796" y="139.64157" style="fill: #0000ff; stroke: #0000ff"/>
     <use xlink:href="#m08c3434e39" x="270.645978" y="115.348949" style="fill: #0000ff; stroke: #0000ff"/>
     <use xlink:href="#m08c3434e39" x="285.023537" y="158.005717" style="fill: #0000ff; stroke: #0000ff"/>
     <use xlink:href="#m08c3434e39" x="298.937303" y="145.583367" style="fill: #0000ff; stroke: #0000ff"/>
     <use xlink:href="#m08c3434e39" x="313.314861" y="29.444437" style="fill: #0000ff; stroke: #0000ff"/>
     <use xlink:href="#m08c3434e39" x="327.228627" y="145.265372" style="fill: #0000ff; stroke: #0000ff"/>
     <use xlink:href="#m08c3434e39" x="341.606186" y="148.550484" style="fill: #0000ff; stroke: #0000ff"/>
     <use xlink:href="#m08c3434e39" x="355.983744" y="145.356485" style="fill: #0000ff; stroke: #0000ff"/>
     <use xlink:href="#m08c3434e39" x="369.897511" y="126.154673" style="fill: #0000ff; stroke: #0000ff"/>
     <use xlink:href="#m08c3434e39" x="384.275069" y="138.111734" style="fill: #0000ff; stroke: #0000ff"/>
     <use xlink:href="#m08c3434e39" x="398.188835" y="72.571897" style="fill: #0000ff; stroke: #0000ff"/>
    </g>
   </g>
   <g id="patch_3">
    <path d="M 57.301563 283.460437 
L 57.301563 17.348437 
" style="fill: none; stroke: #000000; stroke-width: 0.8; stroke-linejoin: miter; stroke-linecap: square"/>
   </g>
   <g id="patch_4">
    <path d="M 414.421563 283.460437 
L 414.421563 17.348437 
" style="fill: none; stroke: #000000; stroke-width: 0.8; stroke-linejoin: miter; stroke-linecap: square"/>
   </g>
   <g id="patch_5">
    <path d="M 57.301563 283.460437 
L 414.421562 283.460437 
" style="fill: none; stroke: #000000; stroke-width: 0.8; stroke-linejoin: miter; stroke-linecap: square"/>
   </g>
   <g id="patch_6">
    <path d="M 57.301563 17.348437 
L 414.421562 17.348437 
" style="fill: none; stroke: #000000; stroke-width: 0.8; stroke-linejoin: miter; stroke-linecap: square"/>
   </g>
   <g id="legend_1">
    <g id="patch_7">
     <path d="M 64.301563 53.629687 
L 126.301562 53.629687 
Q 128.301562 53.629687 128.301562 51.629687 
L 128.301562 24.348437 
Q 128.301562 22.348437 126.301562 22.348437 
L 64.301563 22.348437 
Q 62.301563 22.348437 62.301563 24.348437 
L 62.301563 51.629687 
Q 62.301563 53.629687 64.301563 53.629687 
z
" style="fill: #ffffff; opacity: 0.8; stroke: #cccccc; stroke-linejoin: miter"/>
    </g>
    <g id="line2d_18">
     <path d="M 66.301563 30.660937 
L 76.301563 30.660937 
L 86.301563 30.660937 
" style="fill: none; stroke: #0000ff; stroke-width: 1.5; stroke-linecap: square"/>
     <g>
      <use xlink:href="#m08c3434e39" x="76.301563" y="30.660937" style="fill: #0000ff; stroke: #0000ff"/>
     </g>
    </g>
    <g id="text_19">
     <!-- 销售量 -->
     <g transform="translate(94.301563 34.160937)scale(0.1 -0.1)">
      <use xlink:href="#SimSun-9500"/>
      <use xlink:href="#SimSun-552e" x="100"/>
      <use xlink:href="#SimSun-91cf" x="200"/>
     </g>
    </g>
    <g id="line2d_19">
     <path d="M 66.301563 44.840625 
L 76.301563 44.840625 
L 86.301563 44.840625 
" style="fill: none; stroke-dasharray: 5.55,2.4; stroke-dashoffset: 0; stroke: #ff0000; stroke-width: 1.5"/>
     <defs>
      <path id="m28026da764" d="M -3 3 
L 3 3 
L 3 -3 
L -3 -3 
z
" style="stroke: #ff0000; stroke-linejoin: miter"/>
     </defs>
     <g>
      <use xlink:href="#m28026da764" x="76.301563" y="44.840625" style="fill: #ff0000; stroke: #ff0000; stroke-linejoin: miter"/>
     </g>
    </g>
    <g id="text_20">
     <!-- 销售额 -->
     <g transform="translate(94.301563 48.340625)scale(0.1 -0.1)">
      <defs>
       <path id="SimSun-989d" d="M 1400 1275 
L 1400 125 
L 2400 125 
L 2400 1275 
L 1400 1275 
z
M 2600 3625 
L 2825 4125 
L 950 4125 
Q 925 3800 825 3687 
Q 725 3575 600 3575 
Q 475 3575 425 3675 
Q 375 3775 550 3925 
Q 725 4075 850 4525 
L 950 4525 
L 950 4275 
L 1875 4275 
Q 1850 4525 1787 4675 
Q 1725 4825 1500 5150 
L 1575 5200 
Q 2050 4900 2137 4750 
Q 2225 4600 2225 4550 
Q 2225 4425 2025 4275 
L 2800 4275 
L 3000 4500 
L 3400 4100 
Q 3250 4100 3125 4037 
Q 3000 3975 2675 3600 
L 2600 3625 
z
M 1075 -475 
Q 1100 0 1100 1425 
Q 800 1225 300 1000 
L 250 1075 
Q 1100 1525 1825 2400 
Q 1525 2550 1125 2725 
Q 750 2300 500 2125 
L 450 2200 
Q 850 2675 1087 3175 
Q 1325 3675 1375 3950 
L 1825 3700 
L 1675 3600 
L 1500 3300 
L 2350 3300 
L 2550 3500 
L 2875 3175 
L 2675 3075 
Q 2450 2775 2200 2450 
Q 2700 2250 2912 2112 
Q 3125 1975 3100 1762 
Q 3075 1550 3025 1550 
Q 2975 1550 2875 1650 
Q 2650 1875 2050 2250 
Q 1775 1925 1275 1525 
L 1400 1425 
L 2375 1425 
L 2575 1625 
L 2875 1325 
L 2700 1200 
Q 2700 300 2725 -75 
L 2400 -275 
L 2400 -25 
L 1400 -25 
L 1400 -275 
L 1075 -475 
z
M 1175 2800 
Q 1400 2750 1950 2550 
Q 2150 2825 2325 3150 
L 1425 3150 
Q 1300 2975 1175 2800 
z
M 3375 800 
Q 3400 1450 3400 2312 
Q 3400 3175 3375 3925 
L 3750 3725 
L 4175 3725 
Q 4275 4425 4300 4700 
L 3775 4700 
Q 3450 4700 3175 4625 
L 2950 4850 
L 5400 4850 
L 5750 5125 
L 6150 4700 
L 4725 4700 
Q 4575 4425 4325 3725 
L 5375 3725 
L 5625 3975 
L 5950 3650 
L 5750 3500 
L 5750 1975 
Q 5750 1550 5775 1100 
L 5425 900 
L 5425 3575 
L 3725 3575 
L 3725 1025 
L 3375 800 
z
M 4975 2825 
L 4750 2650 
Q 4750 1500 4562 925 
Q 4375 350 3937 -12 
Q 3500 -375 2750 -650 
L 2725 -550 
Q 3600 -100 3950 362 
Q 4300 825 4362 1550 
Q 4425 2275 4400 3150 
L 4975 2825 
z
M 4725 850 
Q 5650 375 5850 150 
Q 6050 -75 6050 -250 
Q 6050 -325 6000 -462 
Q 5950 -600 5900 -600 
Q 5850 -600 5775 -475 
Q 5650 -225 5412 87 
Q 5175 400 4675 775 
L 4725 850 
z
" transform="scale(0.015625)"/>
      </defs>
      <use xlink:href="#SimSun-9500"/>
      <use xlink:href="#SimSun-552e" x="100"/>
      <use xlink:href="#SimSun-989d" x="200"/>
     </g>
    </g>
   </g>
  </g>
  <g id="axes_2">
   <g id="matplotlib.axis_3">
    <g id="ytick_8">
     <g id="line2d_20">
      <defs>
       <path id="m0e7630611a" d="M 0 0 
L 3.5 0 
" style="stroke: #000000; stroke-width: 0.8"/>
      </defs>
      <g>
       <use xlink:href="#m0e7630611a" x="414.421563" y="270.84787" style="stroke: #000000; stroke-width: 0.8"/>
      </g>
     </g>
     <g id="text_21">
      <!-- 1 -->
      <g transform="translate(421.421563 274.422089)scale(0.1 -0.1)">
       <use xlink:href="#SimSun-31"/>
      </g>
     </g>
    </g>
    <g id="ytick_9">
     <g id="line2d_21">
      <g>
       <use xlink:href="#m0e7630611a" x="414.421563" y="225.691007" style="stroke: #000000; stroke-width: 0.8"/>
      </g>
     </g>
     <g id="text_22">
      <!-- 2 -->
      <g transform="translate(421.421563 229.265226)scale(0.1 -0.1)">
       <use xlink:href="#SimSun-32"/>
      </g>
     </g>
    </g>
    <g id="ytick_10">
     <g id="line2d_22">
      <g>
       <use xlink:href="#m0e7630611a" x="414.421563" y="180.534145" style="stroke: #000000; stroke-width: 0.8"/>
      </g>
     </g>
     <g id="text_23">
      <!-- 3 -->
      <g transform="translate(421.421563 184.108363)scale(0.1 -0.1)">
       <use xlink:href="#SimSun-33"/>
      </g>
     </g>
    </g>
    <g id="ytick_11">
     <g id="line2d_23">
      <g>
       <use xlink:href="#m0e7630611a" x="414.421563" y="135.377282" style="stroke: #000000; stroke-width: 0.8"/>
      </g>
     </g>
     <g id="text_24">
      <!-- 4 -->
      <g transform="translate(421.421563 138.951501)scale(0.1 -0.1)">
       <use xlink:href="#SimSun-34"/>
      </g>
     </g>
    </g>
    <g id="ytick_12">
     <g id="line2d_24">
      <g>
       <use xlink:href="#m0e7630611a" x="414.421563" y="90.220419" style="stroke: #000000; stroke-width: 0.8"/>
      </g>
     </g>
     <g id="text_25">
      <!-- 5 -->
      <g transform="translate(421.421563 93.794638)scale(0.1 -0.1)">
       <use xlink:href="#SimSun-35"/>
      </g>
     </g>
    </g>
    <g id="ytick_13">
     <g id="line2d_25">
      <g>
       <use xlink:href="#m0e7630611a" x="414.421563" y="45.063557" style="stroke: #000000; stroke-width: 0.8"/>
      </g>
     </g>
     <g id="text_26">
      <!-- 6 -->
      <g transform="translate(421.421563 48.637776)scale(0.1 -0.1)">
       <use xlink:href="#SimSun-36"/>
      </g>
     </g>
    </g>
    <g id="text_27">
     <!-- 销售额 -->
     <g transform="translate(438.312188 165.404437)rotate(-90)scale(0.1 -0.1)">
      <use xlink:href="#SimSun-9500"/>
      <use xlink:href="#SimSun-552e" x="100"/>
      <use xlink:href="#SimSun-989d" x="200"/>
     </g>
    </g>
    <g id="text_28">
     <!-- 1e7 -->
     <g transform="translate(399.421563 14.348437)scale(0.1 -0.1)">
      <defs>
       <path id="SimSun-65" d="M 2400 1650 
Q 2425 2200 2212 2487 
Q 2000 2775 1650 2775 
Q 1275 2775 1037 2475 
Q 800 2175 800 1650 
L 2400 1650 
z
M 800 1500 
Q 800 825 1062 537 
Q 1325 250 1750 250 
Q 2075 250 2300 437 
Q 2525 625 2625 900 
L 2750 850 
Q 2675 575 2412 312 
Q 2150 50 1700 50 
Q 1125 50 762 425 
Q 400 800 400 1500 
Q 400 2125 762 2537 
Q 1125 2950 1650 2950 
Q 2125 2950 2475 2625 
Q 2825 2300 2825 1500 
L 800 1500 
z
" transform="scale(0.015625)"/>
      </defs>
      <use xlink:href="#SimSun-31"/>
      <use xlink:href="#SimSun-65" x="50"/>
      <use xlink:href="#SimSun-37" x="100"/>
     </g>
    </g>
   </g>
   <g id="line2d_26">
    <path d="M 73.53429 266.687534 
L 87.911848 271.364437 
L 101.361822 241.226171 
L 115.739381 244.660956 
L 129.653147 253.533988 
L 144.030705 188.949535 
L 157.944472 252.40277 
L 172.32203 236.197509 
L 186.699588 231.780029 
L 200.613355 250.800898 
L 214.990913 228.594778 
L 228.904679 171.315341 
L 243.282238 214.839534 
L 257.659796 190.114356 
L 270.645978 156.090888 
L 285.023537 183.58079 
L 298.937303 172.377194 
L 313.314861 45.000994 
L 327.228627 163.183228 
L 341.606186 153.887924 
L 355.983744 155.671217 
L 369.897511 130.407737 
L 384.275069 103.472859 
L 398.188835 29.444437 
" clip-path="url(#pa2880a1104)" style="fill: none; stroke-dasharray: 5.55,2.4; stroke-dashoffset: 0; stroke: #ff0000; stroke-width: 1.5"/>
    <g clip-path="url(#pa2880a1104)">
     <use xlink:href="#m28026da764" x="73.53429" y="266.687534" style="fill: #ff0000; stroke: #ff0000; stroke-linejoin: miter"/>
     <use xlink:href="#m28026da764" x="87.911848" y="271.364437" style="fill: #ff0000; stroke: #ff0000; stroke-linejoin: miter"/>
     <use xlink:href="#m28026da764" x="101.361822" y="241.226171" style="fill: #ff0000; stroke: #ff0000; stroke-linejoin: miter"/>
     <use xlink:href="#m28026da764" x="115.739381" y="244.660956" style="fill: #ff0000; stroke: #ff0000; stroke-linejoin: miter"/>
     <use xlink:href="#m28026da764" x="129.653147" y="253.533988" style="fill: #ff0000; stroke: #ff0000; stroke-linejoin: miter"/>
     <use xlink:href="#m28026da764" x="144.030705" y="188.949535" style="fill: #ff0000; stroke: #ff0000; stroke-linejoin: miter"/>
     <use xlink:href="#m28026da764" x="157.944472" y="252.40277" style="fill: #ff0000; stroke: #ff0000; stroke-linejoin: miter"/>
     <use xlink:href="#m28026da764" x="172.32203" y="236.197509" style="fill: #ff0000; stroke: #ff0000; stroke-linejoin: miter"/>
     <use xlink:href="#m28026da764" x="186.699588" y="231.780029" style="fill: #ff0000; stroke: #ff0000; stroke-linejoin: miter"/>
     <use xlink:href="#m28026da764" x="200.613355" y="250.800898" style="fill: #ff0000; stroke: #ff0000; stroke-linejoin: miter"/>
     <use xlink:href="#m28026da764" x="214.990913" y="228.594778" style="fill: #ff0000; stroke: #ff0000; stroke-linejoin: miter"/>
     <use xlink:href="#m28026da764" x="228.904679" y="171.315341" style="fill: #ff0000; stroke: #ff0000; stroke-linejoin: miter"/>
     <use xlink:href="#m28026da764" x="243.282238" y="214.839534" style="fill: #ff0000; stroke: #ff0000; stroke-linejoin: miter"/>
     <use xlink:href="#m28026da764" x="257.659796" y="190.114356" style="fill: #ff0000; stroke: #ff0000; stroke-linejoin: miter"/>
     <use xlink:href="#m28026da764" x="270.645978" y="156.090888" style="fill: #ff0000; stroke: #ff0000; stroke-linejoin: miter"/>
     <use xlink:href="#m28026da764" x="285.023537" y="183.58079" style="fill: #ff0000; stroke: #ff0000; stroke-linejoin: miter"/>
     <use xlink:href="#m28026da764" x="298.937303" y="172.377194" style="fill: #ff0000; stroke: #ff0000; stroke-linejoin: miter"/>
     <use xlink:href="#m28026da764" x="313.314861" y="45.000994" style="fill: #ff0000; stroke: #ff0000; stroke-linejoin: miter"/>
     <use xlink:href="#m28026da764" x="327.228627" y="163.183228" style="fill: #ff0000; stroke: #ff0000; stroke-linejoin: miter"/>
     <use xlink:href="#m28026da764" x="341.606186" y="153.887924" style="fill: #ff0000; stroke: #ff0000; stroke-linejoin: miter"/>
     <use xlink:href="#m28026da764" x="355.983744" y="155.671217" style="fill: #ff0000; stroke: #ff0000; stroke-linejoin: miter"/>
     <use xlink:href="#m28026da764" x="369.897511" y="130.407737" style="fill: #ff0000; stroke: #ff0000; stroke-linejoin: miter"/>
     <use xlink:href="#m28026da764" x="384.275069" y="103.472859" style="fill: #ff0000; stroke: #ff0000; stroke-linejoin: miter"/>
     <use xlink:href="#m28026da764" x="398.188835" y="29.444437" style="fill: #ff0000; stroke: #ff0000; stroke-linejoin: miter"/>
    </g>
   </g>
   <g id="patch_8">
    <path d="M 57.301563 283.460437 
L 57.301563 17.348437 
" style="fill: none; stroke: #000000; stroke-width: 0.8; stroke-linejoin: miter; stroke-linecap: square"/>
   </g>
   <g id="patch_9">
    <path d="M 414.421563 283.460437 
L 414.421563 17.348437 
" style="fill: none; stroke: #000000; stroke-width: 0.8; stroke-linejoin: miter; stroke-linecap: square"/>
   </g>
   <g id="patch_10">
    <path d="M 57.301563 283.460437 
L 414.421562 283.460437 
" style="fill: none; stroke: #000000; stroke-width: 0.8; stroke-linejoin: miter; stroke-linecap: square"/>
   </g>
   <g id="patch_11">
    <path d="M 57.301563 17.348437 
L 414.421562 17.348437 
" style="fill: none; stroke: #000000; stroke-width: 0.8; stroke-linejoin: miter; stroke-linecap: square"/>
   </g>
  </g>
 </g>
 <defs>
  <clipPath id="pa2880a1104">
   <rect x="57.301563" y="17.348437" width="357.12" height="266.112"/>
  </clipPath>
 </defs>
</svg>
