<?xml version="1.0" encoding="utf-8" standalone="no"?>
<!DOCTYPE svg PUBLIC "-//W3C//DTD SVG 1.1//EN"
  "http://www.w3.org/Graphics/SVG/1.1/DTD/svg11.dtd">
<svg xmlns:xlink="http://www.w3.org/1999/xlink" width="473.52pt" height="309.129187pt" viewBox="0 0 473.52 309.129187" xmlns="http://www.w3.org/2000/svg" version="1.1">
 <metadata>
  <rdf:RDF xmlns:dc="http://purl.org/dc/elements/1.1/" xmlns:cc="http://creativecommons.org/ns#" xmlns:rdf="http://www.w3.org/1999/02/22-rdf-syntax-ns#">
   <cc:Work>
    <dc:type rdf:resource="http://purl.org/dc/dcmitype/StillImage"/>
    <dc:date>2023-01-05T14:42:34.115108</dc:date>
    <dc:format>image/svg+xml</dc:format>
    <dc:creator>
     <cc:Agent>
      <dc:title>Matplotlib v3.5.3, https://matplotlib.org/</dc:title>
     </cc:Agent>
    </dc:creator>
   </cc:Work>
  </rdf:RDF>
 </metadata>
 <defs>
  <style type="text/css">*{stroke-linejoin: round; stroke-linecap: butt}</style>
 </defs>
 <g id="figure_1">
  <g id="patch_1">
   <path d="M 0 309.129187 
L 473.52 309.129187 
L 473.52 0 
L 0 0 
z
" style="fill: #ffffff"/>
  </g>
  <g id="axes_1">
   <g id="patch_2">
    <path d="M 109.2 273.312 
L 466.32 273.312 
L 466.32 7.2 
L 109.2 7.2 
z
" style="fill: #ffffff"/>
   </g>
   <g id="patch_3">
    <path d="M 109.2 261.216 
L 180.00043 261.216 
L 180.00043 241.467429 
L 109.2 241.467429 
z
" clip-path="url(#p45015d1338)" style="fill: #0000ff; opacity: 0.5"/>
   </g>
   <g id="patch_4">
    <path d="M 109.2 236.530286 
L 184.618389 236.530286 
L 184.618389 216.781714 
L 109.2 216.781714 
z
" clip-path="url(#p45015d1338)" style="fill: #0000ff; opacity: 0.5"/>
   </g>
   <g id="patch_5">
    <path d="M 109.2 211.844571 
L 205.400368 211.844571 
L 205.400368 192.096 
L 109.2 192.096 
z
" clip-path="url(#p45015d1338)" style="fill: #0000ff; opacity: 0.5"/>
   </g>
   <g id="patch_6">
    <path d="M 109.2 187.158857 
L 217.463312 187.158857 
L 217.463312 167.410286 
L 109.2 167.410286 
z
" clip-path="url(#p45015d1338)" style="fill: #0000ff; opacity: 0.5"/>
   </g>
   <g id="patch_7">
    <path d="M 109.2 162.473143 
L 220.169923 162.473143 
L 220.169923 142.724571 
L 109.2 142.724571 
z
" clip-path="url(#p45015d1338)" style="fill: #0000ff; opacity: 0.5"/>
   </g>
   <g id="patch_8">
    <path d="M 109.2 137.787429 
L 232.175551 137.787429 
L 232.175551 118.038857 
L 109.2 118.038857 
z
" clip-path="url(#p45015d1338)" style="fill: #0000ff; opacity: 0.5"/>
   </g>
   <g id="patch_9">
    <path d="M 109.2 113.101714 
L 267.070735 113.101714 
L 267.070735 93.353143 
L 109.2 93.353143 
z
" clip-path="url(#p45015d1338)" style="fill: #0000ff; opacity: 0.5"/>
   </g>
   <g id="patch_10">
    <path d="M 109.2 88.416 
L 310.772011 88.416 
L 310.772011 68.667429 
L 109.2 68.667429 
z
" clip-path="url(#p45015d1338)" style="fill: #0000ff; opacity: 0.5"/>
   </g>
   <g id="patch_11">
    <path d="M 109.2 63.730286 
L 409.653741 63.730286 
L 409.653741 43.981714 
L 109.2 43.981714 
z
" clip-path="url(#p45015d1338)" style="fill: #0000ff; opacity: 0.5"/>
   </g>
   <g id="patch_12">
    <path d="M 109.2 39.044571 
L 449.314286 39.044571 
L 449.314286 19.296 
L 109.2 19.296 
z
" clip-path="url(#p45015d1338)" style="fill: #0000ff; opacity: 0.5"/>
   </g>
   <g id="matplotlib.axis_1">
    <g id="xtick_1">
     <g id="line2d_1">
      <defs>
       <path id="m215a7fe664" d="M 0 0 
L 0 3.5 
" style="stroke: #000000; stroke-width: 0.8"/>
      </defs>
      <g>
       <use xlink:href="#m215a7fe664" x="109.2" y="273.312" style="stroke: #000000; stroke-width: 0.8"/>
      </g>
     </g>
     <g id="text_1">
      <!-- 0.0 -->
      <g transform="translate(101.7 287.460437)scale(0.1 -0.1)">
       <defs>
        <path id="SimSun-30" d="M 1600 4225 
Q 1250 4225 1012 3687 
Q 775 3150 775 2250 
Q 775 1300 1012 775 
Q 1250 250 1600 250 
Q 1975 250 2187 775 
Q 2400 1300 2400 2250 
Q 2400 3150 2200 3687 
Q 2000 4225 1600 4225 
z
M 1600 50 
Q 1050 50 675 625 
Q 300 1200 300 2250 
Q 300 3225 662 3825 
Q 1025 4425 1600 4425 
Q 2150 4425 2512 3850 
Q 2875 3275 2875 2250 
Q 2875 1225 2512 637 
Q 2150 50 1600 50 
z
" transform="scale(0.015625)"/>
        <path id="SimSun-2e" d="M 800 25 
Q 650 25 537 125 
Q 425 225 425 400 
Q 425 575 537 675 
Q 650 775 800 775 
Q 950 775 1062 662 
Q 1175 550 1175 400 
Q 1175 225 1062 125 
Q 950 25 800 25 
z
" transform="scale(0.015625)"/>
       </defs>
       <use xlink:href="#SimSun-30"/>
       <use xlink:href="#SimSun-2e" x="50"/>
       <use xlink:href="#SimSun-30" x="100"/>
      </g>
     </g>
    </g>
    <g id="xtick_2">
     <g id="line2d_2">
      <g>
       <use xlink:href="#m215a7fe664" x="176.829381" y="273.312" style="stroke: #000000; stroke-width: 0.8"/>
      </g>
     </g>
     <g id="text_2">
      <!-- 0.2 -->
      <g transform="translate(169.329381 287.460437)scale(0.1 -0.1)">
       <defs>
        <path id="SimSun-32" d="M 2325 3325 
Q 2325 3775 2125 4012 
Q 1925 4250 1525 4250 
Q 1225 4250 1012 4087 
Q 800 3925 800 3675 
Q 800 3525 900 3425 
Q 975 3325 975 3225 
Q 975 3100 912 3037 
Q 850 2975 725 2975 
Q 575 2975 487 3062 
Q 400 3150 400 3350 
Q 400 3875 775 4150 
Q 1150 4425 1575 4425 
Q 2175 4425 2462 4125 
Q 2750 3825 2750 3375 
Q 2750 3075 2612 2775 
Q 2475 2475 2175 2200 
Q 1450 1500 1062 1062 
Q 675 625 600 475 
L 2075 475 
Q 2300 475 2450 650 
Q 2600 825 2650 1175 
L 2800 1175 
L 2650 100 
L 325 100 
L 325 425 
Q 450 650 737 1000 
Q 1025 1350 1500 1825 
Q 1925 2250 2125 2625 
Q 2325 3000 2325 3325 
z
" transform="scale(0.015625)"/>
       </defs>
       <use xlink:href="#SimSun-30"/>
       <use xlink:href="#SimSun-2e" x="50"/>
       <use xlink:href="#SimSun-32" x="100"/>
      </g>
     </g>
    </g>
    <g id="xtick_3">
     <g id="line2d_3">
      <g>
       <use xlink:href="#m215a7fe664" x="244.458763" y="273.312" style="stroke: #000000; stroke-width: 0.8"/>
      </g>
     </g>
     <g id="text_3">
      <!-- 0.4 -->
      <g transform="translate(236.958763 287.460437)scale(0.1 -0.1)">
       <defs>
        <path id="SimSun-34" d="M 2300 575 
Q 2300 400 2400 325 
Q 2500 250 2675 250 
L 2900 250 
L 2900 100 
L 1250 100 
L 1250 250 
L 1525 250 
Q 1725 250 1812 325 
Q 1900 400 1900 575 
L 1900 1400 
L 225 1400 
L 225 1525 
L 2050 4425 
L 2300 4425 
L 2300 1550 
L 2975 1550 
L 2975 1400 
L 2300 1400 
L 2300 575 
z
M 1875 3800 
L 450 1550 
L 1900 1550 
L 1900 3800 
L 1875 3800 
z
" transform="scale(0.015625)"/>
       </defs>
       <use xlink:href="#SimSun-30"/>
       <use xlink:href="#SimSun-2e" x="50"/>
       <use xlink:href="#SimSun-34" x="100"/>
      </g>
     </g>
    </g>
    <g id="xtick_4">
     <g id="line2d_4">
      <g>
       <use xlink:href="#m215a7fe664" x="312.088144" y="273.312" style="stroke: #000000; stroke-width: 0.8"/>
      </g>
     </g>
     <g id="text_4">
      <!-- 0.6 -->
      <g transform="translate(304.588144 287.460437)scale(0.1 -0.1)">
       <defs>
        <path id="SimSun-36" d="M 775 1800 
Q 775 1050 1037 637 
Q 1300 225 1675 225 
Q 2050 225 2250 500 
Q 2450 775 2450 1525 
Q 2450 2025 2237 2300 
Q 2025 2575 1725 2575 
Q 1450 2575 1212 2412 
Q 975 2250 775 1800 
z
M 1750 2825 
Q 2350 2825 2612 2425 
Q 2875 2025 2875 1525 
Q 2875 775 2512 412 
Q 2150 50 1675 50 
Q 1000 50 650 562 
Q 300 1075 300 2050 
Q 300 3200 725 3812 
Q 1150 4425 1875 4425 
Q 2225 4425 2437 4225 
Q 2650 4025 2650 3875 
Q 2650 3725 2587 3650 
Q 2525 3575 2375 3575 
Q 2250 3575 2187 3637 
Q 2125 3700 2125 3825 
Q 2125 3875 2150 3925 
Q 2150 3975 2150 4025 
Q 2150 4125 2075 4187 
Q 2000 4250 1800 4250 
Q 1375 4250 1075 3862 
Q 775 3475 775 2175 
Q 925 2500 1187 2662 
Q 1450 2825 1750 2825 
z
" transform="scale(0.015625)"/>
       </defs>
       <use xlink:href="#SimSun-30"/>
       <use xlink:href="#SimSun-2e" x="50"/>
       <use xlink:href="#SimSun-36" x="100"/>
      </g>
     </g>
    </g>
    <g id="xtick_5">
     <g id="line2d_5">
      <g>
       <use xlink:href="#m215a7fe664" x="379.717526" y="273.312" style="stroke: #000000; stroke-width: 0.8"/>
      </g>
     </g>
     <g id="text_5">
      <!-- 0.8 -->
      <g transform="translate(372.217526 287.460437)scale(0.1 -0.1)">
       <defs>
        <path id="SimSun-38" d="M 625 1125 
Q 625 725 887 475 
Q 1150 225 1550 225 
Q 2025 225 2237 475 
Q 2450 725 2450 1100 
Q 2450 1425 2150 1725 
Q 1850 2025 1250 2275 
Q 950 2075 787 1775 
Q 625 1475 625 1125 
z
M 2825 1175 
Q 2825 700 2475 375 
Q 2125 50 1550 50 
Q 1025 50 650 375 
Q 275 700 275 1125 
Q 275 1550 487 1850 
Q 700 2150 1100 2375 
Q 750 2550 562 2812 
Q 375 3075 375 3400 
Q 375 3825 700 4125 
Q 1025 4425 1600 4425 
Q 2125 4425 2450 4125 
Q 2775 3825 2775 3400 
Q 2775 3100 2587 2837 
Q 2400 2575 2000 2375 
Q 2425 2125 2625 1825 
Q 2825 1525 2825 1175 
z
M 2425 3375 
Q 2425 3725 2225 3987 
Q 2025 4250 1600 4250 
Q 1125 4250 925 4000 
Q 725 3750 725 3475 
Q 725 3200 1012 2937 
Q 1300 2675 1825 2475 
Q 2125 2625 2275 2850 
Q 2425 3075 2425 3375 
z
" transform="scale(0.015625)"/>
       </defs>
       <use xlink:href="#SimSun-30"/>
       <use xlink:href="#SimSun-2e" x="50"/>
       <use xlink:href="#SimSun-38" x="100"/>
      </g>
     </g>
    </g>
    <g id="xtick_6">
     <g id="line2d_6">
      <g>
       <use xlink:href="#m215a7fe664" x="447.346907" y="273.312" style="stroke: #000000; stroke-width: 0.8"/>
      </g>
     </g>
     <g id="text_6">
      <!-- 1.0 -->
      <g transform="translate(439.846907 287.460437)scale(0.1 -0.1)">
       <defs>
        <path id="SimSun-31" d="M 1825 4450 
L 1825 650 
Q 1825 450 1950 350 
Q 2075 250 2300 250 
L 2550 250 
L 2550 100 
L 725 100 
L 725 250 
L 950 250 
Q 1200 250 1312 350 
Q 1425 450 1425 650 
L 1425 3675 
Q 1425 3775 1362 3837 
Q 1300 3900 1175 3900 
L 725 3900 
L 725 4050 
L 950 4050 
Q 1250 4050 1437 4150 
Q 1625 4250 1725 4450 
L 1825 4450 
z
" transform="scale(0.015625)"/>
       </defs>
       <use xlink:href="#SimSun-31"/>
       <use xlink:href="#SimSun-2e" x="50"/>
       <use xlink:href="#SimSun-30" x="100"/>
      </g>
     </g>
    </g>
    <g id="text_7">
     <!-- 销售额 -->
     <g transform="translate(272.76 300.640125)scale(0.1 -0.1)">
      <defs>
       <path id="SimSun-9500" d="M 4100 3250 
Q 4100 4250 4075 5225 
L 4675 4975 
L 4450 4775 
L 4450 3250 
L 5225 3250 
L 5425 3525 
L 5825 3200 
L 5625 3025 
L 5625 75 
Q 5650 -375 5100 -575 
Q 5025 -200 4400 -75 
L 4400 25 
Q 4775 0 5037 0 
Q 5300 0 5275 325 
L 5275 1150 
L 3275 1150 
L 3275 -425 
L 2900 -600 
Q 2925 75 2925 1437 
Q 2925 2800 2900 3500 
L 3275 3250 
L 4100 3250 
z
M 2825 4725 
Q 3400 4375 3550 4212 
Q 3700 4050 3700 3925 
Q 3700 3800 3600 3650 
Q 3500 3500 3450 3500 
Q 3350 3500 3300 3750 
Q 3175 4125 2750 4675 
L 2825 4725 
z
M 5425 4825 
L 5925 4425 
L 5650 4350 
Q 5250 3925 4800 3475 
L 4725 3525 
Q 5150 4125 5425 4825 
z
M 3275 3100 
L 3275 2300 
L 5275 2300 
L 5275 3100 
L 3275 3100 
z
M 3275 2150 
L 3275 1300 
L 5275 1300 
L 5275 2150 
L 3275 2150 
z
M 1650 350 
L 2500 825 
L 2575 750 
Q 1725 75 1500 -375 
L 1175 25 
Q 1300 125 1300 375 
L 1300 1725 
L 1150 1725 
Q 825 1725 550 1650 
L 325 1875 
L 1300 1875 
L 1300 2875 
L 800 2875 
Q 625 2650 350 2350 
L 275 2400 
Q 950 3400 1350 5100 
L 1875 4800 
Q 1675 4675 1575 4462 
Q 1475 4250 1375 4000 
L 2075 4000 
L 2375 4350 
L 2800 3850 
L 1325 3850 
Q 1075 3350 875 3025 
L 2000 3025 
L 2275 3325 
L 2675 2875 
L 1650 2875 
L 1650 1875 
L 2125 1875 
L 2400 2175 
L 2775 1725 
L 1650 1725 
L 1650 350 
z
" transform="scale(0.015625)"/>
       <path id="SimSun-552e" d="M 1725 2550 
L 1725 1950 
L 3300 1950 
L 3300 2550 
L 1725 2550 
z
M 1850 5225 
L 2375 4875 
L 2175 4775 
Q 1900 4400 1775 4200 
L 5075 4200 
L 5425 4550 
L 5925 4050 
L 3625 4050 
L 3625 3425 
L 4800 3425 
L 5100 3725 
L 5550 3275 
L 3625 3275 
L 3625 2700 
L 4725 2700 
L 5025 3000 
L 5475 2550 
L 3625 2550 
L 3625 1950 
L 5200 1950 
L 5550 2300 
L 6050 1800 
L 1725 1800 
L 1725 1600 
L 1350 1450 
Q 1375 2150 1375 2600 
L 1375 3625 
Q 975 3100 325 2550 
L 250 2625 
Q 750 3125 1212 3862 
Q 1675 4600 1850 5225 
z
M 3200 5225 
Q 3875 4850 3875 4637 
Q 3875 4425 3762 4325 
Q 3650 4225 3625 4225 
Q 3525 4225 3475 4475 
Q 3400 4825 3125 5175 
L 3200 5225 
z
M 1725 4050 
L 1725 3425 
L 3300 3425 
L 3300 4050 
L 1725 4050 
z
M 1725 3275 
L 1725 2700 
L 3300 2700 
L 3300 3275 
L 1725 3275 
z
M 1975 1100 
L 1975 -100 
L 4775 -100 
L 4775 1100 
L 1975 1100 
z
M 5125 175 
Q 5125 -125 5150 -425 
L 4775 -575 
L 4775 -250 
L 1975 -250 
L 1975 -450 
L 1600 -600 
Q 1625 -75 1625 512 
Q 1625 1100 1600 1475 
L 1975 1250 
L 4725 1250 
L 4900 1500 
L 5325 1175 
L 5125 1025 
L 5125 175 
z
" transform="scale(0.015625)"/>
       <path id="SimSun-989d" d="M 1400 1275 
L 1400 125 
L 2400 125 
L 2400 1275 
L 1400 1275 
z
M 2600 3625 
L 2825 4125 
L 950 4125 
Q 925 3800 825 3687 
Q 725 3575 600 3575 
Q 475 3575 425 3675 
Q 375 3775 550 3925 
Q 725 4075 850 4525 
L 950 4525 
L 950 4275 
L 1875 4275 
Q 1850 4525 1787 4675 
Q 1725 4825 1500 5150 
L 1575 5200 
Q 2050 4900 2137 4750 
Q 2225 4600 2225 4550 
Q 2225 4425 2025 4275 
L 2800 4275 
L 3000 4500 
L 3400 4100 
Q 3250 4100 3125 4037 
Q 3000 3975 2675 3600 
L 2600 3625 
z
M 1075 -475 
Q 1100 0 1100 1425 
Q 800 1225 300 1000 
L 250 1075 
Q 1100 1525 1825 2400 
Q 1525 2550 1125 2725 
Q 750 2300 500 2125 
L 450 2200 
Q 850 2675 1087 3175 
Q 1325 3675 1375 3950 
L 1825 3700 
L 1675 3600 
L 1500 3300 
L 2350 3300 
L 2550 3500 
L 2875 3175 
L 2675 3075 
Q 2450 2775 2200 2450 
Q 2700 2250 2912 2112 
Q 3125 1975 3100 1762 
Q 3075 1550 3025 1550 
Q 2975 1550 2875 1650 
Q 2650 1875 2050 2250 
Q 1775 1925 1275 1525 
L 1400 1425 
L 2375 1425 
L 2575 1625 
L 2875 1325 
L 2700 1200 
Q 2700 300 2725 -75 
L 2400 -275 
L 2400 -25 
L 1400 -25 
L 1400 -275 
L 1075 -475 
z
M 1175 2800 
Q 1400 2750 1950 2550 
Q 2150 2825 2325 3150 
L 1425 3150 
Q 1300 2975 1175 2800 
z
M 3375 800 
Q 3400 1450 3400 2312 
Q 3400 3175 3375 3925 
L 3750 3725 
L 4175 3725 
Q 4275 4425 4300 4700 
L 3775 4700 
Q 3450 4700 3175 4625 
L 2950 4850 
L 5400 4850 
L 5750 5125 
L 6150 4700 
L 4725 4700 
Q 4575 4425 4325 3725 
L 5375 3725 
L 5625 3975 
L 5950 3650 
L 5750 3500 
L 5750 1975 
Q 5750 1550 5775 1100 
L 5425 900 
L 5425 3575 
L 3725 3575 
L 3725 1025 
L 3375 800 
z
M 4975 2825 
L 4750 2650 
Q 4750 1500 4562 925 
Q 4375 350 3937 -12 
Q 3500 -375 2750 -650 
L 2725 -550 
Q 3600 -100 3950 362 
Q 4300 825 4362 1550 
Q 4425 2275 4400 3150 
L 4975 2825 
z
M 4725 850 
Q 5650 375 5850 150 
Q 6050 -75 6050 -250 
Q 6050 -325 6000 -462 
Q 5950 -600 5900 -600 
Q 5850 -600 5775 -475 
Q 5650 -225 5412 87 
Q 5175 400 4675 775 
L 4725 850 
z
" transform="scale(0.015625)"/>
      </defs>
      <use xlink:href="#SimSun-9500"/>
      <use xlink:href="#SimSun-552e" x="100"/>
      <use xlink:href="#SimSun-989d" x="200"/>
     </g>
    </g>
    <g id="text_8">
     <!-- 1e8 -->
     <g transform="translate(451.32 298.897937)scale(0.1 -0.1)">
      <defs>
       <path id="SimSun-65" d="M 2400 1650 
Q 2425 2200 2212 2487 
Q 2000 2775 1650 2775 
Q 1275 2775 1037 2475 
Q 800 2175 800 1650 
L 2400 1650 
z
M 800 1500 
Q 800 825 1062 537 
Q 1325 250 1750 250 
Q 2075 250 2300 437 
Q 2525 625 2625 900 
L 2750 850 
Q 2675 575 2412 312 
Q 2150 50 1700 50 
Q 1125 50 762 425 
Q 400 800 400 1500 
Q 400 2125 762 2537 
Q 1125 2950 1650 2950 
Q 2125 2950 2475 2625 
Q 2825 2300 2825 1500 
L 800 1500 
z
" transform="scale(0.015625)"/>
      </defs>
      <use xlink:href="#SimSun-31"/>
      <use xlink:href="#SimSun-65" x="50"/>
      <use xlink:href="#SimSun-38" x="100"/>
     </g>
    </g>
   </g>
   <g id="matplotlib.axis_2">
    <g id="ytick_1">
     <g id="line2d_7">
      <defs>
       <path id="m71b2cd36e4" d="M 0 0 
L -3.5 0 
" style="stroke: #000000; stroke-width: 0.8"/>
      </defs>
      <g>
       <use xlink:href="#m71b2cd36e4" x="109.2" y="251.341714" style="stroke: #000000; stroke-width: 0.8"/>
      </g>
     </g>
     <g id="text_9">
      <!-- 恒健 -->
      <g transform="translate(82.2 255.287027)scale(0.1 -0.1)">
       <defs>
        <path id="SimSun-6052" d="M 2275 4525 
L 5150 4525 
L 5475 4850 
L 5950 4375 
L 3100 4375 
Q 2725 4375 2500 4300 
L 2275 4525 
z
M 5250 3300 
L 5250 1675 
Q 5250 1225 5275 775 
L 4900 600 
L 4900 975 
L 3100 975 
L 3100 675 
L 2725 475 
Q 2750 1275 2750 2112 
Q 2750 2950 2725 3775 
L 3100 3550 
L 4850 3550 
L 5075 3800 
L 5475 3450 
L 5250 3300 
z
M 3100 3400 
L 3100 2400 
L 4900 2400 
L 4900 3400 
L 3100 3400 
z
M 3100 2250 
L 3100 1125 
L 4900 1125 
L 4900 2250 
L 3100 2250 
z
M 1875 0 
L 5200 0 
L 5575 375 
L 6100 -150 
L 2675 -150 
Q 2325 -150 2100 -225 
L 1875 0 
z
M 825 3625 
Q 850 3250 850 3000 
Q 850 2750 812 2575 
Q 775 2400 637 2350 
Q 500 2300 425 2300 
Q 325 2300 250 2387 
Q 175 2475 400 2725 
Q 625 2950 725 3625 
L 825 3625 
z
M 1525 3925 
L 1525 700 
Q 1525 75 1550 -475 
L 1175 -625 
Q 1200 225 1200 850 
L 1200 4050 
Q 1200 4750 1175 5250 
L 1775 4975 
L 1525 4775 
L 1525 4025 
Q 2075 3775 2200 3625 
Q 2325 3475 2325 3350 
Q 2325 3225 2262 3100 
Q 2200 2975 2150 2975 
Q 2075 2975 2000 3175 
Q 1875 3500 1525 3925 
z
" transform="scale(0.015625)"/>
        <path id="SimSun-5065" d="M 1450 3025 
L 1450 1050 
Q 1450 200 1475 -400 
L 1100 -575 
Q 1125 250 1125 975 
L 1125 2975 
Q 750 2425 300 2000 
L 250 2075 
Q 850 2850 1212 3800 
Q 1575 4750 1650 5200 
L 2150 4900 
L 1950 4775 
Q 1575 3850 1325 3325 
L 1600 3175 
L 1450 3025 
z
M 6100 -100 
Q 5750 -175 5700 -450 
Q 4225 -475 3625 -300 
Q 3025 -125 2600 325 
Q 2175 -225 1600 -600 
L 1550 -525 
Q 2200 75 2425 525 
Q 2150 950 1850 1925 
L 1950 1950 
Q 2275 1175 2550 825 
Q 2675 1200 2750 1650 
Q 2825 2100 2875 2550 
L 2425 2550 
L 2275 2300 
L 1950 2650 
Q 2125 2750 2275 3125 
Q 2425 3500 2650 4150 
L 2325 4150 
L 2100 4100 
L 1900 4300 
L 2625 4300 
L 2850 4525 
L 3175 4200 
L 2950 4025 
L 2450 2700 
L 2875 2700 
L 3050 2925 
L 3375 2625 
L 3175 2475 
Q 3125 2025 3012 1475 
Q 2900 925 2725 550 
Q 3175 100 3762 0 
Q 4350 -100 4775 -100 
Q 5350 -100 6100 0 
L 6100 -100 
z
M 4275 175 
Q 4300 900 4300 1100 
L 3625 1100 
L 3325 1050 
L 3125 1250 
L 4300 1250 
L 4300 1875 
L 3925 1875 
L 3575 1825 
L 3375 2025 
L 4300 2025 
L 4300 2650 
L 4025 2650 
L 3725 2600 
L 3525 2800 
L 4300 2800 
L 4300 3425 
L 3700 3425 
L 3350 3375 
L 3150 3575 
L 4300 3575 
L 4300 4150 
L 4000 4150 
L 3650 4100 
L 3450 4300 
L 4300 4300 
Q 4300 4525 4275 5125 
L 4775 4875 
L 4600 4700 
L 4600 4300 
L 5125 4300 
L 5350 4525 
L 5675 4200 
L 5475 4075 
L 5475 3575 
L 5550 3575 
L 5775 3800 
L 6150 3425 
L 5475 3425 
Q 5475 3075 5500 2600 
L 5175 2450 
L 5175 2650 
L 4600 2650 
L 4600 2025 
L 5100 2025 
L 5350 2275 
L 5750 1875 
L 4600 1875 
L 4600 1250 
L 5350 1250 
L 5600 1500 
L 6000 1100 
L 4600 1100 
Q 4600 625 4625 325 
L 4275 175 
z
M 4600 3425 
L 4600 2800 
L 5175 2800 
L 5175 3425 
L 4600 3425 
z
M 4600 4150 
L 4600 3575 
L 5175 3575 
L 5175 4150 
L 4600 4150 
z
" transform="scale(0.015625)"/>
       </defs>
       <use xlink:href="#SimSun-6052"/>
       <use xlink:href="#SimSun-5065" x="100"/>
      </g>
     </g>
    </g>
    <g id="ytick_2">
     <g id="line2d_8">
      <g>
       <use xlink:href="#m71b2cd36e4" x="109.2" y="226.656" style="stroke: #000000; stroke-width: 0.8"/>
      </g>
     </g>
     <g id="text_10">
      <!-- BY－HEALTH/汤臣倍健 -->
      <g transform="translate(7.2 230.581781)scale(0.1 -0.1)">
       <defs>
        <path id="SimSun-42" d="M 100 100 
L 100 250 
L 300 250 
Q 425 250 475 300 
Q 525 350 525 450 
L 525 4025 
Q 525 4125 475 4175 
Q 425 4225 300 4225 
L 150 4225 
L 150 4375 
L 1600 4375 
Q 2200 4375 2487 4137 
Q 2775 3900 2775 3400 
Q 2775 3050 2625 2825 
Q 2475 2600 2000 2425 
Q 2575 2250 2775 1925 
Q 2975 1600 2975 1200 
Q 2975 700 2625 400 
Q 2275 100 1675 100 
L 100 100 
z
M 1600 250 
Q 2025 250 2262 512 
Q 2500 775 2500 1250 
Q 2500 1800 2250 2062 
Q 2000 2325 1500 2325 
L 925 2325 
L 925 450 
Q 925 350 987 300 
Q 1050 250 1150 250 
L 1600 250 
z
M 2350 3400 
Q 2350 3850 2100 4037 
Q 1850 4225 1450 4225 
L 1150 4225 
Q 1050 4225 987 4175 
Q 925 4125 925 4025 
L 925 2475 
L 1575 2475 
Q 1850 2475 2100 2700 
Q 2350 2925 2350 3400 
z
" transform="scale(0.015625)"/>
        <path id="SimSun-59" d="M 2375 3925 
Q 2400 4075 2337 4150 
Q 2275 4225 2100 4225 
L 2050 4225 
L 2050 4375 
L 3025 4375 
L 3025 4225 
L 2950 4225 
Q 2825 4225 2725 4137 
Q 2625 4050 2550 3875 
L 1775 1900 
L 1775 450 
Q 1775 350 1837 300 
Q 1900 250 2000 250 
L 2225 250 
L 2225 100 
L 925 100 
L 925 250 
L 1150 250 
Q 1275 250 1325 300 
Q 1375 350 1375 450 
L 1375 1750 
L 525 3950 
Q 475 4075 400 4150 
Q 325 4225 200 4225 
L 150 4225 
L 150 4375 
L 1250 4375 
L 1250 4225 
L 1100 4225 
Q 950 4225 925 4150 
Q 900 4075 950 3925 
L 1625 2075 
L 1675 2075 
L 2375 3925 
z
M 2700 4225 
L 2700 4225 
z
M 2500 4225 
L 2500 4225 
z
M 850 4225 
L 850 4225 
z
M 425 4225 
L 425 4225 
z
" transform="scale(0.015625)"/>
        <path id="SimSun-ff0d" d="M 825 2550 
L 5575 2550 
L 5575 2250 
L 825 2250 
L 825 2550 
z
" transform="scale(0.015625)"/>
        <path id="SimSun-48" d="M 2725 450 
Q 2725 350 2787 300 
Q 2850 250 2950 250 
L 3075 250 
L 3075 100 
L 1975 100 
L 1975 250 
L 2100 250 
Q 2225 250 2275 300 
Q 2325 350 2325 450 
L 2325 2275 
L 850 2275 
L 850 450 
Q 850 350 912 300 
Q 975 250 1075 250 
L 1200 250 
L 1200 100 
L 100 100 
L 100 250 
L 225 250 
Q 350 250 400 300 
Q 450 350 450 450 
L 450 4025 
Q 450 4125 400 4175 
Q 350 4225 225 4225 
L 125 4225 
L 125 4375 
L 1175 4375 
L 1175 4225 
L 1075 4225 
Q 975 4225 912 4175 
Q 850 4125 850 4025 
L 850 2425 
L 2325 2425 
L 2325 4025 
Q 2325 4125 2275 4175 
Q 2225 4225 2100 4225 
L 2000 4225 
L 2000 4375 
L 3050 4375 
L 3050 4225 
L 2950 4225 
Q 2850 4225 2787 4175 
Q 2725 4125 2725 4025 
L 2725 450 
z
" transform="scale(0.015625)"/>
        <path id="SimSun-45" d="M 200 4225 
L 200 4375 
L 2650 4375 
L 2925 3525 
L 2800 3475 
Q 2600 3850 2375 4037 
Q 2150 4225 1875 4225 
L 1175 4225 
Q 1075 4225 1012 4175 
Q 950 4125 950 4025 
L 950 2475 
L 1675 2475 
Q 1925 2475 2037 2600 
Q 2150 2725 2150 2975 
L 2150 3125 
L 2300 3125 
L 2300 1650 
L 2150 1650 
L 2150 1750 
Q 2150 2025 2037 2175 
Q 1925 2325 1675 2325 
L 950 2325 
L 950 450 
Q 950 350 1012 300 
Q 1075 250 1175 250 
L 1825 250 
Q 2200 250 2462 462 
Q 2725 675 2875 1125 
L 3000 1075 
L 2725 100 
L 175 100 
L 175 250 
L 325 250 
Q 450 250 500 300 
Q 550 350 550 450 
L 550 4025 
Q 550 4125 500 4175 
Q 450 4225 325 4225 
L 200 4225 
z
" transform="scale(0.015625)"/>
        <path id="SimSun-41" d="M 2025 1700 
L 900 1700 
L 675 750 
Q 650 625 650 550 
Q 650 450 687 350 
Q 725 250 900 250 
L 975 250 
L 975 100 
L 50 100 
L 50 250 
L 125 250 
Q 225 250 300 312 
Q 375 375 400 525 
L 1375 4350 
L 1750 4475 
L 2700 525 
Q 2750 375 2825 312 
Q 2900 250 3000 250 
L 3075 250 
L 3075 100 
L 2000 100 
L 2000 250 
L 2100 250 
Q 2250 250 2275 312 
Q 2300 375 2300 425 
Q 2300 525 2275 600 
L 2025 1700 
z
M 325 250 
L 325 250 
z
M 575 250 
L 575 250 
z
M 2350 250 
L 2350 250 
z
M 2775 250 
L 2775 250 
z
M 1500 3925 
L 1475 3925 
L 950 1850 
L 2000 1850 
L 1500 3925 
z
" transform="scale(0.015625)"/>
        <path id="SimSun-4c" d="M 1000 450 
Q 1000 350 1062 300 
Q 1125 250 1225 250 
L 1900 250 
Q 2250 250 2500 462 
Q 2750 675 2875 1125 
L 3000 1075 
L 2775 100 
L 200 100 
L 200 250 
L 375 250 
Q 500 250 550 300 
Q 600 350 600 450 
L 600 4025 
Q 600 4125 550 4175 
Q 500 4225 375 4225 
L 225 4225 
L 225 4375 
L 1400 4375 
L 1400 4225 
L 1225 4225 
Q 1125 4225 1062 4175 
Q 1000 4125 1000 4025 
L 1000 450 
z
" transform="scale(0.015625)"/>
        <path id="SimSun-54" d="M 2225 100 
L 925 100 
L 925 250 
L 1150 250 
Q 1275 250 1325 300 
Q 1375 350 1375 450 
L 1375 3950 
Q 1375 4150 1350 4175 
Q 1325 4200 1150 4200 
Q 800 4200 662 4075 
Q 525 3950 325 3400 
L 175 3425 
L 400 4375 
L 2775 4375 
L 2975 3425 
L 2850 3400 
Q 2650 3925 2537 4062 
Q 2425 4200 2075 4200 
Q 1825 4200 1800 4175 
Q 1775 4150 1775 3925 
L 1775 450 
Q 1775 350 1837 300 
Q 1900 250 2000 250 
L 2225 250 
L 2225 100 
z
" transform="scale(0.015625)"/>
        <path id="SimSun-2f" d="M 400 -475 
L 225 -375 
L 2775 4975 
L 2950 4875 
L 400 -475 
z
" transform="scale(0.015625)"/>
        <path id="SimSun-6c64" d="M 2200 4600 
L 4550 4600 
L 4825 4875 
L 5250 4400 
Q 5000 4400 4625 4075 
Q 4250 3750 3912 3450 
Q 3575 3150 3075 2700 
L 5350 2700 
L 5550 2975 
L 5950 2650 
L 5750 2475 
Q 5650 625 5537 200 
Q 5425 -225 5200 -362 
Q 4975 -500 4675 -575 
Q 4675 -150 3850 0 
L 3850 100 
Q 4525 25 4787 0 
Q 5050 -25 5175 350 
Q 5300 725 5400 2550 
L 4850 2550 
Q 4525 1300 3812 600 
Q 3100 -100 1875 -525 
L 1825 -450 
Q 3000 125 3600 837 
Q 4200 1550 4450 2550 
L 3850 2550 
Q 3400 1650 2925 1200 
Q 2450 750 1725 450 
L 1675 525 
Q 2250 875 2662 1312 
Q 3075 1750 3425 2550 
L 2975 2550 
L 2675 2325 
L 2400 2725 
Q 2600 2775 2937 2987 
Q 3275 3200 4550 4450 
L 3025 4450 
Q 2700 4450 2425 4375 
L 2200 4600 
z
M 2325 3925 
Q 1500 1400 1437 1087 
Q 1375 775 1350 325 
Q 1325 -125 1312 -300 
Q 1300 -475 1200 -475 
Q 1125 -475 975 -387 
Q 825 -300 825 -125 
Q 825 25 900 250 
Q 1000 525 1000 650 
Q 1000 800 875 912 
Q 750 1025 375 1125 
L 375 1225 
Q 825 1175 937 1187 
Q 1050 1200 1187 1400 
Q 1325 1600 2225 3950 
L 2325 3925 
z
M 400 3450 
Q 1200 3175 1250 2975 
Q 1300 2775 1212 2625 
Q 1125 2475 1075 2475 
Q 1000 2475 900 2675 
Q 750 2975 350 3375 
L 400 3450 
z
M 925 5025 
Q 1625 4725 1687 4587 
Q 1750 4450 1750 4400 
Q 1750 4275 1650 4125 
Q 1550 3975 1500 3975 
Q 1425 3975 1375 4175 
Q 1250 4500 875 4950 
L 925 5025 
z
" transform="scale(0.015625)"/>
        <path id="SimSun-81e3" d="M 975 -25 
L 975 4025 
Q 975 4475 950 4925 
L 1350 4700 
L 5000 4700 
L 5325 5025 
L 5775 4550 
L 3350 4550 
L 3350 3200 
L 4725 3200 
L 4975 3450 
L 5350 3075 
L 5125 2900 
L 5125 1800 
Q 5125 1450 5150 1275 
L 4775 1150 
L 4775 1475 
L 3350 1475 
L 3350 -175 
L 5250 -175 
L 5575 150 
L 6025 -325 
L 1325 -325 
L 1150 -575 
L 725 -225 
L 975 -25 
z
M 1325 4550 
L 1325 3200 
L 3000 3200 
L 3000 4550 
L 1325 4550 
z
M 1325 1475 
L 1325 -175 
L 3000 -175 
L 3000 1475 
L 1325 1475 
z
M 1325 3050 
L 1325 1625 
L 4775 1625 
L 4775 3050 
L 1325 3050 
z
" transform="scale(0.015625)"/>
        <path id="SimSun-500d" d="M 3600 5100 
L 3650 5175 
Q 4125 4875 4200 4750 
Q 4275 4625 4275 4550 
Q 4275 4375 4050 4225 
L 5075 4225 
L 5375 4525 
L 5825 4075 
L 3100 4075 
Q 2775 4075 2500 4000 
L 2275 4225 
L 3950 4225 
Q 3900 4700 3600 5100 
z
M 2875 3750 
L 2925 3825 
Q 3575 3300 3625 3075 
Q 3675 2850 3562 2737 
Q 3450 2625 3425 2625 
Q 3325 2625 3275 2875 
Q 3200 3225 2875 3750 
z
M 4750 4000 
L 5250 3650 
L 5025 3550 
Q 4600 2925 4300 2500 
L 5400 2500 
L 5700 2800 
L 6150 2350 
L 2675 2350 
Q 2350 2350 2075 2275 
L 1850 2500 
L 4175 2500 
Q 4650 3550 4750 4000 
z
M 3050 1575 
L 3050 100 
L 4925 100 
L 4925 1575 
L 3050 1575 
z
M 2700 -575 
Q 2725 75 2725 700 
Q 2725 1325 2700 1950 
L 3050 1725 
L 4925 1725 
L 5150 1950 
L 5500 1625 
L 5250 1450 
Q 5250 75 5275 -350 
L 4925 -500 
L 4925 -50 
L 3050 -50 
L 3050 -400 
L 2700 -575 
z
M 1225 -625 
Q 1250 150 1250 925 
L 1250 3075 
Q 850 2475 300 1975 
L 250 2050 
Q 700 2600 1100 3362 
Q 1500 4125 1825 5225 
L 2350 4925 
Q 2175 4800 1950 4375 
Q 1725 3925 1475 3450 
L 1750 3275 
L 1575 3100 
L 1575 250 
Q 1575 -75 1600 -450 
L 1225 -625 
z
" transform="scale(0.015625)"/>
       </defs>
       <use xlink:href="#SimSun-42"/>
       <use xlink:href="#SimSun-59" x="50"/>
       <use xlink:href="#SimSun-ff0d" x="100"/>
       <use xlink:href="#SimSun-48" x="200"/>
       <use xlink:href="#SimSun-45" x="250"/>
       <use xlink:href="#SimSun-41" x="300"/>
       <use xlink:href="#SimSun-4c" x="350"/>
       <use xlink:href="#SimSun-54" x="400"/>
       <use xlink:href="#SimSun-48" x="450"/>
       <use xlink:href="#SimSun-2f" x="500"/>
       <use xlink:href="#SimSun-6c64" x="550"/>
       <use xlink:href="#SimSun-81e3" x="650"/>
       <use xlink:href="#SimSun-500d" x="750"/>
       <use xlink:href="#SimSun-5065" x="850"/>
      </g>
     </g>
    </g>
    <g id="ytick_3">
     <g id="line2d_9">
      <g>
       <use xlink:href="#m71b2cd36e4" x="109.2" y="201.970286" style="stroke: #000000; stroke-width: 0.8"/>
      </g>
     </g>
     <g id="text_11">
      <!-- 悦而 -->
      <g transform="translate(82.2 205.915598)scale(0.1 -0.1)">
       <defs>
        <path id="SimSun-60a6" d="M 3000 3525 
L 3000 2075 
L 4975 2075 
L 4975 3525 
L 3000 3525 
z
M 2875 5050 
L 2950 5100 
Q 3300 4875 3512 4662 
Q 3725 4450 3687 4250 
Q 3650 4050 3550 3975 
Q 3450 3900 3425 3900 
Q 3350 3900 3300 4175 
Q 3225 4500 2875 5050 
z
M 2625 1550 
Q 2650 2125 2650 2787 
Q 2650 3450 2625 3900 
L 3000 3675 
L 4125 3675 
Q 4300 4125 4425 4537 
Q 4550 4950 4600 5225 
L 5125 4900 
Q 4925 4775 4712 4425 
Q 4500 4075 4275 3675 
L 4950 3675 
L 5125 3925 
L 5500 3625 
L 5325 3475 
Q 5325 2200 5350 1825 
L 4975 1650 
L 4975 1925 
L 4550 1925 
L 4550 175 
Q 4550 -200 4850 -150 
L 5400 -150 
Q 5600 -150 5650 87 
Q 5700 325 5700 1000 
L 5825 1000 
Q 5825 450 5875 212 
Q 5925 -25 6125 -125 
Q 5950 -425 5525 -450 
L 4700 -450 
Q 4175 -475 4225 100 
L 4225 1925 
L 3775 1925 
Q 3625 -150 1800 -600 
L 1775 -525 
Q 3275 100 3425 1925 
L 3000 1925 
L 3000 1700 
L 2625 1550 
z
M 1550 450 
Q 1550 25 1575 -475 
L 1175 -625 
Q 1200 50 1200 650 
L 1200 4175 
Q 1200 4775 1175 5250 
L 1750 5000 
L 1550 4800 
L 1550 4100 
Q 2075 3850 2237 3700 
Q 2400 3550 2375 3362 
Q 2350 3175 2275 3100 
Q 2200 3025 2175 3025 
Q 2100 3025 2025 3250 
Q 1900 3550 1550 3950 
L 1550 450 
z
M 875 3775 
Q 950 3125 900 2875 
Q 850 2625 712 2575 
Q 575 2525 525 2525 
Q 450 2525 387 2562 
Q 325 2600 325 2625 
Q 325 2725 450 2900 
Q 650 3150 775 3775 
L 875 3775 
z
" transform="scale(0.015625)"/>
        <path id="SimSun-800c" d="M 4125 75 
Q 4825 -25 4925 25 
Q 5025 75 5025 275 
L 5025 3200 
L 3950 3200 
L 3950 -25 
L 3625 -150 
L 3625 3200 
L 2650 3200 
L 2650 -50 
L 2325 -200 
L 2325 3200 
L 1350 3200 
L 1350 -225 
L 975 -475 
Q 1000 575 1000 1850 
Q 1000 3125 975 3575 
L 1350 3350 
L 2600 3350 
L 2925 4500 
L 1100 4500 
Q 775 4500 500 4425 
L 275 4650 
L 5175 4650 
L 5575 5000 
L 6075 4500 
L 3450 4500 
Q 3250 4250 2725 3350 
L 5000 3350 
L 5200 3600 
L 5650 3225 
L 5375 3050 
L 5375 150 
Q 5375 -150 5275 -275 
Q 5175 -400 4850 -550 
Q 4725 -225 4125 -25 
L 4125 75 
z
" transform="scale(0.015625)"/>
       </defs>
       <use xlink:href="#SimSun-60a6"/>
       <use xlink:href="#SimSun-800c" x="100"/>
      </g>
     </g>
    </g>
    <g id="ytick_4">
     <g id="line2d_10">
      <g>
       <use xlink:href="#m71b2cd36e4" x="109.2" y="177.284571" style="stroke: #000000; stroke-width: 0.8"/>
      </g>
     </g>
     <g id="text_12">
      <!-- 21金维他 -->
      <g transform="translate(62.2 181.249415)scale(0.1 -0.1)">
       <defs>
        <path id="SimSun-91d1" d="M 2925 5250 
L 3450 4900 
L 3225 4775 
Q 4400 3075 6125 2875 
L 6125 2775 
Q 5775 2750 5650 2425 
Q 4025 3025 3125 4675 
Q 2200 2950 325 2225 
L 300 2325 
Q 2025 3150 2925 5250 
z
M 1675 2700 
L 4050 2700 
L 4325 2975 
L 4725 2550 
L 3275 2550 
L 3275 1625 
L 4750 1625 
L 5050 1925 
L 5475 1475 
L 3275 1475 
L 3275 -200 
L 3725 -200 
Q 4275 900 4375 1300 
L 4925 925 
L 4650 825 
Q 4275 300 3875 -200 
L 5300 -200 
L 5625 125 
L 6075 -350 
L 1150 -350 
Q 825 -350 550 -425 
L 325 -200 
L 2925 -200 
L 2925 1475 
L 1750 1475 
Q 1425 1475 1150 1400 
L 925 1625 
L 2925 1625 
L 2925 2550 
L 2500 2550 
Q 2175 2550 1900 2475 
L 1675 2700 
z
M 1400 1125 
L 1475 1200 
Q 2275 725 2337 562 
Q 2400 400 2400 300 
Q 2400 125 2312 0 
Q 2225 -125 2175 -125 
Q 2075 -125 2000 150 
Q 1875 550 1400 1125 
z
" transform="scale(0.015625)"/>
        <path id="SimSun-7ef4" d="M 1000 1550 
Q 1825 1700 2525 1850 
L 2550 1750 
Q 1975 1600 1450 1375 
Q 925 1150 775 975 
L 425 1475 
Q 600 1500 912 1825 
Q 1225 2150 1650 2875 
Q 1425 2825 1150 2750 
Q 875 2675 675 2475 
L 350 2925 
Q 600 2975 950 3787 
Q 1300 4600 1425 5125 
L 1975 4825 
L 1750 4725 
Q 1400 4100 725 2925 
L 1725 3025 
Q 2050 3675 2175 4100 
L 2625 3750 
L 2450 3650 
Q 1750 2400 1000 1550 
z
M 475 250 
Q 675 300 1150 450 
Q 1625 600 2600 925 
L 2625 825 
Q 1950 525 1462 275 
Q 975 25 825 -200 
L 475 250 
z
M 3225 2500 
L 3225 1450 
L 4275 1450 
L 4275 2500 
L 3225 2500 
z
M 3225 1300 
L 3225 150 
L 4275 150 
L 4275 1300 
L 3225 1300 
z
M 4100 5075 
Q 4825 4725 4862 4537 
Q 4900 4350 4787 4212 
Q 4675 4075 4625 4075 
Q 4550 4075 4500 4275 
Q 4400 4600 4050 5025 
L 4100 5075 
z
M 2875 -625 
Q 2900 25 2900 3200 
Q 2700 2800 2250 2175 
L 2175 2225 
Q 2575 2950 2850 3750 
Q 3125 4550 3250 5250 
L 3825 4925 
L 3625 4800 
Q 3500 4500 3225 3850 
L 5225 3850 
L 5575 4200 
L 6000 3700 
L 4600 3700 
L 4600 2650 
L 5125 2650 
L 5475 3000 
L 5875 2500 
L 4600 2500 
L 4600 1450 
L 5100 1450 
L 5450 1775 
L 5875 1300 
L 4600 1300 
L 4600 150 
L 5350 150 
L 5700 500 
L 6125 0 
L 3225 0 
L 3225 -450 
L 2875 -625 
z
M 4275 3700 
L 3225 3700 
L 3225 2650 
L 4275 2650 
L 4275 3700 
z
" transform="scale(0.015625)"/>
        <path id="SimSun-4ed6" d="M 5450 3425 
Q 5475 1700 5350 1462 
Q 5225 1225 4900 1125 
Q 4950 1400 4350 1550 
L 4350 1650 
Q 4575 1625 4750 1625 
Q 4875 1625 4962 1650 
Q 5050 1675 5075 1950 
Q 5100 2225 5125 3450 
L 4100 3200 
L 4100 725 
L 3775 525 
L 3775 3100 
L 2925 2875 
L 2925 175 
Q 2925 -125 3200 -125 
L 5400 -125 
Q 5575 -25 5612 287 
Q 5650 600 5650 1025 
L 5775 1025 
Q 5775 600 5837 312 
Q 5900 25 6150 -25 
Q 5975 -400 5325 -400 
L 3200 -400 
Q 2575 -425 2600 75 
L 2600 2800 
L 2250 2700 
L 2100 2600 
L 1850 2775 
L 2600 2950 
Q 2600 3500 2575 4050 
L 3175 3800 
L 2925 3625 
L 2925 3025 
L 3775 3250 
Q 3775 4375 3750 5225 
L 4325 4975 
L 4100 4800 
L 4100 3350 
L 5050 3600 
L 5200 3875 
L 5625 3600 
L 5450 3425 
z
M 1300 -625 
Q 1325 125 1325 525 
L 1325 3200 
Q 725 2150 325 1725 
L 250 1775 
Q 825 2725 1200 3700 
Q 1575 4675 1700 5275 
L 2275 4975 
Q 2075 4875 1875 4437 
Q 1675 4000 1450 3475 
L 1875 3250 
L 1675 3100 
L 1675 -450 
L 1300 -625 
z
" transform="scale(0.015625)"/>
       </defs>
       <use xlink:href="#SimSun-32"/>
       <use xlink:href="#SimSun-31" x="50"/>
       <use xlink:href="#SimSun-91d1" x="100"/>
       <use xlink:href="#SimSun-7ef4" x="200"/>
       <use xlink:href="#SimSun-4ed6" x="300"/>
      </g>
     </g>
    </g>
    <g id="ytick_5">
     <g id="line2d_11">
      <g>
       <use xlink:href="#m71b2cd36e4" x="109.2" y="152.598857" style="stroke: #000000; stroke-width: 0.8"/>
      </g>
     </g>
     <g id="text_13">
      <!-- 朗迪 -->
      <g transform="translate(82.2 156.505107)scale(0.1 -0.1)">
       <defs>
        <path id="SimSun-6717" d="M 1525 5150 
L 1575 5225 
Q 2125 4950 2187 4825 
Q 2250 4700 2250 4650 
Q 2250 4550 2150 4425 
Q 2050 4300 2025 4300 
Q 1950 4300 1900 4500 
Q 1800 4800 1525 5150 
z
M 2325 1000 
Q 2075 1300 1825 1500 
L 1875 1575 
Q 2500 1300 2750 1087 
Q 3000 875 3000 700 
Q 3000 625 2937 462 
Q 2875 300 2825 300 
Q 2775 300 2700 450 
Q 2550 700 2400 900 
Q 1250 175 1100 -175 
L 775 200 
Q 875 325 875 512 
Q 875 700 875 2200 
Q 875 3700 850 4500 
L 1225 4300 
L 2625 4300 
L 2825 4550 
L 3200 4225 
L 3000 4075 
Q 3000 2225 3025 1950 
L 2675 1775 
L 2675 2075 
L 1200 2075 
L 1200 450 
L 2325 1000 
z
M 1200 4150 
L 1200 3250 
L 2675 3250 
L 2675 4150 
L 1200 4150 
z
M 1200 3100 
L 1200 2225 
L 2675 2225 
L 2675 3100 
L 1200 3100 
z
M 4100 4475 
L 4100 3250 
L 5375 3250 
L 5375 4475 
L 4100 4475 
z
M 4100 3100 
Q 4075 2250 4050 1850 
L 5375 1850 
L 5375 3100 
L 4100 3100 
z
M 2175 -525 
Q 2825 -150 3162 275 
Q 3500 700 3612 1200 
Q 3725 1700 3737 2200 
Q 3750 2700 3750 3437 
Q 3750 4175 3725 4875 
L 4100 4625 
L 5325 4625 
L 5525 4875 
L 5900 4550 
L 5700 4400 
L 5700 175 
Q 5750 -350 5150 -575 
Q 5125 -225 4325 0 
L 4325 100 
Q 4975 0 5187 12 
Q 5400 25 5375 300 
L 5375 1700 
L 4050 1700 
Q 3975 725 3412 175 
Q 2850 -375 2225 -600 
L 2175 -525 
z
" transform="scale(0.015625)"/>
        <path id="SimSun-8fea" d="M 2775 3675 
L 2775 2525 
L 3750 2525 
L 3750 3675 
L 2775 3675 
z
M 4075 3675 
L 4075 2525 
L 5100 2525 
L 5100 3675 
L 4075 3675 
z
M 2775 2375 
L 2775 950 
L 3750 950 
L 3750 2375 
L 2775 2375 
z
M 4075 2375 
L 4075 950 
L 5100 950 
L 5100 2375 
L 4075 2375 
z
M 5425 3550 
Q 5425 1250 5450 575 
L 5100 400 
L 5100 800 
L 2775 800 
L 2775 525 
L 2425 375 
Q 2450 1175 2450 2150 
Q 2450 3125 2425 4025 
L 2775 3825 
L 3750 3825 
Q 3750 4675 3725 5175 
L 4250 4900 
L 4075 4750 
L 4075 3825 
L 5050 3825 
L 5300 4075 
L 5650 3725 
L 5425 3550 
z
M 1575 800 
Q 1775 550 2187 287 
Q 2600 25 3687 -12 
Q 4775 -50 6150 125 
L 6150 25 
Q 5700 -75 5675 -375 
Q 4500 -400 3787 -362 
Q 3075 -325 2612 -187 
Q 2150 -50 1825 325 
Q 1475 675 1387 687 
Q 1300 700 1075 462 
Q 850 225 600 -175 
L 250 175 
Q 725 450 1250 825 
L 1250 2825 
L 1050 2825 
Q 725 2825 450 2750 
L 225 2975 
L 1175 2975 
L 1450 3250 
L 1825 2875 
L 1575 2725 
L 1575 800 
z
M 825 4875 
L 875 4950 
Q 1300 4725 1500 4537 
Q 1700 4350 1700 4162 
Q 1700 3975 1600 3900 
Q 1500 3825 1475 3825 
Q 1350 3825 1275 4125 
Q 1150 4525 825 4875 
z
" transform="scale(0.015625)"/>
       </defs>
       <use xlink:href="#SimSun-6717"/>
       <use xlink:href="#SimSun-8fea" x="100"/>
      </g>
     </g>
    </g>
    <g id="ytick_6">
     <g id="line2d_12">
      <g>
       <use xlink:href="#m71b2cd36e4" x="109.2" y="127.913143" style="stroke: #000000; stroke-width: 0.8"/>
      </g>
     </g>
     <g id="text_14">
      <!-- 养生堂 -->
      <g transform="translate(72.2 131.897518)scale(0.1 -0.1)">
       <defs>
        <path id="SimSun-517b" d="M 1825 5150 
L 1900 5200 
Q 2375 4975 2562 4837 
Q 2750 4700 2712 4525 
Q 2675 4350 2612 4300 
Q 2550 4250 2500 4250 
Q 2425 4250 2350 4425 
Q 2250 4675 1825 5150 
z
M 3775 1825 
L 4325 1550 
L 4150 1400 
L 4150 100 
Q 4150 -225 4175 -475 
L 3775 -625 
Q 3800 -50 3800 637 
Q 3800 1325 3775 1825 
z
M 2800 2475 
Q 2350 1875 1700 1487 
Q 1050 1100 325 900 
L 275 975 
Q 1000 1275 1525 1612 
Q 2050 1950 2450 2475 
L 1225 2475 
Q 900 2475 625 2400 
L 400 2625 
L 2525 2625 
Q 2650 2925 2725 3275 
L 1925 3275 
Q 1600 3275 1325 3200 
L 1100 3425 
L 2750 3425 
Q 2800 3800 2825 4075 
L 1500 4075 
Q 1175 4075 900 4000 
L 675 4225 
L 3525 4225 
Q 3975 5050 4050 5275 
L 4525 4950 
Q 4225 4875 3700 4225 
L 4825 4225 
L 5200 4600 
L 5725 4075 
L 3200 4075 
Q 3150 3775 3100 3425 
L 4425 3425 
L 4775 3775 
L 5275 3275 
L 3075 3275 
Q 2950 2850 2875 2625 
L 5075 2625 
L 5450 3000 
L 5975 2475 
L 3800 2475 
Q 4200 2000 4837 1725 
Q 5475 1450 6100 1400 
L 6100 1300 
Q 5725 1250 5600 950 
Q 4900 1250 4412 1625 
Q 3925 2000 3675 2475 
L 2800 2475 
z
M 2150 1800 
L 2700 1550 
L 2500 1375 
Q 2425 425 1950 0 
Q 1475 -425 750 -650 
L 725 -575 
Q 1675 -75 1925 450 
Q 2175 975 2150 1800 
z
" transform="scale(0.015625)"/>
        <path id="SimSun-751f" d="M 1575 4825 
L 2150 4500 
Q 1900 4375 1550 3575 
L 3025 3575 
Q 3025 4725 3000 5250 
L 3600 5000 
L 3400 4825 
L 3400 3575 
L 4825 3575 
L 5200 3950 
L 5675 3425 
L 3400 3425 
L 3400 1875 
L 4525 1875 
L 4925 2250 
L 5375 1725 
L 3400 1725 
L 3400 -75 
L 5200 -75 
L 5600 325 
L 6100 -225 
L 1125 -225 
Q 800 -225 525 -300 
L 300 -75 
L 3025 -75 
L 3025 1725 
L 2075 1725 
Q 1750 1725 1475 1650 
L 1250 1875 
L 3025 1875 
L 3025 3425 
L 1500 3425 
Q 925 2350 475 1900 
L 400 1950 
Q 825 2600 1125 3375 
Q 1425 4150 1575 4825 
z
" transform="scale(0.015625)"/>
        <path id="SimSun-5802" d="M 1075 4100 
Q 1100 3900 1100 3725 
L 3000 3725 
Q 3000 4700 2975 5250 
L 3550 5025 
L 3350 4825 
L 3350 3725 
L 3850 3725 
Q 4450 4575 4600 5025 
L 5075 4650 
Q 4800 4575 4000 3725 
L 5250 3725 
L 5475 4000 
L 5925 3525 
Q 5500 3500 5075 2950 
L 4975 3000 
L 5275 3575 
L 1100 3575 
Q 1150 3275 1062 3075 
Q 975 2875 737 2875 
Q 500 2875 500 2975 
Q 500 3050 625 3200 
Q 875 3525 950 4100 
L 1075 4100 
z
M 1425 4900 
L 1475 4975 
Q 2025 4750 2225 4575 
Q 2425 4400 2425 4250 
Q 2425 4150 2337 3987 
Q 2250 3825 2200 3825 
Q 2125 3825 2050 4025 
Q 1925 4375 1425 4900 
z
M 4600 2725 
L 4600 2150 
Q 4600 1825 4625 1550 
L 4250 1375 
L 4250 1625 
L 3350 1625 
L 3350 850 
L 4575 850 
L 4925 1200 
L 5425 700 
L 3350 700 
L 3350 -200 
L 5050 -200 
L 5475 225 
L 6050 -350 
L 1150 -350 
Q 825 -350 550 -425 
L 325 -200 
L 3000 -200 
L 3000 700 
L 1775 700 
Q 1450 700 1175 625 
L 950 850 
L 3000 850 
L 3000 1625 
L 2100 1625 
L 2100 1450 
L 1725 1300 
Q 1750 1725 1750 2250 
Q 1750 2775 1725 3150 
L 2100 2950 
L 4225 2950 
L 4400 3200 
L 4800 2900 
L 4600 2725 
z
M 4250 2800 
L 2100 2800 
L 2100 1775 
L 4250 1775 
L 4250 2800 
z
" transform="scale(0.015625)"/>
       </defs>
       <use xlink:href="#SimSun-517b"/>
       <use xlink:href="#SimSun-751f" x="100"/>
       <use xlink:href="#SimSun-5802" x="200"/>
      </g>
     </g>
    </g>
    <g id="ytick_7">
     <g id="line2d_13">
      <g>
       <use xlink:href="#m71b2cd36e4" x="109.2" y="103.227429" style="stroke: #000000; stroke-width: 0.8"/>
      </g>
     </g>
     <g id="text_15">
      <!-- CENTRUM/善存 -->
      <g transform="translate(42.2 107.192272)scale(0.1 -0.1)">
       <defs>
        <path id="SimSun-43" d="M 1725 50 
Q 1025 50 612 575 
Q 200 1100 200 2225 
Q 200 3175 637 3800 
Q 1075 4425 1825 4425 
Q 2000 4425 2175 4375 
Q 2350 4300 2475 4300 
Q 2575 4300 2637 4325 
Q 2700 4350 2750 4425 
L 2975 3325 
L 2825 3275 
Q 2675 3750 2425 4000 
Q 2175 4250 1775 4250 
Q 1250 4250 962 3675 
Q 675 3100 675 2250 
Q 675 1325 925 800 
Q 1175 275 1750 275 
Q 2150 275 2437 562 
Q 2725 850 2825 1325 
L 2975 1250 
Q 2850 725 2512 387 
Q 2175 50 1725 50 
z
" transform="scale(0.015625)"/>
        <path id="SimSun-4e" d="M 2525 1100 
L 2575 1100 
L 2575 4025 
Q 2575 4125 2525 4175 
Q 2475 4225 2350 4225 
L 2150 4225 
L 2150 4375 
L 3150 4375 
L 3150 4225 
L 2950 4225 
Q 2850 4225 2787 4175 
Q 2725 4125 2725 4025 
L 2725 100 
L 2575 100 
L 675 3825 
L 625 3825 
L 625 450 
Q 625 350 687 300 
Q 750 250 850 250 
L 1050 250 
L 1050 100 
L 50 100 
L 50 250 
L 250 250 
Q 375 250 425 300 
Q 475 350 475 450 
L 475 4025 
Q 475 4125 425 4175 
Q 375 4225 250 4225 
L 100 4225 
L 100 4375 
L 825 4375 
L 2525 1100 
z
" transform="scale(0.015625)"/>
        <path id="SimSun-52" d="M 2825 3375 
Q 2825 2875 2550 2600 
Q 2275 2325 1925 2275 
L 2675 425 
Q 2725 325 2787 287 
Q 2850 250 2925 250 
L 3075 250 
L 3075 100 
L 2375 100 
L 1550 2250 
L 975 2250 
L 975 450 
Q 975 350 1037 300 
Q 1100 250 1200 250 
L 1350 250 
L 1350 100 
L 200 100 
L 200 250 
L 350 250 
Q 475 250 525 300 
Q 575 350 575 450 
L 575 4025 
Q 575 4125 525 4175 
Q 475 4225 350 4225 
L 200 4225 
L 200 4375 
L 1625 4375 
Q 2200 4375 2512 4125 
Q 2825 3875 2825 3375 
z
M 2750 250 
L 2750 250 
z
M 975 2400 
L 1525 2400 
Q 1900 2400 2150 2625 
Q 2400 2850 2400 3325 
Q 2400 3750 2175 3987 
Q 1950 4225 1475 4225 
L 1200 4225 
Q 1100 4225 1037 4175 
Q 975 4125 975 4025 
L 975 2400 
z
" transform="scale(0.015625)"/>
        <path id="SimSun-55" d="M 1625 250 
Q 2000 250 2262 500 
Q 2525 750 2525 1125 
L 2525 4025 
Q 2525 4125 2475 4175 
Q 2425 4225 2300 4225 
L 2150 4225 
L 2150 4375 
L 3050 4375 
L 3050 4225 
L 2900 4225 
Q 2800 4225 2737 4175 
Q 2675 4125 2675 4025 
L 2675 1125 
Q 2675 625 2337 337 
Q 2000 50 1575 50 
Q 1125 50 787 300 
Q 450 550 450 1100 
L 450 4025 
Q 450 4125 400 4175 
Q 350 4225 225 4225 
L 100 4225 
L 100 4375 
L 1200 4375 
L 1200 4225 
L 1075 4225 
Q 975 4225 912 4175 
Q 850 4125 850 4025 
L 850 1100 
Q 850 600 1062 425 
Q 1275 250 1625 250 
z
" transform="scale(0.015625)"/>
        <path id="SimSun-4d" d="M 2800 450 
Q 2800 350 2862 300 
Q 2925 250 3025 250 
L 3125 250 
L 3125 100 
L 2050 100 
L 2050 250 
L 2175 250 
Q 2300 250 2350 300 
Q 2400 350 2400 450 
L 2400 3725 
L 2350 3725 
L 1500 100 
L 1350 100 
L 575 3650 
L 525 3650 
L 525 450 
Q 525 350 587 300 
Q 650 250 750 250 
L 825 250 
L 825 100 
L 75 100 
L 75 250 
L 150 250 
Q 275 250 325 300 
Q 375 350 375 450 
L 375 4025 
Q 375 4125 325 4175 
Q 275 4225 150 4225 
L 50 4225 
L 50 4375 
L 775 4375 
L 1500 1025 
L 1550 1025 
L 2325 4375 
L 3125 4375 
L 3125 4225 
L 3025 4225 
Q 2925 4225 2862 4175 
Q 2800 4125 2800 4025 
L 2800 450 
z
" transform="scale(0.015625)"/>
        <path id="SimSun-5584" d="M 1525 -600 
Q 1550 -100 1550 362 
Q 1550 825 1525 1300 
L 1900 1100 
L 4400 1100 
L 4575 1325 
L 4975 1025 
L 4775 875 
L 4775 175 
Q 4775 -125 4800 -475 
L 4450 -600 
L 4450 -225 
L 1875 -225 
L 1875 -475 
L 1525 -600 
z
M 1875 950 
L 1875 -75 
L 4450 -75 
L 4450 950 
L 1875 950 
z
M 625 4275 
L 2375 4275 
Q 2325 4700 1950 5150 
L 2000 5200 
Q 2450 5000 2587 4850 
Q 2725 4700 2725 4625 
Q 2725 4475 2550 4275 
L 3475 4275 
Q 3625 4500 3750 4712 
Q 3875 4925 3975 5225 
L 4425 4900 
Q 4250 4850 4062 4687 
Q 3875 4525 3625 4275 
L 4800 4275 
L 5150 4625 
L 5650 4125 
L 3325 4125 
L 3325 3600 
L 4475 3600 
L 4775 3900 
L 5225 3450 
L 3325 3450 
L 3325 2950 
L 5050 2950 
L 5375 3275 
L 5850 2800 
L 3325 2800 
L 3325 1775 
L 3975 1775 
Q 4125 2050 4237 2312 
Q 4350 2575 4400 2775 
L 4850 2475 
Q 4625 2375 4437 2175 
Q 4250 1975 4100 1775 
L 5175 1775 
L 5550 2150 
L 6075 1625 
L 1125 1625 
Q 800 1625 525 1550 
L 300 1775 
L 2975 1775 
L 2975 2800 
L 1250 2800 
Q 925 2800 650 2725 
L 425 2950 
L 2975 2950 
L 2975 3450 
L 1900 3450 
Q 1575 3450 1300 3375 
L 1075 3600 
L 2975 3600 
L 2975 4125 
L 1450 4125 
Q 1125 4125 850 4050 
L 625 4275 
z
M 1650 2775 
Q 2125 2475 2187 2350 
Q 2250 2225 2250 2125 
Q 2250 2000 2162 1900 
Q 2075 1800 2025 1800 
Q 1925 1800 1875 2050 
Q 1800 2400 1575 2725 
L 1650 2775 
z
" transform="scale(0.015625)"/>
        <path id="SimSun-5b58" d="M 1975 2725 
Q 1975 250 2000 -400 
L 1600 -650 
Q 1625 25 1625 2275 
Q 1150 1675 300 1100 
L 225 1175 
Q 1025 1875 1625 2750 
Q 1625 3000 1600 3200 
L 1850 3075 
Q 2175 3575 2475 4250 
L 1025 4250 
L 650 4200 
L 450 4400 
L 2525 4400 
Q 2725 4875 2775 5250 
L 3375 4950 
Q 3175 4850 3100 4712 
Q 3025 4575 2950 4400 
L 5050 4400 
L 5425 4775 
L 5950 4250 
L 2900 4250 
Q 2500 3475 1975 2725 
z
M 3050 0 
Q 3550 -50 3737 -50 
Q 3925 -50 3925 250 
L 3925 1475 
L 2825 1475 
L 2450 1425 
L 2250 1625 
L 3925 1625 
Q 3925 2275 3900 2675 
L 4175 2525 
L 4875 3250 
L 3075 3250 
L 2725 3200 
L 2525 3400 
L 4900 3400 
L 5150 3650 
L 5575 3175 
Q 5225 3125 4912 2912 
Q 4600 2700 4275 2450 
L 4475 2325 
L 4275 2175 
L 4275 1625 
L 5325 1625 
L 5650 1950 
L 6125 1475 
L 4275 1475 
L 4275 -50 
Q 4275 -400 3750 -625 
Q 3725 -325 3050 -125 
L 3050 0 
z
" transform="scale(0.015625)"/>
       </defs>
       <use xlink:href="#SimSun-43"/>
       <use xlink:href="#SimSun-45" x="50"/>
       <use xlink:href="#SimSun-4e" x="100"/>
       <use xlink:href="#SimSun-54" x="150"/>
       <use xlink:href="#SimSun-52" x="200"/>
       <use xlink:href="#SimSun-55" x="250"/>
       <use xlink:href="#SimSun-4d" x="300"/>
       <use xlink:href="#SimSun-2f" x="350"/>
       <use xlink:href="#SimSun-5584" x="400"/>
       <use xlink:href="#SimSun-5b58" x="500"/>
      </g>
     </g>
    </g>
    <g id="ytick_8">
     <g id="line2d_14">
      <g>
       <use xlink:href="#m71b2cd36e4" x="109.2" y="78.541714" style="stroke: #000000; stroke-width: 0.8"/>
      </g>
     </g>
     <g id="text_16">
      <!-- 伊可新 -->
      <g transform="translate(72.2 82.506558)scale(0.1 -0.1)">
       <defs>
        <path id="SimSun-4f0a" d="M 3500 1475 
Q 3400 800 2962 275 
Q 2525 -250 1725 -625 
L 1675 -550 
Q 2250 -225 2650 312 
Q 3050 850 3150 1475 
L 2875 1475 
Q 2550 1475 2275 1400 
L 2050 1625 
L 3175 1625 
Q 3225 2325 3225 2950 
L 2625 2950 
Q 2300 2950 2025 2875 
L 1800 3100 
L 3225 3100 
L 3225 4400 
L 2950 4400 
Q 2625 4400 2350 4325 
L 2125 4550 
L 4825 4550 
L 5025 4825 
L 5450 4500 
L 5225 4325 
L 5225 3100 
L 5400 3100 
L 5700 3400 
L 6150 2950 
L 5225 2950 
L 5225 1900 
Q 5225 1700 5250 1275 
L 4875 1075 
L 4875 1475 
L 3500 1475 
z
M 1625 450 
Q 1625 175 1650 -425 
L 1250 -600 
Q 1275 75 1275 475 
L 1275 3350 
Q 775 2550 300 2075 
L 250 2150 
Q 675 2750 1062 3612 
Q 1450 4475 1650 5275 
L 2200 4975 
L 2000 4850 
Q 1725 4250 1400 3600 
L 1825 3350 
L 1625 3175 
L 1625 450 
z
M 3575 4400 
L 3575 3100 
L 4875 3100 
L 4875 4400 
L 3575 4400 
z
M 4875 1625 
L 4875 2950 
L 3575 2950 
Q 3550 2300 3525 1625 
L 4875 1625 
z
" transform="scale(0.015625)"/>
        <path id="SimSun-53ef" d="M 300 4575 
L 5225 4575 
L 5600 4950 
L 6125 4425 
L 4925 4425 
L 4925 350 
Q 4950 -300 4375 -525 
Q 4325 -175 3525 50 
L 3525 175 
Q 3900 125 4262 100 
Q 4625 75 4575 450 
L 4575 4425 
L 1125 4425 
Q 800 4425 525 4350 
L 300 4575 
z
M 1200 675 
Q 1225 1550 1225 2212 
Q 1225 2875 1200 3600 
L 1600 3400 
L 2975 3400 
L 3125 3650 
L 3550 3325 
L 3350 3150 
L 3350 2075 
Q 3350 1650 3375 1075 
L 3000 925 
L 3000 1375 
L 1575 1375 
L 1575 800 
L 1200 675 
z
M 1575 3250 
L 1575 1525 
L 3000 1525 
L 3000 3250 
L 1575 3250 
z
" transform="scale(0.015625)"/>
        <path id="SimSun-65b0" d="M 5225 2775 
L 5225 475 
Q 5225 75 5250 -450 
L 4875 -625 
Q 4900 700 4900 2775 
L 4100 2775 
Q 4150 1150 3687 450 
Q 3225 -250 2600 -625 
L 2550 -550 
Q 3050 -125 3325 337 
Q 3600 800 3687 1362 
Q 3775 1925 3775 2775 
Q 3775 3625 3750 4700 
L 4100 4475 
Q 5150 4725 5475 5025 
L 5900 4575 
Q 5550 4575 5225 4525 
Q 4900 4475 4100 4350 
L 4100 2925 
L 5325 2925 
L 5650 3250 
L 6125 2775 
L 5225 2775 
z
M 1075 4050 
Q 1425 3825 1562 3675 
Q 1700 3525 1700 3400 
Q 1700 3275 1612 3150 
Q 1525 3025 1500 3025 
Q 1425 3025 1375 3225 
Q 1300 3525 1000 4000 
L 1075 4050 
z
M 2450 1400 
Q 2925 1125 3075 975 
Q 3225 825 3225 700 
Q 3225 600 3150 462 
Q 3075 325 3025 325 
Q 2975 325 2900 550 
Q 2775 875 2400 1325 
L 2450 1400 
z
M 1125 1475 
L 1600 1175 
L 1400 1075 
Q 850 200 350 -225 
L 275 -175 
Q 800 475 1125 1475 
z
M 1075 75 
Q 1525 0 1687 0 
Q 1850 0 1850 200 
L 1850 1775 
L 950 1775 
L 725 1725 
L 525 1925 
L 1850 1925 
L 1850 2800 
L 1125 2800 
Q 800 2800 525 2725 
L 300 2950 
L 2125 2950 
Q 2400 3650 2500 4150 
L 1325 4150 
Q 1000 4150 725 4075 
L 500 4300 
L 1875 4300 
Q 1850 4650 1525 5125 
L 1575 5175 
Q 2025 4925 2112 4787 
Q 2200 4650 2200 4600 
Q 2200 4475 2050 4300 
L 2675 4300 
L 2975 4600 
L 3425 4150 
L 2550 4150 
L 2975 3875 
Q 2800 3800 2637 3562 
Q 2475 3325 2250 2950 
L 2900 2950 
L 3200 3250 
L 3650 2800 
L 2175 2800 
L 2175 1925 
L 2750 1925 
L 3050 2225 
L 3500 1775 
L 2175 1775 
L 2175 25 
Q 2175 -350 1700 -525 
Q 1700 -225 1075 -25 
L 1075 75 
z
" transform="scale(0.015625)"/>
       </defs>
       <use xlink:href="#SimSun-4f0a"/>
       <use xlink:href="#SimSun-53ef" x="100"/>
       <use xlink:href="#SimSun-65b0" x="200"/>
      </g>
     </g>
    </g>
    <g id="ytick_9">
     <g id="line2d_15">
      <g>
       <use xlink:href="#m71b2cd36e4" x="109.2" y="53.856" style="stroke: #000000; stroke-width: 0.8"/>
      </g>
     </g>
     <g id="text_17">
      <!-- elevit/爱乐维 -->
      <g transform="translate(37.2 57.801312)scale(0.1 -0.1)">
       <defs>
        <path id="SimSun-6c" d="M 925 4375 
Q 1150 4375 1350 4425 
Q 1550 4475 1725 4575 
L 1775 4575 
L 1775 450 
Q 1775 350 1837 300 
Q 1900 250 2000 250 
L 2575 250 
L 2575 100 
L 625 100 
L 625 250 
L 1200 250 
Q 1325 250 1375 300 
Q 1425 350 1425 450 
L 1425 4025 
Q 1425 4125 1375 4175 
Q 1325 4225 1200 4225 
L 650 4225 
L 650 4375 
L 925 4375 
z
" transform="scale(0.015625)"/>
        <path id="SimSun-76" d="M 1625 75 
L 1475 75 
L 625 2525 
Q 600 2625 525 2687 
Q 450 2750 350 2750 
L 225 2750 
L 225 2900 
L 1300 2900 
L 1300 2750 
L 1200 2750 
Q 1050 2750 1025 2700 
Q 1000 2650 1000 2600 
Q 1000 2500 1025 2425 
L 1625 675 
L 1675 675 
L 2275 2400 
Q 2325 2525 2325 2575 
Q 2325 2600 2275 2675 
Q 2225 2750 2075 2750 
L 2025 2750 
L 2025 2900 
L 2925 2900 
L 2925 2750 
L 2875 2750 
Q 2725 2750 2637 2662 
Q 2550 2575 2475 2400 
L 1625 75 
z
M 2600 2750 
L 2600 2750 
z
M 2400 2750 
L 2400 2750 
z
M 925 2750 
L 925 2750 
z
M 550 2750 
L 550 2750 
z
" transform="scale(0.015625)"/>
        <path id="SimSun-69" d="M 1425 2525 
Q 1425 2625 1375 2687 
Q 1325 2750 1200 2750 
L 675 2750 
L 675 2900 
L 925 2900 
Q 1150 2900 1350 2937 
Q 1550 2975 1725 3075 
L 1775 3075 
L 1775 450 
Q 1775 350 1837 300 
Q 1900 250 2000 250 
L 2525 250 
L 2525 100 
L 675 100 
L 675 250 
L 1200 250 
Q 1325 250 1375 300 
Q 1425 350 1425 450 
L 1425 2525 
z
M 1725 3025 
L 1725 3025 
z
M 1625 4425 
Q 1750 4425 1850 4337 
Q 1950 4250 1950 4125 
Q 1950 4000 1850 3900 
Q 1750 3800 1625 3800 
Q 1500 3800 1400 3900 
Q 1300 4000 1300 4125 
Q 1300 4250 1400 4337 
Q 1500 4425 1625 4425 
z
" transform="scale(0.015625)"/>
        <path id="SimSun-74" d="M 1500 900 
Q 1500 550 1625 425 
Q 1750 300 2000 300 
Q 2250 300 2400 462 
Q 2550 625 2600 925 
L 2725 875 
Q 2675 525 2462 300 
Q 2250 75 1900 75 
Q 1525 75 1337 300 
Q 1150 525 1150 1000 
L 1150 2750 
L 400 2750 
L 400 2900 
L 600 2900 
Q 900 2900 1087 3087 
Q 1275 3275 1325 3675 
L 1350 3875 
L 1500 3875 
L 1500 2900 
L 2500 2900 
L 2500 2750 
L 1500 2750 
L 1500 900 
z
" transform="scale(0.015625)"/>
        <path id="SimSun-7231" d="M 3625 525 
Q 4100 925 4450 1450 
L 2750 1450 
Q 2875 1225 3150 937 
Q 3425 650 3625 525 
z
M 1100 3175 
Q 1100 2625 937 2550 
Q 775 2475 700 2475 
Q 600 2475 525 2525 
Q 450 2575 450 2600 
Q 450 2675 650 2850 
Q 900 3050 1000 3600 
L 1100 3600 
L 1100 3325 
L 5275 3325 
L 5550 3600 
L 5975 3175 
Q 5800 3150 5600 3012 
Q 5400 2875 5150 2550 
L 5075 2575 
L 5325 3175 
L 1100 3175 
z
M 2825 2125 
Q 2750 1875 2650 1600 
L 4450 1600 
L 4675 1825 
L 5050 1450 
L 4825 1325 
Q 4300 675 3875 350 
Q 4725 -75 6075 -100 
L 6075 -175 
Q 5800 -200 5650 -525 
Q 4325 -275 3650 175 
Q 2825 -400 1300 -600 
L 1300 -500 
Q 2650 -200 3425 350 
Q 2875 850 2600 1475 
Q 2075 300 600 -475 
L 575 -375 
Q 2150 700 2450 2125 
L 1750 2125 
Q 1425 2125 1150 2050 
L 925 2275 
L 2475 2275 
Q 2550 2750 2550 3050 
L 3100 2800 
L 2925 2650 
L 2850 2275 
L 4700 2275 
L 5000 2575 
L 5425 2125 
L 2825 2125 
z
M 1625 4425 
Q 2125 4150 2237 4000 
Q 2350 3850 2350 3750 
Q 2350 3650 2262 3537 
Q 2175 3425 2125 3425 
Q 2050 3425 1975 3650 
Q 1875 4000 1575 4350 
L 1625 4425 
z
M 2900 4550 
Q 3500 4175 3562 4062 
Q 3625 3950 3625 3850 
Q 3625 3700 3525 3587 
Q 3425 3475 3400 3475 
Q 3325 3475 3275 3725 
Q 3175 4075 2850 4500 
L 2900 4550 
z
M 5050 4300 
Q 4500 3625 4200 3400 
L 4125 3450 
Q 4325 3750 4475 4037 
Q 4625 4325 4750 4700 
L 5225 4375 
L 5050 4300 
z
M 975 4600 
Q 2425 4675 3625 4850 
Q 4825 5025 5250 5250 
L 5625 4800 
Q 4975 4775 3775 4675 
Q 2575 4550 975 4500 
L 975 4600 
z
" transform="scale(0.015625)"/>
        <path id="SimSun-4e50" d="M 3300 2550 
Q 3300 3625 3275 4075 
L 3900 3775 
L 3650 3600 
L 3650 2550 
L 5100 2550 
L 5450 2900 
L 5950 2400 
L 3650 2400 
L 3650 50 
Q 3650 -425 3050 -625 
Q 3075 -250 2200 -25 
L 2200 100 
Q 2725 25 3025 12 
Q 3325 0 3300 250 
L 3300 2400 
L 1550 2400 
L 1350 2175 
L 975 2500 
L 1175 2650 
Q 1325 3700 1450 4725 
L 1775 4450 
Q 3025 4550 3775 4712 
Q 4525 4875 4825 5075 
L 5250 4625 
Q 4825 4600 3825 4475 
Q 2800 4350 1775 4325 
L 1525 2550 
L 3300 2550 
z
M 2425 1450 
Q 1500 425 500 -150 
L 450 -75 
Q 1025 375 1487 912 
Q 1950 1450 2200 1950 
L 2700 1525 
L 2425 1450 
z
M 4225 1825 
Q 5550 900 5612 712 
Q 5675 525 5675 375 
Q 5675 175 5587 37 
Q 5500 -100 5450 -100 
Q 5350 -100 5175 350 
Q 4950 925 4150 1750 
L 4225 1825 
z
" transform="scale(0.015625)"/>
       </defs>
       <use xlink:href="#SimSun-65"/>
       <use xlink:href="#SimSun-6c" x="50"/>
       <use xlink:href="#SimSun-65" x="100"/>
       <use xlink:href="#SimSun-76" x="150"/>
       <use xlink:href="#SimSun-69" x="200"/>
       <use xlink:href="#SimSun-74" x="250"/>
       <use xlink:href="#SimSun-2f" x="300"/>
       <use xlink:href="#SimSun-7231" x="350"/>
       <use xlink:href="#SimSun-4e50" x="450"/>
       <use xlink:href="#SimSun-7ef4" x="550"/>
      </g>
     </g>
    </g>
    <g id="ytick_10">
     <g id="line2d_16">
      <g>
       <use xlink:href="#m71b2cd36e4" x="109.2" y="29.170286" style="stroke: #000000; stroke-width: 0.8"/>
      </g>
     </g>
     <g id="text_18">
      <!-- 星鲨 -->
      <g transform="translate(82.2 32.998411)scale(0.1 -0.1)">
       <defs>
        <path id="SimSun-661f" d="M 3600 2600 
L 3375 2425 
L 3375 2000 
L 4650 2000 
L 5025 2375 
L 5550 1850 
L 3375 1850 
L 3375 975 
L 4350 975 
L 4700 1325 
L 5200 825 
L 3375 825 
L 3375 -125 
L 5075 -125 
L 5475 275 
L 6025 -275 
L 1150 -275 
Q 825 -275 550 -350 
L 325 -125 
L 3025 -125 
L 3025 825 
L 1750 825 
L 1525 775 
L 1325 975 
L 3025 975 
L 3025 1850 
L 1600 1850 
Q 1175 1150 550 650 
L 475 700 
Q 975 1300 1225 1837 
Q 1475 2375 1550 2725 
L 2050 2400 
Q 1875 2350 1675 2000 
L 3025 2000 
Q 3025 2500 3000 2875 
L 3600 2600 
z
M 1750 3875 
L 1750 3150 
L 4675 3150 
L 4675 3875 
L 1750 3875 
z
M 1375 5125 
L 1775 4875 
L 4650 4875 
L 4875 5125 
L 5250 4800 
L 5025 4625 
Q 5025 3450 5050 2875 
L 4675 2700 
L 4675 3000 
L 1750 3000 
L 1750 2875 
L 1375 2725 
Q 1400 3175 1400 3900 
Q 1400 4625 1375 5125 
z
M 1750 4725 
L 1750 4025 
L 4675 4025 
L 4675 4725 
L 1750 4725 
z
" transform="scale(0.015625)"/>
        <path id="SimSun-9ca8" d="M 1250 5175 
Q 1850 4975 1900 4887 
Q 1950 4800 1950 4725 
Q 1950 4625 1875 4500 
Q 1800 4375 1775 4375 
Q 1700 4375 1650 4525 
Q 1525 4775 1200 5100 
L 1250 5175 
z
M 725 4500 
Q 1175 4350 1300 4250 
Q 1425 4150 1425 4050 
Q 1425 3950 1350 3812 
Q 1275 3675 1250 3675 
Q 1200 3675 1125 3850 
Q 1000 4100 675 4450 
L 725 4500 
z
M 800 3325 
Q 1150 3250 1262 3262 
Q 1375 3275 1562 3500 
Q 1750 3725 2400 4725 
L 2475 4675 
Q 2125 4050 1875 3587 
Q 1625 3125 1575 2900 
Q 1525 2675 1525 2325 
Q 1525 2075 1400 2075 
Q 1350 2075 1225 2150 
Q 1100 2225 1100 2325 
Q 1100 2375 1150 2500 
Q 1250 2750 1237 2912 
Q 1225 3075 775 3225 
L 800 3325 
z
M 3300 4325 
Q 2775 3600 2225 3200 
L 2175 3250 
Q 2825 4000 3100 4700 
L 3525 4400 
L 3300 4325 
z
M 4625 4750 
Q 5400 4500 5575 4362 
Q 5750 4225 5750 4075 
Q 5750 4025 5700 3887 
Q 5650 3750 5625 3750 
Q 5575 3750 5475 3900 
Q 5300 4125 5100 4300 
Q 4900 4475 4600 4675 
L 4625 4750 
z
M 4150 4875 
Q 4150 3925 4175 3575 
L 3775 3425 
Q 3800 3925 3800 4375 
Q 3800 4825 3775 5275 
L 4375 5025 
L 4150 4875 
z
M 5250 3750 
L 5600 3300 
L 5300 3300 
Q 3675 2750 1925 2600 
L 1925 2700 
Q 3125 2875 4050 3187 
Q 4975 3500 5250 3750 
z
M 5000 1475 
Q 5000 575 5025 150 
L 4675 -50 
L 4675 275 
L 1950 275 
L 1950 125 
L 1600 -25 
Q 1625 575 1625 1375 
Q 1200 1100 725 900 
L 675 975 
Q 1300 1350 1812 1812 
Q 2325 2275 2550 2650 
L 2975 2325 
Q 2850 2325 2675 2225 
L 3800 2225 
L 4000 2450 
L 4425 2125 
Q 4200 2125 3625 1675 
L 4650 1675 
L 4850 1925 
L 5200 1625 
L 5000 1475 
z
M 450 -225 
L 5350 -225 
L 5650 75 
L 6075 -375 
L 1275 -375 
Q 950 -375 675 -450 
L 450 -225 
z
M 1950 1525 
L 1950 1025 
L 3125 1025 
L 3125 1525 
L 1950 1525 
z
M 3450 1525 
L 3450 1025 
L 4675 1025 
L 4675 1525 
L 3450 1525 
z
M 1950 875 
L 1950 425 
L 3125 425 
L 3125 875 
L 1950 875 
z
M 3450 875 
L 3450 425 
L 4675 425 
L 4675 875 
L 3450 875 
z
M 3475 1675 
L 3800 2075 
L 2550 2075 
Q 2300 1900 2000 1675 
L 3475 1675 
z
" transform="scale(0.015625)"/>
       </defs>
       <use xlink:href="#SimSun-661f"/>
       <use xlink:href="#SimSun-9ca8" x="100"/>
      </g>
     </g>
    </g>
   </g>
   <g id="patch_13">
    <path d="M 109.2 273.312 
L 109.2 7.2 
" style="fill: none; stroke: #000000; stroke-width: 0.8; stroke-linejoin: miter; stroke-linecap: square"/>
   </g>
   <g id="patch_14">
    <path d="M 466.32 273.312 
L 466.32 7.2 
" style="fill: none; stroke: #000000; stroke-width: 0.8; stroke-linejoin: miter; stroke-linecap: square"/>
   </g>
   <g id="patch_15">
    <path d="M 109.2 273.312 
L 466.32 273.312 
" style="fill: none; stroke: #000000; stroke-width: 0.8; stroke-linejoin: miter; stroke-linecap: square"/>
   </g>
   <g id="patch_16">
    <path d="M 109.2 7.2 
L 466.32 7.2 
" style="fill: none; stroke: #000000; stroke-width: 0.8; stroke-linejoin: miter; stroke-linecap: square"/>
   </g>
  </g>
 </g>
 <defs>
  <clipPath id="p45015d1338">
   <rect x="109.2" y="7.2" width="357.12" height="266.112"/>
  </clipPath>
 </defs>
</svg>
