<?xml version="1.0" encoding="utf-8" standalone="no"?>
<!DOCTYPE svg PUBLIC "-//W3C//DTD SVG 1.1//EN"
  "http://www.w3.org/Graphics/SVG/1.1/DTD/svg11.dtd">
<svg xmlns:xlink="http://www.w3.org/1999/xlink" width="450.01242pt" height="280.512pt" viewBox="0 0 450.01242 280.512" xmlns="http://www.w3.org/2000/svg" version="1.1">
 <metadata>
  <rdf:RDF xmlns:dc="http://purl.org/dc/elements/1.1/" xmlns:cc="http://creativecommons.org/ns#" xmlns:rdf="http://www.w3.org/1999/02/22-rdf-syntax-ns#">
   <cc:Work>
    <dc:type rdf:resource="http://purl.org/dc/dcmitype/StillImage"/>
    <dc:date>2023-01-05T14:42:32.498365</dc:date>
    <dc:format>image/svg+xml</dc:format>
    <dc:creator>
     <cc:Agent>
      <dc:title>Matplotlib v3.5.3, https://matplotlib.org/</dc:title>
     </cc:Agent>
    </dc:creator>
   </cc:Work>
  </rdf:RDF>
 </metadata>
 <defs>
  <style type="text/css">*{stroke-linejoin: round; stroke-linecap: butt}</style>
 </defs>
 <g id="figure_1">
  <g id="patch_1">
   <path d="M 0 280.512 
L 450.01242 280.512 
L 450.01242 0 
L 0 0 
z
" style="fill: #ffffff"/>
  </g>
  <g id="axes_1">
   <g id="patch_2">
    <path d="M 308.081667 131.85879 
C 308.081667 106.377555 298.931948 81.72441 282.307716 62.413059 
C 265.683484 43.101708 242.665251 30.387314 217.467385 26.597733 
C 192.269519 22.808153 166.529785 28.189694 144.960827 41.75706 
C 123.391869 55.324426 107.395586 76.19579 99.90071 100.549849 
L 201.636867 131.85879 
L 308.081667 131.85879 
z
" style="fill: #092436; opacity: 0.5; stroke: #092436; stroke-linejoin: miter"/>
   </g>
   <g id="patch_3">
    <path d="M 88.735766 115.711933 
C 80.826932 141.411121 82.942228 169.17619 94.652997 193.380649 
C 106.363766 217.585108 126.821654 236.475536 151.880948 246.223858 
L 190.471923 147.020874 
L 88.735766 115.711933 
z
" style="fill: #4c2604; opacity: 0.5; stroke: #4c2604; stroke-linejoin: miter"/>
   </g>
   <g id="patch_4">
    <path d="M 159.923126 252.120412 
C 167.398999 255.028603 175.179711 257.082431 183.116959 258.24275 
C 191.054207 259.403069 199.097241 259.662459 207.092759 259.015977 
L 198.514102 152.917428 
L 159.923126 252.120412 
z
" style="fill: #0d300d; opacity: 0.5; stroke: #0d300d; stroke-linejoin: miter"/>
   </g>
   <g id="patch_5">
    <path d="M 211.824052 258.638187 
C 219.748626 257.997441 227.576526 256.470869 235.161173 254.087058 
C 242.74582 251.703246 250.039575 248.477167 256.90586 244.46923 
L 203.245394 152.539638 
L 211.824052 258.638187 
z
" style="fill: #400c0c; opacity: 0.5; stroke: #400c0c; stroke-linejoin: miter"/>
   </g>
   <g id="patch_6">
    <path d="M 260.810028 242.248928 
C 266.983642 238.645311 272.778578 234.428951 278.107023 229.663739 
C 283.435467 224.898527 288.270367 219.608657 292.538457 213.874289 
L 207.149562 150.319336 
L 260.810028 242.248928 
z
" style="fill: #2c1f39; opacity: 0.5; stroke: #2c1f39; stroke-linejoin: miter"/>
   </g>
   <g id="patch_7">
    <path d="M 294.661853 211.260786 
C 297.128178 207.947169 299.39953 204.492798 301.464382 200.915201 
C 303.529234 197.337605 305.384087 193.642846 307.019528 189.849675 
L 209.272958 147.705833 
L 294.661853 211.260786 
z
" style="fill: #2a1a16; opacity: 0.5; stroke: #2a1a16; stroke-linejoin: miter"/>
   </g>
   <g id="patch_8">
    <path d="M 307.965959 187.685649 
C 309.454898 184.232268 310.759781 180.702406 311.875116 177.110915 
C 312.990451 173.519423 313.914671 169.871347 314.64389 166.182035 
L 210.219388 145.541807 
L 307.965959 187.685649 
z
" style="fill: #44243a; opacity: 0.5; stroke: #44243a; stroke-linejoin: miter"/>
   </g>
   <g id="patch_9">
    <path d="M 315.046228 164.29957 
C 315.563157 161.684287 315.981655 159.050506 316.300836 156.403801 
C 316.620018 153.757096 316.839658 151.099334 316.959291 148.436138 
L 210.621727 143.659342 
L 315.046228 164.29957 
z
" style="fill: #262626; opacity: 0.5; stroke: #262626; stroke-linejoin: miter"/>
   </g>
   <g id="patch_10">
    <path d="M 317.033179 147.400592 
C 317.068919 146.604987 317.095728 145.809006 317.113602 145.012799 
C 317.131477 144.216592 317.140415 143.420209 317.140415 142.623801 
L 210.695615 142.623796 
L 317.033179 147.400592 
z
" style="fill: #38390a; opacity: 0.5; stroke: #38390a; stroke-linejoin: miter"/>
   </g>
   <g id="patch_11">
    <path d="M 310.210563 129.729894 
C 310.210563 104.248659 301.060844 79.595514 284.436612 60.284163 
C 267.81238 40.972812 244.794147 28.258418 219.596281 24.468837 
C 194.398415 20.679257 168.658681 26.060798 147.089723 39.628164 
C 125.520765 53.19553 109.524482 74.066894 102.029606 98.420953 
L 203.765763 129.729894 
L 310.210563 129.729894 
z
" style="fill: #1f77b4"/>
   </g>
   <g id="patch_12">
    <path d="M 90.864662 113.583037 
C 82.955828 139.282225 85.071124 167.047294 96.781893 191.251753 
C 108.492662 215.456212 128.95055 234.34664 154.009844 244.094962 
L 192.600819 144.891978 
L 90.864662 113.583037 
z
" style="fill: #ff7f0e"/>
   </g>
   <g id="patch_13">
    <path d="M 162.052022 249.991516 
C 169.527895 252.899707 177.308607 254.953535 185.245855 256.113854 
C 193.183103 257.274173 201.226137 257.533563 209.221655 256.887081 
L 200.642998 150.788532 
L 162.052022 249.991516 
z
" style="fill: #2ca02c"/>
   </g>
   <g id="patch_14">
    <path d="M 213.952948 256.509291 
C 221.877522 255.868545 229.705422 254.341973 237.290069 251.958162 
C 244.874716 249.57435 252.168471 246.348271 259.034756 242.340334 
L 205.37429 150.410742 
L 213.952948 256.509291 
z
" style="fill: #d62728"/>
   </g>
   <g id="patch_15">
    <path d="M 262.938924 240.120032 
C 269.112538 236.516415 274.907474 232.300055 280.235919 227.534843 
C 285.564363 222.769631 290.399263 217.479761 294.667353 211.745393 
L 209.278458 148.19044 
L 262.938924 240.120032 
z
" style="fill: #9467bd"/>
   </g>
   <g id="patch_16">
    <path d="M 296.790749 209.13189 
C 299.257074 205.818273 301.528426 202.363902 303.593278 198.786305 
C 305.65813 195.208709 307.512983 191.51395 309.148424 187.720779 
L 211.401854 145.576937 
L 296.790749 209.13189 
z
" style="fill: #8c564b"/>
   </g>
   <g id="patch_17">
    <path d="M 310.094855 185.556753 
C 311.583794 182.103372 312.888677 178.57351 314.004012 174.982019 
C 315.119347 171.390527 316.043567 167.742451 316.772786 164.053139 
L 212.348284 143.412911 
L 310.094855 185.556753 
z
" style="fill: #e377c2"/>
   </g>
   <g id="patch_18">
    <path d="M 317.175124 162.170674 
C 317.692053 159.555391 318.110551 156.92161 318.429732 154.274905 
C 318.748914 151.6282 318.968554 148.970438 319.088187 146.307242 
L 212.750623 141.530446 
L 317.175124 162.170674 
z
" style="fill: #7f7f7f"/>
   </g>
   <g id="patch_19">
    <path d="M 319.162075 145.271696 
C 319.197815 144.476091 319.224624 143.68011 319.242498 142.883903 
C 319.260373 142.087696 319.269311 141.291313 319.269311 140.494905 
L 212.824511 140.4949 
L 319.162075 145.271696 
z
" style="fill: #bcbd22"/>
   </g>
   <g id="matplotlib.axis_1"/>
   <g id="matplotlib.axis_2"/>
   <g id="text_1">
    <!-- 阿里健康大药房 -->
    <g transform="translate(221.179332 17.263044)scale(0.1 -0.1)">
     <defs>
      <path id="SimSun-963f" d="M 3075 3250 
L 3075 1675 
L 3875 1675 
L 3875 3250 
L 3075 3250 
z
M 4025 150 
Q 4550 75 4775 62 
Q 5000 50 5000 225 
L 5000 4450 
L 3400 4450 
Q 3075 4450 2800 4375 
L 2575 4600 
L 5325 4600 
L 5650 4925 
L 6100 4475 
L 5325 4475 
L 5325 125 
Q 5325 -125 5212 -250 
Q 5100 -375 4775 -500 
Q 4575 -100 4025 50 
L 4025 150 
z
M 2750 3600 
L 3100 3400 
L 3850 3400 
L 4075 3625 
L 4375 3325 
L 4175 3175 
Q 4175 1575 4200 1275 
L 3875 1125 
L 3875 1525 
L 3075 1525 
L 3075 1075 
L 2750 925 
Q 2775 1525 2775 2212 
Q 2775 2900 2750 3600 
z
M 525 -575 
Q 550 0 550 375 
Q 550 750 550 2362 
Q 550 3975 550 4212 
Q 550 4450 525 4950 
L 900 4725 
L 1825 4725 
L 2050 4950 
L 2400 4600 
L 2175 4475 
Q 1725 3650 1400 3025 
Q 1925 2550 2100 2225 
Q 2275 1900 2287 1600 
Q 2300 1300 2137 1012 
Q 1975 725 1525 575 
Q 1425 925 975 1050 
L 975 1150 
Q 1350 1075 1500 1075 
Q 1675 1075 1800 1162 
Q 1925 1250 1887 1775 
Q 1850 2300 1250 3000 
L 1825 4575 
L 875 4575 
L 875 -400 
L 525 -575 
z
" transform="scale(0.015625)"/>
      <path id="SimSun-91cc" d="M 1700 4575 
L 1700 3525 
L 3000 3525 
L 3000 4575 
L 1700 4575 
z
M 3325 4575 
L 3325 3525 
L 4675 3525 
L 4675 4575 
L 3325 4575 
z
M 1700 3375 
L 1700 2300 
L 3000 2300 
L 3000 3375 
L 1700 3375 
z
M 3325 3375 
L 3325 2300 
L 4675 2300 
L 4675 3375 
L 3325 3375 
z
M 1350 1725 
Q 1375 2525 1375 3362 
Q 1375 4200 1350 4950 
L 1700 4725 
L 4625 4725 
L 4800 4975 
L 5225 4650 
L 5000 4475 
Q 5000 2650 5025 1975 
L 4675 1825 
L 4675 2150 
L 3325 2150 
L 3325 1100 
L 4675 1100 
L 5075 1475 
L 5550 950 
L 3325 950 
L 3325 -200 
L 5200 -200 
L 5600 200 
L 6100 -350 
L 1150 -350 
Q 825 -350 550 -425 
L 325 -200 
L 3000 -200 
L 3000 950 
L 1725 950 
Q 1400 950 1125 875 
L 900 1100 
L 3000 1100 
L 3000 2150 
L 1700 2150 
L 1700 1875 
L 1350 1725 
z
" transform="scale(0.015625)"/>
      <path id="SimSun-5065" d="M 1450 3025 
L 1450 1050 
Q 1450 200 1475 -400 
L 1100 -575 
Q 1125 250 1125 975 
L 1125 2975 
Q 750 2425 300 2000 
L 250 2075 
Q 850 2850 1212 3800 
Q 1575 4750 1650 5200 
L 2150 4900 
L 1950 4775 
Q 1575 3850 1325 3325 
L 1600 3175 
L 1450 3025 
z
M 6100 -100 
Q 5750 -175 5700 -450 
Q 4225 -475 3625 -300 
Q 3025 -125 2600 325 
Q 2175 -225 1600 -600 
L 1550 -525 
Q 2200 75 2425 525 
Q 2150 950 1850 1925 
L 1950 1950 
Q 2275 1175 2550 825 
Q 2675 1200 2750 1650 
Q 2825 2100 2875 2550 
L 2425 2550 
L 2275 2300 
L 1950 2650 
Q 2125 2750 2275 3125 
Q 2425 3500 2650 4150 
L 2325 4150 
L 2100 4100 
L 1900 4300 
L 2625 4300 
L 2850 4525 
L 3175 4200 
L 2950 4025 
L 2450 2700 
L 2875 2700 
L 3050 2925 
L 3375 2625 
L 3175 2475 
Q 3125 2025 3012 1475 
Q 2900 925 2725 550 
Q 3175 100 3762 0 
Q 4350 -100 4775 -100 
Q 5350 -100 6100 0 
L 6100 -100 
z
M 4275 175 
Q 4300 900 4300 1100 
L 3625 1100 
L 3325 1050 
L 3125 1250 
L 4300 1250 
L 4300 1875 
L 3925 1875 
L 3575 1825 
L 3375 2025 
L 4300 2025 
L 4300 2650 
L 4025 2650 
L 3725 2600 
L 3525 2800 
L 4300 2800 
L 4300 3425 
L 3700 3425 
L 3350 3375 
L 3150 3575 
L 4300 3575 
L 4300 4150 
L 4000 4150 
L 3650 4100 
L 3450 4300 
L 4300 4300 
Q 4300 4525 4275 5125 
L 4775 4875 
L 4600 4700 
L 4600 4300 
L 5125 4300 
L 5350 4525 
L 5675 4200 
L 5475 4075 
L 5475 3575 
L 5550 3575 
L 5775 3800 
L 6150 3425 
L 5475 3425 
Q 5475 3075 5500 2600 
L 5175 2450 
L 5175 2650 
L 4600 2650 
L 4600 2025 
L 5100 2025 
L 5350 2275 
L 5750 1875 
L 4600 1875 
L 4600 1250 
L 5350 1250 
L 5600 1500 
L 6000 1100 
L 4600 1100 
Q 4600 625 4625 325 
L 4275 175 
z
M 4600 3425 
L 4600 2800 
L 5175 2800 
L 5175 3425 
L 4600 3425 
z
M 4600 4150 
L 4600 3575 
L 5175 3575 
L 5175 4150 
L 4600 4150 
z
" transform="scale(0.015625)"/>
      <path id="SimSun-5eb7" d="M 225 -600 
Q 625 75 837 787 
Q 1050 1500 1075 2262 
Q 1100 3025 1100 3575 
Q 1100 4225 1075 4650 
L 1475 4425 
L 5175 4425 
L 5550 4800 
L 6075 4275 
L 1450 4275 
Q 1450 2825 1400 2062 
Q 1350 1300 1087 662 
Q 825 25 300 -650 
L 225 -600 
z
M 3075 5250 
Q 3500 5125 3675 5012 
Q 3850 4900 3850 4775 
Q 3850 4675 3775 4537 
Q 3700 4400 3650 4400 
Q 3600 4400 3525 4550 
Q 3400 4800 3025 5175 
L 3075 5250 
z
M 3325 3575 
Q 3325 3900 3300 4225 
L 3850 4000 
L 3650 3850 
L 3650 3575 
L 4725 3575 
L 4900 3825 
L 5300 3525 
L 5100 3350 
L 5100 2825 
L 5300 2825 
L 5625 3150 
L 6100 2675 
L 5100 2675 
Q 5100 2075 5125 1850 
L 4775 1675 
L 4775 1925 
L 3850 1925 
Q 4100 1275 4425 875 
Q 5100 1350 5350 1825 
L 5750 1400 
L 5500 1375 
Q 4975 1025 4500 775 
Q 5150 100 6025 25 
L 6025 -75 
Q 5625 -125 5550 -400 
Q 4825 -75 4387 487 
Q 3950 1050 3725 1925 
L 3650 1925 
L 3650 150 
Q 3700 -375 3150 -600 
Q 3150 -325 2500 -100 
L 2500 0 
Q 3000 -50 3175 -37 
Q 3350 -25 3325 300 
L 3325 925 
Q 2725 575 2225 212 
Q 1725 -150 1675 -300 
L 1300 150 
Q 1625 225 2162 475 
Q 2700 725 3325 1075 
L 3325 1925 
L 2600 1925 
Q 2275 1925 2000 1850 
L 1775 2075 
L 3325 2075 
L 3325 2675 
L 2250 2675 
Q 1925 2675 1650 2600 
L 1425 2825 
L 3325 2825 
L 3325 3425 
L 2625 3425 
Q 2300 3425 2025 3350 
L 1800 3575 
L 3325 3575 
z
M 3650 3425 
L 3650 2825 
L 4775 2825 
L 4775 3425 
L 3650 3425 
z
M 3650 2675 
L 3650 2075 
L 4775 2075 
L 4775 2675 
L 3650 2675 
z
M 1950 1700 
Q 2500 1550 2650 1425 
Q 2800 1300 2800 1175 
Q 2800 1075 2750 950 
Q 2700 825 2650 825 
Q 2600 825 2500 1025 
Q 2325 1325 1925 1625 
L 1950 1700 
z
" transform="scale(0.015625)"/>
      <path id="SimSun-5927" d="M 2925 3475 
Q 2925 4800 2900 5250 
L 3500 4975 
L 3300 4775 
L 3300 3475 
L 5150 3475 
L 5550 3875 
L 6100 3325 
L 3300 3325 
L 3300 3125 
Q 3550 2200 4212 1262 
Q 4875 325 6075 0 
L 6075 -100 
Q 5700 -125 5525 -425 
Q 4700 75 4100 950 
Q 3500 1825 3250 2775 
Q 3025 1250 2300 512 
Q 1575 -225 350 -625 
L 325 -525 
Q 1200 -150 1800 425 
Q 2400 1000 2637 1750 
Q 2875 2500 2925 3325 
L 950 3325 
L 600 3275 
L 400 3475 
L 2925 3475 
z
" transform="scale(0.015625)"/>
      <path id="SimSun-836f" d="M 500 -25 
Q 850 0 1537 100 
Q 2225 200 3050 350 
L 3075 275 
Q 2325 50 1600 -150 
Q 850 -350 750 -500 
L 500 -25 
z
M 1300 1150 
Q 1675 1175 2850 1300 
L 2875 1225 
Q 2275 1100 1737 937 
Q 1200 775 1000 600 
L 700 1100 
Q 975 1125 1287 1437 
Q 1600 1750 1975 2250 
Q 975 2125 775 1900 
L 500 2350 
Q 800 2375 1187 2887 
Q 1575 3400 1750 3900 
L 2225 3550 
Q 2025 3500 1725 3125 
Q 1400 2750 950 2325 
Q 1225 2350 2050 2375 
Q 2400 2825 2525 3150 
L 2975 2775 
Q 2750 2725 2325 2250 
Q 1900 1750 1300 1150 
z
M 3775 3725 
L 4300 3425 
Q 4125 3375 3825 2800 
L 5225 2800 
L 5425 3075 
L 5825 2725 
L 5600 2550 
Q 5550 1125 5500 600 
Q 5450 75 5325 -200 
Q 5200 -475 4725 -625 
Q 4750 -300 3950 -50 
L 3950 50 
Q 4625 -50 4812 -50 
Q 5000 -50 5087 250 
Q 5175 550 5250 2650 
L 3750 2650 
Q 3300 1950 2775 1475 
L 2725 1550 
Q 3075 1975 3375 2600 
Q 3675 3225 3775 3725 
z
M 3425 1850 
L 3500 1900 
Q 4075 1550 4212 1400 
Q 4350 1250 4350 1150 
Q 4350 1050 4250 887 
Q 4150 725 4100 725 
Q 4025 725 3975 950 
Q 3850 1300 3425 1850 
z
M 2100 3700 
L 2100 4275 
L 1150 4275 
Q 825 4275 550 4200 
L 325 4425 
L 2100 4425 
Q 2100 4825 2075 5200 
L 2700 4950 
L 2475 4775 
L 2475 4425 
L 3800 4425 
Q 3800 4825 3775 5200 
L 4400 4950 
L 4175 4775 
L 4175 4425 
L 5125 4425 
L 5575 4825 
L 6100 4275 
L 4175 4275 
L 4175 3925 
L 3800 3750 
L 3800 4275 
L 2475 4275 
L 2475 3875 
L 2100 3700 
z
" transform="scale(0.015625)"/>
      <path id="SimSun-623f" d="M 3225 3175 
L 3300 3225 
Q 3750 2975 3862 2850 
Q 3975 2725 3975 2650 
Q 3975 2550 3862 2425 
Q 3750 2300 3725 2300 
Q 3650 2300 3600 2475 
Q 3525 2750 3225 3175 
z
M 1750 2275 
L 5200 2275 
L 5500 2575 
L 5950 2125 
L 3425 2125 
Q 3425 1875 3325 1425 
L 4900 1425 
L 5150 1675 
L 5525 1300 
L 5300 1175 
Q 5225 100 5100 -200 
Q 4975 -500 4475 -625 
Q 4500 -300 3875 -125 
L 3900 -25 
Q 4300 -125 4475 -125 
Q 4575 -125 4687 -62 
Q 4800 0 4850 387 
Q 4900 775 4925 1275 
L 3300 1275 
Q 2875 -150 1275 -625 
L 1250 -525 
Q 2900 225 3050 2125 
L 2225 2125 
L 1950 2075 
L 1750 2275 
z
M 2875 5250 
Q 3425 5025 3512 4925 
Q 3600 4825 3600 4750 
Q 3600 4675 3550 4575 
Q 3500 4475 3400 4450 
Q 3300 4425 3225 4650 
Q 3125 4875 2825 5175 
L 2875 5250 
z
M 1625 4275 
L 1625 3475 
L 4975 3475 
L 4975 4275 
L 1625 4275 
z
M 5325 4175 
Q 5325 3525 5350 3200 
L 4975 3050 
L 4975 3325 
L 1625 3325 
Q 1675 975 350 -475 
L 275 -400 
Q 750 225 1012 1200 
Q 1275 2175 1275 3125 
Q 1275 4075 1250 4650 
L 1625 4425 
L 4950 4425 
L 5175 4650 
L 5550 4300 
L 5325 4175 
z
" transform="scale(0.015625)"/>
     </defs>
     <use xlink:href="#SimSun-963f"/>
     <use xlink:href="#SimSun-91cc" x="100"/>
     <use xlink:href="#SimSun-5065" x="200"/>
     <use xlink:href="#SimSun-5eb7" x="300"/>
     <use xlink:href="#SimSun-5927" x="400"/>
     <use xlink:href="#SimSun-836f" x="500"/>
     <use xlink:href="#SimSun-623f" x="600"/>
    </g>
   </g>
   <g id="text_2">
    <!-- 45.2% -->
    <g transform="translate(203.930177 48.450736)scale(0.1 -0.1)">
     <defs>
      <path id="SimSun-34" d="M 2300 575 
Q 2300 400 2400 325 
Q 2500 250 2675 250 
L 2900 250 
L 2900 100 
L 1250 100 
L 1250 250 
L 1525 250 
Q 1725 250 1812 325 
Q 1900 400 1900 575 
L 1900 1400 
L 225 1400 
L 225 1525 
L 2050 4425 
L 2300 4425 
L 2300 1550 
L 2975 1550 
L 2975 1400 
L 2300 1400 
L 2300 575 
z
M 1875 3800 
L 450 1550 
L 1900 1550 
L 1900 3800 
L 1875 3800 
z
" transform="scale(0.015625)"/>
      <path id="SimSun-35" d="M 1725 2850 
Q 2200 2850 2500 2487 
Q 2800 2125 2800 1525 
Q 2800 850 2487 450 
Q 2175 50 1525 50 
Q 1075 50 725 312 
Q 375 575 375 950 
Q 375 1100 462 1212 
Q 550 1325 700 1325 
Q 850 1325 900 1225 
Q 950 1125 950 1050 
Q 950 900 875 825 
Q 800 725 800 625 
Q 800 425 1037 325 
Q 1275 225 1550 225 
Q 1950 225 2162 550 
Q 2375 875 2375 1475 
Q 2375 1975 2187 2287 
Q 2000 2600 1625 2600 
Q 1350 2600 1150 2500 
Q 950 2400 775 2075 
L 550 2100 
L 675 4375 
L 2725 4375 
L 2650 4000 
L 850 4000 
L 750 2350 
Q 1000 2700 1237 2775 
Q 1475 2850 1725 2850 
z
" transform="scale(0.015625)"/>
      <path id="SimSun-2e" d="M 800 25 
Q 650 25 537 125 
Q 425 225 425 400 
Q 425 575 537 675 
Q 650 775 800 775 
Q 950 775 1062 662 
Q 1175 550 1175 400 
Q 1175 225 1062 125 
Q 950 25 800 25 
z
" transform="scale(0.015625)"/>
      <path id="SimSun-32" d="M 2325 3325 
Q 2325 3775 2125 4012 
Q 1925 4250 1525 4250 
Q 1225 4250 1012 4087 
Q 800 3925 800 3675 
Q 800 3525 900 3425 
Q 975 3325 975 3225 
Q 975 3100 912 3037 
Q 850 2975 725 2975 
Q 575 2975 487 3062 
Q 400 3150 400 3350 
Q 400 3875 775 4150 
Q 1150 4425 1575 4425 
Q 2175 4425 2462 4125 
Q 2750 3825 2750 3375 
Q 2750 3075 2612 2775 
Q 2475 2475 2175 2200 
Q 1450 1500 1062 1062 
Q 675 625 600 475 
L 2075 475 
Q 2300 475 2450 650 
Q 2600 825 2650 1175 
L 2800 1175 
L 2650 100 
L 325 100 
L 325 425 
Q 450 650 737 1000 
Q 1025 1350 1500 1825 
Q 1925 2250 2125 2625 
Q 2325 3000 2325 3325 
z
" transform="scale(0.015625)"/>
      <path id="SimSun-25" d="M 750 4250 
Q 600 4250 500 4050 
Q 400 3850 400 3300 
Q 400 2675 512 2487 
Q 625 2300 750 2300 
Q 925 2300 1012 2525 
Q 1100 2750 1100 3300 
Q 1100 3750 1037 4000 
Q 975 4250 750 4250 
z
M 1425 3275 
Q 1425 2825 1275 2487 
Q 1125 2150 750 2150 
Q 450 2150 262 2450 
Q 75 2750 75 3275 
Q 75 3825 275 4125 
Q 475 4425 750 4425 
Q 1050 4425 1237 4112 
Q 1425 3800 1425 3275 
z
M 2725 1200 
Q 2725 1625 2650 1900 
Q 2575 2175 2375 2175 
Q 2225 2175 2125 1937 
Q 2025 1700 2025 1200 
Q 2025 575 2137 400 
Q 2250 225 2375 225 
Q 2550 225 2637 437 
Q 2725 650 2725 1200 
z
M 3050 1175 
Q 3050 675 2875 362 
Q 2700 50 2375 50 
Q 2100 50 1900 362 
Q 1700 675 1700 1175 
Q 1700 1725 1900 2037 
Q 2100 2350 2375 2350 
Q 2675 2350 2862 2025 
Q 3050 1700 3050 1175 
z
M 2525 4350 
L 725 50 
L 575 125 
L 2350 4425 
L 2525 4350 
z
" transform="scale(0.015625)"/>
     </defs>
     <use xlink:href="#SimSun-34"/>
     <use xlink:href="#SimSun-35" x="50"/>
     <use xlink:href="#SimSun-2e" x="100"/>
     <use xlink:href="#SimSun-32" x="150"/>
     <use xlink:href="#SimSun-25" x="200"/>
    </g>
   </g>
   <g id="text_3">
    <!-- 天猫国际进口超市 -->
    <g transform="translate(7.2 199.188512)scale(0.1 -0.1)">
     <defs>
      <path id="SimSun-5929" d="M 975 4650 
L 4525 4650 
L 4900 5025 
L 5425 4500 
L 3275 4500 
Q 3250 3825 3175 2775 
L 4900 2775 
L 5325 3200 
L 5900 2625 
L 3500 2625 
Q 3925 1325 4625 725 
Q 5325 125 6100 -25 
L 6100 -125 
Q 5675 -150 5525 -475 
Q 4500 100 3987 1025 
Q 3475 1950 3375 2625 
L 3150 2625 
Q 2925 1325 2187 550 
Q 1450 -225 425 -625 
L 375 -550 
Q 1400 0 1987 762 
Q 2575 1525 2775 2625 
L 1225 2625 
Q 900 2625 625 2550 
L 400 2775 
L 2800 2775 
Q 2875 3925 2875 4500 
L 1800 4500 
Q 1475 4500 1200 4425 
L 975 4650 
z
" transform="scale(0.015625)"/>
      <path id="SimSun-732b" d="M 4575 3925 
Q 4575 4850 4550 5150 
L 5175 4925 
L 4925 4700 
L 4925 3925 
L 5350 3925 
L 5700 4250 
L 6150 3775 
L 4925 3775 
Q 4925 3275 4950 3050 
L 4575 2900 
L 4575 3775 
L 3700 3775 
L 3700 3000 
L 3325 2875 
Q 3350 3150 3350 3775 
L 2975 3775 
Q 2650 3775 2375 3700 
L 2150 3925 
L 3350 3925 
Q 3350 4850 3325 5150 
L 3925 4900 
L 3700 4700 
L 3700 3925 
L 4575 3925 
z
M 3050 2475 
L 3050 1400 
L 3975 1400 
L 3975 2475 
L 3050 2475 
z
M 4300 2475 
L 4300 1400 
L 5275 1400 
L 5275 2475 
L 4300 2475 
z
M 3050 1250 
L 3050 100 
L 3975 100 
L 3975 1250 
L 3050 1250 
z
M 4300 1250 
L 4300 100 
L 5275 100 
L 5275 1250 
L 4300 1250 
z
M 2700 -525 
Q 2725 75 2725 1187 
Q 2725 2300 2700 2850 
L 3050 2625 
L 5225 2625 
L 5425 2875 
L 5775 2550 
L 5600 2400 
Q 5600 225 5625 -250 
L 5275 -400 
L 5275 -50 
L 3050 -50 
L 3050 -375 
L 2700 -525 
z
M 550 4900 
Q 1225 4550 1650 4150 
Q 2075 4650 2250 5125 
L 2675 4725 
Q 2525 4700 2325 4475 
Q 2100 4225 1825 3925 
Q 2275 3025 2275 1812 
Q 2275 600 2062 112 
Q 1850 -375 1400 -525 
Q 1375 -175 800 0 
L 800 100 
Q 1250 25 1487 50 
Q 1725 75 1850 650 
Q 1975 1225 1925 2550 
Q 1300 1450 250 750 
L 225 825 
Q 1225 1725 1800 3025 
Q 1750 3375 1625 3750 
Q 1025 3175 375 2825 
L 325 2900 
Q 925 3325 1450 3950 
Q 1150 4375 500 4825 
L 550 4900 
z
" transform="scale(0.015625)"/>
      <path id="SimSun-56fd" d="M 1550 4150 
L 4250 4150 
L 4550 4450 
L 5000 4000 
L 3350 4000 
L 3350 2825 
L 4025 2825 
L 4325 3125 
L 4775 2675 
L 3350 2675 
L 3350 1025 
L 4200 1025 
L 4550 1375 
L 5050 875 
L 2225 875 
Q 1900 875 1625 800 
L 1400 1025 
L 3000 1025 
L 3000 2675 
L 2325 2675 
L 1975 2600 
L 1750 2825 
L 3000 2825 
L 3000 4000 
L 2125 4000 
L 1775 3925 
L 1550 4150 
z
M 3625 2475 
Q 4175 2225 4337 2075 
Q 4500 1925 4500 1775 
Q 4500 1650 4425 1512 
Q 4350 1375 4300 1375 
Q 4225 1375 4150 1600 
Q 4025 1925 3550 2400 
L 3625 2475 
z
M 875 -550 
Q 900 0 900 525 
L 900 4075 
Q 900 4550 875 5175 
L 1250 4950 
L 5150 4950 
L 5350 5175 
L 5750 4850 
L 5525 4700 
L 5525 750 
Q 5525 250 5550 -275 
L 5175 -425 
L 5175 75 
L 1250 75 
L 1250 -375 
L 875 -550 
z
M 1250 4800 
L 1250 225 
L 5175 225 
L 5175 4800 
L 1250 4800 
z
" transform="scale(0.015625)"/>
      <path id="SimSun-9645" d="M 4750 2300 
Q 5600 1475 5762 1187 
Q 5925 900 5925 700 
Q 5925 575 5850 450 
Q 5775 325 5750 325 
Q 5650 325 5550 625 
Q 5400 1050 5200 1412 
Q 5000 1775 4675 2250 
L 4750 2300 
z
M 2750 4725 
L 5000 4725 
L 5275 5000 
L 5675 4575 
L 3450 4575 
Q 3250 4575 2975 4500 
L 2750 4725 
z
M 2275 3200 
L 5400 3200 
L 5700 3500 
L 6125 3050 
L 4325 3050 
L 4325 175 
Q 4325 -50 4225 -212 
Q 4125 -375 3700 -525 
Q 3650 -175 2975 50 
L 2975 150 
Q 3675 25 3825 37 
Q 3975 50 3975 275 
L 3975 3050 
L 3100 3050 
Q 2775 3050 2500 2975 
L 2275 3200 
z
M 3625 2125 
L 3400 1975 
Q 2675 600 1900 50 
L 1850 125 
Q 2375 750 2687 1400 
Q 3000 2050 3100 2450 
L 3625 2125 
z
M 700 -550 
Q 725 700 725 2587 
Q 725 4475 700 5050 
L 1050 4825 
L 1950 4825 
L 2175 5050 
L 2525 4700 
L 2300 4550 
L 1600 3200 
Q 2050 2750 2212 2475 
Q 2375 2200 2387 1912 
Q 2400 1625 2275 1375 
Q 2150 1125 1625 950 
Q 1550 1300 1050 1475 
L 1050 -375 
L 700 -550 
z
M 1475 3200 
L 1975 4675 
L 1050 4675 
L 1050 1575 
Q 1675 1425 1862 1475 
Q 2050 1525 2050 1962 
Q 2050 2400 1475 3200 
z
" transform="scale(0.015625)"/>
      <path id="SimSun-8fdb" d="M 3425 3650 
L 3425 2250 
L 4425 2250 
L 4425 3650 
L 3425 3650 
z
M 3100 2250 
L 3100 3650 
L 2850 3650 
Q 2525 3650 2250 3575 
L 2025 3800 
L 3100 3800 
Q 3100 4475 3075 5150 
L 3650 4850 
L 3425 4675 
L 3425 3800 
L 4425 3800 
Q 4425 4500 4400 5150 
L 4975 4875 
L 4750 4675 
L 4750 3800 
L 5150 3800 
L 5450 4100 
L 5875 3650 
L 4750 3650 
L 4750 2250 
L 5325 2250 
L 5625 2550 
L 6050 2100 
L 4750 2100 
Q 4750 650 4775 300 
L 4400 125 
Q 4425 625 4425 2100 
L 3425 2100 
Q 3350 925 2150 300 
L 2100 375 
Q 3050 1075 3100 2100 
L 2700 2100 
Q 2375 2100 2100 2025 
L 1875 2250 
L 3100 2250 
z
M 875 4900 
L 925 4950 
Q 1400 4700 1587 4512 
Q 1775 4325 1750 4150 
Q 1725 3975 1625 3900 
Q 1525 3825 1500 3825 
Q 1400 3825 1325 4125 
Q 1225 4500 875 4900 
z
M 1575 650 
Q 1850 425 2237 212 
Q 2625 0 3387 -37 
Q 4150 -75 4837 -50 
Q 5525 -25 6150 50 
L 6150 -50 
Q 5575 -200 5625 -450 
Q 4475 -450 3762 -425 
Q 3050 -400 2650 -275 
Q 2250 -150 1875 200 
Q 1500 525 1425 537 
Q 1350 550 1150 350 
Q 950 150 600 -375 
L 275 -75 
Q 700 275 1250 675 
L 1250 2775 
L 1025 2775 
Q 700 2775 425 2700 
L 200 2925 
L 1175 2925 
L 1450 3200 
L 1800 2850 
L 1575 2675 
L 1575 650 
z
" transform="scale(0.015625)"/>
      <path id="SimSun-53e3" d="M 5250 1550 
Q 5250 750 5275 275 
L 4900 100 
L 4900 675 
L 1600 675 
L 1600 125 
L 1225 -50 
Q 1250 800 1250 2325 
Q 1250 3850 1225 4475 
L 1625 4225 
L 4850 4225 
L 5050 4500 
L 5450 4150 
L 5250 4000 
L 5250 1550 
z
M 1600 4075 
L 1600 825 
L 4900 825 
L 4900 4075 
L 1600 4075 
z
" transform="scale(0.015625)"/>
      <path id="SimSun-8d85" d="M 1175 1875 
Q 1100 1275 1050 975 
Q 1325 700 1675 425 
L 1675 2725 
L 1125 2725 
Q 800 2725 525 2650 
L 300 2875 
L 1625 2875 
L 1625 3925 
L 1325 3925 
Q 1000 3925 725 3850 
L 500 4075 
L 1625 4075 
Q 1625 4825 1600 5225 
L 2200 4950 
L 1950 4750 
L 1950 4075 
L 2400 4075 
L 2675 4350 
L 3075 3925 
L 1950 3925 
L 1950 2875 
L 2425 2875 
L 2725 3175 
L 3150 2725 
L 2000 2725 
L 2000 1650 
L 2525 1650 
L 2825 1925 
L 3225 1500 
L 2000 1500 
L 2000 250 
Q 2700 -75 3537 -100 
Q 4375 -125 4975 -125 
Q 5675 -125 6125 -100 
L 6125 -200 
Q 5750 -275 5675 -550 
Q 4500 -525 3575 -437 
Q 2650 -350 2062 -62 
Q 1475 225 1025 850 
Q 850 75 300 -600 
L 225 -550 
Q 600 150 712 862 
Q 825 1575 825 2275 
L 1375 2025 
L 1175 1875 
z
M 3800 2025 
L 3800 800 
L 5250 800 
L 5250 2025 
L 3800 2025 
z
M 4550 3150 
Q 4875 3100 5025 3100 
Q 5100 3100 5187 3125 
Q 5275 3150 5312 3450 
Q 5350 3750 5400 4475 
L 4350 4475 
Q 4300 2975 2900 2275 
L 2850 2375 
Q 3925 3125 3950 4475 
Q 3625 4475 3350 4400 
L 3125 4625 
L 5375 4625 
L 5600 4875 
L 5925 4550 
L 5750 4400 
Q 5700 3625 5650 3325 
Q 5600 3025 5500 2875 
Q 5400 2725 5125 2600 
Q 5000 2900 4550 3050 
L 4550 3150 
z
M 3425 2425 
L 3825 2175 
L 5200 2175 
L 5450 2450 
L 5825 2075 
L 5575 1925 
Q 5575 850 5600 425 
L 5250 275 
L 5250 650 
L 3800 650 
L 3800 300 
L 3425 100 
Q 3450 850 3450 1387 
Q 3450 1925 3425 2425 
z
" transform="scale(0.015625)"/>
      <path id="SimSun-5e02" d="M 2625 5150 
L 2675 5225 
Q 3175 4975 3312 4812 
Q 3450 4650 3450 4550 
Q 3450 4500 3387 4362 
Q 3325 4225 3212 4187 
Q 3100 4150 3025 4450 
Q 2950 4725 2625 5150 
z
M 1250 -25 
Q 1275 925 1275 1837 
Q 1275 2750 1250 3325 
L 1625 3100 
L 3000 3100 
L 3000 3975 
L 1250 3975 
Q 925 3975 650 3900 
L 425 4125 
L 5075 4125 
L 5475 4525 
L 6025 3975 
L 3350 3975 
L 3350 3100 
L 4750 3100 
L 4925 3350 
L 5375 3050 
L 5150 2875 
L 5150 675 
Q 5150 200 4575 0 
Q 4575 350 3875 550 
L 3875 650 
Q 4300 600 4562 600 
Q 4825 600 4800 900 
L 4800 2950 
L 3350 2950 
L 3350 425 
Q 3350 -25 3375 -475 
L 2975 -650 
Q 3000 0 3000 575 
L 3000 2950 
L 1625 2950 
L 1625 150 
L 1250 -25 
z
" transform="scale(0.015625)"/>
     </defs>
     <use xlink:href="#SimSun-5929"/>
     <use xlink:href="#SimSun-732b" x="100"/>
     <use xlink:href="#SimSun-56fd" x="200"/>
     <use xlink:href="#SimSun-9645" x="300"/>
     <use xlink:href="#SimSun-8fdb" x="400"/>
     <use xlink:href="#SimSun-53e3" x="500"/>
     <use xlink:href="#SimSun-8d85" x="600"/>
     <use xlink:href="#SimSun-5e02" x="700"/>
    </g>
   </g>
   <g id="text_4">
    <!-- 23.8% -->
    <g transform="translate(103.445678 184.909485)scale(0.1 -0.1)">
     <defs>
      <path id="SimSun-33" d="M 2800 1250 
Q 2800 775 2450 412 
Q 2100 50 1475 50 
Q 1025 50 700 300 
Q 375 550 375 875 
Q 375 1025 475 1137 
Q 575 1250 675 1250 
Q 825 1250 887 1137 
Q 950 1025 950 950 
Q 950 825 900 750 
Q 850 650 850 575 
Q 850 425 1037 325 
Q 1225 225 1450 225 
Q 1900 225 2125 487 
Q 2350 750 2350 1300 
Q 2350 1750 2112 2025 
Q 1875 2300 1225 2300 
L 1225 2475 
Q 1725 2475 1962 2712 
Q 2200 2950 2200 3375 
Q 2200 3725 2012 3987 
Q 1825 4250 1425 4250 
Q 1250 4250 1050 4162 
Q 850 4075 850 3875 
Q 850 3675 900 3625 
Q 950 3575 950 3500 
Q 950 3375 900 3300 
Q 850 3225 725 3225 
Q 625 3225 537 3300 
Q 450 3375 450 3575 
Q 450 3950 775 4187 
Q 1100 4425 1525 4425 
Q 2025 4425 2325 4112 
Q 2625 3800 2625 3450 
Q 2625 3075 2437 2812 
Q 2250 2550 1850 2425 
Q 2400 2225 2600 1900 
Q 2800 1575 2800 1250 
z
" transform="scale(0.015625)"/>
      <path id="SimSun-38" d="M 625 1125 
Q 625 725 887 475 
Q 1150 225 1550 225 
Q 2025 225 2237 475 
Q 2450 725 2450 1100 
Q 2450 1425 2150 1725 
Q 1850 2025 1250 2275 
Q 950 2075 787 1775 
Q 625 1475 625 1125 
z
M 2825 1175 
Q 2825 700 2475 375 
Q 2125 50 1550 50 
Q 1025 50 650 375 
Q 275 700 275 1125 
Q 275 1550 487 1850 
Q 700 2150 1100 2375 
Q 750 2550 562 2812 
Q 375 3075 375 3400 
Q 375 3825 700 4125 
Q 1025 4425 1600 4425 
Q 2125 4425 2450 4125 
Q 2775 3825 2775 3400 
Q 2775 3100 2587 2837 
Q 2400 2575 2000 2375 
Q 2425 2125 2625 1825 
Q 2825 1525 2825 1175 
z
M 2425 3375 
Q 2425 3725 2225 3987 
Q 2025 4250 1600 4250 
Q 1125 4250 925 4000 
Q 725 3750 725 3475 
Q 725 3200 1012 2937 
Q 1300 2675 1825 2475 
Q 2125 2625 2275 2850 
Q 2425 3075 2425 3375 
z
" transform="scale(0.015625)"/>
     </defs>
     <use xlink:href="#SimSun-32"/>
     <use xlink:href="#SimSun-33" x="50"/>
     <use xlink:href="#SimSun-2e" x="100"/>
     <use xlink:href="#SimSun-38" x="150"/>
     <use xlink:href="#SimSun-25" x="200"/>
    </g>
   </g>
   <g id="text_5">
    <!-- 天猫超市 -->
    <g transform="translate(143.706141 269.947168)scale(0.1 -0.1)">
     <use xlink:href="#SimSun-5929"/>
     <use xlink:href="#SimSun-732b" x="100"/>
     <use xlink:href="#SimSun-8d85" x="200"/>
     <use xlink:href="#SimSun-5e02" x="300"/>
    </g>
   </g>
   <g id="text_6">
    <!-- 7.2% -->
    <g transform="translate(178.325283 237.978477)scale(0.1 -0.1)">
     <defs>
      <path id="SimSun-37" d="M 2825 4200 
Q 2300 3350 1987 2537 
Q 1675 1725 1675 1125 
Q 1675 1025 1700 850 
Q 1700 650 1700 400 
Q 1700 200 1637 125 
Q 1575 50 1425 50 
Q 1300 50 1212 137 
Q 1125 225 1125 450 
Q 1125 925 1337 1625 
Q 1550 2325 2475 4000 
L 1225 4000 
Q 950 4000 787 3825 
Q 625 3650 550 3300 
L 400 3325 
L 575 4375 
L 2825 4375 
L 2825 4200 
z
" transform="scale(0.015625)"/>
     </defs>
     <use xlink:href="#SimSun-37"/>
     <use xlink:href="#SimSun-2e" x="50"/>
     <use xlink:href="#SimSun-32" x="100"/>
     <use xlink:href="#SimSun-25" x="150"/>
    </g>
   </g>
   <g id="text_7">
    <!-- 阿里健康大药房海外店 -->
    <g transform="translate(240.481647 265.452748)scale(0.1 -0.1)">
     <defs>
      <path id="SimSun-6d77" d="M 4700 2175 
L 4775 3350 
L 2800 3350 
L 2625 2175 
L 4700 2175 
z
M 2050 850 
L 2250 2025 
Q 2000 2025 1725 1950 
L 1500 2175 
L 2275 2175 
L 2500 3750 
L 2800 3500 
L 4725 3500 
L 4975 3750 
L 5300 3425 
L 5100 3275 
L 5025 2175 
L 5450 2175 
L 5725 2450 
L 6125 2025 
L 5025 2025 
L 4950 725 
L 5350 725 
L 5625 1000 
L 6025 575 
L 4950 575 
Q 4900 150 4850 -137 
Q 4800 -425 4225 -600 
Q 4200 -225 3450 25 
L 3450 125 
Q 4175 -25 4325 -12 
Q 4475 0 4525 125 
Q 4575 250 4600 575 
L 2350 575 
L 2150 375 
L 1825 725 
L 2050 850 
z
M 3275 3150 
L 3300 3225 
Q 3800 2975 3887 2837 
Q 3975 2700 3975 2625 
Q 3975 2500 3900 2400 
Q 3825 2300 3800 2300 
Q 3725 2300 3625 2550 
Q 3500 2900 3275 3150 
z
M 3250 1850 
L 3300 1900 
Q 3750 1600 3825 1437 
Q 3900 1275 3900 1225 
Q 3900 1125 3812 1012 
Q 3725 900 3675 900 
Q 3600 900 3550 1125 
Q 3475 1475 3250 1850 
z
M 4625 725 
L 4700 2025 
L 2600 2025 
L 2375 725 
L 4625 725 
z
M 3250 4950 
L 3075 4825 
Q 2950 4600 2800 4325 
L 5075 4325 
L 5375 4625 
L 5800 4175 
L 2750 4175 
Q 2300 3400 1775 2900 
L 1725 2950 
Q 2125 3525 2387 4150 
Q 2650 4775 2725 5225 
L 3250 4950 
z
M 1875 3900 
Q 1225 1450 1150 1137 
Q 1075 825 1087 375 
Q 1100 -75 1125 -250 
Q 1125 -350 1000 -350 
Q 900 -350 750 -300 
Q 600 -250 600 -75 
Q 600 50 675 300 
Q 750 550 750 700 
Q 750 875 637 975 
Q 525 1075 225 1175 
L 250 1275 
Q 600 1225 712 1237 
Q 825 1250 962 1462 
Q 1100 1675 1775 3925 
L 1875 3900 
z
M 300 3725 
Q 975 3350 1012 3100 
Q 1050 2850 962 2775 
Q 875 2700 850 2700 
Q 750 2700 650 2975 
Q 525 3325 250 3650 
L 300 3725 
z
M 800 5000 
Q 1450 4650 1487 4525 
Q 1525 4400 1525 4325 
Q 1525 4175 1437 4075 
Q 1350 3975 1325 3975 
Q 1250 3975 1175 4225 
Q 1050 4575 750 4925 
L 800 5000 
z
" transform="scale(0.015625)"/>
      <path id="SimSun-5916" d="M 4400 2825 
L 4400 600 
Q 4400 -75 4425 -450 
L 4025 -625 
Q 4050 -150 4050 475 
L 4050 4125 
Q 4050 4825 4025 5175 
L 4650 4900 
L 4400 4700 
L 4400 2950 
Q 5300 2650 5650 2437 
Q 6000 2225 5937 1925 
Q 5875 1625 5800 1625 
Q 5725 1625 5550 1875 
Q 5250 2300 4400 2825 
z
M 1825 5175 
L 2425 4850 
L 2225 4725 
Q 2025 4250 1825 3725 
L 2900 3725 
L 3100 4000 
L 3600 3575 
Q 3350 3600 3000 2500 
Q 2625 1400 1975 675 
Q 1325 -50 425 -450 
L 375 -375 
Q 1525 350 2075 1312 
Q 2625 2275 2925 3575 
L 1775 3575 
Q 1575 3100 1375 2750 
Q 2175 2475 2225 2262 
Q 2275 2050 2200 1912 
Q 2125 1775 2075 1775 
Q 2000 1775 1925 1950 
Q 1775 2225 1325 2650 
Q 875 1975 475 1600 
L 400 1675 
Q 900 2325 1312 3387 
Q 1725 4450 1825 5175 
z
" transform="scale(0.015625)"/>
      <path id="SimSun-5e97" d="M 1075 4600 
L 1550 4350 
L 3375 4350 
Q 3375 4725 3000 5200 
L 3050 5275 
Q 3650 5000 3712 4862 
Q 3775 4725 3775 4675 
Q 3775 4525 3625 4350 
L 5100 4350 
L 5500 4750 
L 6050 4200 
L 1475 4200 
Q 1475 2350 1412 1750 
Q 1350 1150 1100 587 
Q 850 25 325 -525 
L 250 -450 
Q 750 200 925 1000 
Q 1100 1800 1100 2962 
Q 1100 4125 1075 4600 
z
M 5325 1425 
Q 5325 50 5350 -225 
L 4950 -375 
L 4950 25 
L 2400 25 
L 2400 -375 
L 2025 -525 
Q 2050 150 2050 700 
Q 2050 1250 2025 1925 
L 2450 1700 
L 3325 1700 
L 3325 3200 
Q 3325 3700 3300 4100 
L 3900 3825 
L 3675 3650 
L 3675 2950 
L 4950 2950 
L 5275 3275 
L 5750 2800 
L 3675 2800 
L 3675 1700 
L 4900 1700 
L 5100 1950 
L 5525 1600 
L 5325 1425 
z
M 2400 1550 
L 2400 175 
L 4950 175 
L 4950 1550 
L 2400 1550 
z
" transform="scale(0.015625)"/>
     </defs>
     <use xlink:href="#SimSun-963f"/>
     <use xlink:href="#SimSun-91cc" x="100"/>
     <use xlink:href="#SimSun-5065" x="200"/>
     <use xlink:href="#SimSun-5eb7" x="300"/>
     <use xlink:href="#SimSun-5927" x="400"/>
     <use xlink:href="#SimSun-836f" x="500"/>
     <use xlink:href="#SimSun-623f" x="600"/>
     <use xlink:href="#SimSun-6d77" x="700"/>
     <use xlink:href="#SimSun-5916" x="800"/>
     <use xlink:href="#SimSun-5e97" x="900"/>
    </g>
   </g>
   <g id="text_8">
    <!-- 7.1% -->
    <g transform="translate(220.906913 234.578365)scale(0.1 -0.1)">
     <defs>
      <path id="SimSun-31" d="M 1825 4450 
L 1825 650 
Q 1825 450 1950 350 
Q 2075 250 2300 250 
L 2550 250 
L 2550 100 
L 725 100 
L 725 250 
L 950 250 
Q 1200 250 1312 350 
Q 1425 450 1425 650 
L 1425 3675 
Q 1425 3775 1362 3837 
Q 1300 3900 1175 3900 
L 725 3900 
L 725 4050 
L 950 4050 
Q 1250 4050 1437 4150 
Q 1625 4250 1725 4450 
L 1825 4450 
z
" transform="scale(0.015625)"/>
     </defs>
     <use xlink:href="#SimSun-37"/>
     <use xlink:href="#SimSun-2e" x="50"/>
     <use xlink:href="#SimSun-31" x="100"/>
     <use xlink:href="#SimSun-25" x="150"/>
    </g>
   </g>
   <g id="text_9">
    <!-- 康恩贝官方旗舰店 -->
    <g transform="translate(287.331665 238.809127)scale(0.1 -0.1)">
     <defs>
      <path id="SimSun-6069" d="M 2925 3775 
Q 2950 4100 2925 4550 
L 3500 4275 
L 3300 4100 
L 3275 3775 
L 3875 3775 
L 4150 4050 
L 4575 3625 
L 3275 3625 
Q 3225 3350 3150 3150 
Q 3800 2950 4112 2787 
Q 4425 2625 4462 2450 
Q 4500 2275 4437 2200 
Q 4375 2125 4350 2125 
Q 4275 2125 4200 2225 
Q 4050 2400 3812 2600 
Q 3575 2800 3125 3075 
Q 2800 2400 1900 2025 
L 4750 2025 
L 4750 4550 
L 1525 4550 
L 1525 2025 
L 1700 2025 
Q 2800 2625 2925 3625 
L 2200 3625 
L 1925 3575 
L 1725 3775 
L 2925 3775 
z
M 5100 2800 
Q 5100 2200 5125 1675 
L 4750 1500 
L 4750 1875 
L 1525 1875 
L 1525 1550 
L 1150 1400 
Q 1175 2200 1175 3200 
Q 1175 4200 1150 4950 
L 1550 4700 
L 4725 4700 
L 4950 4975 
L 5350 4625 
L 5100 4450 
L 5100 2800 
z
M 1250 1100 
Q 1225 300 1087 50 
Q 950 -200 825 -237 
Q 700 -275 625 -275 
Q 500 -275 450 -200 
Q 400 -125 400 -100 
Q 400 25 650 225 
Q 975 450 1150 1100 
L 1250 1100 
z
M 2775 1600 
L 2825 1675 
Q 3350 1400 3550 1225 
Q 3750 1050 3750 900 
Q 3750 800 3662 650 
Q 3575 500 3525 500 
Q 3450 500 3350 750 
Q 3200 1125 2775 1600 
z
M 4800 1300 
L 4875 1375 
Q 5500 975 5712 762 
Q 5925 550 5925 400 
Q 5925 300 5837 150 
Q 5750 0 5700 0 
Q 5600 0 5525 250 
Q 5375 625 4800 1300 
z
M 2175 75 
Q 2175 -175 2450 -175 
L 3925 -175 
Q 4300 -200 4362 137 
Q 4425 475 4425 950 
L 4550 950 
Q 4575 500 4637 250 
Q 4700 0 4900 -100 
Q 4675 -500 4275 -475 
L 2325 -475 
Q 1800 -525 1825 75 
Q 1825 1125 1800 1450 
L 2350 1200 
L 2175 1000 
L 2175 75 
z
" transform="scale(0.015625)"/>
      <path id="SimSun-8d1d" d="M 5025 4450 
Q 5025 2075 5050 1375 
L 4675 1200 
L 4675 4600 
L 1950 4600 
L 1950 1200 
L 1575 1050 
Q 1600 2000 1600 2987 
Q 1600 3975 1575 4950 
L 1975 4750 
L 4650 4750 
L 4900 5000 
L 5275 4625 
L 5025 4450 
z
M 700 -475 
Q 2200 150 2562 712 
Q 2925 1275 3000 2087 
Q 3075 2900 3050 4100 
L 3675 3800 
L 3450 3625 
Q 3450 1750 3037 875 
Q 2625 0 725 -575 
L 700 -475 
z
M 3675 1075 
Q 4750 675 5200 350 
Q 5650 25 5575 -237 
Q 5500 -500 5400 -500 
Q 5350 -500 5250 -375 
Q 5025 -75 4675 250 
Q 4325 575 3650 975 
L 3675 1075 
z
" transform="scale(0.015625)"/>
      <path id="SimSun-5b98" d="M 1950 3175 
L 1950 2250 
L 4300 2250 
L 4300 3175 
L 1950 3175 
z
M 1950 1125 
L 1950 0 
L 4500 0 
L 4500 1125 
L 1950 1125 
z
M 1575 -600 
Q 1600 150 1600 1312 
Q 1600 2475 1575 3525 
L 1950 3325 
L 4250 3325 
L 4500 3575 
L 4850 3225 
L 4650 3075 
Q 4650 2200 4675 2000 
L 4300 1825 
L 4300 2100 
L 1950 2100 
L 1950 1275 
L 4450 1275 
L 4700 1525 
L 5050 1175 
L 4850 1025 
Q 4850 75 4875 -350 
L 4500 -500 
L 4500 -150 
L 1950 -150 
L 1950 -475 
L 1575 -600 
z
M 2625 5175 
L 2675 5250 
Q 3175 5025 3337 4887 
Q 3500 4750 3500 4600 
Q 3500 4500 3412 4350 
Q 3325 4200 3275 4200 
Q 3175 4200 3100 4450 
Q 2975 4825 2625 5175 
z
M 5025 3375 
L 5325 4025 
L 1150 4025 
Q 1175 3475 1012 3375 
Q 850 3275 750 3275 
Q 675 3275 587 3325 
Q 500 3375 500 3425 
Q 500 3525 650 3650 
Q 875 3850 1050 4450 
L 1150 4450 
L 1150 4175 
L 5275 4175 
L 5550 4450 
L 6025 3950 
Q 5600 3950 5125 3325 
L 5025 3375 
z
" transform="scale(0.015625)"/>
      <path id="SimSun-65b9" d="M 275 3925 
L 5250 3925 
L 5625 4300 
L 6150 3775 
L 3075 3775 
Q 3050 3300 2950 2675 
L 4575 2675 
L 4825 2925 
L 5225 2550 
L 4975 2400 
Q 4725 475 4625 125 
Q 4525 -225 4312 -362 
Q 4100 -500 3725 -600 
Q 3625 -200 2900 100 
L 2925 200 
Q 3600 0 3812 -12 
Q 4025 -25 4137 75 
Q 4250 175 4350 712 
Q 4450 1250 4600 2525 
L 2925 2525 
Q 2500 350 475 -575 
L 425 -475 
Q 2675 800 2675 3775 
L 1100 3775 
Q 775 3775 500 3700 
L 275 3925 
z
M 2675 5150 
Q 3325 4900 3437 4725 
Q 3550 4550 3550 4450 
Q 3550 4350 3450 4212 
Q 3350 4075 3325 4075 
Q 3225 4075 3125 4350 
Q 2975 4725 2625 5075 
L 2675 5150 
z
" transform="scale(0.015625)"/>
      <path id="SimSun-65d7" d="M 1175 5150 
Q 1625 4850 1725 4700 
Q 1825 4550 1825 4475 
Q 1825 4350 1712 4200 
Q 1600 4050 1550 4050 
Q 1475 4050 1450 4300 
Q 1375 4675 1100 5100 
L 1175 5150 
z
M 3875 4900 
L 3675 4800 
Q 3525 4550 3350 4275 
L 5150 4275 
L 5475 4600 
L 5950 4125 
L 3275 4125 
Q 2825 3525 2525 3275 
L 2475 3325 
Q 3125 4200 3350 5225 
L 3875 4900 
z
M 3900 3675 
L 3700 3525 
L 3700 3150 
L 4775 3150 
Q 4775 3525 4750 3925 
L 5300 3675 
L 5100 3525 
L 5100 3150 
L 5350 3150 
L 5625 3425 
L 6050 3000 
L 5100 3000 
L 5100 975 
L 5375 975 
L 5700 1300 
L 6175 825 
L 3300 825 
Q 2975 825 2700 750 
L 2475 975 
L 3375 975 
L 3375 3000 
Q 3125 3000 2900 2925 
L 2675 3150 
L 3375 3150 
Q 3375 3550 3350 3925 
L 3900 3675 
z
M 3600 650 
L 4025 250 
Q 3750 200 3425 -50 
Q 3100 -300 2525 -600 
L 2475 -525 
Q 3275 50 3600 650 
z
M 4525 575 
Q 5250 350 5487 187 
Q 5725 25 5725 -200 
Q 5725 -275 5675 -425 
Q 5625 -575 5600 -575 
Q 5525 -575 5375 -325 
Q 5125 75 4475 500 
L 4525 575 
z
M 3700 3000 
L 3700 2475 
L 4775 2475 
L 4775 3000 
L 3700 3000 
z
M 3700 2325 
L 3700 1750 
L 4775 1750 
L 4775 2325 
L 3700 2325 
z
M 3700 1600 
L 3700 975 
L 4775 975 
L 4775 1600 
L 3700 1600 
z
M 1425 3800 
L 1425 2925 
L 1975 2925 
L 2125 3150 
L 2500 2875 
L 2325 2700 
Q 2325 925 2287 537 
Q 2250 150 2125 -25 
Q 2000 -200 1675 -325 
Q 1675 -25 1175 150 
L 1175 250 
Q 1550 175 1750 187 
Q 1950 200 1975 775 
Q 2000 1350 2000 2775 
L 1425 2775 
Q 1425 1475 1150 762 
Q 875 50 300 -525 
L 225 -475 
Q 1075 700 1100 2400 
L 1100 3800 
Q 775 3800 500 3725 
L 275 3950 
L 1950 3950 
L 2250 4250 
L 2700 3800 
L 1425 3800 
z
" transform="scale(0.015625)"/>
      <path id="SimSun-8230" d="M 3175 1475 
Q 3200 2300 3200 3137 
Q 3200 3975 3175 4800 
L 3500 4575 
L 5175 4575 
L 5400 4800 
L 5700 4500 
L 5500 4350 
L 5500 2400 
Q 5500 2075 5525 1700 
L 5200 1525 
L 5200 4425 
L 3500 4425 
L 3500 1650 
L 3175 1475 
z
M 4500 3450 
Q 4450 2475 4375 1900 
L 4800 1775 
L 4650 1650 
L 4650 150 
Q 4650 -175 4925 -175 
L 5450 -175 
Q 5600 -175 5650 -50 
Q 5700 75 5700 775 
L 5825 775 
Q 5825 375 5900 175 
Q 5975 -25 6125 -75 
Q 6000 -375 5862 -412 
Q 5725 -450 5625 -450 
L 4850 -450 
Q 4350 -450 4350 25 
L 4350 1775 
Q 4200 1025 3800 425 
Q 3400 -175 2550 -600 
L 2525 -500 
Q 3200 -50 3600 600 
Q 4000 1250 4087 2125 
Q 4175 3000 4150 3875 
L 4675 3625 
L 4500 3450 
z
M 1175 4325 
L 1175 2600 
L 2275 2600 
L 2275 4325 
L 1175 4325 
z
M 875 2600 
L 875 4100 
Q 875 4375 850 4675 
L 1200 4475 
L 1325 4475 
Q 1450 4925 1500 5250 
L 1975 5000 
L 1800 4900 
Q 1575 4650 1450 4475 
L 2250 4475 
L 2475 4700 
L 2775 4400 
L 2575 4250 
L 2575 175 
Q 2575 25 2512 -112 
Q 2450 -250 2125 -400 
Q 2000 -100 1500 75 
L 1500 150 
Q 2100 75 2187 87 
Q 2275 100 2275 225 
L 2275 2450 
L 1175 2450 
Q 1175 1400 1000 737 
Q 825 75 300 -575 
L 225 -525 
Q 625 175 750 850 
Q 875 1525 875 2450 
Q 700 2450 425 2375 
L 200 2600 
L 875 2600 
z
M 1500 4000 
Q 1825 3750 1912 3587 
Q 2000 3425 1962 3300 
Q 1925 3175 1800 3100 
Q 1675 3025 1650 3350 
Q 1600 3675 1450 3950 
L 1500 4000 
z
M 1475 2050 
Q 1750 1800 1862 1637 
Q 1975 1475 1925 1325 
Q 1875 1175 1750 1125 
Q 1625 1075 1600 1375 
Q 1575 1675 1425 2000 
L 1475 2050 
z
" transform="scale(0.015625)"/>
     </defs>
     <use xlink:href="#SimSun-5eb7"/>
     <use xlink:href="#SimSun-6069" x="100"/>
     <use xlink:href="#SimSun-8d1d" x="200"/>
     <use xlink:href="#SimSun-5b98" x="300"/>
     <use xlink:href="#SimSun-65b9" x="400"/>
     <use xlink:href="#SimSun-65d7" x="500"/>
     <use xlink:href="#SimSun-8230" x="600"/>
     <use xlink:href="#SimSun-5e97" x="700"/>
    </g>
   </g>
   <g id="text_10">
    <!-- 6.4% -->
    <g transform="translate(256.044426 214.59565)scale(0.1 -0.1)">
     <defs>
      <path id="SimSun-36" d="M 775 1800 
Q 775 1050 1037 637 
Q 1300 225 1675 225 
Q 2050 225 2250 500 
Q 2450 775 2450 1525 
Q 2450 2025 2237 2300 
Q 2025 2575 1725 2575 
Q 1450 2575 1212 2412 
Q 975 2250 775 1800 
z
M 1750 2825 
Q 2350 2825 2612 2425 
Q 2875 2025 2875 1525 
Q 2875 775 2512 412 
Q 2150 50 1675 50 
Q 1000 50 650 562 
Q 300 1075 300 2050 
Q 300 3200 725 3812 
Q 1150 4425 1875 4425 
Q 2225 4425 2437 4225 
Q 2650 4025 2650 3875 
Q 2650 3725 2587 3650 
Q 2525 3575 2375 3575 
Q 2250 3575 2187 3637 
Q 2125 3700 2125 3825 
Q 2125 3875 2150 3925 
Q 2150 3975 2150 4025 
Q 2150 4125 2075 4187 
Q 2000 4250 1800 4250 
Q 1375 4250 1075 3862 
Q 775 3475 775 2175 
Q 925 2500 1187 2662 
Q 1450 2825 1750 2825 
z
" transform="scale(0.015625)"/>
     </defs>
     <use xlink:href="#SimSun-36"/>
     <use xlink:href="#SimSun-2e" x="50"/>
     <use xlink:href="#SimSun-34" x="100"/>
     <use xlink:href="#SimSun-25" x="150"/>
    </g>
   </g>
   <g id="text_11">
    <!-- ChemistWarehouse海外旗舰店 -->
    <g transform="translate(312.81242 207.427554)scale(0.1 -0.1)">
     <defs>
      <path id="SimSun-43" d="M 1725 50 
Q 1025 50 612 575 
Q 200 1100 200 2225 
Q 200 3175 637 3800 
Q 1075 4425 1825 4425 
Q 2000 4425 2175 4375 
Q 2350 4300 2475 4300 
Q 2575 4300 2637 4325 
Q 2700 4350 2750 4425 
L 2975 3325 
L 2825 3275 
Q 2675 3750 2425 4000 
Q 2175 4250 1775 4250 
Q 1250 4250 962 3675 
Q 675 3100 675 2250 
Q 675 1325 925 800 
Q 1175 275 1750 275 
Q 2150 275 2437 562 
Q 2725 850 2825 1325 
L 2975 1250 
Q 2850 725 2512 387 
Q 2175 50 1725 50 
z
" transform="scale(0.015625)"/>
      <path id="SimSun-68" d="M 200 100 
L 200 250 
L 325 250 
Q 450 250 500 300 
Q 550 350 550 450 
L 550 4025 
Q 550 4125 500 4175 
Q 450 4225 325 4225 
L 175 4225 
L 175 4375 
L 450 4375 
Q 550 4375 650 4425 
Q 750 4475 850 4575 
L 900 4575 
L 900 2450 
Q 1125 2725 1362 2837 
Q 1600 2950 1875 2950 
Q 2250 2950 2450 2737 
Q 2650 2525 2650 2075 
L 2650 450 
Q 2650 350 2712 300 
Q 2775 250 2875 250 
L 3000 250 
L 3000 100 
L 1950 100 
L 1950 250 
L 2075 250 
Q 2200 250 2250 300 
Q 2300 350 2300 450 
L 2300 2025 
Q 2300 2450 2162 2587 
Q 2025 2725 1800 2725 
Q 1600 2725 1362 2600 
Q 1125 2475 900 2175 
L 900 450 
Q 900 350 962 300 
Q 1025 250 1125 250 
L 1250 250 
L 1250 100 
L 200 100 
z
" transform="scale(0.015625)"/>
      <path id="SimSun-65" d="M 2400 1650 
Q 2425 2200 2212 2487 
Q 2000 2775 1650 2775 
Q 1275 2775 1037 2475 
Q 800 2175 800 1650 
L 2400 1650 
z
M 800 1500 
Q 800 825 1062 537 
Q 1325 250 1750 250 
Q 2075 250 2300 437 
Q 2525 625 2625 900 
L 2750 850 
Q 2675 575 2412 312 
Q 2150 50 1700 50 
Q 1125 50 762 425 
Q 400 800 400 1500 
Q 400 2125 762 2537 
Q 1125 2950 1650 2950 
Q 2125 2950 2475 2625 
Q 2825 2300 2825 1500 
L 800 1500 
z
" transform="scale(0.015625)"/>
      <path id="SimSun-6d" d="M 175 2900 
Q 300 2900 425 2925 
Q 550 2950 625 3000 
L 675 3000 
L 675 2575 
Q 800 2775 950 2862 
Q 1100 2950 1275 2950 
Q 1500 2950 1625 2862 
Q 1750 2775 1775 2575 
Q 1900 2775 2062 2862 
Q 2225 2950 2400 2950 
Q 2700 2950 2812 2775 
Q 2925 2600 2925 2325 
L 2925 425 
Q 2925 325 2975 287 
Q 3025 250 3125 250 
L 3175 250 
L 3175 100 
L 2325 100 
L 2325 250 
L 2375 250 
Q 2475 250 2525 287 
Q 2575 325 2575 425 
L 2575 2300 
Q 2575 2575 2512 2662 
Q 2450 2750 2325 2750 
Q 2150 2750 2012 2625 
Q 1875 2500 1800 2275 
L 1800 425 
Q 1800 325 1850 287 
Q 1900 250 2000 250 
L 2050 250 
L 2050 100 
L 1200 100 
L 1200 250 
L 1250 250 
Q 1350 250 1400 287 
Q 1450 325 1450 425 
L 1450 2300 
Q 1450 2525 1400 2637 
Q 1350 2750 1200 2750 
Q 1025 2750 887 2625 
Q 750 2500 675 2250 
L 675 425 
Q 675 325 725 287 
Q 775 250 875 250 
L 925 250 
L 925 100 
L 75 100 
L 75 250 
L 125 250 
Q 225 250 275 287 
Q 325 325 325 425 
L 325 2600 
Q 325 2675 300 2712 
Q 275 2750 200 2750 
L 100 2750 
L 100 2900 
L 175 2900 
z
" transform="scale(0.015625)"/>
      <path id="SimSun-69" d="M 1425 2525 
Q 1425 2625 1375 2687 
Q 1325 2750 1200 2750 
L 675 2750 
L 675 2900 
L 925 2900 
Q 1150 2900 1350 2937 
Q 1550 2975 1725 3075 
L 1775 3075 
L 1775 450 
Q 1775 350 1837 300 
Q 1900 250 2000 250 
L 2525 250 
L 2525 100 
L 675 100 
L 675 250 
L 1200 250 
Q 1325 250 1375 300 
Q 1425 350 1425 450 
L 1425 2525 
z
M 1725 3025 
L 1725 3025 
z
M 1625 4425 
Q 1750 4425 1850 4337 
Q 1950 4250 1950 4125 
Q 1950 4000 1850 3900 
Q 1750 3800 1625 3800 
Q 1500 3800 1400 3900 
Q 1300 4000 1300 4125 
Q 1300 4250 1400 4337 
Q 1500 4425 1625 4425 
z
" transform="scale(0.015625)"/>
      <path id="SimSun-73" d="M 625 2175 
Q 625 2550 912 2750 
Q 1200 2950 1600 2950 
Q 1825 2950 2025 2900 
Q 2225 2825 2300 2825 
Q 2375 2825 2425 2850 
Q 2475 2875 2550 2950 
L 2650 2125 
L 2500 2100 
Q 2400 2425 2162 2612 
Q 1925 2800 1625 2800 
Q 1300 2800 1112 2675 
Q 925 2550 925 2325 
Q 925 2125 1012 2012 
Q 1100 1900 1325 1850 
Q 1500 1775 1775 1700 
Q 2025 1600 2250 1500 
Q 2450 1400 2587 1237 
Q 2725 1075 2725 875 
Q 2725 500 2462 287 
Q 2200 75 1700 75 
Q 1375 75 1225 150 
Q 1050 200 950 200 
Q 875 200 787 162 
Q 700 125 600 75 
L 525 1000 
L 675 1025 
Q 750 625 1000 425 
Q 1250 225 1700 225 
Q 2050 225 2237 350 
Q 2425 475 2425 725 
Q 2425 900 2325 1012 
Q 2225 1125 2125 1175 
Q 1875 1275 1575 1400 
Q 1275 1500 1050 1600 
Q 825 1700 725 1850 
Q 625 2000 625 2175 
z
" transform="scale(0.015625)"/>
      <path id="SimSun-74" d="M 1500 900 
Q 1500 550 1625 425 
Q 1750 300 2000 300 
Q 2250 300 2400 462 
Q 2550 625 2600 925 
L 2725 875 
Q 2675 525 2462 300 
Q 2250 75 1900 75 
Q 1525 75 1337 300 
Q 1150 525 1150 1000 
L 1150 2750 
L 400 2750 
L 400 2900 
L 600 2900 
Q 900 2900 1087 3087 
Q 1275 3275 1325 3675 
L 1350 3875 
L 1500 3875 
L 1500 2900 
L 2500 2900 
L 2500 2750 
L 1500 2750 
L 1500 900 
z
" transform="scale(0.015625)"/>
      <path id="SimSun-57" d="M 3150 4375 
L 3150 4225 
L 3050 4225 
Q 3000 4225 2937 4175 
Q 2875 4125 2850 4000 
L 2175 100 
L 2025 100 
L 1625 2750 
L 1575 2750 
L 1050 100 
L 900 100 
L 300 4025 
Q 300 4125 262 4175 
Q 225 4225 150 4225 
L 50 4225 
L 50 4375 
L 925 4375 
L 925 4225 
L 850 4225 
Q 750 4225 700 4175 
Q 650 4125 650 4025 
L 1050 1275 
L 1100 1275 
L 1525 3350 
L 1450 4025 
Q 1450 4125 1387 4175 
Q 1325 4225 1275 4225 
L 1200 4225 
L 1200 4375 
L 2050 4375 
L 2050 4225 
L 1975 4225 
Q 1875 4225 1837 4175 
Q 1800 4125 1800 4025 
L 2175 1350 
L 2225 1350 
L 2675 3975 
Q 2700 4100 2637 4162 
Q 2575 4225 2475 4225 
L 2400 4225 
L 2400 4375 
L 3150 4375 
z
M 1775 4225 
L 1775 4225 
z
M 1425 4225 
L 1425 4225 
z
M 2900 4225 
L 2900 4225 
z
M 2725 4225 
L 2725 4225 
z
M 625 4225 
L 625 4225 
z
M 275 4225 
L 275 4225 
z
" transform="scale(0.015625)"/>
      <path id="SimSun-61" d="M 1225 75 
Q 775 75 525 287 
Q 275 500 275 775 
Q 275 1225 662 1512 
Q 1050 1800 2200 1925 
L 2200 2225 
Q 2200 2475 2087 2637 
Q 1975 2800 1575 2800 
Q 1150 2800 975 2662 
Q 800 2525 850 2375 
Q 875 2325 875 2275 
Q 875 2225 837 2150 
Q 800 2075 650 2075 
Q 550 2075 487 2137 
Q 425 2200 425 2325 
Q 425 2550 750 2750 
Q 1075 2950 1550 2950 
Q 2050 2950 2300 2762 
Q 2550 2575 2550 2225 
L 2550 575 
Q 2550 375 2587 337 
Q 2625 300 2725 300 
Q 2850 300 2900 412 
Q 2950 525 2950 725 
L 3075 725 
Q 3075 375 2950 237 
Q 2825 100 2625 100 
Q 2450 100 2350 175 
Q 2250 250 2200 425 
Q 1950 250 1737 162 
Q 1525 75 1225 75 
z
M 700 850 
Q 700 625 837 437 
Q 975 250 1275 250 
Q 1500 250 1725 337 
Q 1950 425 2200 600 
L 2200 1775 
Q 1350 1675 1025 1437 
Q 700 1200 700 850 
z
" transform="scale(0.015625)"/>
      <path id="SimSun-72" d="M 1275 2125 
Q 1525 2525 1812 2737 
Q 2100 2950 2400 2950 
Q 2650 2950 2787 2837 
Q 2925 2725 2925 2575 
Q 2925 2450 2862 2375 
Q 2800 2300 2675 2300 
Q 2550 2300 2487 2375 
Q 2425 2450 2450 2575 
Q 2450 2650 2425 2700 
Q 2400 2750 2275 2750 
Q 2075 2750 1787 2500 
Q 1500 2250 1275 1800 
L 1275 450 
Q 1275 350 1337 300 
Q 1400 250 1500 250 
L 2050 250 
L 2050 100 
L 200 100 
L 200 250 
L 700 250 
Q 825 250 875 300 
Q 925 350 925 450 
L 925 2525 
Q 925 2625 875 2687 
Q 825 2750 700 2750 
L 225 2750 
L 225 2900 
L 425 2900 
Q 600 2900 837 2937 
Q 1075 2975 1200 3025 
L 1275 3025 
L 1275 2125 
z
" transform="scale(0.015625)"/>
      <path id="SimSun-6f" d="M 2900 1500 
Q 2900 875 2525 462 
Q 2150 50 1600 50 
Q 1025 50 662 475 
Q 300 900 300 1500 
Q 300 2050 662 2500 
Q 1025 2950 1600 2950 
Q 2200 2950 2550 2500 
Q 2900 2050 2900 1500 
z
M 700 1475 
Q 700 825 962 512 
Q 1225 200 1600 200 
Q 2025 200 2262 537 
Q 2500 875 2500 1475 
Q 2500 2125 2237 2462 
Q 1975 2800 1600 2800 
Q 1250 2800 975 2462 
Q 700 2125 700 1475 
z
" transform="scale(0.015625)"/>
      <path id="SimSun-75" d="M 1450 325 
Q 1750 325 1962 475 
Q 2175 625 2275 950 
L 2275 2525 
Q 2275 2625 2225 2687 
Q 2175 2750 2050 2750 
L 1900 2750 
L 1900 2900 
L 2050 2900 
Q 2200 2900 2325 2925 
Q 2450 2950 2575 3050 
L 2625 3050 
L 2625 600 
Q 2625 500 2687 450 
Q 2750 400 2850 400 
L 3000 400 
L 3000 250 
L 2850 250 
Q 2725 250 2600 212 
Q 2475 175 2325 100 
L 2275 100 
L 2275 625 
Q 2150 350 1900 212 
Q 1650 75 1325 75 
Q 925 75 725 300 
Q 525 525 525 1025 
L 525 2525 
Q 525 2625 475 2687 
Q 425 2750 300 2750 
L 150 2750 
L 150 2900 
L 300 2900 
Q 450 2900 575 2925 
Q 700 2950 825 3050 
L 875 3050 
L 875 975 
Q 875 625 1025 475 
Q 1175 325 1450 325 
z
" transform="scale(0.015625)"/>
     </defs>
     <use xlink:href="#SimSun-43"/>
     <use xlink:href="#SimSun-68" x="50"/>
     <use xlink:href="#SimSun-65" x="100"/>
     <use xlink:href="#SimSun-6d" x="150"/>
     <use xlink:href="#SimSun-69" x="200"/>
     <use xlink:href="#SimSun-73" x="250"/>
     <use xlink:href="#SimSun-74" x="300"/>
     <use xlink:href="#SimSun-57" x="350"/>
     <use xlink:href="#SimSun-61" x="400"/>
     <use xlink:href="#SimSun-72" x="450"/>
     <use xlink:href="#SimSun-65" x="500"/>
     <use xlink:href="#SimSun-68" x="550"/>
     <use xlink:href="#SimSun-6f" x="600"/>
     <use xlink:href="#SimSun-75" x="650"/>
     <use xlink:href="#SimSun-73" x="700"/>
     <use xlink:href="#SimSun-65" x="750"/>
     <use xlink:href="#SimSun-6d77" x="800"/>
     <use xlink:href="#SimSun-5916" x="900"/>
     <use xlink:href="#SimSun-65d7" x="1000"/>
     <use xlink:href="#SimSun-8230" x="1100"/>
     <use xlink:href="#SimSun-5e97" x="1200"/>
    </g>
   </g>
   <g id="text_12">
    <!-- 3.7% -->
    <g transform="translate(275.154993 191.074119)scale(0.1 -0.1)">
     <use xlink:href="#SimSun-33"/>
     <use xlink:href="#SimSun-2e" x="50"/>
     <use xlink:href="#SimSun-37" x="100"/>
     <use xlink:href="#SimSun-25" x="150"/>
    </g>
   </g>
   <g id="text_13">
    <!-- 其他 -->
    <g transform="translate(324.169584 181.459242)scale(0.1 -0.1)">
     <defs>
      <path id="SimSun-5176" d="M 4025 4275 
Q 4025 4775 4000 5250 
L 4575 4975 
L 4375 4775 
L 4375 4275 
L 4975 4275 
L 5325 4625 
L 5825 4125 
L 4375 4125 
L 4375 1300 
L 5125 1300 
L 5550 1725 
L 6125 1150 
L 1100 1150 
Q 775 1150 500 1075 
L 275 1300 
L 1975 1300 
L 1975 4125 
L 1425 4125 
Q 1100 4125 825 4050 
L 600 4275 
L 1975 4275 
Q 1975 4675 1950 5225 
L 2525 4975 
L 2325 4825 
L 2325 4275 
L 4025 4275 
z
M 2325 4125 
L 2325 3325 
L 4025 3325 
L 4025 4125 
L 2325 4125 
z
M 2325 3175 
L 2325 2350 
L 4025 2350 
L 4025 3175 
L 2325 3175 
z
M 2325 2200 
L 2325 1300 
L 4025 1300 
L 4025 2200 
L 2325 2200 
z
M 2325 1075 
L 2825 650 
Q 2625 625 1975 150 
Q 1300 -325 475 -600 
L 425 -525 
Q 925 -250 1525 225 
Q 2125 700 2325 1075 
z
M 3750 900 
L 3825 975 
Q 5275 300 5412 112 
Q 5550 -75 5550 -250 
Q 5550 -350 5500 -475 
Q 5450 -600 5400 -600 
Q 5300 -600 5125 -375 
Q 4850 0 3750 900 
z
" transform="scale(0.015625)"/>
      <path id="SimSun-4ed6" d="M 5450 3425 
Q 5475 1700 5350 1462 
Q 5225 1225 4900 1125 
Q 4950 1400 4350 1550 
L 4350 1650 
Q 4575 1625 4750 1625 
Q 4875 1625 4962 1650 
Q 5050 1675 5075 1950 
Q 5100 2225 5125 3450 
L 4100 3200 
L 4100 725 
L 3775 525 
L 3775 3100 
L 2925 2875 
L 2925 175 
Q 2925 -125 3200 -125 
L 5400 -125 
Q 5575 -25 5612 287 
Q 5650 600 5650 1025 
L 5775 1025 
Q 5775 600 5837 312 
Q 5900 25 6150 -25 
Q 5975 -400 5325 -400 
L 3200 -400 
Q 2575 -425 2600 75 
L 2600 2800 
L 2250 2700 
L 2100 2600 
L 1850 2775 
L 2600 2950 
Q 2600 3500 2575 4050 
L 3175 3800 
L 2925 3625 
L 2925 3025 
L 3775 3250 
Q 3775 4375 3750 5225 
L 4325 4975 
L 4100 4800 
L 4100 3350 
L 5050 3600 
L 5200 3875 
L 5625 3600 
L 5450 3425 
z
M 1300 -625 
Q 1325 125 1325 525 
L 1325 3200 
Q 725 2150 325 1725 
L 250 1775 
Q 825 2725 1200 3700 
Q 1575 4675 1700 5275 
L 2275 4975 
Q 2075 4875 1875 4437 
Q 1675 4000 1450 3475 
L 1875 3250 
L 1675 3100 
L 1675 -450 
L 1300 -625 
z
" transform="scale(0.015625)"/>
     </defs>
     <use xlink:href="#SimSun-5176"/>
     <use xlink:href="#SimSun-4ed6" x="100"/>
    </g>
   </g>
   <g id="text_14">
    <!-- 3.4% -->
    <g transform="translate(283.672866 171.597885)scale(0.1 -0.1)">
     <use xlink:href="#SimSun-33"/>
     <use xlink:href="#SimSun-2e" x="50"/>
     <use xlink:href="#SimSun-34" x="100"/>
     <use xlink:href="#SimSun-25" x="150"/>
    </g>
   </g>
   <g id="text_15">
    <!-- 天猫国际妙颜社 -->
    <g transform="translate(328.997643 158.889195)scale(0.1 -0.1)">
     <defs>
      <path id="SimSun-5999" d="M 4575 4725 
L 4575 2250 
Q 4575 1875 4600 1475 
L 4200 1300 
Q 4225 1725 4225 2150 
L 4225 4375 
Q 4225 4725 4200 5175 
L 4800 4900 
L 4575 4725 
z
M 3950 3675 
L 3750 3525 
Q 3425 2375 2725 1575 
L 2650 1625 
Q 2950 2150 3162 2812 
Q 3375 3475 3425 3975 
L 3950 3675 
z
M 5025 3900 
Q 5750 3400 5900 3212 
Q 6050 3025 6050 2875 
Q 6050 2725 5962 2562 
Q 5875 2400 5825 2400 
Q 5725 2400 5650 2700 
Q 5525 3175 4950 3850 
L 5025 3900 
z
M 5400 2300 
L 5850 1825 
L 5625 1750 
Q 4575 350 3750 -50 
Q 2925 -450 2075 -600 
L 2050 -525 
Q 3450 -125 4237 675 
Q 5025 1475 5400 2300 
z
M 1575 3550 
Q 1425 3000 975 1525 
Q 1425 1375 1800 1225 
Q 2100 1925 2400 3550 
L 1575 3550 
z
M 2100 4950 
L 1900 4800 
Q 1800 4475 1600 3700 
L 2375 3700 
L 2525 3950 
L 2950 3650 
L 2750 3450 
Q 2450 1950 2125 1100 
Q 2600 875 2725 712 
Q 2850 550 2812 362 
Q 2775 175 2725 175 
Q 2625 175 2525 325 
Q 2300 625 2000 850 
Q 1400 -75 300 -600 
L 250 -525 
Q 1250 150 1700 1000 
Q 1200 1275 650 1500 
Q 950 2475 1225 3550 
L 1150 3550 
Q 825 3550 550 3475 
L 325 3700 
L 1250 3700 
Q 1500 4775 1550 5275 
L 2100 4950 
z
" transform="scale(0.015625)"/>
      <path id="SimSun-989c" d="M 1225 4125 
Q 1700 3725 1725 3537 
Q 1750 3350 1650 3275 
Q 1550 3200 1500 3200 
Q 1425 3200 1400 3400 
Q 1350 3675 1175 4075 
L 1225 4125 
z
M 450 4375 
L 1800 4375 
Q 1775 4550 1725 4700 
Q 1675 4850 1450 5175 
L 1500 5225 
Q 1975 5000 2050 4862 
Q 2125 4725 2125 4675 
Q 2125 4525 1975 4375 
L 2650 4375 
L 2950 4675 
L 3375 4225 
L 2375 4225 
L 2750 4025 
Q 2575 3950 2425 3675 
Q 2275 3400 2125 3100 
L 2625 3100 
L 2900 3375 
L 3300 2950 
L 950 2950 
Q 975 1300 837 662 
Q 700 25 300 -550 
L 225 -525 
Q 575 300 600 925 
Q 625 1550 625 2075 
Q 625 2750 600 3300 
L 950 3100 
L 2000 3100 
Q 2275 3975 2300 4225 
L 1275 4225 
Q 950 4225 675 4150 
L 450 4375 
z
M 2500 2800 
L 2825 2450 
Q 2650 2450 2275 2200 
Q 1900 1925 1225 1700 
L 1200 1775 
Q 1650 2000 1987 2275 
Q 2325 2550 2500 2800 
z
M 2725 1925 
L 3050 1575 
Q 2900 1575 2450 1275 
Q 2000 950 1250 725 
L 1225 800 
Q 1750 1050 2150 1350 
Q 2550 1650 2725 1925 
z
M 2975 1050 
L 3325 675 
Q 3150 650 2575 225 
Q 1975 -200 925 -450 
L 900 -375 
Q 1700 -100 2262 337 
Q 2825 775 2975 1050 
z
M 3425 800 
Q 3450 1450 3450 2312 
Q 3450 3175 3425 3925 
L 3775 3725 
L 4250 3725 
Q 4350 4425 4350 4700 
L 3925 4700 
Q 3600 4700 3325 4625 
L 3100 4850 
L 5375 4850 
L 5725 5150 
L 6125 4700 
L 4775 4700 
Q 4650 4450 4375 3725 
L 5475 3725 
L 5650 3975 
L 6025 3700 
L 5850 3525 
L 5850 1975 
Q 5850 1550 5875 1100 
L 5525 900 
L 5525 3575 
L 3775 3575 
L 3775 1025 
L 3425 800 
z
M 5000 2875 
L 4825 2675 
Q 4825 1500 4650 950 
Q 4475 400 4012 37 
Q 3550 -325 2850 -600 
L 2800 -525 
Q 3700 -50 4037 412 
Q 4375 875 4437 1562 
Q 4500 2250 4475 3125 
L 5000 2875 
z
M 4750 1000 
Q 5775 400 5912 212 
Q 6050 25 6050 -125 
Q 6050 -200 5987 -350 
Q 5925 -500 5900 -500 
Q 5850 -500 5775 -375 
Q 5650 -125 5437 150 
Q 5225 425 4700 925 
L 4750 1000 
z
" transform="scale(0.015625)"/>
      <path id="SimSun-793e" d="M 1200 5050 
L 1275 5125 
Q 1850 4825 1925 4687 
Q 2000 4550 2000 4450 
Q 2000 4300 1900 4187 
Q 1800 4075 1750 4075 
Q 1675 4075 1625 4325 
Q 1525 4675 1200 5050 
z
M 1450 -650 
Q 1475 375 1475 2100 
Q 950 1450 350 1075 
L 300 1150 
Q 825 1650 1287 2312 
Q 1750 2975 2050 3625 
L 1175 3625 
Q 850 3625 575 3550 
L 350 3775 
L 2075 3775 
L 2275 4050 
L 2725 3650 
L 2475 3550 
Q 2150 3050 1825 2550 
Q 2525 2300 2625 2137 
Q 2725 1975 2725 1900 
Q 2725 1800 2650 1662 
Q 2575 1525 2550 1525 
Q 2475 1525 2375 1750 
Q 2200 2100 1825 2400 
Q 1825 -25 1850 -500 
L 1450 -650 
z
M 2625 2850 
L 3950 2850 
Q 3950 4175 3925 5100 
L 4550 4800 
L 4300 4650 
L 4300 2850 
L 5100 2850 
L 5425 3175 
L 5850 2700 
L 4300 2700 
L 4300 100 
L 5325 100 
L 5675 450 
L 6125 -50 
L 3050 -50 
Q 2725 -50 2450 -125 
L 2225 100 
L 3950 100 
L 3950 2700 
L 3450 2700 
Q 3125 2700 2850 2625 
L 2625 2850 
z
" transform="scale(0.015625)"/>
     </defs>
     <use xlink:href="#SimSun-5929"/>
     <use xlink:href="#SimSun-732b" x="100"/>
     <use xlink:href="#SimSun-56fd" x="200"/>
     <use xlink:href="#SimSun-9645" x="300"/>
     <use xlink:href="#SimSun-5999" x="400"/>
     <use xlink:href="#SimSun-989c" x="500"/>
     <use xlink:href="#SimSun-793e" x="600"/>
    </g>
   </g>
   <g id="text_16">
    <!-- 2.4% -->
    <g transform="translate(287.29391 154.655701)scale(0.1 -0.1)">
     <use xlink:href="#SimSun-32"/>
     <use xlink:href="#SimSun-2e" x="50"/>
     <use xlink:href="#SimSun-34" x="100"/>
     <use xlink:href="#SimSun-25" x="150"/>
    </g>
   </g>
   <g id="text_17">
    <!-- 苏宁易购官方旗舰店 -->
    <g transform="translate(329.884297 146.443115)scale(0.1 -0.1)">
     <defs>
      <path id="SimSun-82cf" d="M 4975 2000 
L 5050 2050 
Q 5650 1575 5762 1387 
Q 5875 1200 5875 1075 
Q 5875 925 5775 800 
Q 5675 675 5625 675 
Q 5525 675 5450 975 
Q 5350 1400 4975 2000 
z
M 4975 2725 
L 4700 2525 
Q 4625 1100 4562 612 
Q 4500 125 4337 -137 
Q 4175 -400 3675 -525 
Q 3650 -150 2950 75 
L 2950 175 
Q 3600 50 3812 37 
Q 4025 25 4137 337 
Q 4250 650 4350 2600 
L 3050 2600 
Q 2900 1325 2337 562 
Q 1775 -200 575 -625 
L 525 -575 
Q 1625 25 2087 750 
Q 2550 1475 2700 2600 
L 1725 2600 
Q 1400 2600 1125 2525 
L 900 2750 
L 2725 2750 
Q 2775 3325 2775 3800 
L 3325 3525 
L 3150 3375 
Q 3100 3025 3075 2750 
L 4275 2750 
L 4475 3075 
L 4975 2725 
z
M 1275 2075 
L 1375 2050 
Q 1375 1325 1187 1012 
Q 1000 700 762 750 
Q 525 800 525 875 
Q 525 925 600 1000 
Q 775 1175 950 1400 
Q 1125 1625 1275 2075 
z
M 4175 4175 
L 4175 3525 
L 3825 3350 
L 3825 4175 
L 2500 4175 
L 2500 3450 
L 2150 3275 
L 2150 4175 
L 1200 4175 
Q 875 4175 600 4100 
L 375 4325 
L 2150 4325 
Q 2150 4775 2125 5200 
L 2700 4975 
L 2500 4800 
L 2500 4325 
L 3825 4325 
Q 3825 4750 3800 5175 
L 4375 4950 
L 4175 4775 
L 4175 4325 
L 5075 4325 
L 5525 4700 
L 6050 4175 
L 4175 4175 
z
" transform="scale(0.015625)"/>
      <path id="SimSun-5b81" d="M 2625 5150 
L 2675 5225 
Q 3175 5000 3337 4825 
Q 3500 4650 3500 4550 
Q 3500 4425 3375 4262 
Q 3250 4100 3200 4100 
Q 3125 4100 3075 4350 
Q 2975 4750 2625 5150 
z
M 4800 3075 
L 5250 3825 
L 1175 3825 
Q 1225 3300 1075 3162 
Q 925 3025 750 3050 
Q 575 3075 575 3150 
Q 575 3225 650 3300 
Q 800 3500 900 3700 
Q 1000 3900 1050 4275 
L 1150 4275 
L 1175 3975 
L 5200 3975 
L 5450 4250 
L 5900 3750 
Q 5500 3725 4900 3025 
L 4800 3075 
z
M 575 2750 
L 4925 2750 
L 5325 3150 
L 5875 2600 
L 3400 2600 
L 3400 250 
Q 3425 -375 2750 -600 
Q 2750 -225 1900 0 
L 1900 125 
Q 2550 50 2775 50 
Q 3000 50 3025 300 
L 3025 2600 
L 1400 2600 
Q 1075 2600 800 2525 
L 575 2750 
z
" transform="scale(0.015625)"/>
      <path id="SimSun-6613" d="M 2225 2975 
L 2700 2625 
L 2475 2550 
Q 2350 2375 2225 2225 
L 5100 2225 
L 5325 2450 
L 5725 2100 
L 5500 1950 
Q 5375 1150 5287 712 
Q 5200 275 5062 -75 
Q 4925 -425 4325 -550 
Q 4350 -250 3675 25 
L 3700 125 
Q 4250 -25 4462 -25 
Q 4675 -25 4787 250 
Q 4900 525 5150 2075 
L 4400 2075 
Q 3875 575 3012 75 
Q 2150 -425 1275 -600 
L 1250 -525 
Q 2300 -175 2937 362 
Q 3575 900 4000 2075 
L 3250 2075 
Q 2725 1100 2100 700 
Q 1475 300 825 150 
L 800 225 
Q 1550 525 2012 937 
Q 2475 1350 2825 2075 
L 2125 2075 
Q 1550 1425 725 1025 
L 675 1100 
Q 1650 1775 2225 2975 
z
M 2050 3875 
L 2050 3150 
L 4425 3150 
L 4425 3875 
L 2050 3875 
z
M 1675 2700 
Q 1700 3250 1700 3775 
Q 1700 4300 1675 5125 
L 2050 4900 
L 4375 4900 
L 4550 5150 
L 4975 4850 
L 4775 4675 
Q 4775 3250 4800 2875 
L 4425 2700 
L 4425 3000 
L 2050 3000 
L 2050 2850 
L 1675 2700 
z
M 2050 4750 
L 2050 4025 
L 4425 4025 
L 4425 4750 
L 2050 4750 
z
" transform="scale(0.015625)"/>
      <path id="SimSun-8d2d" d="M 1900 1000 
Q 2825 550 2937 350 
Q 3050 150 3050 50 
Q 3050 -75 2975 -175 
Q 2900 -275 2850 -275 
Q 2775 -275 2700 -75 
Q 2550 225 2300 500 
Q 2050 775 1875 925 
L 1900 1000 
z
M 625 1100 
Q 650 2025 650 3025 
Q 650 4025 625 4850 
L 975 4675 
L 2325 4675 
L 2550 4900 
L 2875 4575 
L 2675 4425 
L 2675 2025 
Q 2675 1800 2700 1300 
L 2350 1125 
L 2350 4525 
L 975 4525 
L 975 1250 
L 625 1100 
z
M 200 -550 
Q 1525 500 1500 2375 
Q 1500 3575 1475 3925 
L 2025 3650 
L 1825 3475 
L 1825 2350 
Q 1875 375 250 -625 
L 200 -550 
z
M 3750 3875 
Q 3375 3075 2825 2500 
L 2750 2550 
Q 3125 3125 3400 3837 
Q 3675 4550 3775 5250 
L 4350 4975 
L 4125 4825 
Q 3950 4425 3800 4025 
L 5475 4025 
L 5725 4275 
L 6075 3925 
L 5875 3775 
Q 5825 2025 5775 1150 
Q 5725 275 5562 -50 
Q 5400 -375 4975 -550 
Q 4825 -150 4150 25 
L 4175 125 
Q 4725 25 5000 25 
Q 5125 25 5212 62 
Q 5300 100 5375 475 
Q 5450 850 5475 1737 
Q 5500 2625 5525 3875 
L 3750 3875 
z
M 3300 1275 
L 4675 1375 
Q 4500 1725 4300 2025 
L 4350 2100 
Q 4975 1625 5050 1462 
Q 5125 1300 5125 1200 
Q 5125 1075 5025 975 
Q 4925 875 4875 875 
Q 4825 875 4825 950 
Q 4775 1100 4700 1300 
Q 3525 1025 3275 825 
L 2975 1300 
Q 3275 1325 3562 2087 
Q 3850 2850 3900 3225 
L 4425 2950 
L 4200 2800 
Q 3750 1750 3300 1275 
z
" transform="scale(0.015625)"/>
     </defs>
     <use xlink:href="#SimSun-82cf"/>
     <use xlink:href="#SimSun-5b81" x="100"/>
     <use xlink:href="#SimSun-6613" x="200"/>
     <use xlink:href="#SimSun-8d2d" x="300"/>
     <use xlink:href="#SimSun-5b98" x="400"/>
     <use xlink:href="#SimSun-65b9" x="500"/>
     <use xlink:href="#SimSun-65d7" x="600"/>
     <use xlink:href="#SimSun-8230" x="700"/>
     <use xlink:href="#SimSun-5e97" x="800"/>
    </g>
   </g>
   <g id="text_18">
    <!-- 0.7% -->
    <g transform="translate(287.958901 145.33579)scale(0.1 -0.1)">
     <defs>
      <path id="SimSun-30" d="M 1600 4225 
Q 1250 4225 1012 3687 
Q 775 3150 775 2250 
Q 775 1300 1012 775 
Q 1250 250 1600 250 
Q 1975 250 2187 775 
Q 2400 1300 2400 2250 
Q 2400 3150 2200 3687 
Q 2000 4225 1600 4225 
z
M 1600 50 
Q 1050 50 675 625 
Q 300 1200 300 2250 
Q 300 3225 662 3825 
Q 1025 4425 1600 4425 
Q 2150 4425 2512 3850 
Q 2875 3275 2875 2250 
Q 2875 1225 2512 637 
Q 2150 50 1600 50 
z
" transform="scale(0.015625)"/>
     </defs>
     <use xlink:href="#SimSun-30"/>
     <use xlink:href="#SimSun-2e" x="50"/>
     <use xlink:href="#SimSun-37" x="100"/>
     <use xlink:href="#SimSun-25" x="150"/>
    </g>
   </g>
  </g>
 </g>
</svg>
